<?xml version="1.0" encoding="UTF-8" standalone="no"?>
<!-- Created with Inkscape (http://www.inkscape.org/) -->

<svg
   xmlns:dc="http://purl.org/dc/elements/1.1/"
   xmlns:cc="http://creativecommons.org/ns#"
   xmlns:rdf="http://www.w3.org/1999/02/22-rdf-syntax-ns#"
   xmlns:svg="http://www.w3.org/2000/svg"
   xmlns="http://www.w3.org/2000/svg"
   xmlns:xlink="http://www.w3.org/1999/xlink"
   xmlns:sodipodi="http://sodipodi.sourceforge.net/DTD/sodipodi-0.dtd"
   xmlns:inkscape="http://www.inkscape.org/namespaces/inkscape"
   inkscape:export-ydpi="153.16547"
   inkscape:export-xdpi="153.16547"
   inkscape:export-filename="V:\engine.wohlnet.ru\docs\docs\_files_for_posts\Logo_2\cat_2.png"
   style="enable-background:new"
   sodipodi:docname="cat.svg"
   inkscape:version="0.48.4 r"
   version="1.1"
   id="svg2"
   height="481.48001"
   width="481.48001">
  <defs
     id="defs4">
    <linearGradient
       id="linearGradient5348">
      <stop
         style="stop-color:#e9afaf;stop-opacity:1;"
         offset="0"
         id="stop5350" />
      <stop
         style="stop-color:#e68383;stop-opacity:1;"
         offset="1"
         id="stop5352" />
    </linearGradient>
    <linearGradient
       id="linearGradient4646">
      <stop
         style="stop-color:#5df34c;stop-opacity:1;"
         offset="0"
         id="stop4648" />
      <stop
         style="stop-color:#2c7742;stop-opacity:1;"
         offset="1"
         id="stop4650" />
    </linearGradient>
    <linearGradient
       id="linearGradient4289">
      <stop
         style="stop-color:#e4e4e4;stop-opacity:1;"
         offset="0"
         id="stop4293" />
      <stop
         id="stop4295"
         offset="1"
         style="stop-color:#a7a7a7;stop-opacity:1;" />
    </linearGradient>
    <linearGradient
       id="linearGradient3840">
      <stop
         id="stop3842"
         offset="0"
         style="stop-color:#cccccc;stop-opacity:1;" />
      <stop
         style="stop-color:#cacaca;stop-opacity:1;"
         offset="0.53553259"
         id="stop3844" />
      <stop
         id="stop3846"
         offset="1"
         style="stop-color:#e8e8e8;stop-opacity:1;" />
    </linearGradient>
    <linearGradient
       id="linearGradient3824">
      <stop
         id="stop3826"
         offset="0"
         style="stop-color:#cccccc;stop-opacity:1;" />
      <stop
         style="stop-color:#cacaca;stop-opacity:1;"
         offset="0.54644191"
         id="stop3828" />
      <stop
         id="stop3830"
         offset="1"
         style="stop-color:#e8e8e8;stop-opacity:1;" />
    </linearGradient>
    <linearGradient
       id="linearGradient3806">
      <stop
         style="stop-color:#cccccc;stop-opacity:1;"
         offset="0"
         id="stop3808" />
      <stop
         id="stop3814"
         offset="0.45479324"
         style="stop-color:#cacaca;stop-opacity:1;" />
      <stop
         style="stop-color:#e8e8e8;stop-opacity:1;"
         offset="1"
         id="stop3810" />
    </linearGradient>
    <radialGradient
       inkscape:collect="always"
       xlink:href="#linearGradient3806"
       id="radialGradient3812"
       cx="408.16898"
       cy="414.74994"
       fx="408.16898"
       fy="414.74994"
       r="163.97368"
       gradientTransform="matrix(1.1656155,-0.83645479,0.69784333,0.95844287,-336.0593,321.94406)"
       gradientUnits="userSpaceOnUse" />
    <linearGradient
       inkscape:collect="always"
       xlink:href="#linearGradient3824"
       id="linearGradient3822"
       x1="569.68005"
       y1="464.41238"
       x2="496.28766"
       y2="232.53662"
       gradientUnits="userSpaceOnUse"
       gradientTransform="matrix(0.95929492,-0.28240613,0.28240613,0.95929492,-92.266996,103.14898)" />
    <linearGradient
       inkscape:collect="always"
       xlink:href="#linearGradient3840"
       id="linearGradient3838"
       x1="388.59061"
       y1="423.83304"
       x2="547.70551"
       y2="236.89969"
       gradientUnits="userSpaceOnUse"
       gradientTransform="matrix(-0.99985154,-0.0172302,-0.0172302,0.99985154,1026.151,-60.48972)" />
    <radialGradient
       inkscape:collect="always"
       xlink:href="#linearGradient4289"
       id="radialGradient4297"
       cx="362.80743"
       cy="491.62387"
       fx="362.80743"
       fy="491.62387"
       r="64.794655"
       gradientTransform="matrix(0.99164964,-0.12896102,0.22733768,1.74812,-76.709627,-356.97619)"
       gradientUnits="userSpaceOnUse" />
    <radialGradient
       inkscape:collect="always"
       xlink:href="#linearGradient4289"
       id="radialGradient4305"
       cx="386.84875"
       cy="463.45557"
       fx="386.84875"
       fy="463.45557"
       r="51.384438"
       gradientTransform="matrix(1.3154651,-0.20077286,0.09467894,0.62033706,-125.91063,199.22419)"
       gradientUnits="userSpaceOnUse" />
    <radialGradient
       inkscape:collect="always"
       xlink:href="#linearGradient4289"
       id="radialGradient4313"
       cx="308.4415"
       cy="405.05042"
       fx="308.4415"
       fy="405.05042"
       r="50.082428"
       gradientTransform="matrix(1.3249603,0.57400925,-0.30468139,0.70281776,50.750441,-57.084495)"
       gradientUnits="userSpaceOnUse" />
    <filter
       inkscape:collect="always"
       id="filter3851"
       x="-0.13256182"
       width="1.2651236"
       y="-0.082372614"
       height="1.1647452">
      <feGaussianBlur
         inkscape:collect="always"
         stdDeviation="1.0985178"
         id="feGaussianBlur3853" />
    </filter>
    <filter
       inkscape:collect="always"
       id="filter3855"
       x="-0.13381944"
       width="1.2676389"
       y="-0.081786552"
       height="1.1635731">
      <feGaussianBlur
         inkscape:collect="always"
         stdDeviation="1.0985178"
         id="feGaussianBlur3857" />
    </filter>
    <filter
       inkscape:collect="always"
       id="filter4155">
      <feGaussianBlur
         inkscape:collect="always"
         stdDeviation="0.42228984"
         id="feGaussianBlur4157" />
    </filter>
    <filter
       inkscape:collect="always"
       id="filter4167">
      <feGaussianBlur
         inkscape:collect="always"
         stdDeviation="0.42228984"
         id="feGaussianBlur4169" />
    </filter>
    <filter
       inkscape:collect="always"
       id="filter4171">
      <feGaussianBlur
         inkscape:collect="always"
         stdDeviation="0.42228984"
         id="feGaussianBlur4173" />
    </filter>
    <filter
       inkscape:collect="always"
       id="filter4175">
      <feGaussianBlur
         inkscape:collect="always"
         stdDeviation="0.42228984"
         id="feGaussianBlur4177" />
    </filter>
    <filter
       inkscape:collect="always"
       id="filter4179">
      <feGaussianBlur
         inkscape:collect="always"
         stdDeviation="0.42228984"
         id="feGaussianBlur4181" />
    </filter>
    <filter
       inkscape:collect="always"
       id="filter4183">
      <feGaussianBlur
         inkscape:collect="always"
         stdDeviation="0.42228984"
         id="feGaussianBlur4185" />
    </filter>
    <filter
       inkscape:collect="always"
       id="filter4187">
      <feGaussianBlur
         inkscape:collect="always"
         stdDeviation="0.42228984"
         id="feGaussianBlur4189" />
    </filter>
    <filter
       inkscape:collect="always"
       id="filter4191">
      <feGaussianBlur
         inkscape:collect="always"
         stdDeviation="0.42228984"
         id="feGaussianBlur4193" />
    </filter>
    <filter
       inkscape:collect="always"
       id="filter4195">
      <feGaussianBlur
         inkscape:collect="always"
         stdDeviation="0.42228984"
         id="feGaussianBlur4197" />
    </filter>
    <filter
       inkscape:collect="always"
       id="filter4199">
      <feGaussianBlur
         inkscape:collect="always"
         stdDeviation="0.42228984"
         id="feGaussianBlur4201" />
    </filter>
    <filter
       inkscape:collect="always"
       id="filter4203">
      <feGaussianBlur
         inkscape:collect="always"
         stdDeviation="0.42228984"
         id="feGaussianBlur4205" />
    </filter>
    <filter
       inkscape:collect="always"
       id="filter4207">
      <feGaussianBlur
         inkscape:collect="always"
         stdDeviation="0.42228984"
         id="feGaussianBlur4209" />
    </filter>
    <filter
       inkscape:collect="always"
       id="filter4211">
      <feGaussianBlur
         inkscape:collect="always"
         stdDeviation="0.42228984"
         id="feGaussianBlur4213" />
    </filter>
    <filter
       inkscape:collect="always"
       id="filter4215">
      <feGaussianBlur
         inkscape:collect="always"
         stdDeviation="0.42228984"
         id="feGaussianBlur4217" />
    </filter>
    <filter
       inkscape:collect="always"
       id="filter4219">
      <feGaussianBlur
         inkscape:collect="always"
         stdDeviation="0.42228984"
         id="feGaussianBlur4221" />
    </filter>
    <filter
       inkscape:collect="always"
       id="filter4223">
      <feGaussianBlur
         inkscape:collect="always"
         stdDeviation="0.42228984"
         id="feGaussianBlur4225" />
    </filter>
    <filter
       inkscape:collect="always"
       id="filter4227">
      <feGaussianBlur
         inkscape:collect="always"
         stdDeviation="0.42228984"
         id="feGaussianBlur4229" />
    </filter>
    <filter
       inkscape:collect="always"
       id="filter4231">
      <feGaussianBlur
         inkscape:collect="always"
         stdDeviation="0.42228984"
         id="feGaussianBlur4233" />
    </filter>
    <filter
       inkscape:collect="always"
       id="filter4359">
      <feGaussianBlur
         inkscape:collect="always"
         stdDeviation="3.5607108"
         id="feGaussianBlur4361" />
    </filter>
    <filter
       inkscape:collect="always"
       id="filter4363"
       x="-0.11026929"
       width="1.2205386"
       y="-0.083265932"
       height="1.1665319">
      <feGaussianBlur
         inkscape:collect="always"
         stdDeviation="3.5607108"
         id="feGaussianBlur4365" />
    </filter>
    <filter
       inkscape:collect="always"
       id="filter4383">
      <feGaussianBlur
         inkscape:collect="always"
         stdDeviation="1.354151"
         id="feGaussianBlur4385" />
    </filter>
    <filter
       inkscape:collect="always"
       id="filter4387">
      <feGaussianBlur
         inkscape:collect="always"
         stdDeviation="1.354151"
         id="feGaussianBlur4389" />
    </filter>
    <filter
       inkscape:collect="always"
       id="filter4431"
       x="-0.059094836"
       width="1.1181897"
       y="-0.14518905"
       height="1.2903781">
      <feGaussianBlur
         inkscape:collect="always"
         stdDeviation="2.6768101"
         id="feGaussianBlur4433" />
    </filter>
    <filter
       inkscape:collect="always"
       id="filter4451">
      <feGaussianBlur
         inkscape:collect="always"
         stdDeviation="1.0006137"
         id="feGaussianBlur4453" />
    </filter>
    <filter
       inkscape:collect="always"
       id="filter4479">
      <feGaussianBlur
         inkscape:collect="always"
         stdDeviation="0.18948493"
         id="feGaussianBlur4481" />
    </filter>
    <filter
       inkscape:collect="always"
       id="filter4507"
       x="-0.60123678"
       width="2.2024736"
       y="-0.066651433"
       height="1.1333029">
      <feGaussianBlur
         inkscape:collect="always"
         stdDeviation="0.42038225"
         id="feGaussianBlur4509" />
    </filter>
    <filter
       inkscape:collect="always"
       id="filter4535">
      <feGaussianBlur
         inkscape:collect="always"
         stdDeviation="0.77969434"
         id="feGaussianBlur4537" />
    </filter>
    <filter
       inkscape:collect="always"
       id="filter4559">
      <feGaussianBlur
         inkscape:collect="always"
         stdDeviation="1.2574403"
         id="feGaussianBlur4561" />
    </filter>
    <filter
       inkscape:collect="always"
       id="filter4587">
      <feGaussianBlur
         inkscape:collect="always"
         stdDeviation="2.3340184"
         id="feGaussianBlur4589" />
    </filter>
    <filter
       inkscape:collect="always"
       id="filter4595">
      <feGaussianBlur
         inkscape:collect="always"
         stdDeviation="2.0166061"
         id="feGaussianBlur4597" />
    </filter>
    <filter
       inkscape:collect="always"
       id="filter4615">
      <feGaussianBlur
         inkscape:collect="always"
         stdDeviation="0.56266501"
         id="feGaussianBlur4617" />
    </filter>
    <filter
       inkscape:collect="always"
       id="filter4623">
      <feGaussianBlur
         inkscape:collect="always"
         stdDeviation="0.52974087"
         id="feGaussianBlur4625" />
    </filter>
    <filter
       inkscape:collect="always"
       id="filter4638">
      <feGaussianBlur
         inkscape:collect="always"
         stdDeviation="0.50738845"
         id="feGaussianBlur4640" />
    </filter>
    <filter
       inkscape:collect="always"
       id="filter4642">
      <feGaussianBlur
         inkscape:collect="always"
         stdDeviation="0.50738845"
         id="feGaussianBlur4644" />
    </filter>
    <radialGradient
       inkscape:collect="always"
       xlink:href="#linearGradient4646"
       id="radialGradient4652"
       cx="314.38101"
       cy="363.16977"
       fx="314.38101"
       fy="363.16977"
       r="33.80163"
       gradientTransform="matrix(0.72319006,0.11096594,-0.22617619,1.5519849,170.1403,-240.44314)"
       gradientUnits="userSpaceOnUse" />
    <radialGradient
       inkscape:collect="always"
       xlink:href="#linearGradient4646"
       id="radialGradient4654"
       cx="316.2128"
       cy="366.43744"
       fx="316.2128"
       fy="366.43744"
       r="38.829106"
       gradientTransform="matrix(0.70067689,-0.51564486,0.7065819,1.4069066,-164.90609,3.3091763)"
       gradientUnits="userSpaceOnUse" />
    <filter
       inkscape:collect="always"
       id="filter4672">
      <feGaussianBlur
         inkscape:collect="always"
         stdDeviation="0.91175643"
         id="feGaussianBlur4674" />
    </filter>
    <filter
       inkscape:collect="always"
       id="filter4708"
       x="-0.19937603"
       width="1.3987521"
       y="-0.2164167"
       height="1.4328334">
      <feGaussianBlur
         inkscape:collect="always"
         stdDeviation="5.3287135"
         id="feGaussianBlur4710" />
    </filter>
    <filter
       color-interpolation-filters="sRGB"
       inkscape:collect="always"
       id="filter4708-7"
       x="-0.19937603"
       width="1.3987521"
       y="-0.2164167"
       height="1.4328334">
      <feGaussianBlur
         inkscape:collect="always"
         stdDeviation="5.3287135"
         id="feGaussianBlur4710-3" />
    </filter>
    <filter
       inkscape:collect="always"
       id="filter4759"
       x="-0.1160006"
       width="1.2320012"
       y="-0.12591517"
       height="1.2518303">
      <feGaussianBlur
         inkscape:collect="always"
         stdDeviation="3.1003424"
         id="feGaussianBlur4761" />
    </filter>
    <filter
       color-interpolation-filters="sRGB"
       inkscape:collect="always"
       id="filter4759-7"
       x="-0.1160006"
       width="1.2320012"
       y="-0.12591517"
       height="1.2518303">
      <feGaussianBlur
         inkscape:collect="always"
         stdDeviation="3.1003424"
         id="feGaussianBlur4761-3" />
    </filter>
    <filter
       color-interpolation-filters="sRGB"
       inkscape:collect="always"
       id="filter4759-7-2"
       x="-0.1160006"
       width="1.2320012"
       y="-0.12591517"
       height="1.2518303">
      <feGaussianBlur
         inkscape:collect="always"
         stdDeviation="3.1003424"
         id="feGaussianBlur4761-3-8" />
    </filter>
    <filter
       inkscape:collect="always"
       id="filter4811">
      <feGaussianBlur
         inkscape:collect="always"
         stdDeviation="2.9022739"
         id="feGaussianBlur4813" />
    </filter>
    <filter
       inkscape:collect="always"
       id="filter5344">
      <feGaussianBlur
         inkscape:collect="always"
         stdDeviation="0.18948493"
         id="feGaussianBlur5346" />
    </filter>
    <radialGradient
       inkscape:collect="always"
       xlink:href="#linearGradient5348"
       id="radialGradient5356"
       cx="382.05649"
       cy="391.29926"
       fx="382.05649"
       fy="391.29926"
       r="23.820194"
       gradientTransform="matrix(0.81820264,0.09123905,-0.21701962,1.9461627,154.07299,-405.75315)"
       gradientUnits="userSpaceOnUse" />
    <filter
       inkscape:collect="always"
       id="filter5412"
       x="-0.093765524"
       width="1.187531"
       y="-0.22288521"
       height="1.4457704">
      <feGaussianBlur
         inkscape:collect="always"
         stdDeviation="1.4306287"
         id="feGaussianBlur5414" />
    </filter>
  </defs>
  <sodipodi:namedview
     id="base"
     pagecolor="#ffffff"
     bordercolor="#666666"
     borderopacity="1.0"
     inkscape:pageopacity="0.0"
     inkscape:pageshadow="2"
     inkscape:zoom="1.4"
     inkscape:cx="251.02748"
     inkscape:cy="210.74129"
     inkscape:document-units="px"
     inkscape:current-layer="layer4"
     showgrid="false"
     inkscape:window-width="1280"
     inkscape:window-height="972"
     inkscape:window-x="-8"
     inkscape:window-y="-8"
     inkscape:window-maximized="1"
     showguides="true"
     inkscape:guide-bbox="true"
     fit-margin-top="5"
     fit-margin-right="5"
     fit-margin-bottom="5"
     fit-margin-left="5"
     inkscape:snap-center="true"
     inkscape:snap-nodes="false" />
  <metadata
     id="metadata7">
    <rdf:RDF>
      <cc:Work
         rdf:about="">
        <dc:format>image/svg+xml</dc:format>
        <dc:type
           rdf:resource="http://purl.org/dc/dcmitype/StillImage" />
        <dc:title></dc:title>
      </cc:Work>
    </rdf:RDF>
  </metadata>
  <g
     inkscape:groupmode="layer"
     id="layer9"
     inkscape:label="Фон"
     style="display:none"
     sodipodi:insensitive="true">
    <rect
       style="fill:#000000;fill-opacity:1;fill-rule:nonzero;stroke:none"
       id="rect4628"
       width="495"
       height="492.85715"
       x="-8.5714283"
       y="-5.6628466" />
  </g>
  <g
     inkscape:groupmode="layer"
     id="layer3"
     inkscape:label="Голова"
     style="display:inline"
     transform="translate(-138.78571,-77.096474)">
    <path
       style="fill:url(#radialGradient3812);fill-opacity:1;fill-rule:nonzero;stroke:none;filter:url(#filter4811)"
       d="m 250.85498,257.01019 c 32.76684,-39.774 86.83546,-65.12142 136.67012,-63.20881 50.32267,1.93135 107.16218,28.70174 134.14358,74.27275 23.10454,39.02313 25.88444,97.27387 -3.75136,138.04378 -31.61939,43.49871 -92.52105,60.49234 -144.11285,59.12587 -39.65748,-1.05035 -81.23121,-21.05857 -109.27584,-51.277 -19.99221,-21.54183 -31.78451,-53.37307 -33.55935,-83.54441 -1.49967,-25.494 4.16277,-54.32695 19.8857,-73.41218 z"
       id="path3032"
       inkscape:connector-curvature="0"
       sodipodi:nodetypes="aassaaaa" />
    <path
       sodipodi:type="arc"
       style="fill:#f2f2f2;fill-opacity:1;fill-rule:nonzero;stroke:none;filter:url(#filter4759-7);enable-background:new"
       id="path4678"
       sodipodi:cx="68.942909"
       sodipodi:cy="234.75026"
       sodipodi:rx="32.209763"
       sodipodi:ry="25.434561"
       d="m 101.15267,234.75026 a 32.209763,25.434561 0 1 1 0,-0.005 l -32.209761,0.005 z"
       transform="translate(251.41772,76.086317)"
       sodipodi:start="0"
       sodipodi:end="6.2830078" />
    <path
       sodipodi:type="arc"
       style="fill:#f2f2f2;fill-opacity:1;fill-rule:nonzero;stroke:none;display:inline;filter:url(#filter4759-7-2);enable-background:new"
       id="path4678-6"
       sodipodi:cx="68.942909"
       sodipodi:cy="234.75026"
       sodipodi:rx="33.638332"
       sodipodi:ry="28.291706"
       d="m 102.58124,234.75026 a 33.638332,28.291706 0 1 1 0,-0.005 l -33.638331,0.005 z"
       transform="translate(386.04086,89.470835)"
       sodipodi:start="0"
       sodipodi:end="6.2830078" />
  </g>
  <g
     inkscape:groupmode="layer"
     id="layer2"
     inkscape:label="Ухо 2"
     transform="translate(-138.78571,-77.096474)"
     style="display:inline">
    <path
       style="fill:url(#linearGradient3822);fill-opacity:1;fill-rule:nonzero;stroke:none;filter:url(#filter4383)"
       d="m 447.23254,211.75718 c 0,0 46.16401,-56.1067 77.68824,-72.01472 8.7414,-4.41116 20.19065,-10.01509 28.86099,-5.46587 8.05353,4.22559 10.36068,15.87567 11.05624,24.94381 1.98319,25.85517 -15.70778,49.57603 -20.30834,75.09578 -5.25994,29.17735 -9.65705,72.45417 -8.22462,88.56193 z"
       id="path2987"
       inkscape:connector-curvature="0"
       sodipodi:nodetypes="caaaacc" />
    <path
       style="fill:none;stroke:none;display:inline;"
       d="m 447.19215,208.10465 c 21.61737,-21.21772 40.49438,-42.28864 64.08588,-59.35306 6.53539,-4.72724 13.31174,-9.90924 21.17301,-11.71434 9.20208,-2.11298 21.10962,-4.61134 28.28347,1.52699 6.99466,5.98497 6.09862,17.81643 5.73552,27.01498 -1.17347,29.7283 -20.30316,56.25711 -25.36046,85.57559 -4.20597,24.3832 -8.9923,45.32669 -3.97105,74.12355"
       id="path3969-0"
       inkscape:connector-curvature="0"
       sodipodi:nodetypes="caaaaac" />
    <path
       style="fill:#ffd5d5;fill-opacity:1;stroke:none;display:inline;filter:url(#filter4587)"
       d="m 520.75697,277.15045 c 0,0 -14.32185,-26.36797 -24.69725,-36.938 -9.6355,-9.81625 -33.87172,-23.56952 -33.87172,-23.56952 0,0 44.98699,-56.65732 76.30756,-72.43828 4.26703,-2.14995 9.80887,-4.54758 14.11757,-2.48241 3.85987,1.85004 5.2607,7.0729 6.1882,11.25153 1.47508,6.64561 -0.0744,13.69019 -1.34666,20.3776 -1.84968,9.72268 -6.04812,18.8475 -9.05769,28.27588 -5.3818,16.86012 -9.67916,34.10193 -16.09356,50.59687 -3.31875,8.53434 -11.54645,24.92633 -11.54645,24.92633 z"
       id="path4021-7"
       inkscape:connector-curvature="0"
       sodipodi:nodetypes="cacaaaaaac" />
    <path
       style="fill:url(#linearGradient3838);fill-opacity:1;stroke:none;display:inline;filter:url(#filter4359)"
       d="m 538.83328,154.14791 c 4.71666,0.34007 12.53073,6.65164 12.53073,6.65164 0,0 -7.28787,-10.99646 -13.08583,-11.60229 -19.29398,-2.01608 -35.45577,16.63309 -50.58676,28.77291 -12.20807,9.79472 -31.50981,34.81226 -31.50981,34.81226 0,0 11.25133,10.26335 16.95476,15.30799 3.52081,3.11414 2.07305,2.08213 10.65734,9.23396 2.42485,-1.21016 6.40641,-6.32969 10.47143,-7.98732 5.57519,-2.27346 12.09744,-3.71864 17.92676,-2.21188 7.13322,1.84379 17.87739,12.99769 17.87739,12.99769 0,0 -2.5849,-13.45375 -6.58918,-18.71908 -2.36255,-3.10662 -5.88553,-5.51277 -9.6045,-6.69685 -4.14248,-1.31893 -8.70856,-0.44984 -13.04177,-0.0991 -5.69969,0.46136 -16.9102,2.88767 -16.9102,2.88767 0,0 6.13897,-3.54127 9.34043,-5.05092 3.39225,-1.5996 6.72861,-3.59962 10.42553,-4.23116 5.03926,-0.86086 10.52931,-1.0625 15.31971,0.72274 6.00312,2.23714 15.10849,11.87908 15.10849,11.87908 0,0 -3.01002,-15.0876 -8.63709,-19.364 -4.0647,-3.08905 -10.05267,-2.59348 -15.14742,-2.26545 -5.26795,0.33917 -15.23266,4.33164 -15.23266,4.33164 0,0 11.61341,-9.23911 18.5035,-11.57454 3.02261,-1.02453 6.39974,-1.51813 9.53175,-0.90459 2.77987,0.54455 5.35961,2.11748 7.53187,3.93559 3.11561,2.60764 7.45906,9.6397 7.45906,9.6397 0,0 -1.46264,-12.92494 -5.6809,-17.28064 -3.21297,-3.31767 -8.4022,-4.5602 -13.01688,-4.74673 -4.92057,-0.19847 -14.2429,3.92455 -14.2429,3.92455 0,0 7.15097,-6.80125 11.67793,-8.35619 5.64516,-1.93903 12.06342,-2.01436 17.8919,-0.72737 4.4369,0.97972 12.12047,6.23752 12.12047,6.23752 0,0 -4.68979,-11.65434 -9.83044,-14.31544 -6.07435,-3.14445 -20.51801,0.28114 -20.51801,0.28114 0,0 9.33874,-4.53679 14.39681,-4.95953 3.13072,-0.26164 6.27977,0.67236 9.29692,1.54798 3.0214,0.87685 8.69349,3.67469 8.69349,3.67469 0,0 -6.83946,-10.41283 -12.33942,-12.21392 -4.15489,-1.3606 -12.97385,1.92572 -12.97385,1.92572 0,0 9.85212,-5.84528 15.23134,-5.45744 z"
       id="path3033-6"
       inkscape:connector-curvature="0"
       sodipodi:nodetypes="acaacacaacaaacaaacaacaaacaacaacacaacaca" />
  </g>
  <g
     inkscape:label="Ухо 1"
     inkscape:groupmode="layer"
     id="layer1"
     style="display:inline"
     transform="translate(-138.78571,-77.096474)">
    <path
       style="fill:#e8e8e8;fill-opacity:1;stroke:none;filter:url(#filter4387)"
       d="m 238.79224,282.55671 c 1.02242,-13.7687 6.0109,-26.01843 6.57082,-37.25198 1.83029,-36.72131 -11.91361,-56.80969 -9.60564,-85.34419 1.2054,-14.90288 0.49499,-33.77903 12.1152,-43.18751 3.75897,-3.04351 10.02968,-2.82029 14.4802,-0.92673 35.63502,15.16153 75.05319,88.68232 75.05319,88.68232 z"
       id="path2985"
       inkscape:connector-curvature="0"
       sodipodi:nodetypes="csaaacc" />
    <path
       style="fill:none;stroke:none;display:inline;"
       d="m 337.49869,203.96108 c 0,0 -41.49542,-80.05756 -80.49156,-90.67342 -4.60083,-1.25247 -10.33774,0.93845 -13.60874,4.40789 -7.2301,7.66872 -6.90104,20.11477 -7.95659,30.6014 -1.73613,17.24814 1.05909,34.68252 2.79336,51.93084 1.44684,14.38968 6.13944,28.45996 6.34129,42.92078 0.0818,5.86213 -1.4114,14.76159 -2.08399,17.46418 -0.61496,2.47108 -7.67155,24.01529 -7.67155,24.01529"
       id="path3969"
       inkscape:connector-curvature="0"
       sodipodi:nodetypes="caaaaasc" />
    <path
       style="fill:#ffd5d5;fill-opacity:1;stroke:none;filter:url(#filter4595)"
       d="m 262.96159,246.27085 c 0,0 20.73122,-13.76906 31.43995,-20.09541 7.64351,-4.51552 23.39206,-12.73302 23.39206,-12.73302 0,0 -18.02031,-50.21997 -34.48602,-70.57985 -6.37413,-7.88161 -14.71456,-14.53875 -23.92603,-18.76939 -3.00586,-1.38051 -6.85195,-3.55566 -9.73339,-1.93138 -7.19361,4.05507 -7.16197,15.12998 -8.45527,23.2859 -2.03317,12.82165 -0.42824,26.05909 1.31517,38.92334 2.38167,17.57383 4.67228,35.78104 12.42067,51.73329 1.88702,3.88497 8.03286,10.16652 8.03286,10.16652 z"
       id="path4021"
       inkscape:connector-curvature="0"
       sodipodi:nodetypes="cacaaaaaac" />
    <path
       style="fill:#e9e8e8;fill-opacity:1;stroke:none;filter:url(#filter4363)"
       d="m 262.96942,127.00951 c -3.78235,-2.19635 -12.48493,-4.03695 -12.48493,-4.03695 0,0 15.66363,1.03712 21.86277,5.24915 23.21757,15.77531 34.98582,44.24793 48.43557,68.88571 2.67871,4.90694 6.32285,15.53394 6.32285,15.53394 0,0 -10.79357,3.83121 -15.89438,6.40116 -3.73357,1.88109 -0.95913,1.06846 -10.68872,6.56152 -2.16796,-1.62615 -3.66867,-5.69031 -6.37167,-7.58847 -3.84349,-2.69903 -8.73943,-3.46775 -13.22506,-4.85922 -5.8553,-1.81635 -17.82231,-4.54074 -17.82231,-4.54074 0,0 7.36916,-5.30044 11.64843,-6.52019 3.49235,-0.99544 7.25411,-0.619 10.88327,-0.49059 4.04904,0.14323 8.14738,0.40295 12.07328,1.40421 3.38429,0.86309 9.71625,3.92169 9.71625,3.92169 0,0 -5.44932,-4.52316 -8.28091,-6.64693 -2.97883,-2.23424 -5.75961,-4.87003 -9.15187,-6.40556 -5.39634,-2.44269 -11.38427,-3.49085 -17.26333,-4.21458 -5.32003,-0.65491 -16.08029,-0.0888 -16.08029,-0.0888 0,0 12.40217,-5.68038 19.06755,-6.44768 4.31115,-0.49628 8.81269,-0.0256 12.95781,1.25897 4.64694,1.4401 12.77889,7.05065 12.77889,7.05065 0,0 -5.49014,-8.45621 -9.35222,-11.56473 -2.04538,-1.64627 -4.6296,-2.49261 -7.04179,-3.52954 -4.01039,-1.72399 -8.04808,-3.53038 -12.31366,-4.45797 -7.50553,-1.63211 -22.96744,-1.86196 -22.96744,-1.86196 0,0 16.03042,-8.36038 24.65297,-7.93631 3.53627,0.17385 6.64169,2.52227 9.74246,4.23123 3.4257,1.88803 9.70016,6.60356 9.70016,6.60356 0,0 -5.22604,-6.41851 -8.41681,-9.00832 -4.42701,-3.59323 -9.42416,-6.53923 -14.63344,-8.85723 -6.58366,-2.92957 -20.69646,-6.24486 -20.69646,-6.24486 0,0 14.03135,-1.41251 20.82323,0.019 5.54675,1.16904 15.56554,6.8493 15.56554,6.8493 0,0 -7.93627,-7.37071 -12.3782,-10.43573 -2.69256,-1.8579 -5.63639,-3.33636 -8.57696,-4.76984 -5.18877,-2.52941 -15.95283,-6.73783 -15.95283,-6.73783 0,0 11.41811,-0.66481 16.86371,0.75173 3.75962,0.97794 10.41982,5.21991 10.41982,5.21991 0,0 -8.48985,-9.54366 -13.92128,-12.69763 z"
       id="path3033"
       inkscape:connector-curvature="0"
       sodipodi:nodetypes="acaacacaacaaacaaacaacaaacaacaacacaacaca" />
  </g>
  <g
     inkscape:groupmode="layer"
     id="layer4"
     inkscape:label="Морда"
     transform="translate(-138.78571,-77.096474)"
     style="display:inline">
    <path
       style="fill:none;stroke:#1a1a1a;stroke-width:4;stroke-linecap:butt;stroke-linejoin:miter;stroke-miterlimit:4;stroke-opacity:1;stroke-dasharray:none;filter:url(#filter4535)"
       d="m 342.10245,320.56213 c 0,0 3.6541,7.19946 5.18471,10.93022 3.28337,8.00302 6.29818,16.15004 8.54994,24.50218 2.22674,8.25948 4.51982,17.1534 4.87045,25.19672 0.0434,0.99545 0.8432,-0.57062 2.41284,-1.33857 3.30602,-1.61749 29.58921,1.89263 38.32398,2.98256 2.36265,0.29482 2.39503,2.46403 2.57705,2.08812 2.84669,-5.87919 8.21362,-19.14439 12.56409,-28.60707 1.63739,-3.56148 3.33818,-7.09437 5.09414,-10.5989 3.85937,-7.70259 11.95682,-22.91409 11.95682,-22.91409"
       id="path3035"
       inkscape:connector-curvature="0"
       sodipodi:nodetypes="caassssaac" />
    <path
       style="fill:url(#radialGradient4297);fill-opacity:1;stroke:none;filter:url(#filter4451)"
       d="m 336.78605,458.87142 c 5.51206,7.63617 14.71511,12.81751 23.8337,15.17238 10.60447,2.73859 22.56867,1.9035 32.79516,-2.01744 7.60758,-2.91683 14.05046,-8.83695 19.14652,-15.19413 12.4628,-15.54694 26.08005,-53.78745 26.08005,-53.78745 0,0 -101.45691,-9.6229 -118.23954,-9.27227 0.82658,13.02476 3.28758,46.95556 16.38411,65.09891 z"
       id="path3043"
       inkscape:connector-curvature="0"
       sodipodi:nodetypes="aaaacca" />
    <path
       style="fill:#ff5555;fill-opacity:1;stroke:none;filter:url(#filter4431);opacity:0.41401274"
       d="m 343.60473,441.59281 c 12.08353,0.4471 27.66057,-10.62545 33.55811,-13.7753 4.46706,5.26265 20.60039,17.9349 33.0075,17.30589 7.87919,-0.39946 17.84694,-5.3956 19.74257,-13.05378 1.54747,-6.25163 -9.28468,-16.94378 -9.28468,-16.94378 l -78.79747,-14.22798 c 0,0 -23.22895,18.11913 -20.20794,29.70848 2.06624,7.92662 13.796,10.68359 21.98191,10.98647 z"
       id="path4399"
       inkscape:connector-curvature="0"
       sodipodi:nodetypes="acaaccaa" />
    <path
       style="fill:url(#radialGradient4305);fill-opacity:1;stroke:none;filter:url(#filter4642)"
       d="m 376.272,407.68465 c 0.41217,9.35234 4.81703,18.82476 11.02931,25.82788 3.23035,3.6416 7.92951,6.10939 12.65058,7.29595 10.61547,2.66798 22.225,1.73592 32.82135,-1.007 7.37131,-1.90809 14.33134,-5.74316 20.30435,-10.46548 5.42736,-4.29092 10.93927,-9.33418 13.50956,-15.7577 3.11157,-7.77628 5.43082,-17.79555 1.31894,-25.09245 -4.34691,-7.71397 -14.73914,-10.76851 -23.41303,-12.54749 -11.23926,-2.30512 -23.19794,0.0648 -34.28828,3.00396 -10.24203,2.71434 -28.8833,13.27244 -28.8833,13.27244 0,0 -5.2883,10.05076 -5.04948,15.46989 z"
       id="path3041"
       inkscape:connector-curvature="0"
       sodipodi:nodetypes="aaaaaaaaaca" />
    <path
       style="fill:url(#radialGradient4313);fill-opacity:1;stroke:none;filter:url(#filter4638)"
       d="m 384.54546,403.0681 c -0.67965,5.72539 -4.15559,10.82905 -7.19006,15.73147 -2.21702,3.58181 -4.54805,7.30952 -7.94426,9.82794 -7.1874,5.32974 -15.99834,9.1839 -24.9335,10.15741 -8.89279,0.96891 -18.08419,-1.37184 -26.43103,-4.52579 -8.02638,-3.03284 -17.04963,-6.47307 -21.8389,-13.50383 -5.97424,-8.77031 -8.80986,-21.17098 -5.50975,-31.23585 2.4598,-7.50219 9.74756,-13.58946 17.16631,-16.54698 13.27234,-5.29111 29.26737,-3.93262 42.92452,0.24776 12.37107,3.78675 32.13302,21.51305 32.13302,21.51305 0,0 1.95731,5.52406 1.62365,8.33482 z"
       id="path3039"
       inkscape:connector-curvature="0"
       sodipodi:nodetypes="aaaaaaaaaca" />
    <path
       style="fill:#1a1a1a;stroke:none;filter:url(#filter5412)"
       d="m 226.27417,308.74393 8.08122,15.65736 14.14213,1.01016 13.38453,-14.14214 z"
       id="path5358"
       inkscape:connector-curvature="0"
       transform="translate(138.78571,77.096474)"
       sodipodi:nodetypes="ccccc" />
    <path
       style="fill:url(#radialGradient5356);fill-opacity:1;stroke:#000000;stroke-width:3;stroke-linecap:butt;stroke-linejoin:miter;stroke-miterlimit:4;stroke-opacity:1;stroke-dasharray:none;filter:url(#filter5344)"
       d="m 361.76766,379.81777 c -1.60294,3.23788 1.33624,8.13079 4.51093,9.85553 0.87963,0.47789 1.97046,-0.41036 2.97116,-0.43756 0.97541,-0.0265 2.3302,-0.51262 2.91499,0.2685 1.31235,1.753 -1.67177,4.29501 -1.26441,6.44659 0.99772,5.26979 3.309,13.12523 8.65439,13.56456 5.26513,0.43273 8.60895,-6.89303 10.59153,-11.78979 0.92281,-2.27924 -1.56257,-5.73947 0.27654,-7.37171 0.66124,-0.58686 1.79137,-0.0195 2.64352,0.21606 1.38853,0.38391 2.47064,2.22503 3.87658,1.91073 4.13413,-0.92423 9.12627,-5.87663 7.92131,-9.93783 -0.94911,-3.19896 -6.19455,-2.69551 -9.4991,-3.15829 -4.19525,-0.58752 -8.47648,0.90707 -12.69697,0.54264 -3.69635,-0.31916 -7.16404,-2.38775 -10.87411,-2.37437 -3.42616,0.0123 -8.50579,-0.80556 -10.02588,2.26496 z"
       id="path3037"
       inkscape:connector-curvature="0"
       sodipodi:nodetypes="caaaaaaaaaaaaaac" />
    <path
       style="fill:none;stroke:#4d4d4d;stroke-width:1.39999998000000000;stroke-linecap:round;stroke-linejoin:miter;stroke-miterlimit:4;stroke-opacity:1;stroke-dasharray:none;filter:url(#filter4507);opacity:0.44904459"
       d="m 379.36606,408.63984 1.67807,-15.13722"
       id="path4767"
       inkscape:connector-curvature="0" />
  </g>
  <g
     inkscape:groupmode="layer"
     id="layer6"
     inkscape:label="Глаза"
     transform="translate(-138.78571,-77.096474)">
    <path
       style="fill:#000000;stroke:#000000;stroke-width:0.88073206000000004px;stroke-linecap:butt;stroke-linejoin:miter;stroke-opacity:1;filter:url(#filter4615)"
       d="m 426.5259,323.18612 c 2.49135,-6.36839 5.70037,-13.1021 11.16849,-17.2085 6.01464,-4.51682 14.08416,-6.73602 21.60287,-6.52024 6.04665,0.17352 11.9453,2.97638 17.044,6.23143 3.66283,2.33838 7.6293,5.17636 9.21421,9.22263 1.50872,3.85176 0.49624,8.37994 -0.47497,12.40102 -0.7991,3.30838 -2.16462,6.6139 -4.30941,9.25659 -3.59918,4.43472 -8.38043,8.22768 -13.71299,10.27333 -5.57916,2.14024 -11.90401,2.14859 -17.8548,1.60469 -4.44799,-0.40654 -8.66701,-2.19525 -12.90722,-3.59896 -2.83467,-0.9384 -5.37543,-3.12309 -8.35988,-3.21807 -1.68968,-0.0539 1.30058,-0.36881 -4.83934,1.51728 0,0 0.96946,-13.674 3.42907,-19.9612 z"
       id="path3081"
       inkscape:connector-curvature="0"
       sodipodi:nodetypes="caaaaaaaaaacac" />
    <path
       style="fill:#000000;stroke:#000000;stroke-width:0.84759264999999984px;stroke-linecap:butt;stroke-linejoin:miter;stroke-opacity:1;filter:url(#filter4623)"
       d="m 344.26149,302.50379 c -2.68363,-5.2708 -7.50777,-9.56352 -12.70528,-12.38651 -5.33166,-2.89584 -11.69143,-4.26637 -17.75356,-4.01534 -3.44436,0.14264 -6.70034,1.73815 -9.86396,3.1076 -1.70705,0.73894 -3.16129,1.98705 -4.86523,2.73315 -1.97362,0.86418 -2.98847,1.25298 -6.14836,1.99391 1.08485,1.53188 1.10979,3.17516 1.28029,4.83298 0.33457,3.253 -1.20225,6.596 -0.52937,9.79619 1.34782,6.4101 4.14469,13.00034 8.87291,17.53355 5.70725,5.47186 13.77759,8.63335 21.59616,9.8098 4.11824,0.61967 8.34555,-0.6063 12.39211,-1.59084 2.19898,-0.53502 4.11559,-2.35107 6.37858,-2.32586 2.12917,0.0237 5.95114,2.32145 5.95114,2.32145 0,0 0.25575,-22.26246 -4.60543,-31.81008 z"
       id="path3101"
       inkscape:connector-curvature="0"
       sodipodi:nodetypes="aaaaacaaaaaaca" />
  </g>
  <g
     inkscape:groupmode="layer"
     id="layer7"
     inkscape:label="Зрачки"
     transform="translate(-138.78571,-77.096474)">
    <path
       sodipodi:type="arc"
       style="fill:url(#radialGradient4654);fill-opacity:1;stroke:#4d4d4d;stroke-width:2.96702493000000000;stroke-linecap:square;stroke-linejoin:round;stroke-miterlimit:4;stroke-opacity:1;stroke-dasharray:none;filter:url(#filter4559)"
       id="path3150"
       sodipodi:cx="315.35715"
       sodipodi:cy="358.07648"
       sodipodi:rx="35.13866"
       sodipodi:ry="32.857143"
       d="m 350.49581,358.07648 c 0,18.1465 -15.73212,32.85714 -35.13866,32.85714 -19.40655,0 -35.13866,-14.71064 -35.13866,-32.85714 0,-18.1465 15.73211,-32.85715 35.13866,-32.85715 19.40654,0 35.13866,14.71065 35.13866,32.85715 z"
       transform="matrix(0.58299548,0.44147862,-0.38776819,0.48574468,276.08575,-1.5024349)" />
    <path
       sodipodi:type="arc"
       style="fill:url(#radialGradient4652);fill-opacity:1;stroke:#4d4d4d;stroke-width:2.42579638000000000;stroke-linecap:square;stroke-linejoin:round;stroke-miterlimit:4;stroke-opacity:1;stroke-dasharray:none;filter:url(#filter4672)"
       id="path3150-5"
       sodipodi:cx="315.35715"
       sodipodi:cy="358.07648"
       sodipodi:rx="30.517548"
       sodipodi:ry="27.405128"
       d="m 345.85789,357.16722 c 0.55921,15.1271 -12.64312,27.79713 -29.48822,28.2993 -16.84509,0.50217 -30.95407,-11.35368 -31.51327,-26.48078 -0.5592,-15.1271 12.64312,-27.79713 29.48822,-28.2993 16.61471,-0.49531 30.61448,11.04233 31.48792,25.95013"
       transform="matrix(0.81904081,-0.15548534,0.15478616,0.80055387,142.59284,86.786994)"
       sodipodi:start="6.2500007"
       sodipodi:end="12.513805"
       sodipodi:open="true" />
    <path
       style="fill:#000000;stroke:#000000;stroke-width:0.53056270000000005px;stroke-linecap:butt;stroke-linejoin:miter;stroke-opacity:1;filter:url(#filter3855)"
       d="m 457.42309,305.27584 c -13.94357,2.19472 -11.19988,33.20571 -0.14003,32.21229 15.32332,-2.32921 12.20261,-31.80643 0.14003,-32.21229 z"
       id="path3106-1-8"
       inkscape:connector-curvature="0"
       sodipodi:nodetypes="ccc" />
    <path
       style="fill:#000000;stroke:#000000;stroke-width:0.53056270000000005px;stroke-linecap:butt;stroke-linejoin:miter;stroke-opacity:1;enable-background:new;filter:url(#filter3851)"
       d="m 323.8225,293.45462 c -13.94356,2.19471 -15.49636,32.9762 -4.43651,31.98277 15.32332,-2.3292 16.49911,-31.5769 4.43651,-31.98277 z"
       id="path3106-1-8-5"
       inkscape:connector-curvature="0"
       sodipodi:nodetypes="ccc" />
  </g>
  <g
     inkscape:groupmode="layer"
     id="layer5"
     inkscape:label="Усы"
     transform="translate(-138.78571,-77.096474)">
    <path
       style="fill:none;stroke:#4d4d4d;stroke-width:1px;stroke-linecap:butt;stroke-linejoin:miter;stroke-opacity:1;filter:url(#filter4187)"
       d="m 444.11886,389.1085 c 0,0 53.23617,3.84787 79.15279,9.76917 24.88223,5.68496 72.52655,24.55387 72.52655,24.55387"
       id="path3046"
       inkscape:connector-curvature="0"
       sodipodi:nodetypes="cac" />
    <path
       style="fill:none;stroke:#4d4d4d;stroke-width:1px;stroke-linecap:butt;stroke-linejoin:miter;stroke-opacity:1;filter:url(#filter4183)"
       d="m 431.94384,400.592 c 0,0 52.92608,4.49307 78.553,10.99852 34.83477,8.84288 100.97964,37.78919 100.97964,37.78919"
       id="path3048"
       inkscape:connector-curvature="0"
       sodipodi:nodetypes="cac" />
    <path
       style="fill:none;stroke:#4d4d4d;stroke-width:1px;stroke-linecap:butt;stroke-linejoin:miter;stroke-opacity:1;filter:url(#filter4179)"
       d="m 434.11529,412.62424 c 0,0 54.11366,6.29368 79.65118,15.13796 30.17314,10.4497 85.01404,44.14911 85.01404,44.14911"
       id="path3050"
       inkscape:connector-curvature="0"
       sodipodi:nodetypes="cac" />
    <path
       style="fill:none;stroke:#4d4d4d;stroke-width:1px;stroke-linecap:butt;stroke-linejoin:miter;stroke-opacity:1;filter:url(#filter4175)"
       d="m 425.29688,408.8729 c 0,0 56.60882,2.96035 83.68038,10.54531 28.20319,7.90202 80.1954,35.9089 80.1954,35.9089"
       id="path3052"
       inkscape:connector-curvature="0"
       sodipodi:nodetypes="cac" />
    <path
       style="fill:none;stroke:#4d4d4d;stroke-width:1px;stroke-linecap:butt;stroke-linejoin:miter;stroke-opacity:1;filter:url(#filter4171)"
       d="m 430.94532,419.25997 c 0,0 59.18315,6.74323 86.91214,16.83819 31.59032,11.50073 88.17277,48.96428 88.17277,48.96428"
       id="path3054"
       inkscape:connector-curvature="0"
       sodipodi:nodetypes="cac" />
    <path
       style="fill:none;stroke:#4d4d4d;stroke-width:1px;stroke-linecap:butt;stroke-linejoin:miter;stroke-opacity:1;filter:url(#filter4167)"
       d="m 439.47915,395.11901 c 0,0 39.78365,2.61596 59.11877,7.09777 32.95426,7.63865 95.80703,33.46628 95.80703,33.46628"
       id="path3056"
       inkscape:connector-curvature="0"
       sodipodi:nodetypes="cac" />
    <path
       style="fill:none;stroke:#4d4d4d;stroke-width:1px;stroke-linecap:butt;stroke-linejoin:miter;stroke-opacity:1;filter:url(#filter4211)"
       d="m 311.47211,386.85363 c 0,0 -64.43452,3.35136 -96.07739,9.15613 -22.24178,4.08019 -65.4199,17.95386 -65.4199,17.95386"
       id="path3058"
       inkscape:connector-curvature="0"
       sodipodi:nodetypes="cac" />
    <path
       style="fill:none;stroke:#4d4d4d;stroke-width:1px;stroke-linecap:butt;stroke-linejoin:miter;stroke-opacity:1;filter:url(#filter4207)"
       d="m 313.42429,395.32119 c 0,0 -56.78925,7.5896 -83.96222,16.19599 -27.97483,8.86037 -80.2777,36.12995 -80.2777,36.12995"
       id="path3060"
       inkscape:connector-curvature="0"
       sodipodi:nodetypes="cac" />
    <path
       style="fill:none;stroke:#4d4d4d;stroke-width:1px;stroke-linecap:butt;stroke-linejoin:miter;stroke-opacity:1;filter:url(#filter4203)"
       d="m 331.45579,409.2403 c -3.65585,0.2249 -48.3895,4.77329 -71.7864,10.98442 -20.07722,5.3299 -43.71732,15.36529 -58.1651,22.3683 -17.93169,8.6917 -47.53844,36.24797 -47.53844,36.24797"
       id="path3062"
       inkscape:connector-curvature="0"
       sodipodi:nodetypes="casc" />
    <path
       style="fill:none;stroke:#4d4d4d;stroke-width:1px;stroke-linecap:butt;stroke-linejoin:miter;stroke-opacity:1;filter:url(#filter4199)"
       d="m 318.40361,406.46505 c 0,0 -62.77588,6.86792 -92.37165,17.09658 -29.20742,10.09444 -82.12375,43.01662 -82.12375,43.01662"
       id="path3064"
       inkscape:connector-curvature="0"
       sodipodi:nodetypes="cac" />
    <path
       style="fill:none;stroke:#4d4d4d;stroke-width:1px;stroke-linecap:butt;stroke-linejoin:miter;stroke-opacity:1;filter:url(#filter4195)"
       d="m 298.18944,391.96456 c -16.44144,0.29578 -56.23695,6.74848 -83.6004,13.73043 -22.05605,5.62772 -64.45001,22.57125 -64.45001,22.57125"
       id="path3066"
       inkscape:connector-curvature="0"
       sodipodi:nodetypes="cac" />
    <path
       style="fill:none;stroke:#4d4d4d;stroke-width:1px;stroke-linecap:butt;stroke-linejoin:miter;stroke-opacity:1;filter:url(#filter4191)"
       d="m 325.93894,400.99205 c 0,0 -71.08354,7.84075 -104.67959,19.24158 -26.58098,9.02025 -74.98181,38.32687 -74.98181,38.32687"
       id="path3068"
       inkscape:connector-curvature="0"
       sodipodi:nodetypes="cac" />
    <path
       style="fill:none;stroke:#4d4d4d;stroke-width:1px;stroke-linecap:butt;stroke-linejoin:miter;stroke-opacity:1;filter:url(#filter4231)"
       d="m 316.23759,264.31697 c 0,0 -2.79883,-54.0384 -7.95277,-80.50787 -4.90131,-25.17201 -21.71552,-73.80591 -21.71552,-73.80591"
       id="path3070"
       inkscape:connector-curvature="0"
       sodipodi:nodetypes="cac" />
    <path
       style="fill:none;stroke:#4d4d4d;stroke-width:1px;stroke-linecap:butt;stroke-linejoin:miter;stroke-opacity:1;filter:url(#filter4227)"
       d="m 324.27055,272.21574 c 0,0 -3.45361,-60.05694 -8.90021,-89.55815 -4.67974,-25.34757 -20.3335,-74.60656 -20.3335,-74.60656"
       id="path3072"
       inkscape:connector-curvature="0"
       sodipodi:nodetypes="cac" />
    <path
       style="fill:none;stroke:#4d4d4d;stroke-width:1px;stroke-linecap:butt;stroke-linejoin:miter;stroke-opacity:1;filter:url(#filter4219)"
       d="m 455.91907,273.74752 c 8.46152,-48.10693 10.69918,-57.31177 19.5575,-85.00463 7.64019,-23.88479 28.81351,-69.49442 28.81351,-69.49442"
       id="path3074"
       inkscape:connector-curvature="0"
       sodipodi:nodetypes="cac" />
    <path
       style="fill:none;stroke:#4d4d4d;stroke-width:1px;stroke-linecap:butt;stroke-linejoin:miter;stroke-opacity:1;filter:url(#filter4223)"
       d="m 310.51677,267.91467 c -1.81562,-15.8853 -2.98422,-45.21656 -7.63966,-67.31328 -5.76207,-27.34918 -15.37729,-50.39327 -24.96201,-80.04692"
       id="path3076"
       inkscape:connector-curvature="0"
       sodipodi:nodetypes="cac" />
    <path
       style="fill:none;stroke:#4d4d4d;stroke-width:1px;stroke-linecap:butt;stroke-linejoin:miter;stroke-opacity:1;filter:url(#filter4155)"
       d="m 469.94115,275.13351 c 1.16743,-6.32167 12.3874,-41.85598 20.87615,-61.91275 12.6119,-29.79853 44.44181,-86.30202 44.44181,-86.30202"
       id="path3078"
       inkscape:connector-curvature="0"
       sodipodi:nodetypes="cac" />
    <path
       style="fill:none;stroke:#4d4d4d;stroke-width:1px;stroke-linecap:butt;stroke-linejoin:miter;stroke-opacity:1;filter:url(#filter4215)"
       d="m 462.0583,274.53003 c 10.69846,-48.42023 12.11447,-45.43049 20.41238,-67.38383 11.02667,-29.17258 38.88556,-85.09734 38.88556,-85.09734"
       id="path3074-8"
       inkscape:connector-curvature="0"
       sodipodi:nodetypes="cac" />
  </g>
  <g
     inkscape:groupmode="layer"
     id="layer8"
     inkscape:label="Образец"
     style="opacity:0.51219512;display:none"
     sodipodi:insensitive="true">
    <image
       y="51.261761"
       x="29.441767"
       id="image3062"
       xlink:href="file:///D:/Developer/__GitHubRepos/PlatGEnWohl/_Misc/source_images/Editor/risovanniy_koshara.jpg"
       height="440.70233"
       width="444.17242" />
  </g>
</svg>
