<?xml version="1.0" encoding="UTF-8" standalone="no"?>
<!-- Created with Inkscape (http://www.inkscape.org/) -->
<svg xmlns:dc="http://purl.org/dc/elements/1.1/" xmlns:cc="http://creativecommons.org/ns#" xmlns:rdf="http://www.w3.org/1999/02/22-rdf-syntax-ns#" xmlns:svg="http://www.w3.org/2000/svg" xmlns="http://www.w3.org/2000/svg" xmlns:sodipodi="http://sodipodi.sourceforge.net/DTD/sodipodi-0.dtd" xmlns:inkscape="http://www.inkscape.org/namespaces/inkscape" width="1080" height="1080" id="svg2" version="1.1" inkscape:version="0.47 r22583" sodipodi:docname="New document 1">
  <defs id="defs4">
    <inkscape:perspective sodipodi:type="inkscape:persp3d" inkscape:vp_x="0 : 526.18109 : 1" inkscape:vp_y="0 : 1000 : 0" inkscape:vp_z="744.09448 : 526.18109 : 1" inkscape:persp3d-origin="372.04724 : 350.78739 : 1" id="perspective10"/>
    <inkscape:perspective id="perspective2820" inkscape:persp3d-origin="0.5 : 0.33333333 : 1" inkscape:vp_z="1 : 0.5 : 1" inkscape:vp_y="0 : 1000 : 0" inkscape:vp_x="0 : 0.5 : 1" sodipodi:type="inkscape:persp3d"/>
  </defs>
  <sodipodi:namedview id="base" pagecolor="#ffffff" bordercolor="#666666" borderopacity="1.0" inkscape:pageopacity="0.0" inkscape:pageshadow="2" inkscape:zoom="0.35" inkscape:cx="310.7105" inkscape:cy="599.13883" inkscape:document-units="in" inkscape:current-layer="layer1" showgrid="false" units="in" inkscape:showpageshadow="false" borderlayer="false" inkscape:window-width="1280" inkscape:window-height="747" inkscape:window-x="-4" inkscape:window-y="-4" inkscape:window-maximized="1"/>
  <metadata id="metadata7">
    <rdf:RDF>
      <cc:Work rdf:about="">
        <dc:format>image/svg+xml</dc:format>
        <dc:type rdf:resource="http://purl.org/dc/dcmitype/StillImage"/>
        <dc:title/>
      </cc:Work>
    </rdf:RDF>
  </metadata>
  <g inkscape:label="Layer 1" inkscape:groupmode="layer" id="layer1" transform="translate(0,27.64025)">
    <path style="fill:#000000" d="m 205.60313,454.93657 c -94.91722,-3.61893 -95.54765,-3.90539 -184.479284,-83.82113 -20.13129584,-18.0904 -21.40986829,-28.62711 -3.301835,-27.21042 13.143901,1.02832 10.786835,9.6939 24.045664,-88.40234 C 52.09306,179.84962 57.304112,159.36708 73.935217,129.45807 100.11197,82.382393 141.71976,49.515844 196.35176,32.759606 c 16.83434,-5.163274 32.20963,-10.589147 34.16731,-12.057508 1.95768,-1.468345 10.64399,-4.56445 19.30292,-6.880223 8.65893,-2.315765 18.78606,-8.0784603 22.50472,-12.8059813 9.78393,-12.4382537 34.88057,-12.2594317 44.77479,0.3190371 3.8567,4.9029971 12.38209,9.9033752 18.94531,11.1119672 6.56322,1.208584 15.38833,4.344368 19.6114,6.968402 4.22303,2.624035 15.43521,6.603822 24.91594,8.843964 31.93718,7.546255 74.58245,31.096118 98.62253,54.461978 42.2921,41.106058 55.28342,73.568598 68.17125,170.345488 13.24415,99.45259 11.19406,91.80866 24.35441,90.80722 9.32974,-0.70993 11.17932,0.41531 11.17932,6.80116 0,10.44469 -75.64711,77.38777 -100.80516,89.20643 -10.62003,4.98899 -30.16289,10.16137 -44.49275,11.77582 -39.64211,4.4661 -157.26535,6.12864 -232.00062,3.27921 z" id="path2862"/>
    <path style="fill:#ffff00" d="m 770.75943,575.90496 c -6.59798,-0.12909 -14.06177,3.30708 -21.30769,10.23166 -5.92892,5.666 -16.17597,11.45214 -22.7729,12.86408 -6.59694,1.41195 -13.72184,3.96039 -15.84418,5.66218 -2.12234,1.7018 -16.56416,6.75419 -32.0857,11.24987 -59.93526,17.35971 -108.47356,57.03417 -131.49674,107.48213 -14.31125,31.35852 -17.19306,44.49928 -28.31091,128.29313 -4.93519,37.19594 -10.66523,70.53197 -12.71508,74.10506 -2.51569,4.38506 -7.49534,8.24402 -1.93706,16.09252 -9.90853,-8.29348 -16.61672,-13.68361 -17.21006,-13.68361 -7.14215,0 3.34992,11.28242 42.01936,45.14845 54.9737,48.14507 63.23738,51.56327 132.19209,54.65997 76.07526,3.4165 143.51121,3.3925 208.23422,-0.049 38.45611,-2.0453 64.56297,-5.1718 75.64477,-9.0645 23.26689,-8.173 117.89935,-90.69424 104.00535,-90.69424 -0.8098,0 -13.9215,10.87402 -31.3406,25.87716 16.1325,-16.93614 16.6255,-25.14309 13.7084,-27.46655 -2.9475,-2.34766 -8.2387,-30.30775 -14.1803,-74.92458 -11.7271,-88.06248 -13.6478,-96.33601 -30.62048,-131.69541 -25.21827,-52.53744 -69.07496,-87.49519 -131.52161,-104.80005 -14.0853,-3.90323 -27.4377,-8.47515 -29.67679,-10.15716 -2.23909,-1.682 -10.89356,-4.99435 -19.22162,-7.37574 -8.8588,-2.53316 -17.50592,-7.96759 -20.86067,-13.08758 -3.71801,-5.6744 -8.88006,-8.55322 -14.7018,-8.66712 z m 18.12891,17.25972 c 3.42304,2.84087 5.39592,19.31279 6.97839,57.86353 1.21661,29.63769 3.19094,54.84593 4.37081,56.02581 1.17987,1.17988 5.33411,-1.84026 9.2383,-6.70522 l 7.10256,-8.84095 -2.45858,8.89062 c -6.87161,24.91997 -22.23401,37.51865 -27.8639,22.8474 -0.96787,-2.52224 -1.78863,-23.93131 -2.06123,-50.83547 1.67963,23.58238 4.7807,45.11652 5.61252,47.28419 2.97549,7.75401 7.51948,7.05337 12.31773,-1.91223 2.46266,-4.60152 2.60889,-6.67183 0.37251,-5.28967 -6.83466,4.22405 -8.72174,-5.79728 -11.22503,-59.72609 l -5.88569,-54.51092 c 0.35935,-2.00524 0.55783,-6.81951 3.50161,-5.091 z m -39.95812,-0.42218 -4.04796,60.0241 c -2.50329,53.92881 -4.39038,63.95014 -11.22503,59.72609 -2.23638,-1.38216 -2.09015,0.68815 0.37251,5.28967 4.79825,8.9656 9.34224,9.66624 12.31773,1.91223 0.6467,-1.68526 3.34405,-23.16804 5.61252,-47.48286 -0.27054,26.99804 -1.09097,48.50569 -2.06124,51.03414 -4.12615,10.75259 -14.76508,6.14006 -22.45005,-9.73498 -9.23442,-19.07578 -9.43512,-24.82785 -0.47185,-13.16209 3.73794,4.86496 7.81139,7.83412 9.06446,6.58105 1.25307,-1.25308 3.20997,-26.46745 4.34597,-56.02581 0.56313,-6.26183 0.79169,-57.90804 8.54294,-58.16154 z m -39.2876,16.96171 c 7.06904,5.82178 1.90548,32.43276 0.0248,40.87699 -2.30556,8.09085 -2.75124,7.60603 -4.942,-5.33934 -0.29707,-6.6239 -8.44516,-34.32899 4.91716,-35.53765 z m 118.9555,0.42218 c 5.64984,2.16805 6.54773,18.86498 2.08607,38.66675 l -2.40891,10.67868 -2.48341,-14.22996 c -0.23739,-3.5691 -7.43036,-37.63918 2.80625,-35.11547 z m -251.17243,231.32996 -2.16057,37.15186 c -2.63526,45.22752 -5.75819,52.722 -4.12246,9.88399 1.31389,-34.40982 -2.32104,-38.76558 -6.1837,-7.40057 -3.79281,30.7979 -8.77094,38.56813 -6.23337,9.73498 1.53829,-17.47885 4.66696,-28.56883 10.45517,-37.15187 l 8.24493,-12.21839 z m 414.87907,2.33441 c 4.40475,-0.37451 16.02464,20.54304 16.04284,29.80096 0.01,5.57084 1.735,16.29105 3.8245,23.81593 4.6841,16.86937 2.022,21.16952 -3.4271,5.53801 -2.1841,-6.2651 -3.9735,-17.33604 -3.9735,-24.61062 0,-8.07462 -2.9311,-16.95781 -7.52478,-22.79774 -4.1386,-5.26131 -6.70029,-10.38557 -5.71185,-11.37403 0.22386,-0.22385 0.47626,-0.34754 0.76989,-0.37251 z m -448.85216,0.12417 c 0.52593,-0.0689 1.00536,0.0865 1.41554,0.49668 0.85167,0.85166 -1.82164,5.86438 -5.96019,11.12569 -4.79211,6.09219 -7.59633,14.88489 -7.69858,24.21328 -0.0883,8.05613 -2.51127,19.45778 -5.38901,25.33082 -2.87775,5.87305 -4.27387,7.46664 -3.10426,3.55128 1.1696,-3.91537 3.06333,-15.92945 4.19697,-26.69669 1.65203,-15.69097 11.45546,-37.3547 16.53953,-38.02106 z m 415.69856,0.22351 c 0.56264,-0.0724 1.6854,1.35344 3.50162,3.97346 3.74789,5.40652 4.41583,14.83406 2.78142,39.16343 l -2.13574,32.03603 -0.67052,-24.90864 c -0.35914,-13.70377 -1.61001,-31.3327 -2.78142,-39.16343 -1.14566,-7.65851 -1.51766,-10.99507 -0.69536,-11.10085 z m 12.09423,17.78123 c 0.26627,-0.0704 0.57954,0.1246 0.96853,0.54636 3.26556,3.54063 9.1171,51.50599 6.28303,51.50599 -0.86131,0 -2.5659,-6.01946 -3.77478,-13.36076 -4.21378,-25.58924 -5.34069,-38.19884 -3.47678,-38.69159 z m -360.36812,56.746 c 7.87195,0.0675 36.07595,1.78864 103.80668,5.78635 30.58888,1.80545 76.19789,1.82195 106.78678,0.0497 29.36521,-1.70126 67.00107,-3.89405 83.64136,-4.86749 24.42161,-1.42857 26.83241,-1.18275 12.46673,1.31621 -23.91777,4.16053 -129.36006,10.94515 -160.2795,10.30617 -13.65136,-0.28205 -45.65027,-1.91096 -71.10012,-3.62579 -25.44985,-1.71485 -55.06804,-4.62018 -65.83529,-6.45687 -9.42367,-1.60751 -15.60927,-2.56079 -9.48664,-2.50825 z m -67.74752,56.42315 c 27.8159,20.71196 46.34252,28.94338 56.746,31.91188 26.46944,7.5528 72.48223,9.559 193.11022,8.4684 107.65765,-0.9732 119.40559,-1.678 140.61087,-8.4932 14.93244,-4.7992 28.01754,-7.88147 48.42659,-22.2266 -18.70316,15.2859 -31.82031,24.0749 -40.43,27.1686 -41.97332,15.0819 -304.65938,15.2539 -346.41133,0.2234 -9.54747,-3.437 -27.34047,-16.12482 -52.05235,-37.05248 z" id="path2828" sodipodi:nodetypes="cssssssscssscsscsssssssccsscccscssscccccssscsssscccccccccccccssscccssssssccssssssccscccsccsssccsssssssccssscssc"/>
  </g>
</svg>