<?xml version="1.0" encoding="UTF-8" standalone="no"?>
<!-- Created with Inkscape (http://www.inkscape.org/) -->

<svg
   xmlns:dc="http://purl.org/dc/elements/1.1/"
   xmlns:cc="http://creativecommons.org/ns#"
   xmlns:rdf="http://www.w3.org/1999/02/22-rdf-syntax-ns#"
   xmlns:svg="http://www.w3.org/2000/svg"
   xmlns="http://www.w3.org/2000/svg"
   xmlns:xlink="http://www.w3.org/1999/xlink"
   xmlns:sodipodi="http://sodipodi.sourceforge.net/DTD/sodipodi-0.dtd"
   xmlns:inkscape="http://www.inkscape.org/namespaces/inkscape"
   width="386.69989mm"
   height="413.49362mm"
   viewBox="0 0 1370.1965 1465.1349"
   id="svg4344"
   version="1.1"
   inkscape:version="0.91 r13725"
   sodipodi:docname="Gyro_on_the_moon.svg">
  <defs
     id="defs4346">
    <filter
       inkscape:collect="always"
       id="filter4215"
       style="color-interpolation-filters:sRGB">
      <feGaussianBlur
         inkscape:collect="always"
         stdDeviation="0.42228984"
         id="feGaussianBlur4217" />
    </filter>
    <filter
       inkscape:collect="always"
       id="filter4155"
       style="color-interpolation-filters:sRGB">
      <feGaussianBlur
         inkscape:collect="always"
         stdDeviation="0.42228984"
         id="feGaussianBlur4157" />
    </filter>
    <filter
       inkscape:collect="always"
       id="filter4223"
       style="color-interpolation-filters:sRGB">
      <feGaussianBlur
         inkscape:collect="always"
         stdDeviation="0.42228984"
         id="feGaussianBlur4225" />
    </filter>
    <filter
       inkscape:collect="always"
       id="filter4219"
       style="color-interpolation-filters:sRGB">
      <feGaussianBlur
         inkscape:collect="always"
         stdDeviation="0.42228984"
         id="feGaussianBlur4221" />
    </filter>
    <filter
       inkscape:collect="always"
       id="filter4227"
       style="color-interpolation-filters:sRGB">
      <feGaussianBlur
         inkscape:collect="always"
         stdDeviation="0.42228984"
         id="feGaussianBlur4229" />
    </filter>
    <filter
       inkscape:collect="always"
       id="filter4231"
       style="color-interpolation-filters:sRGB">
      <feGaussianBlur
         inkscape:collect="always"
         stdDeviation="0.42228984"
         id="feGaussianBlur4233" />
    </filter>
    <filter
       inkscape:collect="always"
       id="filter4191"
       style="color-interpolation-filters:sRGB">
      <feGaussianBlur
         inkscape:collect="always"
         stdDeviation="0.42228984"
         id="feGaussianBlur4193" />
    </filter>
    <filter
       inkscape:collect="always"
       id="filter4195"
       style="color-interpolation-filters:sRGB">
      <feGaussianBlur
         inkscape:collect="always"
         stdDeviation="0.42228984"
         id="feGaussianBlur4197" />
    </filter>
    <filter
       inkscape:collect="always"
       id="filter4199"
       style="color-interpolation-filters:sRGB">
      <feGaussianBlur
         inkscape:collect="always"
         stdDeviation="0.42228984"
         id="feGaussianBlur4201" />
    </filter>
    <filter
       inkscape:collect="always"
       id="filter4203"
       style="color-interpolation-filters:sRGB">
      <feGaussianBlur
         inkscape:collect="always"
         stdDeviation="0.42228984"
         id="feGaussianBlur4205" />
    </filter>
    <filter
       inkscape:collect="always"
       id="filter4207"
       style="color-interpolation-filters:sRGB">
      <feGaussianBlur
         inkscape:collect="always"
         stdDeviation="0.42228984"
         id="feGaussianBlur4209" />
    </filter>
    <filter
       inkscape:collect="always"
       id="filter4211"
       style="color-interpolation-filters:sRGB">
      <feGaussianBlur
         inkscape:collect="always"
         stdDeviation="0.42228984"
         id="feGaussianBlur4213" />
    </filter>
    <filter
       inkscape:collect="always"
       id="filter4167"
       style="color-interpolation-filters:sRGB">
      <feGaussianBlur
         inkscape:collect="always"
         stdDeviation="0.42228984"
         id="feGaussianBlur4169" />
    </filter>
    <filter
       inkscape:collect="always"
       id="filter4171"
       style="color-interpolation-filters:sRGB">
      <feGaussianBlur
         inkscape:collect="always"
         stdDeviation="0.42228984"
         id="feGaussianBlur4173" />
    </filter>
    <filter
       inkscape:collect="always"
       id="filter4175"
       style="color-interpolation-filters:sRGB">
      <feGaussianBlur
         inkscape:collect="always"
         stdDeviation="0.42228984"
         id="feGaussianBlur4177" />
    </filter>
    <filter
       inkscape:collect="always"
       id="filter4179"
       style="color-interpolation-filters:sRGB">
      <feGaussianBlur
         inkscape:collect="always"
         stdDeviation="0.42228984"
         id="feGaussianBlur4181" />
    </filter>
    <filter
       inkscape:collect="always"
       id="filter4183"
       style="color-interpolation-filters:sRGB">
      <feGaussianBlur
         inkscape:collect="always"
         stdDeviation="0.42228984"
         id="feGaussianBlur4185" />
    </filter>
    <filter
       inkscape:collect="always"
       id="filter4187"
       style="color-interpolation-filters:sRGB">
      <feGaussianBlur
         inkscape:collect="always"
         stdDeviation="0.42228984"
         id="feGaussianBlur4189" />
    </filter>
    <filter
       inkscape:collect="always"
       id="filter4103"
       x="-0.62883699"
       width="2.257674"
       y="-0.51654482"
       height="2.0330896"
       style="color-interpolation-filters:sRGB">
      <feGaussianBlur
         inkscape:collect="always"
         stdDeviation="2.3089727"
         id="feGaussianBlur4105" />
    </filter>
    <filter
       inkscape:collect="always"
       id="filter3851-8"
       x="-0.13256182"
       width="1.2651236"
       y="-0.082372613"
       height="1.1647452"
       style="color-interpolation-filters:sRGB">
      <feGaussianBlur
         inkscape:collect="always"
         stdDeviation="1.0985178"
         id="feGaussianBlur3853-1" />
    </filter>
    <filter
       inkscape:collect="always"
       id="filter4099"
       x="-0.62883699"
       width="2.257674"
       y="-0.51654482"
       height="2.0330896"
       style="color-interpolation-filters:sRGB">
      <feGaussianBlur
         inkscape:collect="always"
         stdDeviation="2.3089727"
         id="feGaussianBlur4101" />
    </filter>
    <filter
       inkscape:collect="always"
       id="filter3851"
       x="-0.13256182"
       width="1.2651236"
       y="-0.082372613"
       height="1.1647452"
       style="color-interpolation-filters:sRGB">
      <feGaussianBlur
         inkscape:collect="always"
         stdDeviation="1.0985178"
         id="feGaussianBlur3853" />
    </filter>
    <radialGradient
       inkscape:collect="always"
       xlink:href="#linearGradient4646"
       id="radialGradient3202"
       gradientUnits="userSpaceOnUse"
       gradientTransform="matrix(0.72319006,0.11096594,-0.22617619,1.5519849,170.1403,-240.44314)"
       cx="314.38101"
       cy="363.16977"
       fx="314.38101"
       fy="363.16977"
       r="33.801628" />
    <linearGradient
       id="linearGradient4646">
      <stop
         style="stop-color:#8cff7f;stop-opacity:1;"
         offset="0"
         id="stop4648" />
      <stop
         style="stop-color:#31ff01;stop-opacity:1;"
         offset="1"
         id="stop4650" />
    </linearGradient>
    <filter
       inkscape:collect="always"
       id="filter4672"
       style="color-interpolation-filters:sRGB">
      <feGaussianBlur
         inkscape:collect="always"
         stdDeviation="0.91175643"
         id="feGaussianBlur4674" />
    </filter>
    <radialGradient
       inkscape:collect="always"
       xlink:href="#linearGradient4646"
       id="radialGradient4654"
       cx="316.2128"
       cy="366.43744"
       fx="316.2128"
       fy="366.43744"
       r="38.829105"
       gradientTransform="matrix(0.70067689,-0.51564486,0.7065819,1.4069066,-164.90609,3.3091763)"
       gradientUnits="userSpaceOnUse" />
    <filter
       inkscape:collect="always"
       id="filter4559"
       style="color-interpolation-filters:sRGB">
      <feGaussianBlur
         inkscape:collect="always"
         stdDeviation="1.2574403"
         id="feGaussianBlur4561" />
    </filter>
    <filter
       inkscape:collect="always"
       id="filter4507"
       x="-0.60123676"
       width="2.2024736"
       y="-0.066651434"
       height="1.1333029"
       style="color-interpolation-filters:sRGB">
      <feGaussianBlur
         inkscape:collect="always"
         stdDeviation="0.42038225"
         id="feGaussianBlur4509" />
    </filter>
    <radialGradient
       inkscape:collect="always"
       xlink:href="#linearGradient5348"
       id="radialGradient5356"
       cx="382.05649"
       cy="391.29926"
       fx="382.05649"
       fy="391.29926"
       r="23.820194"
       gradientTransform="matrix(0.81820264,0.09123905,-0.21701962,1.9461627,154.07299,-405.75315)"
       gradientUnits="userSpaceOnUse" />
    <linearGradient
       id="linearGradient5348">
      <stop
         style="stop-color:#e9afaf;stop-opacity:1;"
         offset="0"
         id="stop5350" />
      <stop
         style="stop-color:#e68383;stop-opacity:1;"
         offset="1"
         id="stop5352" />
    </linearGradient>
    <filter
       inkscape:collect="always"
       id="filter5344"
       style="color-interpolation-filters:sRGB">
      <feGaussianBlur
         inkscape:collect="always"
         stdDeviation="0.18948493"
         id="feGaussianBlur5346" />
    </filter>
    <filter
       inkscape:collect="always"
       id="filter5412"
       x="-0.093765527"
       width="1.187531"
       y="-0.22288521"
       height="1.4457704"
       style="color-interpolation-filters:sRGB">
      <feGaussianBlur
         inkscape:collect="always"
         stdDeviation="1.4306287"
         id="feGaussianBlur5414" />
    </filter>
    <radialGradient
       inkscape:collect="always"
       xlink:href="#linearGradient4289"
       id="radialGradient4313"
       cx="308.4415"
       cy="405.05042"
       fx="308.4415"
       fy="405.05042"
       r="50.082428"
       gradientTransform="matrix(1.3613674,0.48133694,-0.2555234,0.72214357,-82.40187,-789.84279)"
       gradientUnits="userSpaceOnUse" />
    <linearGradient
       id="linearGradient4289">
      <stop
         style="stop-color:#e4e4e4;stop-opacity:1;"
         offset="0"
         id="stop4293" />
      <stop
         id="stop4295"
         offset="1"
         style="stop-color:#a7a7a7;stop-opacity:1;" />
    </linearGradient>
    <radialGradient
       r="50.082428"
       fy="405.05042"
       fx="308.4415"
       cy="405.05042"
       cx="308.4415"
       gradientTransform="matrix(-1.3613674,0.48133694,0.2555234,0.72214357,636.12624,-789.8428)"
       gradientUnits="userSpaceOnUse"
       id="radialGradient3177"
       xlink:href="#linearGradient4289"
       inkscape:collect="always" />
    <filter
       inkscape:collect="always"
       id="filter4431"
       x="-0.059094835"
       width="1.1181897"
       y="-0.14518905"
       height="1.2903781"
       style="color-interpolation-filters:sRGB">
      <feGaussianBlur
         inkscape:collect="always"
         stdDeviation="2.6768101"
         id="feGaussianBlur4433" />
    </filter>
    <radialGradient
       inkscape:collect="always"
       xlink:href="#linearGradient4289"
       id="radialGradient4297"
       cx="362.80743"
       cy="491.62387"
       fx="362.80743"
       fy="491.62387"
       r="64.794655"
       gradientTransform="matrix(0.98040496,-0.1969925,0.34726632,1.7282974,-230.22551,-1080.2378)"
       gradientUnits="userSpaceOnUse" />
    <filter
       inkscape:collect="always"
       id="filter4363"
       x="-0.11026929"
       width="1.2205386"
       y="-0.08326593"
       height="1.1665319"
       style="color-interpolation-filters:sRGB">
      <feGaussianBlur
         inkscape:collect="always"
         stdDeviation="3.5607108"
         id="feGaussianBlur4365" />
    </filter>
    <filter
       inkscape:collect="always"
       id="filter4595"
       style="color-interpolation-filters:sRGB">
      <feGaussianBlur
         inkscape:collect="always"
         stdDeviation="2.0166061"
         id="feGaussianBlur4597" />
    </filter>
    <linearGradient
       inkscape:collect="always"
       xlink:href="#linearGradient3840"
       id="linearGradient3838"
       x1="388.59061"
       y1="423.83304"
       x2="547.70551"
       y2="236.89969"
       gradientUnits="userSpaceOnUse"
       gradientTransform="matrix(-0.99985154,-0.0172302,-0.0172302,0.99985154,1026.151,-60.48972)" />
    <linearGradient
       id="linearGradient3840">
      <stop
         id="stop3842"
         offset="0"
         style="stop-color:#cccccc;stop-opacity:1;" />
      <stop
         style="stop-color:#cacaca;stop-opacity:1;"
         offset="0.53553259"
         id="stop3844" />
      <stop
         id="stop3846"
         offset="1"
         style="stop-color:#e8e8e8;stop-opacity:1;" />
    </linearGradient>
    <filter
       inkscape:collect="always"
       id="filter4359"
       style="color-interpolation-filters:sRGB">
      <feGaussianBlur
         inkscape:collect="always"
         stdDeviation="3.5607108"
         id="feGaussianBlur4361" />
    </filter>
    <filter
       inkscape:collect="always"
       id="filter4587"
       style="color-interpolation-filters:sRGB">
      <feGaussianBlur
         inkscape:collect="always"
         stdDeviation="2.3340184"
         id="feGaussianBlur4589" />
    </filter>
    <linearGradient
       inkscape:collect="always"
       xlink:href="#linearGradient3824"
       id="linearGradient3822"
       x1="535.70789"
       y1="408.53867"
       x2="505.44507"
       y2="172.60706"
       gradientUnits="userSpaceOnUse"
       gradientTransform="matrix(0.93755272,-0.34784314,0.34784314,0.93755272,-214.03705,-620.13441)" />
    <linearGradient
       id="linearGradient3824">
      <stop
         id="stop3826"
         offset="0"
         style="stop-color:#cccccc;stop-opacity:1;" />
      <stop
         style="stop-color:#cacaca;stop-opacity:1;"
         offset="0.15243651"
         id="stop3828" />
      <stop
         id="stop3830"
         offset="1"
         style="stop-color:#e8e8e8;stop-opacity:1;" />
    </linearGradient>
    <filter
       inkscape:collect="always"
       id="filter4759-7-2"
       x="-0.1160006"
       width="1.2320012"
       y="-0.12591517"
       height="1.2518303"
       style="color-interpolation-filters:sRGB">
      <feGaussianBlur
         inkscape:collect="always"
         stdDeviation="3.1003424"
         id="feGaussianBlur4761-3-8" />
    </filter>
    <filter
       inkscape:collect="always"
       id="filter4759-7"
       x="-0.1160006"
       width="1.2320012"
       y="-0.12591517"
       height="1.2518303"
       style="color-interpolation-filters:sRGB">
      <feGaussianBlur
         inkscape:collect="always"
         stdDeviation="3.1003424"
         id="feGaussianBlur4761-3" />
    </filter>
    <radialGradient
       inkscape:collect="always"
       xlink:href="#linearGradient3806"
       id="radialGradient3812"
       cx="408.16898"
       cy="414.74994"
       fx="408.16898"
       fy="414.74994"
       r="163.97368"
       gradientTransform="matrix(1.1052014,-0.91479289,0.76223397,0.90807346,-442.17183,-385.05891)"
       gradientUnits="userSpaceOnUse" />
    <linearGradient
       id="linearGradient3806">
      <stop
         style="stop-color:#cccccc;stop-opacity:1;"
         offset="0"
         id="stop3808" />
      <stop
         id="stop3814"
         offset="0.45479324"
         style="stop-color:#cacaca;stop-opacity:1;" />
      <stop
         style="stop-color:#e8e8e8;stop-opacity:1;"
         offset="1"
         id="stop3810" />
    </linearGradient>
    <linearGradient
       gradientTransform="translate(39.25837,-692.11798)"
       inkscape:collect="always"
       xlink:href="#linearGradient4425"
       id="linearGradient4423"
       x1="-3.718945"
       y1="947.4267"
       x2="104.54121"
       y2="983.18842"
       gradientUnits="userSpaceOnUse" />
    <linearGradient
       id="linearGradient4425">
      <stop
         style="stop-color:#cccccc;stop-opacity:1;"
         offset="0"
         id="stop4427" />
      <stop
         id="stop4429"
         offset="0.58228606"
         style="stop-color:#cacaca;stop-opacity:1;" />
      <stop
         style="stop-color:#ffffff;stop-opacity:1"
         offset="1"
         id="stop4431" />
    </linearGradient>
    <linearGradient
       gradientTransform="translate(39.25837,-692.11798)"
       inkscape:collect="always"
       xlink:href="#linearGradient4381"
       id="linearGradient4379"
       x1="219.47256"
       y1="838.63202"
       x2="289.62106"
       y2="950.25189"
       gradientUnits="userSpaceOnUse" />
    <linearGradient
       id="linearGradient4381">
      <stop
         style="stop-color:#cccccc;stop-opacity:1;"
         offset="0"
         id="stop4383" />
      <stop
         id="stop4385"
         offset="0.52296901"
         style="stop-color:#cacaca;stop-opacity:1;" />
      <stop
         style="stop-color:#d6d6d6;stop-opacity:1;"
         offset="0.81089449"
         id="stop4391" />
      <stop
         style="stop-color:#ffffff;stop-opacity:1"
         offset="0.96346158"
         id="stop4387" />
    </linearGradient>
    <linearGradient
       gradientTransform="translate(39.25837,-692.11798)"
       inkscape:collect="always"
       xlink:href="#linearGradient4401"
       id="linearGradient4399"
       x1="263.87112"
       y1="791.02502"
       x2="-276.11829"
       y2="586.20789"
       gradientUnits="userSpaceOnUse" />
    <linearGradient
       id="linearGradient4401">
      <stop
         id="stop4403"
         offset="0"
         style="stop-color:#cccccc;stop-opacity:1;" />
      <stop
         style="stop-color:#cacaca;stop-opacity:1;"
         offset="0.91712844"
         id="stop4405" />
      <stop
         id="stop4411"
         offset="1"
         style="stop-color:#ffffff;stop-opacity:1" />
    </linearGradient>
    <linearGradient
       inkscape:collect="always"
       xlink:href="#linearGradient3860"
       id="linearGradient3868"
       x1="623.81696"
       y1="285.22321"
       x2="395.5491"
       y2="722.36603"
       gradientUnits="userSpaceOnUse"
       gradientTransform="matrix(-2.2503753,0,0,2.2503753,1340.2171,-478.11998)" />
    <linearGradient
       id="linearGradient3860">
      <stop
         style="stop-color:#ffff00;stop-opacity:1;"
         offset="0"
         id="stop3862" />
      <stop
         style="stop-color:#ffa51f;stop-opacity:1;"
         offset="1"
         id="stop3864" />
    </linearGradient>
  </defs>
  <sodipodi:namedview
     id="base"
     pagecolor="#ffffff"
     bordercolor="#666666"
     borderopacity="1.0"
     inkscape:pageopacity="0.0"
     inkscape:pageshadow="2"
     inkscape:zoom="0.24748737"
     inkscape:cx="794.93296"
     inkscape:cy="427.26218"
     inkscape:document-units="px"
     inkscape:current-layer="layer1"
     showgrid="false"
     fit-margin-top="0"
     fit-margin-left="0"
     fit-margin-right="0"
     fit-margin-bottom="0"
     inkscape:window-width="1280"
     inkscape:window-height="947"
     inkscape:window-x="0"
     inkscape:window-y="27"
     inkscape:window-maximized="1" />
  <metadata
     id="metadata4349">
    <rdf:RDF>
      <cc:Work
         rdf:about="">
        <dc:format>image/svg+xml</dc:format>
        <dc:type
           rdf:resource="http://purl.org/dc/dcmitype/StillImage" />
        <dc:title></dc:title>
      </cc:Work>
    </rdf:RDF>
  </metadata>
  <g
     inkscape:label="Layer 1"
     inkscape:groupmode="layer"
     id="layer1"
     transform="translate(270.03683,260.20526)">
    <path
       style="fill:url(#linearGradient3868);fill-opacity:1;fill-rule:nonzero;stroke:#000000;stroke-width:5.62593842;stroke-linecap:round;stroke-linejoin:round;stroke-miterlimit:4;stroke-dasharray:none;stroke-opacity:1"
       d="m 462.60096,-257.39229 c 13.0004,0 25.91544,0.31319 38.74853,0.98453 -248.76121,84.27943 -427.782078,319.750245 -427.782078,596.98233 0,347.99743 282.107588,630.10513 630.105048,630.10513 148.94687,0 285.82271,-51.70935 393.67494,-138.11679 -125.50563,220.68519 -362.71849,369.55379 -634.74644,369.55379 -403.037798,0 -729.82482,-326.71665 -729.82482,-729.75449 0,-403.037842 326.787022,-729.7545 729.82482,-729.7545 z"
       id="path3839"
       inkscape:connector-curvature="0" />
    <g
       id="g5423"
       transform="translate(502.77303,685.71428)">
      <path
         sodipodi:nodetypes="ccaaaaasaaaaaaaasacsaaaaaaaaaaaaaaaaaaaaaaaacaaaaaaac"
         inkscape:connector-curvature="0"
         id="path4369"
         d="m 157.38042,-368.172 256.83419,-17.33902 c 0,0 -11.67587,25.11808 -15.2261,38.43244 -7.10346,26.64007 -13.86754,54.35887 -11.86611,81.85699 2.29817,31.57511 24.26863,59.49738 27.09221,91.02984 2.91741,32.58037 -0.18888,66.60284 -10.83689,97.531974 -14.22822,41.32852 -51.8445,71.3394303 -68.81421,111.61992 -7.51716,17.84324 -12.10302,37.09179 -14.08796,56.35181 -1.91367,18.568386 -1.98683,42.654596 -1.19037,63.965116 0.73814,19.75005 0.10666,40.02696 5.52513,59.03353 2.83914,9.95894 7.13417,19.92667 13.851,27.80864 7.82173,9.17853 22.09132,11.48083 29.41485,21.06158 2.62636,3.43585 4.76224,7.84304 4.52068,12.16097 -0.30613,5.47215 -2.73905,11.81321 -7.41233,14.67653 -16.70966,10.23801 -40.59887,7.07076 -58.78961,-0.21802 -20.79824,-8.33358 -38.21089,-26.48339 -48.79136,-46.23356 -25.33363,-47.28937 24.52781,-145.254246 -27.43667,-158.587276 -20.64999,-5.29837 -50.75952,86.809296 -86.31213,121.513466 -13.31205,12.99437 -10.48287,25.83301 -46.26578,31.20989 24.49768,-3.47521 17.32094,-4.5937 33.12292,-3.31668 17.79327,1.43794 40.15629,5.19177 49.52036,20.38988 6.36323,10.32767 5.55318,27.44948 -2.75613,36.28729 -13.08473,13.91697 -37.728,6.28835 -56.76613,7.85095 -22.7229,1.86503 -45.57598,1.57726 -68.37417,1.80248 -12.77371,0.12619 -25.56272,0.36349 -38.32218,-0.2529 -32.13537,-1.55242 -64.74132,-1.60239 -96.12838,-8.66951 -28.54279,-6.4267 -59.23148,-12.42542 -82.36033,-30.34328 -22.57574,-17.48937 -38.74397,-43.69838 -48.76599,-70.43976 -14.79733,-39.48317 -15.62535,-83.57097 -14.08794,-125.707866 1.00489,-27.54185 11.47478,-53.96553 15.17164,-81.27664 2.86906,-21.19564 14.20016,-44.4346 5.41844,-63.93763 -2.17277,-4.82543 -7.4852,-8.80202 -12.73334,-9.48226 -5.98084,-0.77522 -11.8937,3.22357 -16.78654,6.7494 -7.69936,5.54822 -9.92322,17.49733 -18.43334,21.69742 -9.64904,4.76219 -23.59437,8.03179 -32.23973,1.62553 -13.16322,-9.75402 -15.16357,-31.62321 -11.92058,-47.682304 5.00525,-24.78573 22.78183,-49.61445 45.51492,-60.68656 15.59179,-7.59395 36.0644,-5.71962 52.01705,1.08369 16.44676,7.01403 29.74756,22.03083 37.9291,37.9291 15.08148,29.306174 17.36598,64.591594 16.25533,97.531974 -0.95071,28.1969003 -16.68545,54.28879 -19.5064,82.36033 -3.36077,33.44338 -10.70093,70.203696 3.25107,100.783036 5.51743,12.09285 18.50573,19.27981 29.25959,27.09221 11.38276,8.26929 23.97407,14.90879 36.84541,20.59008 5.22518,2.30634 16.25533,5.41844 16.25533,5.41844 0,0 -33.89382,-102.03989 -34.67803,-154.967456 -0.76304,-51.4983797 6.67549,-105.42791 29.25959,-151.716404 19.7583,-40.49671 52.11074,-75.79595 88.8624604,-101.86672 C 35.7319,-227.08698 79.4556,-231.11618 116.20026,-248.96626 c 16.88644,-8.20322 37.38912,-13.24232 48.76598,-28.1759 5.20336,-6.83008 5.72125,-16.37409 6.50213,-24.92484 1.35054,-14.78846 0.6862,-30.11269 -3.25106,-44.43123 -2.14159,-7.78826 -10.83689,-21.67377 -10.83689,-21.67377 z"
         style="fill:url(#linearGradient4399);fill-opacity:1;fill-rule:evenodd;stroke:#000000;stroke-width:2.70000005;stroke-linecap:butt;stroke-linejoin:miter;stroke-miterlimit:4;stroke-dasharray:none;stroke-opacity:1;enable-background:new" />
      <path
         sodipodi:nodetypes="aaaasaaassaaaaaa"
         inkscape:connector-curvature="0"
         id="path4371"
         d="m 291.7578,292.87802 c -6.54144,-1.80868 -13.22165,-4.30936 -18.4227,-8.66951 -7.27631,-6.09988 -12.12594,-14.80318 -16.44127,-23.26079 -6.19563,-12.14283 -9.91618,-25.47803 -13.18659,-38.71202 -5.82199,-23.55925 -7.62715,-47.93306 -11.32787,-71.91719 -4.50172,-29.1754 -9.05321,-49.33789 -14.65689,-73.776406 -5.19821,-22.67019 -11.11304,-45.18323 -17.57954,-67.5247497 -4.11768,-14.22644 -10.02606,-27.9331103 -13.50292,-42.3295803 -4.12663,-17.08694 -6.15194,-31.82517 -8.66952,-52.01705 -1.66518,-13.35539 117.55694,-5.25676 123.09122,5.62862 23.48202,46.18683 -17.60843,149.38923 -7.13654,223.029656 4.5933,32.30097 12.06836,66.00531 30.27753,93.07702 9.64586,14.34056 34.1761,17.04074 39.62038,33.44361 2.13227,6.42422 -0.005,14.81264 -4.60567,19.77733 -5.72723,6.17995 -15.73062,6.72313 -24.11208,7.58581 -14.44493,1.4868 -29.35144,-0.4649 -43.34754,-4.33475 z"
         style="fill:url(#linearGradient4379);fill-opacity:1;fill-rule:evenodd;stroke:none;stroke-width:1px;stroke-linecap:butt;stroke-linejoin:miter;stroke-opacity:1;enable-background:new" />
      <path
         sodipodi:nodetypes="caaaaaaaaaaaaaasac"
         inkscape:connector-curvature="0"
         id="path4413"
         d="m 409.24731,-93.641746 c 0,0 -19.16919,45.49052 -33.06845,65.68062 -14.9092,21.6571403 -40.34695,35.3172703 -53.15202,58.2813 -14.01125,25.12717 -20.67164,54.38473 -23.68095,82.996496 -2.29383,21.80915 0.52598,44.06714 4.49346,65.6347 3.00152,16.31652 6.27214,33.20394 14.49365,47.61382 4.5289,7.93783 11.59145,14.2558 18.51663,20.21919 7.14991,6.15689 17.51305,8.49949 23.48154,15.80741 2.75296,3.37078 5.00161,7.7169 4.98084,12.06897 -0.0304,6.38084 -2.44086,13.69885 -7.47126,17.62453 -9.42697,7.35671 -23.48284,5.53232 -35.44062,5.55555 -9.30208,0.0181 -18.99084,-0.65805 -27.5862,-4.21456 -12.64564,-5.23239 -25.53548,-12.88454 -33.10093,-24.28866 -22.87076,-34.47526 -19.56021,-80.40124 -28.7436,-120.74081 -5.93494,-26.07023 -10.75343,-52.392996 -17.03182,-78.382656 -6.07926,-25.16535 -13.76805,-49.8858 -19.97423,-75.0552997 -6.0445,-24.5137603 -6.30679,-51.6780703 -19.54023,-73.1800803 -3.31876,-5.39239 -14.17624,-12.64368 -14.17624,-12.64368"
         style="fill:none;fill-rule:evenodd;stroke:#000000;stroke-width:2.5;stroke-linecap:butt;stroke-linejoin:miter;stroke-miterlimit:4;stroke-dasharray:none;stroke-opacity:1;enable-background:new" />
      <path
         sodipodi:nodetypes="caaaaaaaaaaaaaaaaac"
         inkscape:connector-curvature="0"
         id="path4415"
         d="m -48.86424,-58.097856 c 0,0 61.3973,-0.39613 88.16385,12.42391 21.14366,10.12691 37.28897,29.31605 51.29976,48.1124903 13.995,18.7752597 27.23759,39.7940297 31.41762,62.8352497 7.63327,42.076206 14.18399,94.917436 -13.40996,127.586196 -16.18843,19.16565 -48.49239,12.92907 -72.48067,20.27414 -7.647,2.34147 -21.02514,-0.22473 -22.76292,7.58162 -0.81114,3.64372 4.73041,6.14879 8.12037,7.71173 36.69414,16.91789 82.33988,-0.47961 120.55886,12.63466 10.20041,3.50012 22.62608,7.45781 27.46795,17.09396 5.49187,10.92975 4.4784,26.91968 -3.03791,36.56982 -3.77936,4.8523 -11.38024,5.01783 -17.45454,5.98284 -8.93847,1.42003 -18.09823,-0.35042 -27.1486,-0.41037 -40.05222,-0.26528 -80.16034,2.31027 -120.1590896,0.22444 -13.4583404,-0.70182 -27.4279304,0.0122 -40.2026604,-4.28029 -7.00418,-2.35352 -13.86234,-6.11679 -18.9871,-11.4398 -8.25132,-8.57051 -13.03978,-20.11908 -17.24606,-31.24765 -10.37745,-27.45565 -14.05858,-57.04341 -19.08144,-85.96184 -9.09464,-52.36117 -28.66062,-71.004856 -19.95914,-158.1811357"
         style="fill:url(#linearGradient4423);fill-opacity:1;fill-rule:evenodd;stroke:#000000;stroke-width:2.0999999;stroke-linecap:butt;stroke-linejoin:miter;stroke-miterlimit:4;stroke-dasharray:none;stroke-opacity:1;enable-background:new" />
      <path
         sodipodi:nodetypes="aassaaaa"
         inkscape:connector-curvature="0"
         id="path3032"
         d="m 138.87232,-490.28473 c 29.94797,-41.93752 82.14127,-70.95074 131.98926,-72.47696 50.33613,-1.54115 108.88535,21.24858 138.94307,64.85187 25.73883,37.33814 32.52638,95.25883 5.77064,137.97412 -28.54657,45.5743 -88.13236,66.72448 -139.69567,68.91663 -39.63558,1.68508 -82.48932,-15.41058 -112.54973,-43.62452 -21.42921,-20.11288 -35.38707,-51.0558 -39.23691,-81.0331 -3.25298,-25.33004 0.40901,-54.48466 14.77934,-74.60804 z"
         style="display:inline;fill:url(#radialGradient3812);fill-opacity:1;fill-rule:nonzero;stroke:#000000;stroke-width:2.5;stroke-miterlimit:4;stroke-dasharray:none;stroke-opacity:1;enable-background:new" />
      <path
         sodipodi:end="6.2830078"
         sodipodi:start="0"
         transform="matrix(0.99762263,-0.06891352,0.06891352,0.99762263,123.43006,-670.81726)"
         d="m 101.15267,234.75026 a 32.209763,25.434561 0 0 1 -32.208331,25.43456 32.209763,25.434561 0 0 1 -32.211192,-25.4323 32.209763,25.434561 0 0 1 32.205474,-25.43682 32.209763,25.434561 0 0 1 32.214049,25.43004 l -32.209761,0.005 z"
         sodipodi:ry="25.434561"
         sodipodi:rx="32.209763"
         sodipodi:cy="234.75026"
         sodipodi:cx="68.942909"
         id="path4678"
         style="display:inline;fill:#f2f2f2;fill-opacity:1;fill-rule:nonzero;stroke:none;filter:url(#filter4759-7);enable-background:new"
         sodipodi:type="arc" />
      <path
         sodipodi:end="6.2830078"
         sodipodi:start="0"
         transform="matrix(0.99762263,-0.06891352,0.06891352,0.99762263,257.39003,-670.24763)"
         d="m 102.58124,234.75026 a 33.638332,28.291706 0 0 1 -33.636838,28.29171 33.638332,28.291706 0 0 1 -33.639825,-28.2892 33.638332,28.291706 0 0 1 33.633854,-28.29422 33.638332,28.291706 0 0 1 33.642809,28.28669 l -33.638331,0.005 z"
         sodipodi:ry="28.291706"
         sodipodi:rx="33.638332"
         sodipodi:cy="234.75026"
         sodipodi:cx="68.942909"
         id="path4678-6"
         style="display:inline;fill:#f2f2f2;fill-opacity:1;fill-rule:nonzero;stroke:none;filter:url(#filter4759-7-2);enable-background:new"
         sodipodi:type="arc" />
      <path
         sodipodi:nodetypes="caaaacc"
         inkscape:connector-curvature="0"
         id="path2987"
         d="m 331.66447,-548.96323 c 0,0 45.92527,-63.8387 79.61183,-81.23789 6.40121,-3.30625 15.29302,-7.31076 21.34463,-3.40118 11.98228,7.74104 11.06866,27.03085 11.23369,41.29518 0.3072,26.55056 -15.37266,51.04114 -19.12555,77.32692 -2.40658,16.85598 -4.64102,35.0667 -2.10195,51.03745 z"
         style="display:inline;fill:url(#linearGradient3822);fill-opacity:1;fill-rule:nonzero;stroke:none;stroke-opacity:1;enable-background:new" />
      <path
         sodipodi:nodetypes="caaaaac"
         inkscape:connector-curvature="0"
         id="path3969-0"
         d="m 331.37247,-552.60428 c 20.10379,-22.65701 37.48385,-44.97872 59.8433,-63.62835 6.19408,-5.16637 12.59721,-10.80304 20.31539,-13.1456 9.03459,-2.7421 20.74165,-6.05511 28.32146,-0.42574 7.39048,5.48871 7.31192,17.35379 7.58358,26.55549 0.878,29.7385 -16.37801,57.52253 -19.40285,87.11983 -2.51563,24.61508 -5.8473,45.83862 1.14651,74.22099"
         style="display:inline;fill:none;stroke:none;enable-background:new" />
      <path
         transform="matrix(0.99762263,-0.06891352,0.06891352,0.99762263,-129.09777,-729.39661)"
         sodipodi:nodetypes="cacaaaaaac"
         inkscape:connector-curvature="0"
         id="path4021-7"
         d="m 520.75697,277.15045 c 0,0 -14.32185,-26.36797 -24.69725,-36.938 -9.6355,-9.81625 -33.87172,-23.56952 -33.87172,-23.56952 0,0 45.77774,-55.17715 76.30756,-72.43828 2.57105,-1.45363 5.81871,-3.50911 8.54013,-2.36141 3.94395,1.66328 4.91084,7.16625 6.1882,11.25153 2.67395,8.55189 3.65629,17.82108 2.77054,26.73737 -0.9421,9.48357 -5.37968,18.29251 -8.4842,27.30293 -3.9608,11.49564 -8.59029,22.74996 -12.92944,34.1082 -4.57703,11.98092 -13.82382,35.90718 -13.82382,35.90718 z"
         style="display:inline;fill:#ffd5d5;fill-opacity:1;stroke:none;filter:url(#filter4587);enable-background:new" />
      <path
         transform="matrix(0.99762263,-0.06891352,0.06891352,0.99762263,-129.09777,-729.39661)"
         sodipodi:nodetypes="ccaacacaacaaacaaacaacaaacaacaacacaacacac"
         inkscape:connector-curvature="0"
         id="path3033-6"
         d="m 536.78297,154.51256 c 4.71666,0.34007 12.53073,6.65164 12.53073,6.65164 0,0 -7.28421,-11.03237 -13.08583,-11.60229 -18.6565,-1.83271 -33.98751,16.58656 -48.53645,28.40826 -12.14717,9.87015 -31.50981,34.81226 -31.50981,34.81226 0,0 11.25133,10.26335 16.95476,15.30799 3.52081,3.11414 2.07305,2.08213 10.65734,9.23396 2.42485,-1.21016 6.4007,-6.3438 10.47143,-7.98732 4.94039,-1.99464 10.72278,-3.19842 15.87645,-1.84723 7.12678,1.8685 17.87739,12.99769 17.87739,12.99769 0,0 -2.58491,-13.45374 -6.58918,-18.71908 -2.36256,-3.10661 -5.90656,-5.44867 -9.6045,-6.69685 -3.47449,-1.17276 -7.33177,-0.69639 -10.99146,-0.46375 -5.70681,0.36278 -16.9102,2.88767 -16.9102,2.88767 0,0 6.13897,-3.54127 9.34043,-5.05092 3.39225,-1.5996 6.71823,-3.6637 10.42553,-4.23116 4.38687,-0.67147 9.13828,-0.53412 13.2694,1.08739 5.96348,2.34073 15.10849,11.87908 15.10849,11.87908 0,0 -3.11805,-14.94905 -8.63709,-19.364 -3.47718,-2.78158 -8.64771,-2.80566 -13.09711,-2.6301 -5.27475,0.20813 -15.23266,4.33164 -15.23266,4.33164 0,0 10.21093,-8.95708 16.45319,-11.20989 3.00201,-1.08342 6.39975,-1.51812 9.53175,-0.90459 2.77987,0.54455 5.35961,2.11749 7.53187,3.93559 3.11561,2.60764 7.45906,9.6397 7.45906,9.6397 0,0 -1.46264,-12.92493 -5.6809,-17.28064 -3.21297,-3.31767 -8.40091,-4.59528 -13.01688,-4.74673 -4.23161,-0.13884 -12.19259,3.5599 -12.19259,3.5599 0,0 5.7342,-6.4961 9.62762,-7.99154 5.57202,-2.14017 12.06341,-2.01437 17.8919,-0.72737 4.43689,0.97972 12.12047,6.23752 12.12047,6.23752 0,0 -4.68979,-11.65434 -9.83044,-14.31544 -6.07435,-3.14445 -20.51801,0.28114 -20.51801,0.28114 0,0 9.33874,-4.5368 14.39681,-4.95953 3.13072,-0.26166 6.27977,0.67236 9.29692,1.54798 3.02141,0.87685 8.69349,3.67469 8.69349,3.67469 0,0 -6.83946,-10.41284 -12.33942,-12.21392 -4.15489,-1.36061 -12.97385,1.92572 -12.97385,1.92572 0,0 11.46055,-1.6016 15.23134,-5.45744 z"
         style="display:inline;fill:url(#linearGradient3838);fill-opacity:1;stroke:none;filter:url(#filter4359);enable-background:new" />
      <path
         sodipodi:nodetypes="caaaaac"
         inkscape:connector-curvature="0"
         id="path4169"
         d="m 333.75074,-551.72175 c 0,0 44.59888,-62.55708 77.75465,-78.70288 6.37501,-3.10442 15.24979,-6.39793 21.13192,-2.4383 11.19621,7.53687 10.69623,25.51687 10.83689,39.01279 0.2749,26.37624 -15.69774,50.58139 -19.58574,76.67096 -1.96592,13.19183 -3.47263,26.73458 -1.83072,39.97064 0.48508,3.91039 3.40976,11.31863 3.40976,11.31863"
         style="display:inline;fill:none;stroke:#000000;stroke-width:2.5;stroke-linecap:butt;stroke-linejoin:miter;stroke-miterlimit:4;stroke-dasharray:none;stroke-opacity:1;enable-background:new" />
      <path
         sodipodi:nodetypes="caaaacc"
         inkscape:connector-curvature="0"
         id="path2985"
         d="m 128.59875,-463.96766 c 0.0711,-13.80643 4.46343,-25.01618 3.98804,-37.61624 -1.07935,-28.60732 -15.80025,-55.85362 -15.46418,-84.47933 0.17553,-14.95052 -1.83401,-33.73284 9.1102,-43.91974 3.54029,-3.29532 9.81148,-3.50476 14.38191,-1.92241 36.59514,12.66975 80.98617,83.29931 80.98617,83.29931 z"
         style="display:inline;fill:#e8e8e8;fill-opacity:1;stroke:none;stroke-opacity:1;enable-background:new" />
      <path
         sodipodi:nodetypes="caaaaasc"
         inkscape:connector-curvature="0"
         id="path3969"
         d="m 221.65424,-549.17864 c 0,0 -46.91381,-77.00764 -86.54882,-84.9109 -4.6762,-0.93244 -10.24849,1.64863 -13.27262,5.33524 -6.68444,8.14874 -5.49847,20.54252 -5.82883,31.07696 -0.54337,17.32678 3.44666,34.52708 6.36546,51.61488 2.43504,14.25576 8.08612,27.96921 9.28403,42.38174 0.48559,5.84256 -0.39077,14.82376 -0.87552,17.56628 -0.44321,2.50758 -5.99833,24.48687 -5.99833,24.48687"
         style="display:inline;fill:none;stroke:none;enable-background:new" />
      <path
         transform="matrix(0.99762263,-0.06891352,0.06891352,0.99762263,-129.09777,-729.39661)"
         sodipodi:nodetypes="cacaaaaaac"
         inkscape:connector-curvature="0"
         id="path4021"
         d="m 262.96159,246.27085 c 0,0 20.73122,-13.76906 31.43995,-20.09541 7.64351,-4.51552 23.39206,-12.73302 23.39206,-12.73302 0,0 -18.02031,-50.21997 -34.48602,-70.57985 -6.37413,-7.88161 -14.71456,-14.53875 -23.92603,-18.76939 -3.00586,-1.38051 -6.85195,-3.55566 -9.73339,-1.93138 -7.19361,4.05507 -7.16197,15.12998 -8.45527,23.2859 -2.03317,12.82165 -0.42824,26.05909 1.31517,38.92334 2.38167,17.57383 4.67228,35.78104 12.42067,51.73329 1.88702,3.88497 8.03286,10.16652 8.03286,10.16652 z"
         style="display:inline;fill:#ffd5d5;fill-opacity:1;stroke:none;filter:url(#filter4595);enable-background:new" />
      <path
         transform="matrix(0.99762263,-0.06891352,0.06891352,0.99762263,-129.09777,-729.39661)"
         sodipodi:nodetypes="acaacacaacaaacaaacaacaaacaacaacacaacaca"
         inkscape:connector-curvature="0"
         id="path3033"
         d="m 262.96942,127.00951 c -3.78235,-2.19635 -12.48493,-4.03695 -12.48493,-4.03695 0,0 15.66363,1.03712 21.86277,5.24915 23.21757,15.77531 34.98582,44.24793 48.43557,68.88571 2.67871,4.90694 6.32285,15.53394 6.32285,15.53394 0,0 -10.79357,3.83121 -15.89438,6.40116 -3.73357,1.88109 -0.95913,1.06846 -10.68872,6.56152 -2.16796,-1.62615 -3.66867,-5.69031 -6.37167,-7.58847 -3.84349,-2.69903 -8.73943,-3.46775 -13.22506,-4.85922 -5.8553,-1.81635 -17.82231,-4.54074 -17.82231,-4.54074 0,0 7.36916,-5.30044 11.64843,-6.52019 3.49235,-0.99544 7.25411,-0.619 10.88327,-0.49059 4.04904,0.14323 8.14738,0.40295 12.07328,1.40421 3.38429,0.86309 9.71625,3.92169 9.71625,3.92169 0,0 -5.44932,-4.52316 -8.28091,-6.64693 -2.97883,-2.23424 -5.75961,-4.87003 -9.15187,-6.40556 -5.39634,-2.44269 -11.38427,-3.49085 -17.26333,-4.21458 -5.32003,-0.65491 -16.08029,-0.0888 -16.08029,-0.0888 0,0 12.40217,-5.68038 19.06755,-6.44768 4.31115,-0.49628 8.81269,-0.0256 12.95781,1.25897 4.64694,1.4401 12.77889,7.05065 12.77889,7.05065 0,0 -5.49014,-8.45621 -9.35222,-11.56473 -2.04538,-1.64627 -4.6296,-2.49261 -7.04179,-3.52954 -4.01039,-1.72399 -8.04808,-3.53038 -12.31366,-4.45797 -7.50553,-1.63211 -22.96744,-1.86196 -22.96744,-1.86196 0,0 16.03042,-8.36038 24.65297,-7.93631 3.53627,0.17385 6.64169,2.52227 9.74246,4.23123 3.4257,1.88803 9.70016,6.60356 9.70016,6.60356 0,0 -5.22604,-6.41851 -8.41681,-9.00832 -4.42701,-3.59323 -9.42416,-6.53923 -14.63344,-8.85723 -6.58366,-2.92957 -20.69646,-6.24486 -20.69646,-6.24486 0,0 14.03135,-1.41251 20.82323,0.019 5.54675,1.16904 15.56554,6.8493 15.56554,6.8493 0,0 -7.93627,-7.37071 -12.3782,-10.43573 -2.69256,-1.8579 -5.63639,-3.33636 -8.57696,-4.76984 -5.18877,-2.52941 -15.95283,-6.73783 -15.95283,-6.73783 0,0 11.41811,-0.66481 16.86371,0.75173 3.75962,0.97794 10.41982,5.21991 10.41982,5.21991 0,0 -8.48985,-9.54366 -13.92128,-12.69763 z"
         style="display:inline;fill:#e9e8e8;fill-opacity:1;stroke:none;filter:url(#filter4363);enable-background:new" />
      <path
         sodipodi:nodetypes="caaaaac"
         inkscape:connector-curvature="0"
         id="path4167"
         d="m 127.30807,-465.16212 c 0,0 1.4483,-5.53659 1.86629,-8.36163 1.44652,-9.77658 2.67886,-19.6962 2.19754,-29.56748 -1.33911,-27.46356 -14.17205,-53.78058 -14.08795,-81.27664 0.0469,-15.32267 -3.02545,-34.73711 8.12766,-45.24399 3.90545,-3.67916 10.93303,-3.70536 15.98441,-1.89646 35.29694,12.63986 77.8901,81.14118 77.8901,81.14118"
         style="display:inline;fill:none;stroke:#000000;stroke-width:2.5;stroke-linecap:butt;stroke-linejoin:miter;stroke-miterlimit:4;stroke-dasharray:none;stroke-opacity:1;enable-background:new" />
      <path
         sodipodi:nodetypes="caassssaac"
         inkscape:connector-curvature="0"
         id="path3035"
         d="m 234.28244,-433.17206 c 0,0 4.14156,6.93052 5.92563,10.54693 3.82708,7.75773 7.39616,15.67762 10.21814,23.85473 2.79064,8.08639 5.69118,16.80114 6.59527,24.80118 0.1119,0.99009 0.80187,-0.62738 2.31486,-1.50167 3.18669,-1.84147 29.64929,-0.15097 38.43841,0.33443 2.37735,0.1313 2.55914,2.29312 2.71482,1.90556 2.43477,-6.06139 2.98617,-16.75368 5.16153,-24.96981 2.22926,-8.41969 4.45083,-16.92919 8.06591,-24.85332 1.48436,-3.2537 5.5363,-9.19012 5.5363,-9.19012"
         style="display:inline;fill:none;stroke:#1a1a1a;stroke-width:4;stroke-linecap:butt;stroke-linejoin:miter;stroke-miterlimit:4;stroke-dasharray:none;stroke-opacity:1;enable-background:new" />
      <path
         sodipodi:nodetypes="aaaacca"
         inkscape:connector-curvature="0"
         id="path3043"
         d="m 238.51006,-299.3709 c 6.10608,7.17006 15.59363,11.61777 24.82262,13.49384 11.02334,2.24084 23.3094,1.30686 33.58832,-3.26252 7.44511,-3.30964 13.3853,-9.80009 18.05392,-16.47746 10.71922,-15.33133 21.30121,-51.92131 21.30121,-51.92131 0,0 -101.87885,-2.60827 -118.59742,-1.10192 1.7222,12.93683 7.25393,43.32611 20.83135,59.26937 z"
         style="display:inline;fill:url(#radialGradient4297);fill-opacity:1;stroke:#000000;stroke-width:3;stroke-miterlimit:4;stroke-dasharray:none;stroke-opacity:1;enable-background:new" />
      <path
         transform="matrix(0.99762263,-0.06891352,0.06891352,0.99762263,-129.09777,-729.39661)"
         sodipodi:nodetypes="acaaccaa"
         inkscape:connector-curvature="0"
         id="path4399"
         d="m 343.60473,441.59281 c 12.08353,0.4471 27.66057,-10.62545 33.55811,-13.7753 4.46706,5.26265 20.60039,17.9349 33.0075,17.30589 7.87919,-0.39946 17.84694,-5.3956 19.74257,-13.05378 1.54747,-6.25163 -9.28468,-16.94378 -9.28468,-16.94378 l -78.79747,-14.22798 c 0,0 -23.22895,18.11913 -20.20794,29.70848 2.06624,7.92662 13.796,10.68359 21.98191,10.98647 z"
         style="display:inline;opacity:0.41401277;fill:#ff5555;fill-opacity:1;stroke:none;filter:url(#filter4431);enable-background:new" />
      <path
         sodipodi:nodetypes="aaaaaaaaca"
         inkscape:connector-curvature="0"
         id="path3039-5"
         d="m 276.83248,-354.05809 c 2.05617,7.39591 -0.80716,16.45209 3.58376,22.74869 6.2254,8.92724 17.85174,13.70759 28.50899,15.91536 8.75272,1.81322 18.13574,-0.12234 26.68008,-2.69358 8.2163,-2.4725 17.45518,-5.28273 22.71758,-11.96673 6.56443,-8.33775 10.24788,-20.51353 7.64922,-30.78189 -1.93695,-7.65387 -8.78789,-14.22889 -15.98519,-17.69064 -12.87615,-6.19317 -28.92678,-5.94018 -42.83954,-2.7109 -12.60262,2.92521 -33.53917,19.2475 -33.53917,19.2475 0,0 2.45977,5.18233 3.22427,7.93219 z"
         style="display:inline;fill:url(#radialGradient3177);fill-opacity:1;stroke:#000000;stroke-width:3;stroke-miterlimit:4;stroke-dasharray:none;stroke-opacity:1;enable-background:new" />
      <path
         sodipodi:nodetypes="aaaaaaaaca"
         inkscape:connector-curvature="0"
         id="path3039"
         d="m 278.2465,-353.78713 c -1.67544,7.48608 -0.36358,16.31985 -4.93837,22.47776 -6.49042,8.73646 -17.85174,13.70759 -28.50899,15.91535 -8.75273,1.81323 -18.13574,-0.12233 -26.68009,-2.69357 -8.2163,-2.4725 -17.45517,-5.28273 -22.71757,-11.96673 -6.56443,-8.33776 -10.24789,-20.51353 -7.64923,-30.7819 1.93695,-7.65386 8.78789,-14.22889 15.98519,-17.69063 12.87616,-6.19317 28.92678,-5.94019 42.83955,-2.71091 12.60262,2.92522 33.53917,19.24751 33.53917,19.24751 0,0 -1.25715,5.46632 -1.86966,8.20312 z"
         style="display:inline;fill:url(#radialGradient4313);fill-opacity:1;stroke:#000000;stroke-width:3;stroke-miterlimit:4;stroke-dasharray:none;stroke-opacity:1;enable-background:new" />
      <path
         sodipodi:nodetypes="ccccc"
         transform="matrix(0.99762263,-0.06891352,0.06891352,0.99762263,14.67099,-662.04763)"
         inkscape:connector-curvature="0"
         id="path5358"
         d="m 226.27417,308.74393 8.08122,15.65736 14.14213,1.01016 13.38453,-14.14214 z"
         style="display:inline;fill:#1a1a1a;stroke:none;filter:url(#filter5412);enable-background:new" />
      <path
         transform="matrix(0.99762263,-0.06891352,0.06891352,0.99762263,-129.09777,-729.39661)"
         sodipodi:nodetypes="caaaaaaaaaaaaaac"
         inkscape:connector-curvature="0"
         id="path3037"
         d="m 361.76766,379.81777 c -1.60294,3.23788 1.33624,8.13079 4.51093,9.85553 0.87963,0.47789 1.97046,-0.41036 2.97116,-0.43756 0.97541,-0.0265 2.3302,-0.51262 2.91499,0.2685 1.31235,1.753 -1.67177,4.29501 -1.26441,6.44659 0.99772,5.26979 3.309,13.12523 8.65439,13.56456 5.26513,0.43273 8.60895,-6.89303 10.59153,-11.78979 0.92281,-2.27924 -1.56257,-5.73947 0.27654,-7.37171 0.66124,-0.58686 1.79137,-0.0195 2.64352,0.21606 1.38853,0.38391 2.47064,2.22503 3.87658,1.91073 4.13413,-0.92423 9.12627,-5.87663 7.92131,-9.93783 -0.94911,-3.19896 -6.19455,-2.69551 -9.4991,-3.15829 -4.19525,-0.58752 -8.47648,0.90707 -12.69697,0.54264 -3.69635,-0.31916 -7.16404,-2.38775 -10.87411,-2.37437 -3.42616,0.0123 -8.50579,-0.80556 -10.02588,2.26496 z"
         style="display:inline;fill:url(#radialGradient5356);fill-opacity:1;stroke:#000000;stroke-width:3;stroke-linecap:butt;stroke-linejoin:miter;stroke-miterlimit:4;stroke-dasharray:none;stroke-opacity:1;filter:url(#filter5344);enable-background:new" />
      <path
         sodipodi:nodetypes="cc"
         transform="matrix(0.99762263,-0.06891352,0.06891352,0.99762263,-129.09777,-729.39661)"
         inkscape:connector-curvature="0"
         id="path4767"
         d="m 380.38572,409.42626 0.65841,-15.92364"
         style="display:inline;opacity:0.44904462;fill:none;stroke:#4d4d4d;stroke-width:1.39999998;stroke-linecap:round;stroke-linejoin:miter;stroke-miterlimit:4;stroke-dasharray:none;stroke-opacity:1;filter:url(#filter4507);enable-background:new" />
      <path
         sodipodi:nodetypes="caaaaaaaaaacac"
         inkscape:connector-curvature="0"
         id="path3081"
         d="m 313.88498,-439.87795 c 2.04656,-6.52493 4.78391,-13.46378 9.95604,-17.93725 5.68907,-4.92057 13.58648,-7.69059 21.10218,-7.99346 6.04423,-0.24359 12.12202,2.14611 17.43291,5.04205 3.81527,2.0804 7.96789,4.63829 9.82787,8.56572 1.77057,3.73863 1.07255,8.32582 0.38076,12.40427 -0.56921,3.35558 -1.70369,6.74735 -3.66126,9.53156 -3.28501,4.67221 -7.79351,8.78564 -12.97242,11.19392 -5.41841,2.51963 -11.72764,2.96383 -17.70177,2.83131 -4.46543,-0.0991 -8.79769,-1.59276 -13.12455,-2.70092 -2.8926,-0.74083 -5.57787,-2.74523 -8.56177,-2.63431 -1.68938,0.0627 1.27207,-0.45756 -4.72328,1.84716 0,0 0.0248,-13.7083 2.04532,-20.15005 z"
         style="display:inline;fill:#000000;stroke:#000000;stroke-width:0.88073206px;stroke-linecap:butt;stroke-linejoin:miter;stroke-opacity:1;enable-background:new" />
      <path
         sodipodi:nodetypes="aaaaaaaaaca"
         inkscape:connector-curvature="0"
         id="path3101"
         d="m 231.65636,-451.33626 c -3.23808,-4.94956 -8.25805,-8.7975 -13.52868,-11.4815 -3.84221,-1.95659 -8.25925,-3.16108 -12.56962,-3.05325 -5.70002,0.14258 -11.63769,1.7273 -16.3994,4.86367 -3.56231,2.34635 -7.3465,5.65306 -8.1873,9.83498 -1.48744,7.39802 1.99094,15.69573 6.63381,21.64442 4.47853,5.73811 11.64769,9.47167 18.69887,11.27836 6.41142,1.64275 13.39437,0.69241 19.83883,-0.81552 2.20362,-0.51561 4.02161,-2.15764 6.20313,-2.7599 2.55119,-0.70431 7.88268,-0.95132 7.88268,-0.95132 0,0 -3.13075,-20.24223 -8.57232,-28.55994 z"
         style="display:inline;fill:#000000;stroke:#000000;stroke-width:0.84759265px;stroke-linecap:butt;stroke-linejoin:miter;stroke-opacity:1;enable-background:new" />
      <ellipse
         ry="32.857143"
         rx="35.13866"
         cy="358.07648"
         cx="315.35715"
         style="display:inline;fill:url(#radialGradient4654);fill-opacity:1;stroke:#4d4d4d;stroke-width:2.96702504;stroke-linecap:square;stroke-linejoin:round;stroke-miterlimit:4;stroke-dasharray:none;stroke-opacity:1;filter:url(#filter4559);enable-background:new"
         id="path3158"
         transform="matrix(0.61203334,0.4002528,-0.35337194,0.51131236,142.69253,-750.19244)" />
      <path
         sodipodi:type="arc"
         style="display:inline;fill:url(#radialGradient3202);fill-opacity:1;stroke:#4d4d4d;stroke-width:2.42579627;stroke-linecap:square;stroke-linejoin:round;stroke-miterlimit:4;stroke-dasharray:none;stroke-opacity:1;filter:url(#filter4672);enable-background:new"
         id="path3160"
         sodipodi:cx="315.35715"
         sodipodi:cy="358.07648"
         sodipodi:rx="30.517548"
         sodipodi:ry="26.648731"
         d="m 345.85789,357.19231 a 30.517548,26.648731 0 0 1 -29.34044,27.51363 30.517548,26.648731 0 0 1 -31.6498,-25.48725 30.517548,26.648731 0 0 1 29.03374,-27.76061 30.517548,26.648731 0 0 1 31.93115,25.21824"
         transform="matrix(0.78740098,-0.27338529,0.27042083,0.76685013,-1.4625596,-629.43022)"
         sodipodi:start="6.2500007"
         sodipodi:end="6.2306197"
         sodipodi:open="true" />
      <path
         style="display:inline;fill:#000000;stroke:#000000;stroke-width:0.5305627px;stroke-linecap:butt;stroke-linejoin:miter;stroke-opacity:1;filter:url(#filter3851);enable-background:new"
         d="m 323.8225,293.45462 c -20.27598,-2.45202 -30.71507,25.27152 -6.4916,32.24816 21.67441,2.04725 24.26205,-26.01665 6.4916,-32.24816 z"
         id="path3164"
         inkscape:connector-curvature="0"
         sodipodi:nodetypes="ccc"
         transform="matrix(0.99762263,-0.06891352,0.06891352,0.99762263,-131.37165,-727.59312)" />
      <path
         sodipodi:type="arc"
         style="display:inline;fill:#ffffff;fill-opacity:1;fill-rule:nonzero;stroke:none;filter:url(#filter4099);enable-background:new"
         id="path3166"
         sodipodi:cx="198.25696"
         sodipodi:cy="-453.47559"
         sodipodi:rx="4.4061303"
         sodipodi:ry="5.3639846"
         d="m 202.66066,-453.65355 a 4.4061303,5.3639846 0 0 1 -4.23618,5.53807 4.4061303,5.3639846 0 0 1 -4.5696,-5.13019 4.4061303,5.3639846 0 0 1 4.1919,-5.58779 4.4061303,5.3639846 0 0 1 4.61022,5.07604"
         sodipodi:start="6.2500007"
         sodipodi:end="6.2306197"
         sodipodi:open="true" />
      <path
         style="display:inline;fill:#000000;stroke:#000000;stroke-width:0.5305627px;stroke-linecap:butt;stroke-linejoin:miter;stroke-opacity:1;filter:url(#filter3851-8);enable-background:new"
         d="m 323.8225,293.45462 c -20.27598,-2.45202 -30.71507,25.27152 -6.4916,32.24816 21.67441,2.04725 24.26205,-26.01665 6.4916,-32.24816 z"
         id="path3164-2"
         inkscape:connector-curvature="0"
         sodipodi:nodetypes="ccc"
         transform="matrix(-0.99762263,-0.06891352,-0.06891352,0.99762263,683.88466,-727.56404)" />
      <path
         sodipodi:type="arc"
         style="display:inline;fill:#ffffff;fill-opacity:1;fill-rule:nonzero;stroke:none;filter:url(#filter4103);enable-background:new"
         id="path3168"
         sodipodi:cx="332.16498"
         sodipodi:cy="-450.99255"
         sodipodi:rx="4.4061303"
         sodipodi:ry="5.3639846"
         d="m 336.56868,-451.17052 a 4.4061303,5.3639846 0 0 1 -4.23618,5.53807 4.4061303,5.3639846 0 0 1 -4.5696,-5.13019 4.4061303,5.3639846 0 0 1 4.1919,-5.58779 4.4061303,5.3639846 0 0 1 4.61022,5.07605"
         sodipodi:start="6.2500007"
         sodipodi:end="6.2306197"
         sodipodi:open="true" />
      <path
         transform="matrix(0.99762263,-0.06891352,0.06891352,0.99762263,-129.09777,-729.39661)"
         sodipodi:nodetypes="cac"
         inkscape:connector-curvature="0"
         id="path3046"
         d="m 444.11886,389.1085 c 0,0 53.23617,3.84787 79.15279,9.76917 24.88223,5.68496 72.52655,24.55387 72.52655,24.55387"
         style="fill:none;stroke:#4d4d4d;stroke-width:1px;stroke-linecap:butt;stroke-linejoin:miter;stroke-opacity:1;filter:url(#filter4187);enable-background:new" />
      <path
         transform="matrix(0.99762263,-0.06891352,0.06891352,0.99762263,-129.09777,-729.39661)"
         sodipodi:nodetypes="cac"
         inkscape:connector-curvature="0"
         id="path3048"
         d="m 431.94384,400.592 c 0,0 52.92608,4.49307 78.553,10.99852 34.83477,8.84288 100.97964,37.78919 100.97964,37.78919"
         style="fill:none;stroke:#4d4d4d;stroke-width:1px;stroke-linecap:butt;stroke-linejoin:miter;stroke-opacity:1;filter:url(#filter4183);enable-background:new" />
      <path
         transform="matrix(0.99762263,-0.06891352,0.06891352,0.99762263,-129.09777,-729.39661)"
         sodipodi:nodetypes="cac"
         inkscape:connector-curvature="0"
         id="path3050"
         d="m 434.11529,412.62424 c 0,0 54.11366,6.29368 79.65118,15.13796 30.17314,10.4497 85.01404,44.14911 85.01404,44.14911"
         style="fill:none;stroke:#4d4d4d;stroke-width:1px;stroke-linecap:butt;stroke-linejoin:miter;stroke-opacity:1;filter:url(#filter4179);enable-background:new" />
      <path
         transform="matrix(0.99762263,-0.06891352,0.06891352,0.99762263,-129.09777,-729.39661)"
         sodipodi:nodetypes="cac"
         inkscape:connector-curvature="0"
         id="path3052"
         d="m 425.29688,408.8729 c 0,0 56.60882,2.96035 83.68038,10.54531 28.20319,7.90202 80.1954,35.9089 80.1954,35.9089"
         style="fill:none;stroke:#4d4d4d;stroke-width:1px;stroke-linecap:butt;stroke-linejoin:miter;stroke-opacity:1;filter:url(#filter4175);enable-background:new" />
      <path
         transform="matrix(0.99762263,-0.06891352,0.06891352,0.99762263,-129.09777,-729.39661)"
         sodipodi:nodetypes="cac"
         inkscape:connector-curvature="0"
         id="path3054"
         d="m 430.94532,419.25997 c 0,0 59.18315,6.74323 86.91214,16.83819 31.59032,11.50073 88.17277,48.96428 88.17277,48.96428"
         style="fill:none;stroke:#4d4d4d;stroke-width:1px;stroke-linecap:butt;stroke-linejoin:miter;stroke-opacity:1;filter:url(#filter4171);enable-background:new" />
      <path
         transform="matrix(0.99762263,-0.06891352,0.06891352,0.99762263,-129.09777,-729.39661)"
         sodipodi:nodetypes="cac"
         inkscape:connector-curvature="0"
         id="path3056"
         d="m 439.47915,395.11901 c 0,0 39.78365,2.61596 59.11877,7.09777 32.95426,7.63865 95.80703,33.46628 95.80703,33.46628"
         style="fill:none;stroke:#4d4d4d;stroke-width:1px;stroke-linecap:butt;stroke-linejoin:miter;stroke-opacity:1;filter:url(#filter4167);enable-background:new" />
      <path
         transform="matrix(0.99762263,-0.06891352,0.06891352,0.99762263,-129.09777,-729.39661)"
         sodipodi:nodetypes="cac"
         inkscape:connector-curvature="0"
         id="path3058"
         d="m 311.47211,386.85363 c 0,0 -64.43452,3.35136 -96.07739,9.15613 -22.24178,4.08019 -65.4199,17.95386 -65.4199,17.95386"
         style="fill:none;stroke:#4d4d4d;stroke-width:1px;stroke-linecap:butt;stroke-linejoin:miter;stroke-opacity:1;filter:url(#filter4211);enable-background:new" />
      <path
         transform="matrix(0.99762263,-0.06891352,0.06891352,0.99762263,-129.09777,-729.39661)"
         sodipodi:nodetypes="cac"
         inkscape:connector-curvature="0"
         id="path3060"
         d="m 313.42429,395.32119 c 0,0 -56.78925,7.5896 -83.96222,16.19599 -27.97483,8.86037 -80.2777,36.12995 -80.2777,36.12995"
         style="fill:none;stroke:#4d4d4d;stroke-width:1px;stroke-linecap:butt;stroke-linejoin:miter;stroke-opacity:1;filter:url(#filter4207);enable-background:new" />
      <path
         transform="matrix(0.99762263,-0.06891352,0.06891352,0.99762263,-129.09777,-729.39661)"
         sodipodi:nodetypes="casc"
         inkscape:connector-curvature="0"
         id="path3062"
         d="m 331.45579,409.2403 c -3.65585,0.2249 -48.3895,4.77329 -71.7864,10.98442 -20.07722,5.3299 -43.71732,15.36529 -58.1651,22.3683 -17.93169,8.6917 -47.53844,36.24797 -47.53844,36.24797"
         style="fill:none;stroke:#4d4d4d;stroke-width:1px;stroke-linecap:butt;stroke-linejoin:miter;stroke-opacity:1;filter:url(#filter4203);enable-background:new" />
      <path
         transform="matrix(0.99762263,-0.06891352,0.06891352,0.99762263,-129.09777,-729.39661)"
         sodipodi:nodetypes="cac"
         inkscape:connector-curvature="0"
         id="path3064"
         d="m 318.40361,406.46505 c 0,0 -62.77588,6.86792 -92.37165,17.09658 -29.20742,10.09444 -82.12375,43.01662 -82.12375,43.01662"
         style="fill:none;stroke:#4d4d4d;stroke-width:1px;stroke-linecap:butt;stroke-linejoin:miter;stroke-opacity:1;filter:url(#filter4199);enable-background:new" />
      <path
         transform="matrix(0.99762263,-0.06891352,0.06891352,0.99762263,-129.09777,-729.39661)"
         sodipodi:nodetypes="cac"
         inkscape:connector-curvature="0"
         id="path3066"
         d="m 298.18944,391.96456 c -16.44144,0.29578 -56.23695,6.74848 -83.6004,13.73043 -22.05605,5.62772 -64.45001,22.57125 -64.45001,22.57125"
         style="fill:none;stroke:#4d4d4d;stroke-width:1px;stroke-linecap:butt;stroke-linejoin:miter;stroke-opacity:1;filter:url(#filter4195);enable-background:new" />
      <path
         transform="matrix(0.99762263,-0.06891352,0.06891352,0.99762263,-129.09777,-729.39661)"
         sodipodi:nodetypes="cac"
         inkscape:connector-curvature="0"
         id="path3068"
         d="m 325.93894,400.99205 c 0,0 -71.08354,7.84075 -104.67959,19.24158 -26.58098,9.02025 -74.98181,38.32687 -74.98181,38.32687"
         style="fill:none;stroke:#4d4d4d;stroke-width:1px;stroke-linecap:butt;stroke-linejoin:miter;stroke-opacity:1;filter:url(#filter4191);enable-background:new" />
      <path
         transform="matrix(0.99762263,-0.06891352,0.06891352,0.99762263,-129.09777,-729.39661)"
         sodipodi:nodetypes="cac"
         inkscape:connector-curvature="0"
         id="path3070"
         d="m 316.23759,264.31697 c 0,0 -2.79883,-54.0384 -7.95277,-80.50787 -4.90131,-25.17201 -21.71552,-73.80591 -21.71552,-73.80591"
         style="fill:none;stroke:#4d4d4d;stroke-width:1px;stroke-linecap:butt;stroke-linejoin:miter;stroke-opacity:1;filter:url(#filter4231);enable-background:new" />
      <path
         transform="matrix(0.99762263,-0.06891352,0.06891352,0.99762263,-129.09777,-729.39661)"
         sodipodi:nodetypes="cac"
         inkscape:connector-curvature="0"
         id="path3072"
         d="m 324.27055,272.21574 c 0,0 -3.45361,-60.05694 -8.90021,-89.55815 -4.67974,-25.34757 -20.3335,-74.60656 -20.3335,-74.60656"
         style="fill:none;stroke:#4d4d4d;stroke-width:1px;stroke-linecap:butt;stroke-linejoin:miter;stroke-opacity:1;filter:url(#filter4227);enable-background:new" />
      <path
         transform="matrix(0.99762263,-0.06891352,0.06891352,0.99762263,-137.25684,-724.80112)"
         sodipodi:nodetypes="cac"
         inkscape:connector-curvature="0"
         id="path3074"
         d="m 455.91907,273.74752 c 8.46152,-48.10693 10.69918,-57.31177 19.5575,-85.00463 7.64019,-23.88479 28.81351,-69.49442 28.81351,-69.49442"
         style="fill:none;stroke:#4d4d4d;stroke-width:1px;stroke-linecap:butt;stroke-linejoin:miter;stroke-opacity:1;filter:url(#filter4219);enable-background:new" />
      <path
         transform="matrix(0.99762263,-0.06891352,0.06891352,0.99762263,-129.09777,-729.39661)"
         sodipodi:nodetypes="cac"
         inkscape:connector-curvature="0"
         id="path3076"
         d="m 310.51677,267.91467 c -1.81562,-15.8853 -2.98422,-45.21656 -7.63966,-67.31328 -5.76207,-27.34918 -15.37729,-50.39327 -24.96201,-80.04692"
         style="fill:none;stroke:#4d4d4d;stroke-width:1px;stroke-linecap:butt;stroke-linejoin:miter;stroke-opacity:1;filter:url(#filter4223);enable-background:new" />
      <path
         transform="matrix(0.99762263,-0.06891352,0.06891352,0.99762263,-137.25684,-724.80112)"
         sodipodi:nodetypes="cac"
         inkscape:connector-curvature="0"
         id="path3078"
         d="m 469.94115,275.13351 c 1.16743,-6.32167 9.82768,-47.47988 19.11084,-69.71579 10.33377,-24.75244 40.2222,-69.69509 40.2222,-69.69509"
         style="fill:none;stroke:#4d4d4d;stroke-width:1px;stroke-linecap:butt;stroke-linejoin:miter;stroke-opacity:1;filter:url(#filter4155);enable-background:new" />
      <path
         transform="matrix(0.99762263,-0.06891352,0.06891352,0.99762263,-137.25684,-727.86625)"
         sodipodi:nodetypes="cac"
         inkscape:connector-curvature="0"
         id="path3074-8"
         d="m 462.0583,274.53003 c 10.69846,-48.42023 8.82132,-45.76869 16.59007,-67.64787 9.84619,-27.72987 37.75145,-79.79891 37.75145,-79.79891"
         style="fill:none;stroke:#4d4d4d;stroke-width:1px;stroke-linecap:butt;stroke-linejoin:miter;stroke-opacity:1;filter:url(#filter4215);enable-background:new" />
    </g>
  </g>
</svg>
