<?xml version="1.0" encoding="UTF-8" standalone="no"?>
<!-- Created with Inkscape (http://www.inkscape.org/) -->

<svg
   xmlns:dc="http://purl.org/dc/elements/1.1/"
   xmlns:cc="http://creativecommons.org/ns#"
   xmlns:rdf="http://www.w3.org/1999/02/22-rdf-syntax-ns#"
   xmlns:svg="http://www.w3.org/2000/svg"
   xmlns="http://www.w3.org/2000/svg"
   xmlns:sodipodi="http://sodipodi.sourceforge.net/DTD/sodipodi-0.dtd"
   xmlns:inkscape="http://www.inkscape.org/namespaces/inkscape"
   width="575"
   height="575"
   viewBox="0 0 152.13541 152.13543"
   version="1.1"
   id="svg852"
   inkscape:version="0.92.3 (2405546, 2018-03-11)"
   sodipodi:docname="Moondust logo.svg">
  <defs
     id="defs846" />
  <sodipodi:namedview
     id="base"
     pagecolor="#ffffff"
     bordercolor="#666666"
     borderopacity="1.0"
     inkscape:pageopacity="0.0"
     inkscape:pageshadow="2"
     inkscape:zoom="0.7"
     inkscape:cx="20.560065"
     inkscape:cy="177.44693"
     inkscape:document-units="mm"
     inkscape:current-layer="layer1"
     showgrid="false"
     units="px"
     fit-margin-top="50"
     fit-margin-left="50"
     fit-margin-right="50"
     fit-margin-bottom="50"
     inkscape:window-width="1920"
     inkscape:window-height="1000"
     inkscape:window-x="0"
     inkscape:window-y="31"
     inkscape:window-maximized="1" />
  <metadata
     id="metadata849">
    <rdf:RDF>
      <cc:Work
         rdf:about="">
        <dc:format>image/svg+xml</dc:format>
        <dc:type
           rdf:resource="http://purl.org/dc/dcmitype/StillImage" />
        <dc:title></dc:title>
      </cc:Work>
    </rdf:RDF>
  </metadata>
  <g
     inkscape:label="Layer 1"
     inkscape:groupmode="layer"
     id="layer1"
     transform="translate(-0.27341219,19.349565)">
    <path
       inkscape:connector-curvature="0"
       id="path22"
       d="m 116.91051,33.65558 0.39799,-7.263495 5.97001,-4.178994 -7.36301,-0.298504 -3.98,-5.969993 -0.398,7.263492 -6.0695,3.979997 7.36301,0.398 z"
       style="fill:#97b3d5;fill-rule:evenodd;stroke:none;stroke-width:0.99499893" />
    <path
       inkscape:connector-curvature="0"
       id="path24"
       d="m 93.528016,4.9001088 -2.58698,-0.895499 -0.89551,-2.4874966 -0.79599,2.5869976 -2.6865,0.895498 2.6865,0.795998 0.89548,2.686498 0.89551,-2.686498 z"
       style="fill:#97b3d5;fill-rule:evenodd;stroke:none;stroke-width:0.99499893" />
    <path
       inkscape:connector-curvature="0"
       id="path26"
       d="m 79.498536,35.944077 -4.47749,-2.089497 2.2885,4.278494 -2.18901,4.377998 4.378,-2.188998 4.378,2.089498 -2.28851,-4.278498 2.18902,-4.477494 z"
       style="fill:#97b3d5;fill-rule:evenodd;stroke:none;stroke-width:0.99499893" />
    <path
       inkscape:connector-curvature="0"
       id="path28"
       d="m 76.513526,73.256542 -1.29347,-5.771 3.88048,-4.47749 -5.77099,1.2935 -4.477489,-3.781 1.293499,5.6715 -3.880509,4.57699 5.770989,-1.393 z"
       style="fill:#97b3d5;fill-rule:evenodd;stroke:none;stroke-width:0.99499893" />
    <path
       inkscape:connector-curvature="0"
       id="path30"
       d="m 124.17399,70.669542 1.89051,-20.39748 -13.8305,15.02448 -20.397484,-1.98999 15.124004,13.92998 -0.995,10.94499 c -7.263484,1.99 -14.924994,2.4875 -23.083984,1.0945 -14.526999,-2.189 -26.068959,-9.35299 -34.625949,-21.19348 -8.756001,-11.84049 -11.840496,-25.07397 -9.651511,-39.600957 1.492517,-9.45249 5.074498,-17.611483 10.746003,-24.4769752 -4.477491,1.691497 -8.756,3.979994 -12.835497,6.9649922 -12.437472,9.054492 -19.800476,21.193479 -22.287965,36.31746 -2.387997,15.22349 0.995002,29.05397 9.949984,41.59096 9.153995,12.437488 21.292964,19.800478 36.416966,22.287978 15.223459,2.38799 29.053959,-0.8955 41.491443,-9.94999 6.96501,-5.074499 12.33801,-11.044488 16.21849,-18.108978 l 0.59701,-0.6965 20.29799,1.99 z"
       style="fill:#97b3d5;fill-rule:evenodd;stroke:none;stroke-width:0.99499893" />
    <path
       inkscape:connector-curvature="0"
       id="path32"
       d="m 53.031581,23.407089 2.487486,-2.288497 3.383,0.596998 -2.2885,-2.487497 0.597,-3.283496 -2.487516,2.288497 -3.382969,-0.696498 2.288476,2.487498 z"
       style="fill:#97b3d5;fill-rule:evenodd;stroke:none;stroke-width:0.99499893" />
  </g>
</svg>
