<?xml version="1.0" encoding="UTF-8" standalone="no"?>
<!-- Created with sK1/UniConvertor (http://sk1project.org/) -->

<svg
   xmlns:dc="http://purl.org/dc/elements/1.1/"
   xmlns:cc="http://creativecommons.org/ns#"
   xmlns:rdf="http://www.w3.org/1999/02/22-rdf-syntax-ns#"
   xmlns:svg="http://www.w3.org/2000/svg"
   xmlns="http://www.w3.org/2000/svg"
   xmlns:sodipodi="http://sodipodi.sourceforge.net/DTD/sodipodi-0.dtd"
   xmlns:inkscape="http://www.inkscape.org/namespaces/inkscape"
   width="627.18329"
   height="188.6962"
   viewBox="0 0 501.74661 150.95695"
   id="svg2"
   version="1.1"
   inkscape:version="0.91 r13725"
   sodipodi:docname="Moondust_logo_full.svg"
   style="fill-rule:evenodd">
  <metadata
     id="metadata52">
    <rdf:RDF>
      <cc:Work
         rdf:about="">
        <dc:format>image/svg+xml</dc:format>
        <dc:type
           rdf:resource="http://purl.org/dc/dcmitype/StillImage" />
        <dc:title></dc:title>
      </cc:Work>
    </rdf:RDF>
  </metadata>
  <defs
     id="defs50" />
  <sodipodi:namedview
     pagecolor="#ffffff"
     bordercolor="#666666"
     borderopacity="1"
     objecttolerance="10"
     gridtolerance="10"
     guidetolerance="10"
     inkscape:pageopacity="0"
     inkscape:pageshadow="2"
     inkscape:window-width="1280"
     inkscape:window-height="913"
     id="namedview48"
     showgrid="false"
     fit-margin-top="20"
     fit-margin-right="20"
     fit-margin-bottom="20"
     fit-margin-left="20"
     inkscape:zoom="1.268591"
     inkscape:cx="311.52952"
     inkscape:cy="91.816633"
     inkscape:window-x="0"
     inkscape:window-y="40"
     inkscape:window-maximized="1"
     inkscape:current-layer="svg2"
     units="px" />
  <g
     id="g4"
     transform="translate(-7.3533916,-499.99005)">
    <path
       style="fill:#97b3d5;stroke:none"
       d="m 489.1,585.49 0,-6 -10.1,0 c -0.4,0 -0.6,0 -0.9,-0.1 -0.2,-0.1 -0.4,-0.2 -0.5,-0.4 -0.2,-0.1 -0.2,-0.3 -0.2,-0.5 -0.1,-0.2 -0.1,-0.4 -0.1,-0.5 l 0,-17 11.1,0 0,-5.9 -11.1,0 0,-6.6 -14.2,0 0,6.6 -5.8,0 0,5.9 6,0 0,16.6 c 0,0.4 0,0.8 0,1.2 0.1,0.3 0.1,0.7 0.2,1 0.1,0.5 0.3,1 0.4,1.5 0.3,0.5 0.5,0.9 0.8,1.3 0.2,0.4 0.6,0.7 0.9,1 0.3,0.3 0.7,0.6 1,0.9 0.6,0.3 1.2,0.5 1.8,0.7 0.7,0.1 1.5,0.3 2.3,0.3 l 18.4,0 z"
       id="path6"
       inkscape:connector-curvature="0" />
    <path
       style="fill:#97b3d5;stroke:none"
       d="m 429.3,555.19 c -0.6,0 -1.2,0.1 -1.7,0.1 -0.6,0.2 -1.2,0.3 -1.7,0.5 -0.5,0.2 -0.8,0.3 -1.3,0.6 -0.3,0.2 -0.7,0.5 -1,0.8 -0.4,0.3 -0.7,0.6 -1,0.9 -0.2,0.4 -0.5,0.7 -0.7,1.2 -0.2,0.3 -0.3,0.7 -0.5,1.2 -0.1,0.5 -0.1,1 -0.1,1.5 l 0,8 c 0,0.5 0,0.8 0,1.1 0.1,0.4 0.1,0.7 0.1,1 0.2,0.4 0.4,0.7 0.5,1 0.2,0.4 0.4,0.7 0.6,0.9 0.3,0.3 0.5,0.6 0.9,0.8 0.3,0.3 0.6,0.5 1,0.6 0.5,0.2 1,0.4 1.6,0.5 0.6,0.1 1.1,0.1 1.6,0.1 l 13.7,0 c 0.1,0 0.3,0.1 0.5,0.1 0.1,0.1 0.3,0.2 0.4,0.3 0.2,0.1 0.3,0.1 0.4,0.3 0,0.1 0,0.3 0,0.4 l 0,1.7 c 0,0.2 0,0.3 0,0.5 -0.1,0.2 -0.2,0.2 -0.4,0.3 -0.1,0.2 -0.3,0.2 -0.4,0.3 -0.2,0.1 -0.4,0.1 -0.5,0.1 l -19.9,0 0,5.5 26.8,0 c 0.6,0 1.1,0 1.7,-0.2 0.5,0 1,-0.2 1.6,-0.5 0.4,-0.1 0.8,-0.3 1.1,-0.6 0.4,-0.2 0.8,-0.5 1.2,-0.9 0.2,-0.3 0.5,-0.6 0.8,-1 0.2,-0.3 0.4,-0.7 0.5,-1.1 0.3,-0.4 0.4,-0.9 0.5,-1.4 0.1,-0.5 0.2,-1 0.2,-1.6 l 0,-7.1 c 0,-0.6 -0.1,-1.1 -0.2,-1.6 0,-0.5 -0.2,-1 -0.3,-1.4 -0.2,-0.4 -0.4,-0.8 -0.5,-1.1 -0.3,-0.4 -0.5,-0.7 -0.8,-0.9 -0.3,-0.3 -0.6,-0.6 -1,-0.8 -0.4,-0.3 -0.7,-0.5 -1.1,-0.6 -0.5,-0.1 -0.8,-0.2 -1.3,-0.3 -0.5,-0.1 -0.8,-0.1 -1.3,-0.1 l -13.7,0 c -0.1,0 -0.3,0 -0.5,0 -0.1,-0.1 -0.3,-0.2 -0.5,-0.3 -0.1,0 -0.2,-0.1 -0.3,-0.2 -0.2,-0.1 -0.2,-0.2 -0.2,-0.3 l 0,-1.7 c 0,-0.2 0,-0.3 0.2,-0.5 0,0 0.1,-0.2 0.3,-0.3 0.2,0 0.3,-0.1 0.5,-0.2 0.2,0 0.3,0 0.4,0 l 18.6,0 0,-5.6 -24.8,0 z"
       id="path8"
       inkscape:connector-curvature="0" />
    <path
       style="fill:#97b3d5;stroke:none"
       d="m 416.7,555.09 -14,0 0,22.9 c 0,0.3 -0.1,0.5 -0.1,0.6 -0.2,0.2 -0.3,0.4 -0.5,0.5 -0.1,0.2 -0.3,0.3 -0.5,0.4 -0.2,0 -0.4,0 -0.6,0 l -6.3,0 c -0.2,0 -0.4,0 -0.6,-0.1 -0.2,-0.1 -0.4,-0.2 -0.6,-0.4 -0.1,-0.1 -0.3,-0.3 -0.4,-0.5 -0.2,-0.2 -0.2,-0.4 -0.2,-0.6 l 0,-22.8 -13.8,0 0,21.2 c 0,0.6 0,1.2 0.2,1.7 0.1,0.5 0.1,1 0.3,1.6 0.2,0.5 0.5,1.1 0.8,1.6 0.2,0.6 0.5,1 0.9,1.4 0.3,0.4 0.7,0.9 1.1,1.2 0.5,0.3 0.9,0.7 1.4,1 0.5,0.2 1.1,0.3 1.6,0.5 0.6,0.2 1.2,0.2 1.9,0.2 l 29.4,0 0,-30.4 z"
       id="path10"
       inkscape:connector-curvature="0" />
    <path
       style="fill:#97b3d5;stroke:none"
       d="m 374.6,544.19 -14.1,0 0,10.9 c -2.6,0 -5.1,0 -7.7,0 -2.6,0 -5.2,0 -7.7,0 -0.1,0 -0.2,0 -0.2,0 -0.1,-0.1 -0.3,-0.1 -0.5,-0.1 -0.1,0 -0.5,0 -0.8,0.1 -0.5,0.2 -1,0.4 -1.7,0.6 -0.5,0.2 -0.9,0.4 -1.3,0.8 -0.5,0.2 -1,0.5 -1.3,1 -0.3,0.3 -0.6,0.7 -0.9,1.1 -0.3,0.5 -0.5,0.9 -0.6,1.5 -0.2,0.5 -0.4,1.1 -0.5,1.7 -0.1,0.7 -0.2,1.3 -0.2,2 l 0,13.5 c 0,0.4 0.1,0.9 0.2,1.3 0.1,0.5 0.1,1 0.3,1.5 0.2,0.5 0.3,0.9 0.6,1.4 0.2,0.5 0.5,0.9 0.8,1.3 0.3,0.3 0.6,0.7 1.1,1.1 0.5,0.4 0.9,0.6 1.4,0.9 0.1,0 0.1,0 0.2,0.1 0.1,0.1 0.2,0.2 0.4,0.3 0.3,0.1 0.7,0.1 1.1,0.2 0.4,0.1 1.1,0.1 1.9,0.1 l 29.5,0 0,-41.3 z m -15.7,16.8 c 0.2,0 0.5,0.1 0.6,0.3 0.2,0 0.4,0.2 0.6,0.4 0.1,0.2 0.2,0.4 0.3,0.6 0.1,0.3 0.2,0.5 0.2,0.7 l 0,14.6 c 0,0.2 -0.1,0.4 -0.2,0.7 -0.1,0.2 -0.2,0.5 -0.3,0.7 -0.2,0.1 -0.4,0.2 -0.6,0.3 -0.1,0.2 -0.4,0.2 -0.6,0.2 l -6,0 c -0.3,0 -0.5,0 -0.8,-0.1 -0.2,-0.1 -0.3,-0.3 -0.5,-0.4 -0.2,-0.2 -0.3,-0.4 -0.4,-0.7 -0.1,-0.2 -0.1,-0.4 -0.1,-0.6 l 0,-14.6 c 0,-0.3 0,-0.5 0.1,-0.7 0.1,-0.3 0.2,-0.4 0.4,-0.6 0.1,-0.3 0.3,-0.4 0.5,-0.5 0.3,-0.2 0.5,-0.3 0.6,-0.3 l 6.2,0 z"
       id="path12"
       inkscape:connector-curvature="0" />
    <path
       style="fill:#97b3d5;stroke:none"
       d="m 333.2,565.49 c 0,-0.8 -0.1,-1.5 -0.1,-2.1 0,-0.6 -0.2,-1.3 -0.3,-1.9 -0.2,-0.5 -0.4,-1.1 -0.6,-1.6 -0.3,-0.6 -0.5,-1 -0.8,-1.4 -0.6,-1 -1.5,-1.8 -2.5,-2.4 -1.2,-0.6 -2.5,-0.9 -4,-0.9 l -29.4,0 0,30.3 14.1,0 0,-22.7 c 0,-0.3 0,-0.5 0.1,-0.8 0.2,-0.2 0.2,-0.4 0.4,-0.5 0.2,-0.1 0.3,-0.2 0.6,-0.3 0.2,-0.1 0.4,-0.2 0.6,-0.2 l 6.1,0 c 0.2,0 0.5,0.1 0.7,0.2 0.3,0.1 0.5,0.2 0.7,0.4 0.1,0.2 0.3,0.3 0.3,0.5 0.1,0.2 0.2,0.5 0.2,0.8 l 0,22.6 13.9,0 0,-20 z"
       id="path14"
       inkscape:connector-curvature="0" />
    <path
       style="fill:#97b3d5;stroke:none"
       d="m 285.6,555.29 c -0.5,0 -1,-0.1 -1.6,-0.1 l -24.1,0 c -0.4,0 -0.9,0.1 -1.4,0.1 -0.4,0 -0.9,0.2 -1.4,0.3 -0.4,0.2 -0.8,0.4 -1.3,0.7 -0.4,0.2 -0.7,0.6 -1,1 -0.4,0.4 -0.6,0.8 -0.9,1.3 -0.2,0.6 -0.4,1.2 -0.6,1.9 0,0.3 0,0.8 -0.1,1.3 0,0.4 0,0.9 0,1.5 l 0,14.6 c 0,0.4 0,0.9 0,1.2 0.1,0.4 0.1,0.7 0.1,1 0.2,0.5 0.4,1.1 0.5,1.5 0.3,0.5 0.5,0.9 0.8,1.3 0.3,0.4 0.7,0.7 1,1.1 0.4,0.3 0.8,0.5 1.2,0.8 0.6,0.2 1.1,0.4 1.7,0.5 0.6,0.2 1.2,0.2 1.9,0.2 l 23.6,0 c 0.6,0 1.1,0 1.6,-0.1 0.6,-0.1 1.2,-0.3 1.7,-0.4 0.3,-0.2 0.7,-0.4 1.1,-0.6 0.3,-0.3 0.7,-0.6 0.9,-0.9 0.3,-0.4 0.6,-0.7 0.8,-1.2 0.3,-0.4 0.5,-0.9 0.6,-1.5 0.2,-0.4 0.2,-0.9 0.2,-1.5 0.1,-0.5 0.2,-1 0.2,-1.7 l 0,-14.3 c 0,-0.5 0,-1.1 -0.1,-1.5 -0.1,-0.5 -0.1,-1 -0.2,-1.4 -0.2,-0.7 -0.4,-1.3 -0.6,-1.9 -0.3,-0.5 -0.5,-0.9 -0.8,-1.3 -0.3,-0.4 -0.8,-0.7 -1.1,-0.9 -0.4,-0.3 -0.8,-0.5 -1.2,-0.7 -0.5,-0.1 -1,-0.3 -1.5,-0.3 z m -10,5.9 c 0.2,0 0.3,0.1 0.5,0.1 0.2,0.1 0.4,0.2 0.5,0.4 0.2,0.1 0.3,0.3 0.4,0.5 0.1,0.2 0.1,0.4 0.1,0.6 l 0,15 c 0,0.2 0,0.3 -0.1,0.6 -0.1,0.2 -0.2,0.4 -0.4,0.6 -0.2,0.1 -0.3,0.2 -0.5,0.3 -0.3,0.2 -0.5,0.2 -0.7,0.2 l -6.6,0 c -0.2,0 -0.4,0 -0.6,-0.2 -0.2,-0.1 -0.4,-0.3 -0.6,-0.5 -0.1,-0.1 -0.2,-0.3 -0.3,-0.5 -0.2,-0.2 -0.2,-0.4 -0.2,-0.7 l 0,-14.8 c 0,-0.2 0,-0.4 0,-0.5 0.1,-0.2 0.2,-0.4 0.2,-0.5 0.1,-0.2 0.2,-0.3 0.3,-0.5 0.2,0 0.3,-0.1 0.4,-0.1 l 7.6,0 z"
       id="path16"
       inkscape:connector-curvature="0" />
    <path
       style="fill:#97b3d5;stroke:none"
       d="m 243.9,555.29 c -0.5,0 -1,-0.1 -1.6,-0.1 l -24,0 c -0.5,0 -1,0.1 -1.5,0.1 -0.4,0 -0.9,0.2 -1.4,0.3 -0.3,0.2 -0.7,0.4 -1.2,0.7 -0.4,0.2 -0.8,0.6 -1.1,1 -0.3,0.4 -0.5,0.8 -0.8,1.3 -0.2,0.6 -0.5,1.2 -0.6,1.9 0,0.3 -0.1,0.8 -0.1,1.3 -0.1,0.4 -0.1,0.9 -0.1,1.5 l 0,14.6 c 0,0.4 0,0.9 0.1,1.2 0,0.4 0.1,0.7 0.1,1 0.1,0.5 0.3,1.1 0.5,1.5 0.2,0.5 0.5,0.9 0.7,1.3 0.4,0.4 0.7,0.7 1,1.1 0.4,0.3 0.9,0.5 1.3,0.8 0.5,0.2 1.1,0.4 1.6,0.5 0.6,0.2 1.3,0.2 1.9,0.2 l 23.6,0 c 0.6,0 1.1,0 1.7,-0.1 0.6,-0.1 1.1,-0.3 1.6,-0.4 0.3,-0.2 0.7,-0.4 1.1,-0.6 0.4,-0.3 0.7,-0.6 1,-0.9 0.3,-0.4 0.6,-0.7 0.8,-1.2 0.2,-0.4 0.4,-0.9 0.6,-1.5 0.1,-0.4 0.2,-0.9 0.2,-1.5 0,-0.5 0.1,-1 0.1,-1.7 l 0,-14.3 c 0,-0.5 0,-1.1 -0.1,-1.5 0,-0.5 0,-1 -0.1,-1.4 -0.2,-0.7 -0.4,-1.3 -0.6,-1.9 -0.3,-0.5 -0.5,-0.9 -0.8,-1.3 -0.4,-0.4 -0.8,-0.7 -1.1,-0.9 -0.4,-0.3 -0.9,-0.5 -1.3,-0.7 -0.5,-0.1 -0.9,-0.3 -1.5,-0.3 z m -10,5.9 c 0.2,0 0.4,0.1 0.6,0.1 0.2,0.1 0.3,0.2 0.5,0.4 0.2,0.1 0.3,0.3 0.3,0.5 0.1,0.2 0.2,0.4 0.2,0.6 l 0,15 c 0,0.2 -0.1,0.3 -0.2,0.6 0,0.2 -0.2,0.4 -0.4,0.6 -0.1,0.1 -0.3,0.2 -0.5,0.3 -0.2,0.2 -0.5,0.2 -0.6,0.2 l -6.6,0 c -0.3,0 -0.4,0 -0.6,-0.2 -0.3,-0.1 -0.4,-0.3 -0.6,-0.5 -0.2,-0.1 -0.2,-0.3 -0.4,-0.5 -0.1,-0.2 -0.2,-0.4 -0.2,-0.7 l 0,-14.8 c 0,-0.2 0,-0.4 0.1,-0.5 0.1,-0.2 0.1,-0.4 0.2,-0.5 0.1,-0.2 0.1,-0.3 0.3,-0.5 0.2,0 0.3,-0.1 0.3,-0.1 l 7.6,0 z"
       id="path18"
       inkscape:connector-curvature="0" />
    <path
       style="fill:#97b3d5;stroke:none"
       d="m 172,585.49 9.9,0 10.9,-33 0,33 14.2,0 0,-41.3 -18.1,0 -7.8,23.5 -7.3,-23.5 -18.5,0 0,41.3 6.3,0 0,-32.6 10.4,32.6 z"
       id="path20"
       inkscape:connector-curvature="0" />
    <path
       style="fill:#97b3d5;stroke:none"
       d="m 131.3,552.29 0.4,-7.3 6,-4.2 -7.4,-0.3 -4,-6 -0.4,7.3 -6.1,4 7.4,0.4 4.1,6.1 z"
       id="path22"
       inkscape:connector-curvature="0" />
    <path
       style="fill:#97b3d5;stroke:none"
       d="m 107.8,523.39 -2.6,-0.9 -0.9,-2.5 -0.8,2.6 -2.7,0.9 2.7,0.8 0.9,2.7 0.9,-2.7 2.5,-0.9 z"
       id="path24"
       inkscape:connector-curvature="0" />
    <path
       style="fill:#97b3d5;stroke:none"
       d="m 93.7,554.59 -4.5,-2.1 2.3,4.3 -2.2,4.4 4.4,-2.2 4.4,2.1 -2.3,-4.3 2.2,-4.5 -4.3,2.3 z"
       id="path26"
       inkscape:connector-curvature="0" />
    <path
       style="fill:#97b3d5;stroke:none"
       d="m 90.7,592.09 -1.3,-5.8 3.9,-4.5 -5.8,1.3 -4.5,-3.8 1.3,5.7 -3.9,4.6 5.8,-1.4 4.5,3.9 z"
       id="path28"
       inkscape:connector-curvature="0" />
    <path
       style="fill:#97b3d5;stroke:none"
       d="m 138.6,589.49 1.9,-20.5 -13.9,15.1 -20.5,-2 15.2,14 -1,11 c -7.3,2 -15,2.5 -23.2,1.1 -14.6,-2.2 -26.2,-9.4 -34.8,-21.3 -8.8,-11.9 -11.9,-25.2 -9.7,-39.8 1.5,-9.5 5.1,-17.7 10.8,-24.6 -4.5,1.7 -8.8,4 -12.9,7 -12.5,9.1 -19.9,21.3 -22.4,36.5 -2.4,15.3 1,29.2 10,41.8 9.2,12.5 21.4,19.9 36.6,22.4 15.3,2.4 29.2,-0.9 41.7,-10 7,-5.1 12.4,-11.1 16.3,-18.2 l 0.6,-0.7 20.4,2 -15.1,-13.8 z"
       id="path30"
       inkscape:connector-curvature="0" />
    <path
       style="fill:#97b3d5;stroke:none"
       d="m 67.1,541.99 2.5,-2.3 3.4,0.6 -2.3,-2.5 0.6,-3.3 -2.5,2.3 -3.4,-0.7 2.3,2.5 -0.6,3.4 z"
       id="path32"
       inkscape:connector-curvature="0" />
    <path
       style="fill:#97b3d5;stroke:none"
       d="m 487.3,593.59 c -0.2,-0.1 -0.2,-0.3 -0.4,-0.5 -0.1,-0.1 -0.3,-0.2 -0.4,-0.3 -0.2,-0.1 -0.4,-0.1 -0.6,-0.2 -0.3,0 -0.5,0 -0.7,0 l -7.9,0 c -0.2,0 -0.4,0 -0.5,0 -0.2,0.1 -0.4,0.1 -0.5,0.1 -0.2,0.1 -0.4,0.2 -0.5,0.4 -0.2,0 -0.2,0.2 -0.4,0.4 0,0.1 -0.1,0.3 -0.2,0.5 -0.1,0.1 -0.1,0.3 -0.1,0.6 0,0.1 0,0.2 -0.1,0.4 0,0.1 0,0.3 0,0.5 l 0,4.6 c 0,0.1 0,0.3 0,0.5 0.1,0.1 0.1,0.2 0.1,0.4 0,0.1 0,0.3 0.1,0.5 0.1,0.1 0.2,0.2 0.2,0.4 0.1,0.2 0.2,0.3 0.4,0.4 0.1,0.2 0.3,0.3 0.4,0.3 0.2,0.1 0.4,0.1 0.6,0.2 0.1,0 0.3,0 0.6,0 l 9.7,0 0,-2 -6.5,0 c -0.2,0 -0.2,0 -0.3,-0.1 -0.2,0 -0.2,-0.1 -0.4,-0.1 0,-0.1 -0.1,-0.3 -0.1,-0.4 -0.1,-0.1 -0.1,-0.1 -0.1,-0.2 l 0,-1.2 7.9,0 0,-3.6 c 0,-0.2 0,-0.5 0,-0.7 -0.1,-0.2 -0.1,-0.4 -0.2,-0.5 0,-0.2 -0.1,-0.3 -0.1,-0.4 z m -4.3,1.4 c 0.1,0.1 0.1,0.1 0.1,0.2 l 0,1.6 -3.4,0 0,-1.6 c 0,-0.1 0,-0.1 0.1,-0.2 0,0 0,-0.2 0.1,-0.2 0,-0.1 0.1,-0.1 0.2,-0.2 0,0 0,0 0.1,0 l 2.3,0 c 0.1,0 0.1,0 0.2,0 0.1,0.1 0.1,0.1 0.2,0.2 0,0 0,0.2 0.1,0.2 z"
       id="path34"
       inkscape:connector-curvature="0" />
    <path
       style="fill:#97b3d5;stroke:none"
       d="m 436.2,594.59 c 0.1,0 0.2,0 0.2,0 l 2.1,0 c 0.1,0 0.1,0 0.2,0 0.1,0.1 0.2,0.1 0.2,0.2 0.1,0 0.1,0.1 0.2,0.2 0,0 0,0.1 0,0.2 l 0,7.6 4.8,0 0,-6.7 c 0,-0.3 0,-0.5 -0.1,-0.7 0,-0.3 -0.1,-0.4 -0.2,-0.7 0,-0.1 0,-0.4 -0.1,-0.5 -0.1,-0.1 -0.2,-0.3 -0.3,-0.5 -0.3,-0.3 -0.5,-0.6 -0.8,-0.7 -0.5,-0.3 -0.9,-0.4 -1.3,-0.4 l -10,0 0,10.2 4.8,0 0,-7.6 c 0,-0.1 0,-0.2 0,-0.2 0,-0.2 0.1,-0.2 0.2,-0.3 0,0 0,0 0.1,-0.1 z"
       id="path36"
       inkscape:connector-curvature="0" />
    <path
       style="fill:#97b3d5;stroke:none"
       d="m 400.1,588.89 -4.7,0 0,2.7 4.7,0 0,-2.7 z"
       id="path38"
       inkscape:connector-curvature="0" />
    <path
       style="fill:#97b3d5;stroke:none"
       d="m 400.1,592.59 -4.7,0 0,10.2 4.7,0 0,-10.2 z"
       id="path40"
       inkscape:connector-curvature="0" />
    <path
       style="fill:#97b3d5;stroke:none"
       d="m 353.7,592.49 c -0.2,0 -0.4,0.1 -0.6,0.1 -0.2,0 -0.3,0.1 -0.5,0.1 -0.1,0.1 -0.3,0.3 -0.5,0.4 -0.1,0.1 -0.2,0.2 -0.3,0.4 -0.1,0.1 -0.2,0.3 -0.3,0.5 -0.1,0.1 -0.1,0.2 -0.2,0.5 0,0.1 -0.1,0.3 -0.1,0.5 -0.1,0.1 -0.1,0.2 -0.1,0.4 l 0,4.6 c 0,0.1 0,0.3 0.1,0.6 0.1,0.1 0.1,0.4 0.2,0.5 0,0.1 0.1,0.3 0.2,0.5 0,0.1 0.1,0.2 0.2,0.4 0.1,0.1 0.3,0.2 0.4,0.3 0.2,0.1 0.2,0.2 0.4,0.3 0.2,0 0.3,0.1 0.5,0.1 0.2,0.1 0.4,0.1 0.7,0.1 l 5.3,0 0,0.9 c 0,0.1 0,0.3 0,0.4 -0.1,0.1 -0.2,0.2 -0.2,0.3 -0.1,0.1 -0.2,0.2 -0.3,0.2 -0.2,0.1 -0.3,0.1 -0.5,0.1 l -6.2,0 0,2 9.5,0 c 0.2,0 0.4,-0.1 0.5,-0.1 0.2,0 0.4,-0.1 0.5,-0.2 0.1,-0.1 0.2,-0.2 0.4,-0.3 0.1,-0.1 0.1,-0.2 0.3,-0.4 0,-0.1 0.2,-0.2 0.3,-0.4 0,-0.1 0.1,-0.2 0.2,-0.4 0,-0.2 0,-0.3 0.1,-0.5 0.1,-0.2 0.1,-0.3 0.1,-0.6 l 0,-11.3 -10.1,0 z m 5.3,2.5 c 0.1,0.1 0.1,0.1 0.1,0.2 l 0,5.1 c 0,0 0,0.2 -0.1,0.2 0,0.1 -0.1,0.1 -0.1,0.1 0,0.1 -0.1,0.1 -0.1,0.2 -0.1,0 -0.2,0 -0.2,0 l -2.2,0 c 0,0 -0.1,0 -0.1,0 -0.2,-0.1 -0.2,-0.1 -0.2,-0.2 -0.1,0 -0.2,-0.1 -0.2,-0.1 0,-0.1 0,-0.2 0,-0.3 l 0,-5 c 0,-0.1 0,-0.1 0,-0.2 0,0 0,-0.2 0,-0.2 0.1,-0.1 0.1,-0.1 0.2,-0.2 0,0 0,0 0.1,0 l 2.3,0 c 0.1,0 0.1,0 0.2,0 0.1,0.1 0.2,0.1 0.2,0.2 0,0 0,0.2 0.1,0.2 z"
       id="path42"
       inkscape:connector-curvature="0" />
    <path
       style="fill:#97b3d5;stroke:none"
       d="m 319.9,602.79 0,-6.7 c 0,-0.3 0,-0.5 0,-0.7 0,-0.3 -0.1,-0.4 -0.1,-0.7 -0.1,-0.1 -0.2,-0.4 -0.2,-0.5 -0.1,-0.1 -0.2,-0.3 -0.3,-0.5 -0.2,-0.3 -0.5,-0.6 -0.9,-0.7 -0.3,-0.3 -0.8,-0.4 -1.3,-0.4 l -9.9,0 0,10.2 4.7,0 0,-7.6 c 0,-0.1 0,-0.2 0.1,-0.2 0.1,-0.2 0.1,-0.2 0.1,-0.3 0.1,0 0.2,0 0.2,-0.1 0.1,0 0.2,0 0.3,0 l 2,0 c 0,0 0.2,0 0.2,0 0.1,0.1 0.2,0.1 0.3,0.2 0,0 0,0.1 0,0.2 0.1,0 0.1,0.1 0.1,0.2 l 0,7.6 4.7,0 z"
       id="path44"
       inkscape:connector-curvature="0" />
    <path
       style="fill:#97b3d5;stroke:none"
       d="m 264.5,592.69 c -0.1,0.1 -0.3,0.2 -0.4,0.4 -0.2,0 -0.3,0.2 -0.4,0.4 -0.1,0.1 -0.2,0.3 -0.3,0.5 0,0.1 0,0.3 -0.1,0.6 0,0.1 0,0.2 0,0.4 0,0.1 0,0.3 0,0.5 l 0,4.6 c 0,0.1 0,0.3 0,0.5 0,0.1 0,0.2 0,0.4 0.1,0.1 0.1,0.3 0.1,0.5 0.1,0.1 0.2,0.2 0.2,0.4 0.2,0.2 0.3,0.3 0.4,0.4 0.1,0.2 0.3,0.3 0.4,0.3 0.2,0.1 0.4,0.1 0.6,0.2 0.2,0 0.4,0 0.6,0 l 9.8,0 0,-2 -6.6,0 c -0.1,0 -0.2,0 -0.3,-0.1 -0.1,0 -0.2,-0.1 -0.3,-0.1 -0.1,-0.1 -0.1,-0.3 -0.2,-0.4 -0.1,-0.1 -0.1,-0.1 -0.1,-0.2 l 0,-1.2 8,0 0,-3.6 c 0,-0.2 0,-0.5 -0.1,-0.7 0,-0.2 0,-0.4 -0.1,-0.5 -0.1,-0.2 -0.1,-0.3 -0.2,-0.4 -0.1,-0.1 -0.2,-0.3 -0.4,-0.5 -0.1,-0.1 -0.2,-0.2 -0.3,-0.3 -0.2,-0.1 -0.4,-0.1 -0.7,-0.2 -0.2,0 -0.5,0 -0.7,0 l -7.8,0 c -0.2,0 -0.4,0 -0.6,0 -0.1,0.1 -0.4,0.1 -0.5,0.1 z m 3.8,1.9 c 0.1,0 0.1,0 0.1,0 l 2.4,0 c 0,0 0.1,0 0.1,0 0.1,0.1 0.2,0.1 0.2,0.2 0,0 0.1,0.2 0.2,0.2 0,0.1 0,0.1 0,0.2 l 0,1.6 -3.4,0 0,-1.6 c 0,-0.1 0,-0.1 0.1,-0.2 0.1,0 0.1,-0.2 0.1,-0.2 0,-0.1 0.2,-0.1 0.2,-0.2 z"
       id="path46"
       inkscape:connector-curvature="0" />
  </g>
</svg>
