<?xml version="1.0" encoding="UTF-8" standalone="no"?>
<!-- Created with Inkscape (http://www.inkscape.org/) -->

<svg
   xmlns:dc="http://purl.org/dc/elements/1.1/"
   xmlns:cc="http://creativecommons.org/ns#"
   xmlns:rdf="http://www.w3.org/1999/02/22-rdf-syntax-ns#"
   xmlns:svg="http://www.w3.org/2000/svg"
   xmlns="http://www.w3.org/2000/svg"
   xmlns:sodipodi="http://sodipodi.sourceforge.net/DTD/sodipodi-0.dtd"
   xmlns:inkscape="http://www.inkscape.org/namespaces/inkscape"
   width="92.806595mm"
   height="86.611443mm"
   viewBox="0 0 328.84227 306.89094"
   id="svg4174"
   version="1.1"
   inkscape:version="0.91 r13725"
   sodipodi:docname="Moondust-Maintainer.svg">
  <defs
     id="defs4176" />
  <sodipodi:namedview
     id="base"
     pagecolor="#ffffff"
     bordercolor="#666666"
     borderopacity="1.0"
     inkscape:pageopacity="0.0"
     inkscape:pageshadow="2"
     inkscape:zoom="1.4"
     inkscape:cx="218.59414"
     inkscape:cy="129.12553"
     inkscape:document-units="px"
     inkscape:current-layer="layer1"
     showgrid="false"
     fit-margin-top="10"
     fit-margin-right="10"
     fit-margin-left="10"
     fit-margin-bottom="10"
     inkscape:window-width="1280"
     inkscape:window-height="945"
     inkscape:window-x="0"
     inkscape:window-y="25"
     inkscape:window-maximized="1" />
  <metadata
     id="metadata4179">
    <rdf:RDF>
      <cc:Work
         rdf:about="">
        <dc:format>image/svg+xml</dc:format>
        <dc:type
           rdf:resource="http://purl.org/dc/dcmitype/StillImage" />
        <dc:title></dc:title>
      </cc:Work>
    </rdf:RDF>
  </metadata>
  <g
     inkscape:label="Layer 1"
     inkscape:groupmode="layer"
     id="layer1"
     transform="translate(4.3997016,4.5618229)">
    <path
       inkscape:connector-curvature="0"
       id="path22"
       d="m 243.27288,96.821801 0.81673,-14.905234 12.25087,-8.575613 -15.10941,-0.612544 -8.16725,-12.250877 -0.81673,14.905233 -12.45505,8.167252 15.10941,0.816725 8.37143,12.455058 z"
       style="fill:#ffccaa;fill-rule:evenodd;stroke:none" />
    <path
       inkscape:connector-curvature="0"
       id="path24"
       d="m 195.29028,37.813411 -5.30871,-1.837631 -1.83763,-5.104532 -1.63345,5.308713 -5.5129,1.837632 5.5129,1.63345 1.83763,5.512894 1.83763,-5.512894 5.10453,-1.837632 z"
       style="fill:#ffccaa;fill-rule:evenodd;stroke:none" />
    <path
       inkscape:connector-curvature="0"
       id="path26"
       d="m 166.50072,101.51797 -9.18816,-4.287807 4.69617,8.779797 -4.49198,8.98397 8.98397,-4.49198 8.98398,4.2878 -4.69617,-8.77979 4.49199,-9.188159 -8.7798,4.696169 z"
       style="fill:#ffccaa;fill-rule:evenodd;stroke:none" />
    <path
       inkscape:connector-curvature="0"
       id="path28"
       d="m 160.37528,178.08595 -2.65435,-11.84251 7.96307,-9.18816 -11.84252,2.65436 -9.18815,-7.75889 2.65435,11.63833 -7.96307,9.39234 11.84252,-2.85854 9.18815,7.96307 z"
       style="fill:#ffccaa;fill-rule:evenodd;stroke:none" />
    <path
       inkscape:connector-curvature="0"
       id="path30"
       d="m 258.17812,172.77724 3.87944,-41.85717 -28.3812,30.83138 -41.85716,-4.08363 31.03555,28.58538 -2.04181,22.45994 c -14.90523,4.08363 -30.62719,5.10454 -47.37005,2.246 C 143.63242,206.46715 119.94739,191.7661 102.3878,167.46853 84.419849,143.17095 78.090229,116.01484 82.582217,86.204374 85.644936,66.807153 92.995462,50.064288 104.6338,35.97578 95.445638,39.446862 86.665843,44.143031 78.29441,50.268469 52.771751,68.848966 37.662336,93.759081 32.557804,124.79464 c -4.900351,31.23973 2.041813,59.62093 20.418128,85.34777 18.784677,25.52266 43.694793,40.63208 74.730348,45.73661 31.23973,4.90035 59.62093,-1.83763 85.14359,-20.41813 14.29269,-10.41324 25.31848,-22.66412 33.28155,-37.16099 l 1.22509,-1.42927 41.65298,4.08363 -30.83137,-28.17702 z"
       style="fill:#ffccaa;fill-rule:evenodd;stroke:none" />
    <path
       inkscape:connector-curvature="0"
       id="path32"
       d="m 112.1885,75.791129 5.10453,-4.696169 6.94217,1.225087 -4.69617,-5.104532 1.22509,-6.737982 -5.10454,4.69617 -6.94216,-1.429269 4.69617,5.104532 -1.22509,6.942163 z"
       style="fill:#ffccaa;fill-rule:evenodd;stroke:none" />
    <path
       inkscape:connector-curvature="0"
       id="path30-3"
       style="fill:#d38d5f;fill-opacity:1;fill-rule:nonzero;stroke:none"
       d="m 209.85648,112.08068 c 10.87589,4.98608 23.2585,17.59482 25.2855,19.48928 2.027,1.89447 7.17487,6.36008 8.26837,7.03719 1.09349,0.67671 24.67594,12.01458 23.86313,14.36195 -0.813,2.34758 -14.95966,16.74515 -16.3856,16.79315 -1.42632,0.0485 -17.10148,-14.94743 -17.10148,-14.94743 l -8.36355,5.99331 -1.94866,-1.82124 -44.14871,47.23752 0.151,0.14112 c 0,0 -7.15207,15.31924 -17.47264,26.36188 -10.32077,11.04282 -36.80306,41.70432 -45.98715,32.45311 -9.18445,-9.25083 3.52292,-17.39621 20.16914,-35.20706 16.64623,-17.81085 34.67994,-31.6556 34.67994,-31.6556 l 0.302,0.28225 44.14872,-47.2375 -2.05583,-1.92139 c 0,0 3.64096,-3.15685 3.21548,-10.45912 -0.42507,-7.30229 -4.9561,-14.64445 -13.95294,-16.83854 -8.99702,-2.19428 -22.85338,-0.29917 -20.41729,-2.16521 4.12741,-3.16306 19.35125,-2.97397 19.35125,-2.97397 -8.38037,-5.07023 -22.45989,0.75873 -21.10525,-1.42711 1.35302,-2.18814 18.62867,-8.48266 29.50457,-3.49659" />
  </g>
</svg>
