<?xml version="1.0" encoding="UTF-8" standalone="no"?>
<!-- Created with Inkscape (http://www.inkscape.org/) -->

<svg
   xmlns:dc="http://purl.org/dc/elements/1.1/"
   xmlns:cc="http://creativecommons.org/ns#"
   xmlns:rdf="http://www.w3.org/1999/02/22-rdf-syntax-ns#"
   xmlns:svg="http://www.w3.org/2000/svg"
   xmlns="http://www.w3.org/2000/svg"
   xmlns:xlink="http://www.w3.org/1999/xlink"
   xmlns:sodipodi="http://sodipodi.sourceforge.net/DTD/sodipodi-0.dtd"
   xmlns:inkscape="http://www.inkscape.org/namespaces/inkscape"
   width="630.2356"
   height="630.2356"
   id="svg2"
   version="1.1"
   inkscape:version="0.91 r"
   sodipodi:docname="LunaLUA_concept2.svg"
   inkscape:export-filename="D:\Developer\__GitHubRepos\PGE-Project\_Misc\source_images\LunaLUA\LunaLUA.png"
   inkscape:export-xdpi="114.24299"
   inkscape:export-ydpi="114.24299">
  <defs
     id="defs4">
    <radialGradient
       id="radialGradient4333"
       cx="71.282204"
       cy="223.7935"
       r="0"
       gradientTransform="matrix(-1,0,0,1,260.085,0)"
       gradientUnits="userSpaceOnUse">
      <stop
         offset="0"
         style="stop-color:#5c5c5c;stop-opacity:1"
         id="stop4335" />
      <stop
         offset="0.64281338"
         style="stop-color:#afafaf;stop-opacity:1"
         id="stop4337" />
      <stop
         offset="1"
         style="stop-color:#c7c7c7;stop-opacity:1"
         id="stop4339" />
    </radialGradient>
    <linearGradient
       id="linearGradient3860">
      <stop
         style="stop-color:#ffff00;stop-opacity:1;"
         offset="0"
         id="stop3862" />
      <stop
         style="stop-color:#ffa51f;stop-opacity:1;"
         offset="1"
         id="stop3864" />
    </linearGradient>
    <linearGradient
       id="linearGradient3755">
      <stop
         style="stop-color:#99a1f5;stop-opacity:1;"
         offset="0"
         id="stop3757" />
      <stop
         style="stop-color:#000af5;stop-opacity:1;"
         offset="1"
         id="stop3759" />
    </linearGradient>
    <radialGradient
       inkscape:collect="always"
       xlink:href="#linearGradient3755"
       id="radialGradient3765"
       cx="257.54266"
       cy="139.2119"
       fx="257.54266"
       fy="139.2119"
       r="158.8338"
       gradientUnits="userSpaceOnUse"
       gradientTransform="matrix(2.0011222,0.20455245,-0.25056647,2.4512745,-152.94402,-19.98732)" />
    <radialGradient
       inkscape:collect="always"
       xlink:href="#linearGradient3755"
       id="radialGradient3794"
       cx="383.396"
       cy="230.95139"
       fx="383.396"
       fy="230.95139"
       r="73.39286"
       gradientUnits="userSpaceOnUse"
       gradientTransform="matrix(1.737203,-0.10027166,0.11388109,1.9729856,-310.19485,-168.42923)" />
    <linearGradient
       inkscape:collect="always"
       xlink:href="#linearGradient3860"
       id="linearGradient3868"
       x1="623.81696"
       y1="285.22321"
       x2="395.5491"
       y2="722.36603"
       gradientUnits="userSpaceOnUse"
       gradientTransform="matrix(0.66176326,0,0,0.66176326,108.05936,111.67848)" />
    <radialGradient
       inkscape:collect="always"
       xlink:href="#linearGradient3755"
       id="radialGradient3888"
       gradientUnits="userSpaceOnUse"
       gradientTransform="matrix(2.0011222,0.20455245,-0.25056647,2.4512745,-140.94402,-11.98732)"
       cx="257.54266"
       cy="139.2119"
       fx="257.54266"
       fy="139.2119"
       r="158.8338" />
    <radialGradient
       inkscape:collect="always"
       xlink:href="#linearGradient3755"
       id="radialGradient3890"
       gradientUnits="userSpaceOnUse"
       gradientTransform="matrix(2.0011222,0.20455245,-0.25056647,2.4512745,-180.62706,-98.58607)"
       cx="257.54266"
       cy="139.2119"
       fx="257.54266"
       fy="139.2119"
       r="158.8338" />
    <radialGradient
       inkscape:collect="always"
       xlink:href="#linearGradient3755"
       id="radialGradient3893"
       gradientUnits="userSpaceOnUse"
       gradientTransform="matrix(2.0011222,0.20455245,-0.25056647,2.4512745,-52.94402,-109.98732)"
       cx="257.54266"
       cy="139.2119"
       fx="257.54266"
       fy="139.2119"
       r="158.8338" />
    <filter
       inkscape:collect="always"
       style="color-interpolation-filters:sRGB"
       id="filter4604-8"
       x="-0.40738595"
       width="1.8147719"
       y="-0.40861589"
       height="1.8172318">
      <feGaussianBlur
         inkscape:collect="always"
         stdDeviation="3.6665713"
         id="feGaussianBlur4606-8" />
    </filter>
    <filter
       inkscape:collect="always"
       style="color-interpolation-filters:sRGB"
       id="filter4604"
       x="-0.40738595"
       width="1.8147719"
       y="-0.40861589"
       height="1.8172318">
      <feGaussianBlur
         inkscape:collect="always"
         stdDeviation="3.6665713"
         id="feGaussianBlur4606" />
    </filter>
    <radialGradient
       inkscape:collect="always"
       xlink:href="#radialGradient4211"
       id="radialGradient4231"
       cx="122.00024"
       cy="238.25386"
       fx="122.00024"
       fy="238.25386"
       r="64.315659"
       gradientTransform="matrix(1.6197803,-0.46682952,1.1192975,3.8836787,-151.91456,-328.78175)"
       gradientUnits="userSpaceOnUse" />
    <radialGradient
       id="radialGradient4211"
       cx="194.42618"
       cy="201.19781"
       r="133.0896"
       fx="194.42618"
       fy="201.19781"
       gradientTransform="matrix(-0.96016972,-0.60648864,-0.86656081,1.3719059,438.91415,72.886346)"
       gradientUnits="userSpaceOnUse">
      <stop
         offset="0"
         style="stop-color:#FFFFFF"
         id="stop4213" />
      <stop
         offset="0.36437646"
         style="stop-color:#fcfcfc;stop-opacity:1"
         id="stop4215" />
      <stop
         offset="0.58411133"
         style="stop-color:#f4f4f4;stop-opacity:1"
         id="stop4217" />
      <stop
         offset="0.82940394"
         style="stop-color:#e3e3e3;stop-opacity:1"
         id="stop4219" />
      <stop
         offset="0.87983263"
         style="stop-color:#d3d3d3;stop-opacity:1"
         id="stop4221" />
      <stop
         offset="0.94633228"
         style="stop-color:#8d8d8d;stop-opacity:1"
         id="stop4223" />
      <stop
         id="stop4225"
         style="stop-color:#898989;stop-opacity:1"
         offset="1" />
    </radialGradient>
    <radialGradient
       gradientUnits="userSpaceOnUse"
       gradientTransform="matrix(-0.95294683,-0.068459,-0.11719881,1.6314029,292.49477,-65.959784)"
       fy="194.01567"
       fx="158.03026"
       r="133.0896"
       cy="194.01567"
       cx="158.03026"
       id="SVGID_1_">
      <stop
         id="stop4191"
         style="stop-color:#FFFFFF"
         offset="0" />
      <stop
         id="stop4193"
         style="stop-color:#FEFCFA"
         offset="0.28380904" />
      <stop
         id="stop4195"
         style="stop-color:#f4f4f4;stop-opacity:1"
         offset="0.30546367" />
      <stop
         id="stop4197"
         style="stop-color:#e7e7e7;stop-opacity:1"
         offset="0.34714994" />
      <stop
         id="stop4199"
         style="stop-color:#cdcdcd;stop-opacity:1"
         offset="0.39159137" />
      <stop
         id="stop4201"
         style="stop-color:#8d8d8d;stop-opacity:1"
         offset="0.45094788" />
      <stop
         offset="0.69919461"
         style="stop-color:#898989;stop-opacity:1"
         id="stop4356" />
      <stop
         offset="0.79091775"
         style="stop-color:#898989;stop-opacity:1"
         id="stop4203" />
      <stop
         id="stop4233"
         style="stop-color:#808080;stop-opacity:1"
         offset="0.81391877" />
      <stop
         offset="0.83248228"
         style="stop-color:#767676;stop-opacity:1"
         id="stop4205" />
      <stop
         id="stop4207"
         style="stop-color:#252525;stop-opacity:1"
         offset="1" />
    </radialGradient>
    <radialGradient
       gradientUnits="userSpaceOnUse"
       gradientTransform="matrix(-1,0,0,1,260.085,0)"
       r="0"
       cy="223.7935"
       cx="71.282204"
       id="SVGID_2_">
      <stop
         id="stop4641"
         style="stop-color:#FFFFFF"
         offset="0" />
      <stop
         id="stop4643"
         style="stop-color:#FEFCFA"
         offset="0.147" />
      <stop
         id="stop4645"
         style="stop-color:#FBF4ED"
         offset="0.3107" />
      <stop
         id="stop4647"
         style="stop-color:#F6E7D7"
         offset="0.4827" />
      <stop
         id="stop4649"
         style="stop-color:#F0D4B7"
         offset="0.6602" />
      <stop
         id="stop4651"
         style="stop-color:#E7BD90"
         offset="0.8401" />
      <stop
         id="stop4653"
         style="stop-color:#DEA466"
         offset="1" />
    </radialGradient>
    <radialGradient
       inkscape:collect="always"
       xlink:href="#radialGradient4333"
       id="radialGradient4637"
       cx="185.96101"
       cy="85.354515"
       fx="185.96101"
       fy="85.354515"
       r="13.668147"
       gradientTransform="matrix(0.99998724,0.00505087,-0.01809818,3.583138,1.5570852,-209.84497)"
       gradientUnits="userSpaceOnUse" />
    <radialGradient
       gradientUnits="userSpaceOnUse"
       gradientTransform="matrix(-1,0,0,1,260.085,0)"
       r="0"
       cy="223.7935"
       cx="71.282204"
       id="radialGradient4673">
      <stop
         id="stop4675"
         style="stop-color:#5c5c5c;stop-opacity:1"
         offset="0" />
      <stop
         id="stop4677"
         style="stop-color:#afafaf;stop-opacity:1"
         offset="0.64281338" />
      <stop
         id="stop4679"
         style="stop-color:#c7c7c7;stop-opacity:1"
         offset="1" />
    </radialGradient>
    <radialGradient
       inkscape:collect="always"
       xlink:href="#radialGradient4673"
       id="radialGradient4635"
       cx="89.318672"
       cy="65.768997"
       fx="89.318672"
       fy="65.768997"
       r="14.169295"
       gradientTransform="matrix(1,0,0,1.9749377,0,-56.46788)"
       gradientUnits="userSpaceOnUse" />
    <radialGradient
       gradientUnits="userSpaceOnUse"
       gradientTransform="matrix(-1,0,0,1,260.085,0)"
       r="0"
       cy="223.7935"
       cx="71.282204"
       id="radialGradient4384">
      <stop
         id="stop4386"
         style="stop-color:#ae4109;stop-opacity:1"
         offset="0" />
      <stop
         id="stop4388"
         style="stop-color:#ffa05f;stop-opacity:1"
         offset="0.64281338" />
      <stop
         id="stop4390"
         style="stop-color:#fac893;stop-opacity:1"
         offset="1" />
    </radialGradient>
  </defs>
  <sodipodi:namedview
     id="base"
     pagecolor="#ffffff"
     bordercolor="#666666"
     borderopacity="1.0"
     inkscape:pageopacity="0.0"
     inkscape:pageshadow="2"
     inkscape:zoom="0.98994949"
     inkscape:cx="262.13312"
     inkscape:cy="306.07851"
     inkscape:document-units="px"
     inkscape:current-layer="layer3"
     showgrid="false"
     inkscape:window-width="1280"
     inkscape:window-height="954"
     inkscape:window-x="0"
     inkscape:window-y="25"
     inkscape:window-maximized="1"
     fit-margin-top="20"
     fit-margin-right="20"
     fit-margin-bottom="20"
     fit-margin-left="20" />
  <metadata
     id="metadata7">
    <rdf:RDF>
      <cc:Work
         rdf:about="">
        <dc:format>image/svg+xml</dc:format>
        <dc:type
           rdf:resource="http://purl.org/dc/dcmitype/StillImage" />
        <dc:title />
      </cc:Work>
    </rdf:RDF>
  </metadata>
  <g
     inkscape:label="Lua"
     inkscape:groupmode="layer"
     id="layer1"
     transform="translate(-46.022836,-78.265274)"
     sodipodi:insensitive="true">
    <path
       style="fill:url(#radialGradient3893);fill-opacity:1;fill-rule:nonzero;stroke:#000000;stroke-width:2.06182146;stroke-linecap:round;stroke-linejoin:round;stroke-miterlimit:4;stroke-dasharray:none;stroke-opacity:1"
       d="m 361.99554,163.38 c -126.06997,0 -228.28125,102.18004 -228.28125,228.25 0,126.06997 102.21128,228.28125 228.28125,228.28125 126.06996,0 228.25,-102.21128 228.25,-228.28125 0,-126.06996 -102.18004,-228.25 -228.25,-228.25 z m 94.46875,62.6875 c 32.85999,0 59.5,26.67126 59.5,59.53125 0,32.85999 -26.64001,59.46875 -59.5,59.46875 -32.85999,0 -59.53125,-26.60876 -59.53125,-59.46875 0,-32.85999 26.67126,-59.53125 59.53125,-59.53125 z"
       id="path3886"
       inkscape:connector-curvature="0" />
    <circle
       style="fill:url(#radialGradient3794);fill-opacity:1;fill-rule:nonzero;stroke:#000000;stroke-width:2.5;stroke-linecap:round;stroke-linejoin:round;stroke-miterlimit:4;stroke-dasharray:none;stroke-opacity:1"
       id="path3767-8"
       transform="matrix(0.82472858,0,0,0.82472858,231.06678,10.15686)"
       cx="419.28571"
       cy="197.36218"
       r="72.14286" />
    <path
       inkscape:connector-curvature="0"
       d="M 621.07762,260.9408 A 291.73309,291.73309 0 1 1 520.02883,148.71444"
       style="fill:none;stroke:#808080;stroke-width:6.76938772;stroke-linecap:butt;stroke-dasharray:25.45876994;stroke-dashoffset:0"
       id="path8" />
  </g>
  <g
     inkscape:groupmode="layer"
     id="layer2"
     inkscape:label="Moon"
     transform="translate(-46.022836,-78.265274)"
     style="display:none">
    <path
       style="fill:url(#linearGradient3868);fill-opacity:1;fill-rule:nonzero;stroke:#000000;stroke-width:1.65440822;stroke-linecap:round;stroke-linejoin:round;stroke-miterlimit:4;stroke-dasharray:none;stroke-opacity:1"
       d="m 366.13818,176.58742 c -3.82301,0 -7.62091,0.0921 -11.39474,0.28952 73.15271,24.78388 125.79706,94.0283 125.79706,175.55338 0,102.33489 -82.95882,185.29372 -185.29371,185.29372 -43.80054,0 -84.05131,-15.20606 -115.76721,-40.61572 36.90716,64.89643 106.66386,108.67393 186.6586,108.67393 118.5205,0 214.6181,-96.0769 214.6181,-214.59741 0,-118.52052 -96.0976,-214.59742 -214.6181,-214.59742 z"
       id="path3839"
       inkscape:connector-curvature="0" />
  </g>
  <g
     inkscape:groupmode="layer"
     id="layer3"
     inkscape:label="Wolf">
    <circle
       style="fill:none;fill-opacity:1;stroke:none;stroke-width:1;stroke-miterlimit:10;stroke-dasharray:none;stroke-opacity:1"
       r="226.20828"
       id="circle4361"
       cy="313.7822"
       cx="316.71866"
       stroke-miterlimit="10" />
    <g
       transform="matrix(1.9625744,0,0,1.9625744,61.501569,67.636139)"
       id="Ebene_6">
      <radialGradient
         id="radialGradient4209"
         cx="194.42618"
         cy="201.19781"
         r="133.0896"
         fx="194.42618"
         fy="201.19781"
         gradientTransform="matrix(-0.96016972,-0.60648864,-0.86656081,1.3719059,438.91415,72.886346)"
         gradientUnits="userSpaceOnUse">
        <stop
           offset="0"
           style="stop-color:#FFFFFF"
           id="stop4365" />
        <stop
           offset="0.13665558"
           style="stop-color:#FEFCFA"
           id="stop4367" />
        <stop
           offset="0.22403209"
           style="stop-color:#FBF4ED"
           id="stop4369" />
        <stop
           offset="0.37624621"
           style="stop-color:#F6E7D7"
           id="stop4371" />
        <stop
           offset="0.41268045"
           style="stop-color:#f3d3c4;stop-opacity:1"
           id="stop4373" />
        <stop
           offset="0.4662677"
           style="stop-color:#fa8121;stop-opacity:1"
           id="stop4375" />
        <stop
           id="stop4465"
           style="stop-color:#f38820;stop-opacity:1"
           offset="0.80332565" />
        <stop
           id="stop4445"
           style="stop-color:#c1502b;stop-opacity:1"
           offset="0.84795904" />
        <stop
           offset="1"
           style="stop-color:#3d250d;stop-opacity:1"
           id="stop4377" />
      </radialGradient>
      <path
         stroke-miterlimit="10"
         d="m 188.521,223.328 c 0.88,0.625 -0.8451,-2.29095 -0.1371,-1.42295 -1.333,-0.813 -1.7489,-1.10505 -2.6539,-2.40605 0.421,0.551 0.603,1.045 0.807,1.446 -0.891,-1.048 -1.792,-1.878 -2.762,-2.77 0.396,0.294 0.843,0.723 1.142,0.991 -0.821,-0.771 -1.647,-1.554 -2.452,-2.329 0.207,0.037 0.322,0.49 0.419,0.577 -0.534,-0.487 -0.962,-1.051 -1.453,-1.569 0.352,0.109 0.487,0.457 0.929,0.439 -0.787,-0.825 -1.412,-1.758 -2.27,-2.524 0.345,0.154 1.146,0.442 1.573,0.65 -0.543,-0.457 -1.448,-1.558 -1.982,-1.988 0.725,0.39 1.151,0.489 1.87,0.75 -1.014,-1.087 -2.271,-2.038 -3.519,-2.609 0.24,0.278 0.612,0.742 0.867,1.122 -0.974,-0.828 -1.939,-1.901 -2.813,-2.9 0.397,0.217 0.943,0.483 1.381,0.684 -0.746,-0.922 -1.228,-1.912 -1.851,-2.803 0.489,0.655 0.925,1.296 1.452,1.939 -1.127,-1.299 -2.381,-2.539 -3.583,-3.713 1.119,0.892 2.271,1.957 3.173,2.929 -0.452,-0.504 -1.016,-1.21 -1.373,-1.688 0.283,0.182 0.787,0.604 1.055,0.785 -0.878,-1.158 -2.317,-2.125 -3.563,-2.988 0.792,0.575 1.966,1.137 2.731,1.662 -0.327,-0.39 -0.738,-0.983 -1.125,-1.419 -0.038,-0.043 1.146,1.089 1.431,1.43 -0.95,-1.273 -2.216,-2.791 -2.881,-3.902 0.546,0.597 1.06,1.055 1.675,1.599 -1.043,-1.31 -1.874,-2.624 -2.704,-4.114 0.326,0.375 0.546,0.634 0.815,1.025 -0.737,-0.91 -1.208,-1.959 -1.612,-2.791 0.331,0.292 0.748,0.729 1.102,1.002 -0.548,-0.836 -1.029,-1.946 -1.543,-2.792 0.523,0.519 1.14,0.955 1.656,1.478 -0.643,-1.082 -0.822,-2.31 -1.215,-3.268 0.153,0.255 0.599,0.866 0.808,1.064 -0.836,-1.077 -0.913,-2.115 -1.22,-3.326 0.257,-0.007 0.495,0.064 0.711,0.216 -0.26,-0.888 -0.447,-2.108 -0.7,-2.883 0.022,0.029 0.529,0.769 0.576,0.807 -0.55,-1.195 -1.107,-2.793 -1.483,-4.216 0.395,0.636 0.815,1.266 1.174,1.917 -0.407,-1.264 -0.838,-2.942 -1.093,-4.267 0.258,0.224 0.821,0.625 1.103,0.814 -0.463,-1.229 -0.52,-2.422 -0.788,-3.781 0.322,0.682 0.604,1.288 0.857,1.938 -0.209,-1.093 -0.145,-2.339 -0.344,-3.362 0.301,0.425 1.203,1.271 1.491,1.684 -0.375,-1.237 -0.63,-2.8 -0.684,-4.232 0.86,1.038 1.842,2.012 2.456,3.295 -0.609,-1.269 0.081,-3.506 -0.442,-4.818 l -0.063,-0.487 c -0.066,-0.047 0.075,0.208 -0.033,0.066 0.874,0.038 2.073,-0.134 2.901,-0.055 -0.2,-0.062 -1.265,-0.558 -1.671,-0.709 0.636,-0.137 1.836,-0.355 2.402,-0.419 -0.229,-0.067 -0.853,0.021 -0.987,-0.096 0.763,-0.026 1.913,-0.297 2.304,-0.345 -0.448,-0.032 -1.029,-0.015 -1.48,-0.098 0.937,0 1.875,-0.02 2.813,0 0.557,0.083 -0.28,0 -0.34,0 0.673,0.141 1.507,0 2.194,-0.002 -0.236,-0.117 -0.777,-0.028 -1.066,-0.086 1.008,-0.692 2.118,-1.063 3.613,-0.895 -0.532,-0.172 -1.514,-0.648 -2.331,-0.793 1.154,0.011 2.311,-0.018 3.464,0.01 -0.19,0 -0.381,0 -0.571,0.001 1.173,0.124 2.286,0.28 3.453,0.438 -0.736,-0.053 -1.48,0.04 -2.218,-0.009 2.148,0.545 4.22,1.928 6.302,2.127 -1.142,-0.73 -2.512,-1.171 -3.847,-1.243 3.04,1.294 7.73,3.679 10.063,5.456 -1.225,-0.828 -2.119,-2.171 -2.354,-3.549 0.291,0.355 0.712,0.839 1.034,1.16 -1.241,-1.652 -2.556,-3.489 -3.917,-5.128 0.942,1.041 2.122,2.232 3.119,3.359 -1.329,-1.349 -2.731,-3.287 -3.089,-5.123 0.546,0.934 1.295,1.901 1.832,2.927 -0.866,-1.716 -1.96,-3.932 -3.388,-5.344 2.946,3.775 8.085,8.46 9.302,13.156 -0.641,-0.773 -1.194,-1.657 -1.633,-2.455 1.343,0.932 2.174,2.607 3.612,3.438 -0.226,-0.716 -0.506,-1.724 -0.797,-2.446 0.071,0.248 0.412,0.926 0.357,1.122 -0.849,-1.333 -2.182,-3.363 -2.765,-5.126 0.43,0.495 0.833,1 1.235,1.52 -0.559,-1.221 -1.176,-2.52 -1.943,-3.715 0.275,0.507 0.481,1.022 0.705,1.508 -0.557,-1.036 -1.078,-2.204 -1.534,-3.284 0.095,0.169 0.748,1.162 1.023,1.74 -0.105,-0.443 -1.124,-2.878 -1.852,-3.936 0.964,0.833 2.224,2.445 3.202,3.714 -0.972,-1.992 -2.741,-3.313 -4.078,-5.04 0.609,3.388 5.707,5.704 7.775,8.571 -0.773,-1.023 -1.462,-2.341 -2.055,-3.353 0.283,0.05 0.421,0.425 0.604,0.454 -0.833,-1.342 -1.843,-2.715 -2.678,-3.926 0.969,1.092 1.846,2.368 2.502,3.647 -0.72,-1.571 -1.84,-3.276 -2.914,-4.49 0.385,0.199 0.77,0.393 1.166,0.564 -0.773,-1.183 -1.603,-2.491 -2.283,-3.781 0.616,0.775 1.342,1.944 1.872,2.938 -0.879,-1.105 -1.731,-2.384 -2.453,-3.68 0.57,0.927 1.18,1.848 1.725,2.81 -0.786,-1.59 -1.579,-3.126 -2.362,-4.718 0.52,0.795 1.293,1.685 1.862,2.522 -0.466,-1.487 -1.231,-2.863 -2.056,-4.178 0.167,0.69 0.243,1.43 0.367,2.048 -0.403,-0.953 -1.072,-2.708 -1.494,-3.924 0.379,0.599 0.856,1.327 1.194,2.061 -0.448,-1.152 -0.832,-2.52 -1.204,-3.726 0.609,0.991 1.17,1.762 1.613,2.84 -0.303,-1.472 -0.879,-2.944 -1.623,-4.176 0.495,0.814 1.124,1.604 1.644,2.411 -0.402,-1.348 -0.796,-2.73 -1.308,-4.045 0.219,0.477 0.308,0.914 0.458,1.4 -0.35,-1.171 -0.572,-2.497 -0.856,-3.705 0.304,0.476 0.571,1.025 0.877,1.499 -0.315,-1.152 -0.466,-2.641 -0.774,-3.705 0.376,0.647 0.827,1.274 1.195,1.94 -0.411,-1.163 -0.567,-2.444 -0.889,-3.618 0.339,0.927 0.775,1.813 1.084,2.779 -0.303,-2.299 -1.496,-4.273 -2.241,-6.406 0.509,0.785 1.142,1.536 1.635,2.4 -0.469,-1.545 -1.116,-3.068 -1.625,-4.607 0.469,0.833 1.074,1.555 1.523,2.423 -0.178,-1.575 -0.997,-3.279 -1.512,-4.619 0.36,0.604 0.767,1.314 1.103,1.938 -0.66,-1.028 -1.122,-2.214 -1.514,-3.352 0.475,0.615 1.4,1.34 1.935,2.038 -0.315,-0.877 -0.394,-2.283 -0.807,-3.25 0.438,0.664 0.904,1.226 1.316,1.951 -0.613,-1.298 -1.064,-2.831 -1.227,-4.182 0.474,0.562 0.857,0.985 1.205,1.488 -0.494,-0.891 -0.807,-1.898 -1.305,-2.789 0.619,0.844 1.17,1.411 1.727,2.368 -0.813,-3.18 -3.308,-5.254 -4.491,-8.152 0.485,0.708 1.01,1.31 1.532,1.973 -0.349,-0.893 -0.622,-2.405 -1.113,-3.372 0.413,0.55 1.118,1.399 1.522,2.038 -0.545,-0.929 -0.79,-1.941 -1.124,-2.822 0.497,0.5 1.064,0.979 1.543,1.498 -0.567,-1.402 -1.443,-2.68 -2.382,-3.813 0.408,0.442 1.082,1.063 1.566,1.584 -0.587,-0.829 -1.037,-2.05 -1.569,-2.888 0.414,0.207 0.83,0.421 1.248,0.683 -0.31,-0.708 -0.568,-1.74 -0.897,-2.36 0.25,0.486 0.435,1.01 0.684,1.497 -0.667,-1.041 -1.293,-2.351 -1.829,-3.359 0.328,0.526 0.854,1.417 1.182,2.037 -0.151,-1.818 -1.116,-3.364 -1.684,-5.04 0.273,0.512 -0.148,-10e-4 0.173,0.477 l -0.173,-0.477 c -1.087,-11.631 2.701,3.804 2.701,1.809 0,-2.179 -0.846,-7.162 0.574,-8.75 0.074,0.932 0.201,1.839 0.245,2.783 -0.036,-1.304 0.115,-2.559 0.205,-3.843 0.045,0.142 0.006,0.369 -0.01,0.519 0.418,-0.649 0.549,-1.432 0.419,-2.239 -0.002,0.454 -0.007,0.907 -0.011,1.361 0.187,-0.645 0.295,-1.315 0.205,-2.079 0.073,0.258 0.159,0.505 0.22,0.761 -0.034,-0.542 0.028,-1.091 -0.004,-1.633 0.117,0.374 0.245,0.531 0.373,0.799 -0.063,-0.762 -0.255,-1.562 -0.382,-2.347 0.19,0.665 0.603,1.452 0.996,1.922 -0.046,-0.433 -0.178,-1.812 -0.177,-1.81 0.131,0.582 0.399,1.022 0.588,1.54 0.1,-0.938 -0.146,-1.874 -0.127,-2.815 0.139,0.332 0.618,0.984 0.73,1.316 0.063,-1.134 -0.347,-2.312 -0.592,-3.439 0.248,0.732 0.593,1.454 1.017,2.075 -0.031,-0.823 -0.181,-1.654 -0.132,-2.501 0.15,0.285 0.391,0.625 0.532,0.936 0.089,-1.003 -0.272,-1.989 -0.332,-2.97 0.201,0.589 0.744,1.317 0.952,1.705 0.011,-0.6 0.125,-1.281 0.02,-1.887 0.125,0.7 0.474,1.386 0.799,1.899 0.123,-1.383 -0.107,-2.732 -0.188,-4.115 0.528,0.916 0.74,1.968 1.217,2.912 0.171,-1.184 -0.539,-2.235 -0.545,-3.393 0.349,0.634 0.631,1.361 0.807,2.081 -0.308,-1.534 -0.728,-3.311 -0.653,-4.906 0.227,0.639 0.581,1.204 0.792,1.85 0.095,-1.054 -0.343,-2.004 -0.537,-3.036 0.229,0.495 0.567,1.352 0.782,1.977 0.931,-0.784 0.05,-2.61 -0.597,-3.483 0.186,0.565 0.449,0.848 0.772,1.276 0.111,-0.985 -0.273,-1.914 -0.342,-2.859 0.465,0.602 0.826,1.59 1.15,2.362 0.072,-1.373 -0.537,-2.72 -0.786,-4.076 0.166,0.931 0.62,1.771 1.092,2.582 0.339,-1.5 -1.003,-3.292 -1.088,-4.96 -0.101,1.023 0.32,1.967 0.632,2.902 -0.176,-1.638 -0.269,-3.252 -0.177,-4.905 0.133,0.377 0.393,0.754 0.537,1.127 0.148,-1.73 -0.065,-3.44 -0.982,-4.95 0.597,1.078 0.724,3.58 1.802,3.928 0.096,-1.821 -0.752,-3.445 -0.993,-5.208 0.076,0.776 0.157,1.535 0.208,2.317 0.101,-1.981 -0.764,-3.972 -0.571,-5.853 0.451,0.75 0.788,1.648 0.781,2.554 -0.025,-2.294 -0.06,-4.287 -1.262,-6.296 0.621,0.868 1.024,2.021 1.636,2.792 -0.368,-1.501 -1.052,-3.404 -2.005,-4.589 0.293,0.955 0.769,2.131 1.391,2.597 -0.16,-1.362 -0.824,-2.99 -0.852,-4.192 0.366,1.063 0.986,1.999 1.246,3.046 0.237,-1.692 -0.653,-3.13 -1.176,-4.664 0.292,0.594 0.727,1.124 0.986,1.763 -0.053,-1.485 -1.114,-2.837 -1.753,-4.19 0.47,1.137 1.129,2.143 1.818,3.134 -0.589,-1.639 -1.346,-3.316 -1.855,-4.988 0.176,0.327 0.395,0.675 0.567,1 -0.691,-1.547 -1.657,-3.113 -2.198,-4.744 0.536,1.279 1.201,3.401 2.423,3.914 -0.585,-1.507 -1.285,-3.22 -2.235,-4.531 0.129,0.782 0.47,1.514 0.987,2.052 -0.164,-0.982 -0.691,-2.012 -1.182,-2.916 0.067,0.087 0.298,0.606 0.188,0.361 -0.234,-1.308 -1.215,-2.924 -2.09,-3.624 0.214,0.978 0.839,1.827 1.66,2.261 -0.172,-1.2 -1.177,-2.233 -1.752,-3.306 0.31,0.864 0.891,1.789 1.752,1.964 -0.543,-1.458 -1.775,-3.257 -2.984,-4.108 0.098,1.042 1.441,2.437 2.585,2.338 -0.512,-1.323 -1.755,-2.52 -2.607,-3.642 0.421,0.989 1.292,1.979 2.203,2.565 -0.607,-1.334 -1.724,-2.512 -2.249,-3.889 0.435,0.718 0.936,1.521 1.619,1.997 -0.88,-1.393 -1.963,-2.799 -3.042,-4.005 0.493,0.874 1.128,1.812 1.763,2.587 -0.92,-1.734 -2.129,-3.419 -3.248,-5.025 0.305,0.886 0.733,1.758 1.461,2.317 -0.911,-1.455 -1.438,-3.55 -3.06,-4.351 l 0.819,1.104 c -2.994,1.437 -3.28,2.808 -6.465,2.06 1.718,0.051 3.372,-0.173 5.013,-1.238 -2.1,-1.145 -4.767,0.575 -6.871,1.18 1.597,-0.127 3.479,-0.703 4.965,-1.354 -2.139,-0.176 -4.541,1.591 -5.801,3.341 0.387,0.013 0.981,0.3 1.519,0.188 -0.935,0.684 -1.927,1.28 -2.948,1.744 0.146,-0.013 0.354,-0.077 0.507,-0.089 -0.903,0.339 -1.806,0.734 -2.762,0.789 0.718,0.018 1.46,-0.11 2.13,-0.175 -1.277,0.8 -2.431,1.768 -3.615,2.559 0.489,-0.01 1.097,0.135 1.572,0.093 -1.946,0.56 -2.82,1.668 -4.794,2.389 0.307,0.021 0.803,0.129 0.95,0.149 -0.721,0.233 -1.449,0.294 -2.178,0.509 0.162,0.086 0.338,0.072 0.526,0.197 -0.24,1.085 -1.533,1.316 -2.593,1.108 0.559,0.008 1.214,0.239 1.792,0.271 -0.548,0.716 -1.707,0.67 -2.602,0.899 0.356,0.094 0.924,0.474 1.179,0.551 -0.975,0.345 -2.15,0.318 -3.026,0.702 0.904,0.815 2.156,1.077 3.239,1.554 -1.401,1.484 -3.75,-0.014 -5.161,1.766 0.188,0.176 0.422,0.667 0.623,0.833 -0.758,0.285 -1.565,0.365 -2.377,0.497 0.478,0.096 0.892,0.492 1.164,0.612 -0.464,0.11 -1.01,0.397 -1.477,0.442 0.396,0.042 0.813,0.2 1.118,0.265 -0.569,0.395 -1.354,0.487 -2.049,0.724 0.694,0.237 1.493,0.531 2.003,1.003 -0.721,0.063 -1.491,0.059 -2.204,0.088 0.39,0.11 0.739,0.47 1.016,0.611 -0.492,0.178 -0.738,0.502 -1.421,0.498 0.306,0.153 0.577,0.459 0.755,0.575 -0.615,0.059 -1.206,0.092 -1.784,-0.133 0.491,0.091 0.433,0.215 0.756,0.397 -0.377,0.069 -1.098,0.541 -1.411,0.59 0.451,0.222 0.775,0.783 0.956,0.915 -0.354,-0.026 -0.738,0.051 -1.104,0.022 0.524,0.221 0.716,0.657 0.95,0.85 -0.671,0.17 -1.348,0.272 -2.024,0.303 0.254,0.158 0.727,0.849 1.042,1.058 -0.41,0.492 -1.094,0.635 -1.81,0.482 0.229,0.217 0.384,0.617 0.55,0.805 -0.791,0.34 -1.741,0.317 -2.557,0.309 0.678,0.075 1.147,0.556 1.563,0.845 -0.543,0.544 -1.318,0.592 -2.014,0.192 0.511,0.323 0.481,0.572 0.735,0.872 -0.8,0.038 -1.816,0.091 -2.418,-0.144 0.158,0.078 0.515,0.344 0.638,0.408 -0.411,0.053 -0.88,0.269 -1.433,0.193 1.462,0.317 1.549,1.754 1.362,3.072 -1.257,-0.127 -2.231,0.797 -3.465,0.766 l -0.073,0.031 c 0.172,0.269 0.073,-0.725 0.214,-0.528 -0.894,-0.945 -2.265,-2.169 -3.503,-2.626 0.479,0.474 0.957,1.075 1.41,1.597 -0.729,-0.688 -1.39,-1.096 -2.171,-1.679 0.151,0.086 0.21,0.223 0.177,0.412 -0.751,-0.599 -1.969,-1.112 -2.758,-1.635 -0.137,0.111 0.324,0.579 0.331,0.773 -0.409,-0.214 -1.019,-0.675 -1.478,-0.773 0.29,0.227 0.643,0.626 0.966,0.763 -1.182,-0.622 -2.564,-1.25 -3.809,-1.73 0.69,0.582 1.199,0.931 1.78,1.274 -1.048,-0.654 -1.884,-0.908 -3.03,-1.277 0.438,0.173 0.946,0.303 1.392,0.471 -1.02,-0.135 -2.014,-0.292 -3.04,-0.437 0.62,-0.011 1.311,-0.109 1.9,-0.1 -1.466,-0.515 -3.797,-1.342 -5.605,-1.699 1.235,0.6 2.513,0.868 3.854,0.936 -1.227,-1.009 -2.72,-1.625 -4.235,-1.795 1.531,0.582 3.001,1.503 4.654,1.806 -1.704,-1.335 -3.795,-1.601 -6.007,-2.238 l -2.048,0.441 c 0.214,0.002 1.697,0 0.567,0 -3.184,-0.303 -6.252,-0.051 -9.446,-10e-4 0.874,-0.001 1.748,0.014 2.621,10e-4 -1.056,0.054 -2.116,-0.055 -3.15,-0.098 -0.156,-0.117 0.874,-0.755 0.48,-0.342 -0.677,0 -1.37,-0.05 -2.045,-0.001 l 4.306,0 c -0.721,0.074 -2.951,0.505 -2.412,0.366 -0.118,-0.031 -0.971,-0.271 -1.443,-0.366 0.885,0 1.772,-0.022 2.657,0 -3.414,0.021 -3.184,0.027 -6.542,-0.014 l 1.713,-0.207 c -1.389,-1.184 -1.994,-2.859 -4.057,-3.286 1.302,0.967 2.921,2.166 4.422,2.654 -0.916,-0.744 -1.648,-1.707 -2.571,-2.444 0.205,0.167 0.473,0.374 0.7,0.578 -0.963,-1.249 -2.063,-2.347 -3.57,-2.768 1.189,0.8 3.487,2.215 5.016,2.157 -1.047,-0.975 -2.801,-1.838 -4.156,-2.616 0.454,0.295 0.863,0.42 1.343,0.622 -0.2,-0.192 -0.491,-0.591 -0.751,-0.833 0.497,0.248 0.868,0.247 1.363,0.379 -0.715,-0.715 -1.729,-1.354 -2.606,-1.939 0.395,0.68 1.021,0.987 1.736,0.835 -0.846,-0.834 -1.856,-1.403 -2.759,-2.148 0.355,0.18 0.747,0.289 1.106,0.439 -0.434,-0.35 -0.839,-0.738 -1.309,-1.041 0.397,0.225 0.837,0.392 1.161,0.544 -0.636,-0.495 -1.591,-1.025 -2.238,-1.647 0.789,0.34 1.56,0.736 2.354,1.056 -0.653,-0.568 -1.455,-1.137 -2.088,-1.79 0.396,0.649 1.013,1.055 1.722,1.117 -0.788,-0.935 -1.808,-1.788 -2.761,-2.424 0.861,0.361 1.726,0.912 2.606,1.039 -0.564,-0.553 -1.367,-1.307 -2.029,-1.585 0.495,0.347 0.734,0.328 1.205,0.488 -0.478,-0.656 -1.209,-1.234 -1.813,-1.88 0.444,0.293 1.068,0.568 1.563,0.831 -0.763,-0.602 -1.511,-1.241 -2.354,-1.712 0.589,0.406 1.167,0.834 1.728,1.277 -0.881,-0.786 -1.938,-1.308 -2.889,-1.99 0.625,0.366 1.297,0.82 1.875,1.04 -1.055,-0.643 -1.925,-1.611 -2.916,-2.38 0.811,0.605 1.884,1.154 2.715,1.502 -0.808,-0.538 -1.574,-1.212 -2.357,-1.761 0.673,0.229 1.35,0.537 1.947,0.884 -0.651,-0.546 -1.282,-1.151 -1.978,-1.658 0.441,0.605 1.113,0.994 1.805,0.991 -0.215,-1.042 -1.303,-1.496 -1.947,-2.37 0.275,0.19 0.605,0.362 0.899,0.555 -1.046,-0.622 -1.915,-1.599 -2.763,-2.502 0.611,0.491 1.207,1.027 1.727,1.635 -0.797,-0.97 -1.742,-1.782 -2.7,-2.556 0.632,0.212 1.302,0.739 1.886,1.221 -0.623,-0.501 -1.25,-1.015 -1.882,-1.498 0.524,0.253 1.029,0.287 1.515,0.423 -0.43,-0.328 -1.065,-0.854 -1.607,-1.19 0.344,0.255 0.746,0.401 1.141,0.6 -0.374,-0.401 -0.651,-0.808 -1.084,-1.15 0.432,0.284 0.721,0.274 1.129,0.428 -0.221,-0.711 -0.95,-1.176 -1.758,-1.294 0.244,0.051 0.522,0.104 0.75,0.197 -0.51,-0.31 -1.332,-0.668 -1.943,-1.042 0.58,0.22 1.371,0.53 2.066,0.655 -0.847,-0.458 -1.719,-0.905 -2.617,-1.25 0.449,0.208 1.022,0.385 1.42,0.527 -0.53,-0.282 -1.029,-0.729 -1.514,-1.036 0.326,0.177 0.595,0.401 0.89,0.607 -0.801,-0.138 -1.564,-0.567 -1.536,-1.484 0.112,0.002 0.423,0.01 0.523,-0.033 -0.705,-0.026 -1.416,-0.338 -1.923,-0.844 0.589,0.188 1.322,0.085 1.958,0.144 -0.394,-0.44 -0.521,-0.74 -1.344,-0.844 0.227,0.033 0.466,-0.033 0.694,0.003 -0.579,-0.233 -1.161,-0.57 -1.728,-0.903 0.197,-0.036 0.545,-0.125 0.704,-0.145 -0.854,-0.481 -1.792,-0.88 -2.725,-1.183 0.826,0.236 1.616,0.666 2.485,0.69 -0.764,-0.315 -1.625,-0.703 -2.303,-1.293 0.164,-0.055 0.351,0.025 0.497,-0.028 -0.84,-0.423 -1.717,-0.695 -2.543,-1.132 0.312,0.006 0.641,-0.024 0.939,-0.021 -0.337,-0.774 -1.425,-1.14 -2.188,-1.71 0.594,0.313 1.096,0.329 1.732,0.436 -1.089,-0.594 -2.261,-1.165 -3.345,-1.804 0.458,0.278 0.942,0.591 1.354,0.875 -1.259,-0.618 -2.762,-1.956 -3.448,-3.242 0.238,-10e-4 0.493,-0.026 0.74,-0.023 -0.786,-0.375 -1.563,-0.77 -2.353,-1.13 0.267,-0.005 0.604,-0.123 0.771,-0.144 -0.36,-0.217 -0.75,-0.52 -1.115,-0.7 0.538,0.434 1.21,0.747 1.881,0.875 -1.849,-0.695 -3.245,-1.501 -5.266,-2.001 l 0.205,-0.441 c -0.146,0.275 -0.994,1.359 -1.786,1.594 0.617,0.259 1.234,0.432 1.929,0.393 -1.242,0.139 -2.239,0.874 -2.938,1.991 0.209,0.068 0.524,0.224 0.731,0.271 -1.405,0.634 -2.521,1.721 -4.016,2.543 0.52,0.043 1.017,0.306 1.558,0.308 -0.629,0.586 -1.751,0.923 -2.623,1.275 0.142,0.728 0.158,1.582 -0.053,2.4 -0.336,0.055 -0.625,0.257 -0.962,0.298 -0.262,0.771 -0.417,1.564 -0.651,2.306 -0.115,-0.428 -0.446,-0.715 -0.614,-1.052 -0.605,1.295 -1.798,1.743 -2.036,3.497 -0.084,-0.169 -0.142,-0.358 -0.221,-0.531 0.023,1.507 0.254,3.32 -0.2,4.722 -0.064,-0.374 -0.257,-0.57 -0.363,-0.798 -0.392,1.152 -0.794,2.263 -1.279,3.438 10e-4,-0.097 0.006,-0.194 0.015,-0.291 -0.32,1.703 -0.926,3.125 -1.658,4.712 0.098,-0.512 0.265,-0.957 0.435,-1.4 -0.009,0.605 0.044,1.242 -0.012,1.843 -0.042,-0.141 -0.027,-0.383 -0.044,-0.532 -0.107,0.718 -0.21,1.617 -0.333,2.333 0.165,-0.253 0.157,-0.119 0.219,-0.401 -0.106,0.807 -0.005,1.579 0.163,2.349 -0.254,-0.775 -0.652,-0.936 -1.405,-1.008 -0.119,0.778 0.025,1.501 0.415,2.14 0.234,-0.001 0.513,0.067 0.752,0.061 -0.021,0.949 0.219,1.986 0.67,2.769 -0.318,-0.552 -0.723,-1.088 -1.063,-1.631 0.031,1.047 0.451,1.972 0.393,3.016 -0.303,-0.346 -1.03,-0.643 -1.372,-1.008 -0.047,0.858 0.055,1.664 0.185,2.505 -0.101,-0.16 -0.137,-0.366 -0.23,-0.532 0.222,0.781 0.488,1.568 0.788,2.296 0.001,-0.129 0.013,-0.395 0.045,-0.531 -0.126,1.037 0.14,2.132 0.595,2.996 -0.251,-0.185 -0.762,-0.262 -0.973,-0.384 -0.086,1.379 0.264,4.145 1.167,5.03 -0.111,-0.228 -0.272,-0.541 -0.388,-0.788 -0.1,0.818 0.149,1.518 0.599,2.079 -0.871,0.711 0.33,1.771 0.869,2.63 -0.274,-0.459 -0.505,-0.781 -0.829,-1.19 0.466,0.579 0.918,1.315 1.011,2.073 -0.166,-0.54 -0.434,-1.066 -0.626,-1.636 0.085,1.178 0.554,2.323 0.807,3.439 -0.25,-0.179 -0.858,-0.317 -1.166,-0.609 -0.006,0.817 0.398,1.583 0.91,2.166 -0.338,-0.4 -0.747,-0.714 -1.089,-1.074 0.57,0.622 1.143,1.26 1.385,2.111 -0.266,-0.23 -0.575,-0.421 -0.833,-0.659 0.828,0.245 1.378,1.08 1.402,2.039 -0.413,-0.229 -0.646,-0.213 -0.98,-0.599 0.828,0.199 1.544,1.033 1.795,1.875 -0.119,-0.097 -0.239,-0.194 -0.359,-0.29 0.422,0.521 0.818,1.277 0.977,1.887 -0.462,-0.306 -0.743,-0.405 -1.13,-0.891 0.839,0.708 1.488,1.611 2,2.613 -0.337,-0.453 -0.595,-0.905 -0.869,-1.406 0.6,0.802 1.245,1.61 1.647,2.547 -0.639,-0.134 -1.306,-0.535 -1.795,-1.051 0.327,0.728 0.608,1.562 0.552,2.382 -0.101,-0.082 -0.502,-0.343 -0.578,-0.396 0.784,0.288 1.314,1.051 1.401,1.936 -0.334,-0.204 -0.669,-0.219 -1.027,-0.562 0.509,0.667 0.749,1.485 0.608,2.326 -0.28,-0.296 -0.352,-0.231 -0.553,-0.798 0.703,0.752 1.564,1.244 0.888,1.847 l 0.117,0.193 c -0.018,0.018 0.125,1.163 0.026,1.347 0.498,0.096 1.056,0.15 1.553,0.165 -0.329,1.053 -0.256,0.707 -1.135,1.357 0.084,0.086 0.809,0.456 0.75,0.663 -0.375,0.195 -0.696,0.187 -1.041,0.429 0.127,0.127 0.194,0.283 0.201,0.466 -0.518,0.157 -0.966,0.364 -1.465,0.562 0.401,0.085 1.08,0.056 1.481,0.053 -0.369,0.115 -1.027,0.672 -1.891,0.809 0.034,0.022 1.465,0.427 1.481,0.429 0.002,-10e-4 -1.063,0.968 -1.074,1.012 0.572,0.112 1.215,0.344 1.872,0.399 -0.431,0.34 -0.854,1.184 -1.87,1.588 0.738,0.224 1.409,0.713 1.883,0.896 -0.383,0.163 -0.803,-0.059 -1.157,0.183 0.344,0.093 1.232,0.474 1.893,0.444 -0.41,0.297 -0.946,0.477 -1.39,0.684 0.458,0.079 1.032,-0.005 1.481,0.199 -1.667,1.123 -4.404,1.454 -6.078,2.449 0.614,0.021 1.271,0.066 1.911,0.077 -2.645,1.021 -4.943,1.491 -7.555,2.706 0.374,-0.061 0.71,-0.187 1.076,-0.288 -0.942,1.043 -2.246,1.807 -3.534,2.04 0.621,-0.169 1.346,-0.235 1.893,-0.374 -1.025,0.759 -2.561,1.568 -3.612,2.371 0.565,-0.179 1.048,-0.466 1.544,-0.653 -0.725,1.058 -1.903,2.058 -3.162,2.717 -0.244,1.171 -0.546,2.239 -1.666,3.353 2.534,0.437 4.827,-0.596 7.215,-1.278 -2.048,0.634 -3.826,1.268 -5.895,1.785 0.581,0.06 1.222,0.029 1.803,-0.031 -0.077,0.267 -0.979,0.34 -0.987,0.838 0.481,0.01 1.047,-0.278 1.385,-0.299 -0.575,0.371 -0.952,1.041 -1.545,1.525 0.257,-0.164 0.419,-0.794 0.786,-0.662 -0.319,0.537 -0.681,1.253 -1.185,1.942 -0.095,0.542 -0.346,1.583 -0.411,2.272 0.007,-0.072 0.458,-0.577 0.46,-0.576 -0.139,0.499 -0.335,1.394 -0.388,1.899 1.377,-0.741 2.68,-1.736 3.921,-2.537 -1.313,0.645 -2.054,1.503 -2.66,2.196 0.052,-0.074 1.207,-1.236 0.744,-0.893 0.003,2.931 -0.437,6.782 0.32,9.298 -0.02,-0.426 0.033,-1.151 0.091,-1.6 -0.132,0.108 0.029,0.853 0.002,1.066 0.075,-0.141 0.095,-0.897 0.09,-1.068 0.562,1.392 1.023,1.332 1.884,2.022 -0.165,-1.249 -0.138,-1.202 -0.666,-2.105 -0.375,1.659 0.271,2.959 1.566,3.671 0.128,0.637 0.414,1.91 0.419,2.527 -0.147,0.314 0.165,-0.276 -0.346,-0.464 0.27,0.635 0.577,1.301 1.098,1.993 -0.199,-0.126 -0.413,-0.198 -0.641,-0.217 0.624,0.658 1.075,1.397 1.476,2.109 -0.296,-0.164 -0.911,-0.41 -1.257,-0.541 0.726,0.476 2.616,2.421 3.316,3.982 -1.064,-0.788 -1.61,-1.289 -2.309,-2.479 2.603,0.673 4.597,3.695 5.983,6.064 -0.586,-0.019 -1.316,0.192 -1.891,0.145 0.716,0.608 2.239,2.072 2.415,2.163 -0.635,-0.225 -1.373,-0.274 -1.994,-0.495 0.634,0.53 1.306,1.269 1.853,1.733 -0.255,-0.052 -0.487,-0.131 -0.617,-0.422 0.72,0.574 1.475,1.285 2.089,1.824 1.203,0.534 1.851,1.041 2.641,2.125 -0.634,-0.284 -1.403,-0.534 -2.065,-0.834 0.336,0.116 1.982,1.491 2.803,2.171 -0.308,-0.098 -0.992,-0.244 -1.381,-0.32 1.19,0.996 1.435,1.804 2.286,2.936 -0.346,0.083 -0.761,-0.035 -1.069,0.055 1.04,0.978 1.176,1.936 1.897,3.044 -0.306,-0.055 -0.983,-0.134 -1.157,-0.175 1.4,0.811 2.371,2.073 2.763,3.739 -0.26,-0.32 -1.043,-0.644 -1.444,-0.869 1.172,0.743 1.058,1.552 1.506,2.679 l 0.409,-0.883 c -0.961,0.407 -0.849,2.767 -0.89,4.821 -0.289,-0.228 -0.772,-0.566 -1.054,-0.815 -0.39,0.889 -0.856,1.728 -0.933,2.67 -0.2,0.302 0.06,0.031 0.02,-0.347 -1.136,2.275 -0.772,5.744 -2.694,7.342 -0.117,0.72 -0.179,0.691 -0.871,1.357 0.042,0.054 0.576,0.218 0.741,0.408 -1.032,0.709 -1.126,1.156 -2.569,1.334 -0.305,-0.008 -0.293,-0.015 0.039,-0.021 0.307,-0.049 0.441,0.062 0.404,0.331 -0.153,0.393 -0.909,0.416 -1.081,0.939 0.353,0.218 0.745,-0.118 1.079,0.151 -0.235,0.602 -0.813,1.33 -0.953,1.701 l 0.163,-0.746 c -0.049,0.095 -1.04,1.966 -1.098,2.091 0.094,-0.595 0.266,-1.187 0.428,-1.752 -0.468,0.54 -1.156,1.774 -0.589,2.298 0.084,-0.231 0.218,-0.45 0.309,-0.679 0.006,0.159 0.035,0.386 0.024,0.533 0.109,-0.21 0.408,-0.65 0.499,-0.863 -0.332,0.817 -0.936,1.693 -0.915,2.62 0.052,-0.069 0.271,-0.252 0.392,-0.446 0.109,0.514 -0.362,1.38 -0.667,2.04 0.192,-0.301 0.431,-0.519 0.646,-0.793 -0.242,0.476 -0.471,0.993 -0.534,1.537 0.092,-0.307 0.161,-0.504 0.292,-0.793 -0.197,0.465 -0.452,0.862 -0.788,1.224 0.096,-0.121 0.256,-0.287 0.334,-0.389 0.133,0.839 -0.344,1.965 -1.045,2.182 0.061,-0.286 -0.083,-0.693 -0.038,-0.987 -0.934,-0.13 -1.922,1.329 -2.289,2.153 0.525,0.025 0.932,-0.371 1.187,-0.844 0.195,0.854 -0.2,1.701 -0.75,2.269 0.37,-0.586 0.82,-1.08 1.412,-1.39 -0.381,0.91 -0.843,1.836 -1.181,2.746 0.08,-0.756 0.656,-1.484 1.223,-1.861 -0.478,0.805 -1.26,1.945 -1.339,2.92 0.751,0.068 1.317,-0.419 1.869,-0.853 -0.019,0.209 0.075,0.187 0.16,0.28 l 0.8,-1.448 c -0.336,-0.016 -0.337,-0.031 -0.002,-0.046 0.312,-0.048 0.446,0.066 0.405,0.343 -0.254,0.338 -0.773,0.326 -1.073,0.575 0.155,0.249 0.458,-0.126 0.66,0.428 -0.567,0.273 -0.94,0.34 -1.56,0.538 -0.026,0.188 0.042,0.307 0.203,0.358 0.039,-0.266 -0.934,0.345 -0.953,0.353 0.065,0.219 0.846,-0.353 0.993,-0.4 -0.448,0.094 -0.794,0 -0.88,0.499 -0.201,0.133 -0.673,-0.067 -0.929,-0.023 0.522,0.033 0.979,-0.065 1.485,0.1 -0.528,0.315 -1.087,0.886 -1.264,1.125 -0.823,0.3 -1.046,0.329 -1.85,1.015 0.284,0.044 0.695,-0.179 0.956,-0.056 -0.305,0.728 -0.794,0.236 -0.719,0.464 0.24,0 0.48,-0.007 0.719,-0.022 -0.677,0.227 -0.94,0.383 -1.765,0.431 0.255,0.046 0.436,0.205 0.541,0.476 -0.463,0.41 -0.992,0.431 -1.356,1.003 0.153,0.466 0.778,0.163 1.055,0.406 -0.401,0.294 -0.975,0.492 -1.486,0.796 0.23,0.056 0.866,0.127 1.078,0.1 -0.088,0.603 -0.753,0.062 -0.852,0.76 0.047,0.76 0.721,0.733 0.85,1.357 -0.437,0.345 -0.92,0.432 -1.168,0.773 0.388,0.142 0.67,0.035 1.055,0.076 -0.303,0.427 -0.713,0.281 -1.035,0.565 -0.019,0.037 0.31,0.93 0.31,1.148 -0.18,0.006 -0.891,-0.021 -1.019,0.052 -0.051,0.4 -0.327,0.512 -0.212,0.455 0.286,-0.068 0.559,-0.039 0.824,0.086 0.051,0.358 -0.276,1.104 -0.2,1.273 0.166,0.135 0.759,-0.071 1.038,0.075 -0.174,0.109 -0.603,0.54 -0.721,0.708 0.25,0.083 0.343,-0.01 0.28,-0.279 -0.341,-0.27 -0.562,0.521 -0.789,0.631 -0.176,0.083 0.479,-1.079 0.47,-1.003 -0.558,1.149 -0.969,1.692 -1.291,2.04 0.017,-0.353 0.028,-0.372 0.032,-0.055 0.061,0.463 -0.011,0.986 -0.002,1.455 0.256,0.167 -0.03,-0.414 -0.408,-0.477 -0.061,0.09 -0.46,1.172 -0.398,1.121 l 0.157,1.117 c 24.159555,16.30307 45.34123,20.3882 64.661,20.833 37.256,0.001 60.492,-16.228 60.492,-16.228 z"
         id="path4379"
         style="fill:url(#SVGID_1_);stroke:none;stroke-miterlimit:10"
         inkscape:connector-curvature="0"
         sodipodi:nodetypes="cccccccccccccccccccccccccccccccccccccccccccccccccccccccccccccccccccccccccccccccccccccccccccccccccccccccccccccccccccccccccccccccccccccccccccccccccccccccccccsccccccccccccccccccccccccccccccccccccccccccccccccccccccccccccccccccccccccccccccccccccccccccccccccccccccccccccccccccccccccccccccccccccccccccccccccccccccccccccccccccccccccccccccccccccccccccccccccccccccccccccccccccccccccccccccccccccccccccccccccccccccccccccccccccccccccccccccccccccccccccccccccccccccccccccccccccccccccccccccccccccccccccccccccccccccccccccccccccccccccccccccccccccccccccccccccccccccccccccccccccccccccccccccccccccccccccccccccccccccccccccccccccccccccccccccccccccccccccccccccc" />
      <radialGradient
         id="radialGradient4655"
         cx="71.282204"
         cy="223.7935"
         r="0"
         gradientTransform="matrix(-1,0,0,1,260.085,0)"
         gradientUnits="userSpaceOnUse">
        <stop
           offset="0"
           style="stop-color:#FFFFFF"
           id="stop4382" />
        <stop
           offset="0.147"
           style="stop-color:#FEFCFA"
           id="stop4384" />
        <stop
           offset="0.3107"
           style="stop-color:#FBF4ED"
           id="stop4408" />
        <stop
           offset="0.4827"
           style="stop-color:#F6E7D7"
           id="stop4410" />
        <stop
           offset="0.6602"
           style="stop-color:#F0D4B7"
           id="stop4412" />
        <stop
           offset="0.8401"
           style="stop-color:#E7BD90"
           id="stop4392" />
        <stop
           offset="1"
           style="stop-color:#DEA466"
           id="stop4394" />
      </radialGradient>
      <path
         style="fill:url(#SVGID_2_);stroke:#000000;stroke-miterlimit:10"
         inkscape:connector-curvature="0"
         stroke-miterlimit="10"
         d="M 188.803,223.793"
         id="path4396" />
      <path
         inkscape:connector-curvature="0"
         stroke-miterlimit="10"
         d="m 171.274,84.969 c 0.56,-1.054 -0.167,-3.286 -0.298,-4.735 -0.166,-1.849 -0.363,-18.271 11.667,-30.662 3.545,-3.651 5.949,-5.259 8.805,-5.075 l 0.614,0.441 c -0.167,-0.272 -0.315,-0.556 -0.445,-0.85 3.245,8.296 6.034,17.518 5.61,26.664 -0.232,5.002 0.165,9.784 -0.871,14.568 -0.448,2.072 -0.747,4.305 -0.813,6.455 -0.074,2.405 -0.635,3.982 -1.433,6.344 -0.573,1.694 -0.447,3.81 -1.434,5.296 -0.895,1.348 -1.492,4.085 -2.662,4.854 l -0.069,-3.172 c -0.026,0.181 0.217,1.541 0.294,1.738 -0.409,-0.799 -1.544,-3.814 -1.894,-4.59 -0.011,0.208 0.432,0.31 0.379,0.673 -0.592,-0.965 -1.139,-1.83 -1.6,-3.099 0.018,-0.329 0.032,-0.315 0.043,0.042 0.044,0.332 -0.059,0.476 -0.309,0.432 -0.634,-0.954 -1.498,-1.955 -2.047,-2.924 0.877,0.975 1.366,1.794 1.964,2.823 -0.679,-1.158 -3.522,-4.201 -1.828,-3.46 -0.743,-1.214 -1.825,-2.499 -3.093,-3.312 0.167,0.543 0.22,0.928 0.314,1.477 -0.882,-0.814 -1.977,-1.796 -2.68,-2.801 0.685,0.582 1.663,1.079 2.292,1.551 -0.821,-1.535 -2.153,-2.814 -3.622,-3.758 0.31,0.471 0.562,1.107 0.765,1.478 -0.75,-0.733 -1.579,-1.211 -2.271,-2.042 -0.003,-0.306 0.47,0.867 0.206,0.708 -0.981,-1.021 -1.974,-2.138 -2.874,-3.231 0.568,0.917 0.874,1.889 1.324,2.807 -0.653,-1.049 -1.492,-2.007 -2.145,-3.038 -0.476,-0.666 0.391,0.593 0.521,0.803 -0.673,-0.787 -1.26,-1.5 -1.901,-2.316 0.337,0.349 0.718,0.67 0.989,1.001 l -1.498,-1.09 z"
         id="path4398"
         style="fill:url(#radialGradient4637);fill-opacity:1;stroke:#000000;stroke-miterlimit:10" />
      <path
         inkscape:connector-curvature="0"
         stroke-miterlimit="10"
         d="M 81.443,85.825 C 81.413,84.998 70.78,52.062 87.791,30.436 l -0.205,0 c 13.567,5.942 16.697,36.298 16.968,39.136 l -0.905,0.585 c -1.007,0.008 -2.015,-0.002 -3.022,0 0.18,0 0.359,0 0.539,0.001 -0.684,0.14 -1.114,0.118 -1.784,0.463 0.443,-0.004 0.953,-0.12 1.389,-0.046 -1.004,0.279 -1.995,0.71 -3.026,0.916 0.578,0.036 1.266,0.082 1.809,0.088 -0.941,0.151 -1.958,0.352 -3.038,0.343 0.676,0.049 1.24,0.222 1.821,0.333 -0.994,0.242 -1.821,0.479 -2.825,0.548 -0.537,0.13 0.22,-0.022 0.331,-0.009 -0.872,0.157 -1.769,0.281 -2.645,0.45 0.617,0.004 1.245,0.04 1.86,-0.021 -1.147,0.229 -2.33,0.682 -3.457,0.93 0.266,0.105 0.683,-0.006 0.986,0.075 -0.955,0.418 -1.973,1.248 -2.714,1.567 0.393,-0.064 1.057,0.108 1.502,0.099 -1.525,0.01 -1.653,0.628 -2.107,0.882 -0.93,0.391 -1.614,1.174 -2.224,1.69 0.209,0.064 0.303,0.001 0.279,-0.19 -0.252,0.604 -0.876,1.266 -1.11,1.858 0.23,-0.147 0.433,-0.33 0.608,-0.547 -1.104,1.173 -2.438,2.228 -2.876,3.4 -1.622,0.14 -1.445,0.517 -2.246,1.216 l -0.256,1.622 z"
         id="path4400"
         style="fill:url(#radialGradient4635);fill-opacity:1;stroke:#000000;stroke-miterlimit:10" />
    </g>
    <path
       style="fill:url(#radialGradient4231);fill-opacity:1;fill-rule:evenodd;stroke:none;stroke-width:1px;stroke-linecap:butt;stroke-linejoin:miter;stroke-opacity:1"
       d="m 287.50461,389.04556 -46.22641,-19.2033 -17.42694,-11.82413 -5.26559,-5.08026 -1.5761,-3.29332 -0.4291,-3.43286 -3.51868,-1.71642 -4.89179,-8.32466 -6.77989,-14.33215 -0.19626,-9.59897 3.14593,-5.89679 4.26161,-2.50565 7.38271,-2.30961 30.30073,-7.51269 42.66316,-11.53871 c 88.45126,40.7642 12.81905,2.73908 158.75128,84.2304 l 0.24274,4.24794 -0.60685,6.55396 3.39836,8.13174 2.42738,5.58301 1.69919,4.36929 -1.69919,-0.72821 6.91806,11.8942 c 0,0 -3.39835,-2.06327 -3.88381,-2.18464 -0.48549,-0.12129 -6.7967,-7.76765 -6.7967,-7.76765 l 5.09752,12.25831 c 0,0 4.61202,11.166 4.24793,10.68051 -0.36411,-0.48546 -5.09751,-4.00518 -5.09751,-4.00518 l -0.24276,-2.91288 -14.20022,-18.2054 3.51972,7.5249 2.67012,5.09751 3.64109,7.5249 -15.1712,-8.73859 -4.00518,-1.21369 -2.30602,-1.45644 -8.13175,-0.7282 1.33506,1.21369 -5.2189,1.9419 -4.85478,0.3641 -6.06846,2.4274 1.2137,0.60684 -4.24793,0.36412 0.72821,9.22407 -4.49068,-5.09751 2.06329,8.7386 -3.64108,-4.12656 0.48548,4.61204 -0.72821,-1.82054 0.48546,6.43258 -1.45643,-0.3641 0.97097,6.43257 -1.09234,-1.2137 3.03424,10.68051 -1.21369,0.72823 2.67012,10.55914 -0.36412,1.82055 1.82054,5.70436 3.277,6.67532 3.39833,5.94712 1.57781,4.36929 6.43257,5.58299 2.0633,4.49067 1.09232,2.91287 6.67531,6.67532 7.64629,8.85997 -29.39562,14.20032 c -57.04968,20.72606 -89.07991,16.69739 -104.89376,16.52154 -19.58203,-0.21772 -24.38818,-42.68481 -20.64112,-58.92076 l 16.71695,-58.89739 z"
       id="path4179"
       inkscape:connector-curvature="0"
       sodipodi:nodetypes="cccccccccccccccccccccccccccccccccccccccccccccccccccccccccccccccccccsccc" />
    <path
       inkscape:connector-curvature="0"
       style="opacity:0.43300003;fill:#e0e0e0;fill-opacity:1;filter:url(#filter4604)"
       d="m 133.31271,110.85459 c 4.38539,-4.1712 4.77441,-14.261673 0.14174,-18.156413 -4.4035,-3.702068 -13.51811,-1.49836 -16.97853,3.09746 -2.90323,3.85582 -2.06987,11.094373 1.43946,14.408073 3.73504,3.52683 11.67514,4.19127 15.39733,0.65088 z"
       id="path46"
       sodipodi:nodetypes="aaaaa"
       transform="matrix(1.9625744,0,0,1.9625744,88.771096,85.990256)" />
    <path
       inkscape:connector-curvature="0"
       style="opacity:0.43300003;fill:#e0e0e0;fill-opacity:1;filter:url(#filter4604-8)"
       d="m 102.06505,110.63814 c 4.38539,-4.1712 4.77441,-14.261673 0.14174,-18.156413 -4.4035,-3.702068 -13.51811,-1.49836 -16.97853,3.09746 -2.90323,3.855816 -2.06987,11.094373 1.43946,14.408073 3.73504,3.52683 11.67514,4.19127 15.39733,0.65088 z"
       id="path46-6"
       sodipodi:nodetypes="aaaaa"
       transform="matrix(-1.9625744,0,0,1.9625744,431.87962,64.404055)" />
    <g
       transform="matrix(1.9625744,0,0,1.9625744,61.501569,67.636139)"
       id="Kopf">
      <path
         style="fill:none;stroke:#000000;stroke-miterlimit:10"
         inkscape:connector-curvature="0"
         stroke-miterlimit="10"
         d="m 168.204,178.15 c -1.362,0.161 -2.743,-0.034 -3.671,-0.795 0.883,-0.043 1.983,-0.377 2.729,-0.431 -0.103,0.028 -0.844,-0.04 -0.985,-0.096 0.881,0.001 1.868,-0.144 2.713,-0.101 0.201,0.075 -0.778,-0.936 -0.848,-0.354 -0.065,-0.018 2.129,-0.053 2.896,-0.065 -0.824,-0.315 -0.704,-0.523 -1.9,-0.464 0.973,0.069 2.041,0.157 3.058,0.097 -0.677,-0.099 -1.169,-0.299 -1.82,-0.463 0.761,-0.025 1.567,-0.057 2.304,-0.075"
         id="path4407" />
      <path
         style="fill:none;stroke:#000000;stroke-miterlimit:10"
         inkscape:connector-curvature="0"
         stroke-miterlimit="10"
         d="m 193.227,115.364 c -0.444,-1.556 -0.955,-3.12 -1.217,-4.628 0.492,0.657 1.069,1.224 1.522,1.938 -0.852,-1.646 -1.808,-3.417 -2.75,-5.015 0.419,0.919 1.09,1.898 1.612,2.841 -0.233,-1.587 0.116,-0.919 -0.443,-2.194"
         id="path4409" />
      <path
         style="fill:none;stroke:#000000;stroke-miterlimit:10"
         inkscape:connector-curvature="0"
         stroke-miterlimit="10"
         d="m 109.544,68.696 c -0.991,0 -4.09,0.331 -5.081,0.331 1.53,0 5.168,-0.331 6.698,-0.331 -0.469,-0.016 -0.939,0.007 -1.408,0.01 1.35,-0.416 2.515,-0.451 3.58,-0.11 -0.669,-0.028 -1.573,-0.178 -2.055,-0.244 0.875,-0.02 1.782,-0.099 2.683,-0.075 0.412,-0.542 2.571,-0.413 3.255,-0.588 -0.296,-0.214 -0.032,-0.598 -0.331,-0.8"
         id="path4411" />
      <path
         style="fill:none;stroke:#000000;stroke-miterlimit:10"
         inkscape:connector-curvature="0"
         stroke-miterlimit="10"
         d="m 170.268,84.33 c -0.615,-0.436 0.162,0.091 -0.393,-0.464 0.066,0.024 0.787,0.633 1.062,0.297 -0.748,-0.585 -1.703,-1.271 -2.51,-1.754 0.087,0.176 0.453,0.375 0.558,0.69 -0.447,-0.221 -0.717,-0.641 -1.117,-0.862 -0.16,-0.165 -0.154,-0.167 0.018,-0.003 0.218,0.111 0.303,0.285 0.256,0.521 -0.651,-0.521 -1.594,-1.176 -2.265,-1.645 0.139,0.149 0.715,0.467 0.659,0.674 -0.969,-0.792 -1.83,-1.575 -2.692,-2.461 0.243,0.329 0.643,0.875 0.95,1.247 -1.766,-0.812 -3.16,-2.105 -4.23,-3.818 0.323,0.655 0.457,1.35 0.715,1.973 -0.741,-0.895 -1.611,-1.73 -2.373,-2.588 0.568,0.626 0.738,1.025 1.134,1.674 -1.596,-1.201 -3.03,-2.821 -4.368,-4.215 0.105,0.446 0.47,1.258 0.592,1.556 -0.074,-0.044 -1.043,-0.749 -1.001,-0.76 0.189,0.085 0.596,0.557 0.703,0.749 -0.639,-0.404 -1.253,-0.804 -1.936,-1.096"
         id="path4413" />
      <path
         style="fill:none;stroke:#000000;stroke-miterlimit:10"
         inkscape:connector-curvature="0"
         stroke-miterlimit="10"
         d="m 80.182,86.285 c 0.368,-0.013 0.809,-0.204 1.168,-0.203 -0.887,1.332 -2.253,2.345 -3.532,3.28 0.51,-0.059 1.237,0.086 1.8,0.067 -0.992,0.23 -1.341,0.78 -2.193,1.237 0.205,0.083 0.416,0.14 0.633,0.172 -0.084,0.251 -0.649,0.975 -0.636,1.174 0.001,0.003 0.607,0.45 0.655,0.514"
         id="path4415" />
      <ellipse
         cx="139.263"
         cy="113.566"
         rx="6.552"
         ry="6.6209998"
         id="ellipse4417" />
      <ellipse
         style="fill:#ffffff"
         cx="138.854"
         cy="113.566"
         rx="2.0480001"
         ry="2.207"
         id="ellipse4419" />
      <ellipse
         cx="91.086998"
         cy="102.092"
         rx="6.3660002"
         ry="6.178"
         id="ellipse4421" />
      <ellipse
         style="fill:#ffffff"
         cx="90.689003"
         cy="102.092"
         rx="1.989"
         ry="2.0599999"
         id="ellipse4423" />
      <path
         stroke-miterlimit="10"
         d="m 91.366175,122.32763 c -5.283,-2.634 -2.92459,-2.27522 -8.61859,-2.49022 -3.926,-0.148 -10.721,-0.862 -11.678,3.826 -0.704,3.447 0.398214,4.08364 1.970214,6.93264 2.739,4.966 7.335002,6.48147 12.545002,5.09947 4.121,-1.093 6.616593,-3.09024 9.61675,-6.59177 1.433997,-4.303 -1.655265,-4.73401 -3.835376,-6.77612 z"
         id="path4425"
         inkscape:connector-curvature="0"
         style="stroke:#000000;stroke-miterlimit:10"
         sodipodi:nodetypes="ccccccc" />
      <path
         stroke-miterlimit="10"
         d="m 117.36916,109.399 c -2.48288,2.76696 -7.37612,4.44763 -11.43544,5.77173 -10.246268,3.3422 -24.089763,3.45232 -31.90317,5.25306"
         id="path4427"
         inkscape:connector-curvature="0"
         style="fill:none;stroke:#000000;stroke-miterlimit:10"
         sodipodi:nodetypes="cac" />
      <path
         stroke-miterlimit="10"
         d="m 124.99694,148.84148 c -15.426,6.4 -32.177065,-0.8275 -46.630765,-7.36356 -0.368134,-0.16647 -0.735395,-0.42842 -1.285128,-0.98958 -2.476161,-2.52762 -7.531561,-11.16715 -5.983693,-16.23237"
         id="path4429"
         inkscape:connector-curvature="0"
         style="fill:none;stroke:#000000;stroke-miterlimit:10"
         sodipodi:nodetypes="cssc" />
      <path
         stroke-miterlimit="10"
         d="m 80.531878,142.44952 c -1.038,-0.552 -2.488472,-1.14214 -1.684557,1.08269 6.185836,10.75849 34.988119,18.62316 35.852119,20.18316"
         id="path4431"
         inkscape:connector-curvature="0"
         style="fill:none;stroke:#000000;stroke-miterlimit:10"
         sodipodi:nodetypes="ccc" />
    </g>
    <path
       stroke-miterlimit="10"
       d="m 431.48808,505.93394 c 1.72707,1.22662 -1.65857,-4.49616 -0.26907,-2.79264 -2.61611,-1.59557 -3.43235,-2.16875 -5.20847,-4.72206 0.82624,1.08138 1.18343,2.0509 1.58379,2.83789 -1.74865,-2.05678 -3.51693,-3.68571 -5.42062,-5.43633 0.77717,0.57699 1.65445,1.41894 2.24125,1.9449 -1.61127,-1.51314 -3.23236,-3.04983 -4.81223,-4.57083 0.40625,0.0726 0.63195,0.96167 0.82232,1.13241 -1.04802,-0.95578 -1.888,-2.06266 -2.85162,-3.07928 0.69082,0.21392 0.95577,0.8969 1.82323,0.86157 -1.54455,-1.61912 -2.77116,-3.45021 -4.45504,-4.95354 0.67708,0.30224 2.2491,0.86746 3.08712,1.27567 -1.06567,-0.89689 -2.8418,-3.05768 -3.88982,-3.90159 1.42287,0.7654 2.25893,0.9597 3.67001,1.47193 -1.99005,-2.13332 -4.457,-3.99973 -6.90629,-5.12036 0.47102,0.5456 1.2011,1.45623 1.70155,2.20201 -1.91155,-1.62501 -3.80543,-3.73085 -5.52072,-5.69147 0.77914,0.42588 1.8507,0.94793 2.71031,1.3424 -1.46408,-1.80949 -2.41004,-3.75244 -3.63272,-5.50109 0.95969,1.28549 1.81538,2.5435 2.84966,3.80543 -2.21182,-2.54938 -4.67289,-4.98298 -7.03191,-7.28703 2.19612,1.75061 4.45701,3.84075 6.22725,5.74837 -0.88708,-0.98913 -1.99398,-2.37471 -2.69461,-3.31282 0.55541,0.35718 1.54454,1.18539 2.07051,1.54062 -1.72314,-2.27266 -4.54728,-4.17047 -6.99265,-5.86418 1.55436,1.12849 3.85842,2.23145 5.35979,3.26181 -0.64176,-0.76541 -1.44838,-1.92921 -2.2079,-2.7849 -0.0745,-0.0843 2.24912,2.13725 2.80844,2.80648 -1.86444,-2.49835 -4.34906,-5.47754 -5.65417,-7.65796 1.07157,1.17165 2.08033,2.07051 3.28731,3.13816 -2.04696,-2.57098 -3.67786,-5.1498 -5.3068,-8.07404 0.6398,0.73597 1.07157,1.24427 1.5995,2.01164 -1.44641,-1.78594 -2.37079,-3.84468 -3.16367,-5.47754 0.64961,0.57307 1.468,1.43071 2.16276,1.96649 -1.07549,-1.64071 -2.01949,-3.81917 -3.02825,-5.4795 1.02642,1.01857 2.23732,1.87426 3.25001,2.90069 -1.26193,-2.12351 -1.61323,-4.53355 -2.38452,-6.4137 0.30027,0.50045 1.17559,1.69959 1.58576,2.08818 -1.64071,-2.11369 -1.79183,-4.15085 -2.39434,-6.52752 0.50438,-0.0137 0.97148,0.1256 1.39539,0.42392 -0.51027,-1.74277 -0.87727,-4.13711 -1.3738,-5.65811 0.0431,0.0569 1.0382,1.50922 1.13044,1.5838 -1.07942,-2.34528 -2.17257,-5.48147 -2.9105,-8.27421 0.77522,1.24819 1.5995,2.48461 2.30406,3.76225 -0.79876,-2.48069 -1.64464,-5.77389 -2.14509,-8.3743 0.50634,0.43961 1.61127,1.22661 2.16472,1.59754 -0.90867,-2.41201 -1.02054,-4.75336 -1.54651,-7.4205 0.63195,1.33847 1.1854,2.52779 1.68193,3.80347 -0.41018,-2.14509 -0.28457,-4.59047 -0.67513,-6.59818 0.59074,0.8341 2.36098,2.49443 2.9262,3.30498 -0.73596,-2.4277 -1.23642,-5.49521 -1.3424,-8.30562 1.68781,2.03716 3.61506,3.94871 4.82008,6.46668 -1.19521,-2.49051 0.15897,-6.88078 -0.86746,-9.45567 l -0.12364,-0.95578 c -0.12953,-0.0922 0.14719,0.40822 -0.0648,0.12953 1.7153,0.0745 4.06842,-0.26299 5.69343,-0.10794 -0.3925,-0.12168 -2.48265,-1.09512 -3.27946,-1.39147 1.2482,-0.26887 3.60329,-0.69671 4.71411,-0.82232 -0.44944,-0.13149 -1.67408,0.0412 -1.93706,-0.1884 1.49744,-0.051 3.7544,-0.58289 4.52176,-0.6771 -0.87922,-0.0628 -2.01949,-0.0294 -2.9046,-0.19232 1.83893,0 3.67983,-0.0393 5.52072,0 1.09316,0.16289 -0.54952,0 -0.66728,0 1.32082,0.27672 2.95761,0 4.30589,-0.004 -0.46317,-0.22961 -1.52491,-0.055 -2.0921,-0.16878 1.97827,-1.3581 4.15673,-2.08621 7.09078,-1.7565 -1.04409,-0.33756 -2.97134,-1.27175 -4.57476,-1.55632 2.26481,0.0216 4.53551,-0.0353 6.79836,0.0196 -0.37289,0 -0.74775,0 -1.12064,0.002 2.3021,0.24336 4.48645,0.54952 6.77677,0.85961 -1.44445,-0.10402 -2.9046,0.0785 -4.35298,-0.0177 4.21561,1.06961 8.28206,3.78385 12.36814,4.17441 -2.24126,-1.43269 -4.92999,-2.29818 -7.55003,-2.43949 5.96623,2.53957 15.1707,7.22031 19.74939,10.70781 -2.40416,-1.62501 -4.15869,-4.26075 -4.6199,-6.96518 0.57111,0.69672 1.39735,1.6466 2.02931,2.27658 -2.43556,-3.24216 -5.01635,-6.84742 -7.68741,-10.06408 1.84874,2.04304 4.16458,4.38048 6.12127,6.59229 -2.60826,-2.64751 -5.35979,-6.45098 -6.06239,-10.05427 1.07156,1.83305 2.54153,3.73086 3.59544,5.74446 -1.6996,-3.36778 -3.84665,-7.71684 -6.64921,-10.488 5.78174,7.40872 15.86742,16.60338 18.25587,25.81963 -1.25802,-1.51707 -2.34332,-3.25199 -3.20488,-4.81812 2.63573,1.82912 4.26663,5.11644 7.08881,6.74733 -0.44354,-1.4052 -0.99306,-3.38348 -1.56417,-4.80046 0.13934,0.48672 0.80859,1.81734 0.70064,2.20201 -1.66623,-2.61611 -4.28233,-6.60014 -5.42652,-10.06016 0.84391,0.97149 1.63482,1.96258 2.42379,2.98312 -1.09708,-2.3963 -2.30799,-4.94568 -3.81329,-7.29097 0.5397,0.99503 0.944,2.00575 1.38361,2.95957 -1.09315,-2.03323 -2.11565,-4.32552 -3.01059,-6.4451 0.18645,0.33168 1.46801,2.28051 2.00772,3.41488 -0.20608,-0.86941 -2.20594,-5.64828 -3.63469,-7.72469 1.89192,1.63483 4.36476,4.79849 6.28416,7.289 -1.90762,-3.90944 -5.37941,-6.50201 -8.00337,-9.89137 1.19521,6.6492 11.20041,11.19453 15.25901,16.82122 -1.51707,-2.00771 -2.86928,-4.59439 -4.03309,-6.58051 0.55541,0.0981 0.82625,0.8341 1.1854,0.89101 -1.63483,-2.63378 -3.61703,-5.32839 -5.25578,-7.70507 1.90174,2.14313 3.62292,4.64738 4.91037,7.15751 -1.41306,-3.0832 -3.61115,-6.42939 -5.71895,-8.81195 0.75559,0.39054 1.51119,0.77128 2.28836,1.10688 -1.51707,-2.32172 -3.146,-4.88877 -4.48056,-7.42049 1.20895,1.521 2.63378,3.81525 3.67394,5.76605 -1.7251,-2.16865 -3.39721,-4.67878 -4.81419,-7.22228 1.11866,1.81931 2.31583,3.62684 3.38544,5.51483 -1.54259,-3.12049 -3.09891,-6.13501 -4.6356,-9.25943 1.02054,1.56025 2.53761,3.30694 3.65431,4.94962 -0.91456,-2.91835 -2.41592,-5.61885 -4.03505,-8.19963 0.32775,1.35417 0.4769,2.80647 0.72027,4.01935 -0.79093,-1.87034 -2.10388,-5.31466 -2.93209,-7.70115 0.74381,1.17558 1.67996,2.60434 2.34331,4.04487 -0.87923,-2.26088 -1.63286,-4.94569 -2.36294,-7.31255 1.19521,1.94491 2.29622,3.45805 3.16563,5.57371 -0.59465,-2.88891 -1.7251,-5.77782 -3.18525,-8.19571 0.97147,1.59753 2.20593,3.14797 3.22647,4.73177 -0.78896,-2.64555 -1.56221,-5.35784 -2.56705,-7.93861 0.4298,0.93614 0.60447,1.79379 0.89886,2.7476 -0.6869,-2.29817 -1.12259,-4.90055 -1.67997,-7.27134 0.59663,0.93419 1.12064,2.01164 1.72119,2.9419 -0.61822,-2.26088 -0.91456,-5.18316 -1.51904,-7.27134 0.73793,1.26979 1.62305,2.50032 2.34528,3.8074 -0.80662,-2.28248 -1.11278,-4.79654 -1.74473,-7.1006 0.66531,1.81931 1.521,3.55815 2.12743,5.454 -0.59466,-4.51196 -2.93601,-8.38609 -4.39813,-12.57226 0.99896,1.54062 2.24126,3.01451 3.20881,4.71018 -0.92045,-3.03217 -2.19024,-6.02117 -3.18918,-9.04157 0.92044,1.63482 2.1078,3.05179 2.989,4.75531 -0.34934,-3.09106 -1.95669,-6.43528 -2.96741,-9.06513 0.70652,1.1854 1.5053,2.57882 2.16471,3.80347 -1.2953,-2.01753 -2.20201,-4.34514 -2.97133,-6.57855 0.93222,1.20698 2.7476,2.62985 3.79758,3.99972 -0.61821,-1.72117 -0.77325,-4.48056 -1.58379,-6.37836 0.8596,1.30315 1.77416,2.40612 2.58274,3.82898 -1.20305,-2.54742 -2.08818,-5.55605 -2.40808,-8.20748 0.93027,1.10296 1.68192,1.93313 2.3649,2.92031 -0.96951,-1.74866 -1.5838,-3.72497 -2.56115,-5.47362 1.21483,1.65641 2.29621,2.76919 3.38936,4.64737 -1.59558,-6.24099 -6.49219,-10.31136 -8.81392,-15.9989 0.95185,1.3895 1.98219,2.57097 3.00666,3.87216 -0.68493,-1.75258 -1.22072,-4.72 -2.18434,-6.6178 0.81054,1.07941 2.19415,2.74564 2.98703,3.99972 -1.0696,-1.82323 -1.55043,-3.80935 -2.20592,-5.53838 0.97539,0.98128 2.08817,1.92136 3.02825,2.93994 -1.11278,-2.75153 -2.83201,-5.25971 -4.67485,-7.48331 0.80072,0.86747 2.12349,2.08623 3.07338,3.10872 -1.15202,-1.62697 -2.03519,-4.02328 -3.07927,-5.66791 0.8125,0.40625 1.62893,0.82624 2.44929,1.34044 -0.6084,-1.3895 -1.11475,-3.41488 -1.76043,-4.63168 0.49064,0.95381 0.85372,1.98221 1.34239,2.93797 -1.30903,-2.04303 -2.5376,-4.614 -3.58954,-6.59228 0.64373,1.03231 1.67603,2.78097 2.31976,3.99777 -0.29634,-3.56796 -2.19023,-6.60211 -3.30498,-9.89138 0.53579,1.00484 -0.29045,-0.002 0.33953,0.93614 l -0.33953,-0.93614 c -2.13331,-22.82671 5.30093,7.46563 5.30093,3.5503 0,-4.27645 -1.66034,-14.05596 1.12651,-17.17253 0.14523,1.82912 0.39448,3.60917 0.48083,5.46184 -0.0706,-2.5592 0.22569,-5.02223 0.40233,-7.54218 0.0883,0.27869 0.0118,0.72419 -0.0196,1.01858 0.82036,-1.27371 1.07745,-2.81041 0.82232,-4.39421 -0.004,0.89102 -0.0137,1.78006 -0.0216,2.67107 0.367,-1.26586 0.57896,-2.58079 0.40233,-4.08019 0.14327,0.50634 0.31205,0.9911 0.43177,1.49351 -0.0668,-1.06371 0.055,-2.14116 -0.008,-3.20488 0.22962,0.734 0.48083,1.04213 0.73204,1.5681 -0.12364,-1.49548 -0.50046,-3.06554 -0.7497,-4.60616 0.37288,1.30511 1.18343,2.84965 1.95472,3.77206 -0.0903,-0.84978 -0.34934,-3.55618 -0.34738,-3.55226 0.2571,1.14223 0.78307,2.00575 1.15399,3.02237 0.19626,-1.8409 -0.28653,-3.67787 -0.24924,-5.52464 0.2728,0.65156 1.21287,1.93116 1.43268,2.58274 0.12364,-2.22555 -0.68101,-4.53746 -1.16185,-6.74929 0.48673,1.43661 1.16381,2.85359 1.99594,4.07235 -0.0608,-1.6152 -0.35522,-3.2461 -0.25906,-4.9084 0.29439,0.55933 0.76737,1.22661 1.0441,1.83697 0.17466,-1.96846 -0.53382,-3.90356 -0.65158,-5.82885 0.39448,1.15596 1.46016,2.58472 1.86837,3.34619 0.0216,-1.17754 0.24532,-2.51405 0.0393,-3.70337 0.24532,1.3738 0.93026,2.72012 1.5681,3.72692 0.24139,-2.71423 -0.21,-5.36175 -0.36896,-8.07599 1.03623,1.79772 1.4523,3.86234 2.38845,5.71502 0.3356,-2.32369 -1.05783,-4.38636 -1.06961,-6.65902 0.68494,1.24427 1.23839,2.67106 1.5838,4.08412 -0.60447,-3.01059 -1.42875,-6.49809 -1.28156,-9.62839 0.4455,1.25408 1.14025,2.36293 1.55436,3.63076 0.18644,-2.06855 -0.67317,-3.933 -1.05391,-5.95837 0.44944,0.97147 1.11278,2.6534 1.53474,3.88 1.82716,-1.53865 0.0981,-5.12232 -1.17166,-6.83564 0.36504,1.10885 0.8812,1.66426 1.51511,2.50425 0.21785,-1.93314 -0.53578,-3.75637 -0.6712,-5.61101 0.91259,1.18147 1.62109,3.1205 2.25696,4.6356 0.1413,-2.69461 -1.05391,-5.3382 -1.54259,-7.99945 0.32579,1.82716 1.2168,3.47572 2.14314,5.06736 0.66531,-2.94386 -1.96846,-6.46079 -2.13529,-9.73436 -0.19821,2.00771 0.62803,3.86038 1.24035,5.69538 -0.34541,-3.21468 -0.52793,-6.38228 -0.34737,-9.62641 0.26102,0.73989 0.77129,1.47977 1.0539,2.21181 0.29046,-3.39525 -0.12757,-6.75126 -1.92725,-9.71474 1.17165,2.11566 1.42091,7.02602 3.53656,7.70899 0.1884,-3.57385 -1.47585,-6.76107 -1.94883,-10.22109 0.14915,1.52296 0.30811,3.01255 0.40821,4.54729 0.19822,-3.88786 -1.4994,-7.79534 -1.12063,-11.48695 0.88512,1.47193 1.54651,3.23433 1.53277,5.01241 -0.0491,-4.50214 -0.11776,-8.41355 -2.47677,-12.35636 1.21876,1.70352 2.00968,3.96636 3.21077,5.4795 -0.72222,-2.94581 -2.06463,-6.6806 -3.93496,-9.00625 0.57504,1.87426 1.50922,4.18225 2.72994,5.09681 -0.31401,-2.67303 -1.61716,-5.8681 -1.67211,-8.22711 0.7183,2.08621 1.9351,3.92318 2.44537,5.978 0.46512,-3.32068 -1.28156,-6.14286 -2.30799,-9.15345 0.57307,1.16577 1.42679,2.20594 1.9351,3.46002 -0.10402,-2.91442 -2.18631,-5.56782 -3.4404,-8.22319 0.92241,2.23145 2.21575,4.2058 3.56796,6.15072 -1.15595,-3.21667 -2.64162,-6.5079 -3.64057,-9.78932 0.34541,0.64176 0.77522,1.32473 1.11278,1.96256 -1.35614,-3.0361 -3.25199,-6.10948 -4.31374,-9.31044 1.05194,2.51012 2.35705,6.67471 4.75532,7.68151 -1.1481,-2.9576 -2.52191,-6.31949 -4.38636,-8.89242 0.25317,1.53473 0.92242,2.97134 1.93707,4.0272 -0.32187,-1.92725 -1.35614,-3.9487 -2.31977,-5.72286 0.1315,0.17074 0.58485,1.18932 0.36897,0.70848 -0.45925,-2.56704 -2.38453,-5.73856 -4.10178,-7.11236 0.41998,1.91939 1.6466,3.58561 3.25787,4.43737 -0.33756,-2.35508 -2.30995,-4.38243 -3.43843,-6.48827 0.60839,1.69567 1.74865,3.51105 3.43843,3.8545 -1.06568,-2.86144 -3.48357,-6.39211 -5.85633,-8.06226 0.19234,2.04501 2.82807,4.7828 5.07326,4.5885 -1.00483,-2.59649 -3.44431,-4.94569 -5.11643,-7.1477 0.82625,1.94099 2.53565,3.88394 4.32356,5.03401 -1.19129,-2.61807 -3.38348,-4.92999 -4.41384,-7.63246 0.85372,1.40913 1.83697,2.98508 3.17741,3.91927 -1.72706,-2.73387 -3.85254,-5.49324 -5.97015,-7.86011 0.96755,1.71529 2.21378,3.55619 3.46002,5.07718 -1.80557,-3.40311 -4.17833,-6.71005 -6.37445,-9.86194 0.59859,1.73884 1.43857,3.45021 2.86733,4.54728 -1.78791,-2.85554 -2.82218,-6.96714 -6.00548,-8.53916 l 1.60735,2.16669 c -5.87595,2.82022 -6.43725,5.51091 -12.68804,4.0429 3.3717,0.10009 6.61779,-0.33953 9.83838,-2.42967 -4.12141,-2.24714 -9.3556,1.12848 -13.48485,2.31584 3.13423,-0.24924 6.8278,-1.37969 9.74418,-2.65732 -4.19794,-0.34541 -8.91205,3.12245 -11.38489,6.55695 0.75951,0.0256 1.92528,0.58878 2.98115,0.36897 -1.83501,1.3424 -3.78188,2.5121 -5.78567,3.42273 0.28654,-0.0256 0.69475,-0.15112 0.99502,-0.17467 -1.77219,0.66531 -3.5444,1.44053 -5.42063,1.54847 1.40913,0.0353 2.86536,-0.21588 4.18029,-0.34345 -2.50621,1.57006 -4.77102,3.46984 -7.09471,5.02223 0.9597,-0.0196 2.15295,0.26495 3.08517,0.18252 -3.81917,1.09905 -5.53446,3.27358 -9.40859,4.68859 0.60252,0.0412 1.57595,0.25318 1.86445,0.29242 -1.41501,0.45728 -2.84377,0.577 -4.27448,0.99895 0.31793,0.16878 0.66335,0.14131 1.03231,0.38663 -0.47101,2.1294 -3.00863,2.58275 -5.08896,2.17453 1.09708,0.0157 2.38257,0.46906 3.51694,0.53186 -1.0755,1.4052 -3.35012,1.31493 -5.10662,1.76435 0.69868,0.18449 1.81342,0.93027 2.31387,1.08138 -1.91351,0.67709 -4.21953,0.6241 -5.93875,1.37773 1.77418,1.5995 4.23132,2.11369 6.35679,3.04984 -2.74957,2.91246 -7.35966,-0.0275 -10.12886,3.46591 0.36897,0.34541 0.82821,1.30904 1.22269,1.63482 -1.48763,0.55933 -3.07142,0.71633 -4.66504,0.9754 0.93812,0.1884 1.75062,0.96558 2.28444,1.20109 -0.91064,0.21589 -1.9822,0.77915 -2.89872,0.86746 0.77717,0.0824 1.59557,0.39252 2.19416,0.52008 -1.11671,0.77522 -2.65733,0.95578 -4.02132,1.42091 1.36203,0.46513 2.93013,1.04212 3.93104,1.96846 -1.41502,0.12364 -2.9262,0.11579 -4.32552,0.1727 0.76541,0.21589 1.45034,0.92241 1.99398,1.19914 -0.96559,0.34933 -1.44838,0.98521 -2.78882,0.97736 0.60055,0.30027 1.1324,0.90083 1.48174,1.12848 -1.20698,0.11579 -2.36686,0.18056 -3.50123,-0.26102 0.96362,0.17859 0.84979,0.42195 1.48371,0.77914 -0.73989,0.13542 -2.15491,1.06175 -2.76919,1.15792 0.88511,0.43569 1.52099,1.53669 1.87621,1.79575 -0.69474,-0.051 -1.44838,0.1001 -2.16668,0.0431 1.0284,0.43373 1.40521,1.28942 1.86445,1.66819 -1.31689,0.33364 -2.64555,0.53382 -3.97225,0.59466 0.4985,0.31009 1.42679,1.66623 2.045,2.0764 -0.80466,0.96559 -2.14706,1.24624 -3.55226,0.94596 0.44944,0.42588 0.75363,1.21092 1.07942,1.57988 -1.5524,0.66728 -3.41684,0.62213 -5.0183,0.60643 1.33062,0.1472 2.25107,1.09119 3.0675,1.65838 -1.06568,1.06764 -2.58668,1.16184 -3.95263,0.37681 1.00288,0.63391 0.944,1.1226 1.44249,1.71137 -1.57005,0.0746 -3.56405,0.17859 -4.74552,-0.28262 0.31009,0.15309 1.01072,0.67513 1.25213,0.80074 -0.80662,0.10401 -1.72707,0.52793 -2.81238,0.37877 2.86929,0.62214 3.04003,3.44236 2.67303,6.02904 -2.46696,-0.24926 -4.3785,1.56416 -6.80031,1.50332 l -0.14328,0.0608 c 0.33756,0.52793 0.14328,-1.42287 0.42,-1.03624 -1.75454,-1.85464 -4.44524,-4.25683 -6.8749,-5.15373 0.94006,0.93027 1.87818,2.10977 2.76722,3.13424 -1.43071,-1.35025 -2.72798,-2.15098 -4.26074,-3.29516 0.29635,0.16878 0.41214,0.43765 0.34737,0.80857 -1.47389,-1.17558 -3.86431,-2.18238 -5.41278,-3.20881 -0.26887,0.21785 0.63587,1.13634 0.64961,1.51708 -0.80269,-0.42 -1.99986,-1.32474 -2.90068,-1.51708 0.56915,0.44551 1.26193,1.22858 1.89584,1.49745 -2.31975,-1.22072 -5.03204,-2.45321 -7.47544,-3.39525 1.35418,1.14222 2.35312,1.82715 3.49339,2.50032 -2.05679,-1.28352 -3.6975,-1.78202 -5.94661,-2.50621 0.85961,0.33952 1.8566,0.59466 2.73191,0.92437 -2.00183,-0.26494 -3.95263,-0.57307 -5.96623,-0.85765 1.2168,-0.0216 2.57294,-0.21391 3.72889,-0.19625 -2.87713,-1.01072 -7.45189,-2.63378 -11.00022,-3.33441 2.42377,1.17754 4.93194,1.70351 7.56375,1.83697 -2.40808,-1.98025 -5.3382,-3.18918 -8.3115,-3.52283 3.0047,1.14222 5.88968,2.94975 9.13382,3.54442 -3.34422,-2.62005 -7.44797,-3.14209 -11.78918,-4.39224 l -4.01935,0.86549 c 0.41999,0.004 3.33048,0 1.11278,0 -6.24884,-0.59466 -12.27002,-0.1001 -18.53848,-0.002 1.71529,-0.002 3.43058,0.0275 5.14391,0.002 -2.07248,0.10598 -4.15282,-0.10795 -6.18211,-0.19234 -0.30616,-0.22961 1.71529,-1.48174 0.94203,-0.67119 -1.32866,0 -2.68872,-0.0981 -4.01346,-0.002 l 8.45084,0 c -1.41502,0.14523 -5.79156,0.9911 -4.73372,0.71831 -0.23159,-0.0608 -1.90567,-0.53187 -2.832,-0.71831 1.73688,0 3.47769,-0.0431 5.21456,0 -6.70023,0.0412 -6.24884,0.053 -12.83916,-0.0275 l 3.36189,-0.40626 c -2.72602,-2.32368 -3.91337,-5.61099 -7.96217,-6.44901 2.55527,1.8978 5.73268,4.25093 8.6785,5.20867 -1.79771,-1.46016 -3.23431,-3.35012 -5.04578,-4.79654 0.40234,0.32776 0.9283,0.734 1.37381,1.13437 -1.88996,-2.45125 -4.04879,-4.60616 -7.00639,-5.43241 2.33351,1.57007 6.84349,4.34711 9.84427,4.23328 -2.05481,-1.91351 -5.49717,-3.60722 -8.15645,-5.1341 0.891,0.57897 1.6937,0.82429 2.63573,1.22073 -0.39251,-0.37682 -0.96363,-1.15989 -1.47389,-1.63482 0.9754,0.48671 1.70351,0.48474 2.67499,0.7438 -1.40324,-1.40323 -3.39329,-2.65732 -5.11447,-3.80543 0.77521,1.33455 2.00379,1.93707 3.40702,1.63875 -1.66034,-1.63678 -3.64253,-2.75349 -5.41474,-4.2156 0.69672,0.35326 1.46604,0.56718 2.17061,0.86157 -0.85176,-0.6869 -1.6466,-1.44838 -2.56901,-2.04304 0.77914,0.44158 1.64268,0.76933 2.27855,1.06764 -1.24819,-0.97147 -3.12246,-2.01164 -4.39224,-3.23236 1.54847,0.66727 3.06161,1.44446 4.6199,2.07248 -1.28157,-1.11475 -2.85554,-2.23145 -4.09786,-3.51301 0.77719,1.27372 1.9881,2.07052 3.37955,2.1922 -1.5465,-1.83501 -3.54833,-3.50909 -5.41866,-4.75728 1.68978,0.70849 3.3874,1.78986 5.11447,2.03911 -1.10689,-1.0853 -2.68284,-2.56509 -3.98207,-3.11068 0.97148,0.68102 1.44053,0.64372 2.3649,0.95774 -0.9381,-1.28745 -2.37275,-2.42182 -3.55815,-3.68964 0.8714,0.57503 2.09604,1.11474 3.06752,1.63089 -1.49745,-1.18147 -2.96546,-2.43555 -4.61992,-3.35992 1.15597,0.7968 2.29034,1.63678 3.39134,2.50621 -1.72903,-1.54259 -3.80347,-2.56705 -5.66988,-3.90553 1.22661,0.7183 2.54545,1.60932 3.67982,2.04108 -2.07051,-1.26193 -3.77795,-3.1617 -5.72287,-4.67093 1.59165,1.18736 3.6975,2.26481 5.32839,2.94779 -1.58575,-1.05587 -3.08909,-2.37864 -4.62578,-3.45609 1.32081,0.44943 2.64948,1.0539 3.82113,1.73492 -1.27763,-1.07158 -2.51602,-2.25893 -3.88198,-3.25396 0.8655,1.18736 2.18436,1.9508 3.54246,1.94492 -0.42196,-2.04501 -2.55724,-2.93602 -3.82114,-4.65131 0.53972,0.37289 1.18736,0.71045 1.76436,1.08923 -2.05285,-1.22072 -3.75834,-3.13816 -5.4226,-4.91036 1.19913,0.96362 2.36884,2.01557 3.38937,3.20881 -1.56417,-1.9037 -3.4188,-3.49731 -5.29895,-5.01634 1.24035,0.41607 2.55527,1.45034 3.70142,2.3963 -1.22269,-0.98325 -2.45322,-1.99201 -3.69357,-2.93994 1.02839,0.49654 2.01949,0.56326 2.9733,0.83017 -0.84391,-0.64372 -2.09014,-1.67603 -3.15386,-2.33546 0.67513,0.50046 1.46408,0.78699 2.2393,1.17755 -0.734,-0.787 -1.27763,-1.58577 -2.12743,-2.25696 0.84783,0.55736 1.41502,0.53774 2.21575,0.83997 -0.43373,-1.39538 -1.86445,-2.30798 -3.45021,-2.53957 0.47887,0.1001 1.02446,0.20411 1.47193,0.38663 -1.00091,-0.60839 -2.61415,-1.311 -3.81328,-2.045 1.1383,0.43177 2.69069,1.04017 4.05468,1.28548 -1.6623,-0.89885 -3.37366,-1.77612 -5.13606,-2.45321 0.88119,0.40822 2.00575,0.75559 2.78685,1.03428 -1.04016,-0.55345 -2.01948,-1.43072 -2.97133,-2.03323 0.6398,0.34737 1.16773,0.78699 1.74669,1.19128 -1.57202,-0.27083 -3.06947,-1.11278 -3.01451,-2.91246 0.2198,0.004 0.83017,0.0196 1.02643,-0.0648 -1.38362,-0.051 -2.77901,-0.66334 -3.77404,-1.65641 1.15596,0.36896 2.59452,0.16683 3.84272,0.28261 -0.77325,-0.86353 -1.0225,-1.4523 -2.63769,-1.65641 0.4455,0.0648 0.91456,-0.0647 1.36202,0.006 -1.13633,-0.45728 -2.27855,-1.11867 -3.39133,-1.77221 0.38663,-0.0706 1.0696,-0.24532 1.38166,-0.28457 -1.67605,-0.944 -3.51694,-1.72707 -5.34802,-2.32172 1.62108,0.46316 3.17152,1.30707 4.877,1.35417 -1.49941,-0.61821 -3.18919,-1.37969 -4.51982,-2.53761 0.32187,-0.10794 0.68887,0.0491 0.97541,-0.055 -1.64856,-0.83016 -3.36975,-1.36398 -4.99083,-2.22162 0.61232,0.0118 1.25801,-0.0471 1.84286,-0.0412 -0.66139,-1.51903 -2.79667,-2.23733 -4.29412,-3.356 1.16577,0.61428 2.15098,0.64569 3.39918,0.85567 -2.13724,-1.16576 -4.43738,-2.28639 -6.5648,-3.54048 0.89885,0.5456 1.84873,1.15988 2.65732,1.71725 -2.47088,-1.21286 -5.42063,-3.83879 -6.76696,-6.36266 0.46709,-0.002 0.96755,-0.051 1.45231,-0.0452 -1.54259,-0.73596 -3.06751,-1.51118 -4.61794,-2.2177 0.524,-0.01 1.18539,-0.2414 1.51315,-0.28261 -0.70654,-0.42589 -1.47193,-1.02054 -2.18828,-1.3738 1.05587,0.85175 2.37472,1.46604 3.6916,1.71725 -3.62879,-1.36399 -6.36855,-2.94583 -10.33491,-3.92711 l 0.40233,-0.8655 c -0.28654,0.53971 -1.9508,2.66714 -3.50516,3.12834 1.21091,0.50831 2.42182,0.84784 3.78581,0.7713 -2.43753,0.2728 -4.39421,1.71529 -5.76605,3.90748 0.41018,0.13346 1.02839,0.43962 1.43464,0.53186 -2.75742,1.24427 -4.94765,3.37759 -7.8817,4.99083 1.02054,0.0844 1.99594,0.60054 3.0577,0.60447 -1.23447,1.15007 -3.43648,1.81145 -5.14784,2.50228 0.27869,1.42875 0.31009,3.1048 -0.10402,4.71018 -0.65942,0.10794 -1.2266,0.50438 -1.88799,0.58485 -0.5142,1.51314 -0.81839,3.06946 -1.27763,4.52569 -0.2257,-0.83997 -0.87532,-1.40324 -1.20503,-2.06463 -1.18735,2.54154 -3.52871,3.42078 -3.99579,6.86313 -0.16487,-0.33167 -0.27869,-0.7026 -0.43374,-1.04213 0.0452,2.9576 0.4985,6.51575 -0.39251,9.26728 -0.12561,-0.73401 -0.50438,-1.11867 -0.71242,-1.56614 -0.76932,2.26088 -1.55828,4.44131 -2.51013,6.74733 0.002,-0.19037 0.0118,-0.38073 0.0294,-0.5711 -0.62802,3.34226 -1.81734,6.13304 -3.25395,9.24765 0.19233,-1.00484 0.52009,-1.87819 0.85372,-2.7476 -0.0177,1.18735 0.0864,2.43751 -0.0235,3.61702 -0.0824,-0.27673 -0.053,-0.75167 -0.0864,-1.0441 -0.21,1.40913 -0.41214,3.17349 -0.65354,4.57869 0.32383,-0.49653 0.30813,-0.23354 0.42981,-0.78699 -0.20804,1.5838 -0.01,3.0989 0.31989,4.61009 -0.49848,-1.521 -1.27959,-1.83697 -2.75741,-1.97828 -0.23355,1.52689 0.0491,2.94583 0.81446,4.19991 0.45925,-0.002 1.0068,0.1315 1.47586,0.11972 -0.0412,1.86249 0.42981,3.89767 1.31493,5.43437 -0.6241,-1.08335 -1.41895,-2.13528 -2.08622,-3.20096 0.0608,2.05481 0.88512,3.87019 0.77129,5.91912 -0.59465,-0.67905 -2.02145,-1.26193 -2.69265,-1.97827 -0.0922,1.68389 0.10794,3.26572 0.36308,4.91625 -0.19822,-0.31402 -0.26887,-0.7183 -0.45139,-1.04409 0.43569,1.53276 0.95773,3.07732 1.54651,4.50607 0.002,-0.25317 0.0255,-0.77522 0.0883,-1.04213 -0.24728,2.03519 0.27476,4.18421 1.16773,5.87987 -0.49261,-0.36307 -1.49548,-0.51419 -1.90958,-0.75363 -0.16878,2.7064 0.51811,8.13487 2.29032,9.87175 -0.21785,-0.44747 -0.53382,-1.06175 -0.76148,-1.54651 -0.19626,1.60539 0.29243,2.9792 1.17558,4.0802 -1.7094,1.39538 0.64765,3.47572 1.70548,5.16157 -0.53774,-0.90082 -0.99109,-1.53277 -1.62697,-2.33546 0.91456,1.13632 1.80164,2.58078 1.98416,4.06841 -0.32579,-1.05979 -0.85176,-2.0921 -1.22857,-3.21077 0.16681,2.31191 1.08726,4.55906 1.5838,6.7493 -0.49065,-0.35131 -1.6839,-0.62215 -2.28837,-1.19521 -0.0117,1.60342 0.7811,3.10675 1.78594,4.25093 -0.66334,-0.78503 -1.46604,-1.40127 -2.13723,-2.10781 1.11866,1.22073 2.24321,2.47284 2.71816,4.143 -0.52204,-0.45139 -1.12849,-0.82624 -1.63483,-1.29334 1.62501,0.48084 2.70443,2.11958 2.75153,4.00168 -0.81054,-0.44943 -1.26782,-0.41802 -1.92332,-1.17558 1.62501,0.39055 3.03022,2.02734 3.52282,3.67983 -0.23354,-0.19037 -0.46905,-0.38074 -0.70456,-0.56915 0.8282,1.0225 1.60539,2.50621 1.91743,3.70338 -0.90671,-0.60055 -1.45819,-0.79484 -2.21771,-1.74865 1.6466,1.3895 2.92031,3.1617 3.92515,5.1282 -0.66138,-0.88904 -1.16773,-1.77613 -1.70548,-2.75938 1.17755,1.57399 2.44341,3.15975 3.23237,4.99868 -1.25409,-0.26299 -2.56313,-1.04998 -3.52283,-2.06266 0.64176,1.42875 1.19325,3.06553 1.08334,4.67485 -0.19821,-0.16093 -0.98521,-0.67317 -1.13436,-0.77719 1.53866,0.56523 2.57882,2.06268 2.74957,3.79955 -0.65551,-0.40037 -1.31297,-0.4298 -2.01557,-1.10296 0.99895,1.30904 1.46997,2.91442 1.19325,4.56494 -0.54952,-0.58092 -0.69083,-0.45335 -1.0853,-1.56613 1.37969,1.47585 3.06946,2.44144 1.74276,3.62487 l 0.22962,0.37878 c -0.0353,0.0354 0.24532,2.28247 0.051,2.64358 0.97736,0.18841 2.07248,0.29439 3.04787,0.32383 -0.64569,2.06659 -0.50241,1.38755 -2.22751,2.66322 0.16485,0.16878 1.58771,0.89493 1.47192,1.30119 -0.73596,0.38269 -1.36595,0.367 -2.04304,0.84193 0.24925,0.24926 0.38075,0.55541 0.39448,0.91456 -1.01661,0.30813 -1.89585,0.71439 -2.87517,1.10297 0.78699,0.16682 2.11958,0.10991 2.90657,0.10402 -0.72419,0.2257 -2.01556,1.31885 -3.71122,1.58772 0.0668,0.0432 2.87516,0.83803 2.90657,0.84195 0.004,-0.002 -2.08622,1.89976 -2.10781,1.98612 1.1226,0.2198 2.38453,0.67513 3.67394,0.78306 -0.84587,0.66728 -1.67604,2.32369 -3.67001,3.11657 1.44837,0.43961 2.76527,1.39932 3.69553,1.75847 -0.75167,0.3199 -1.57595,-0.1158 -2.27071,0.35915 0.67513,0.18252 2.4179,0.93026 3.71516,0.87139 -0.80465,0.58287 -1.8566,0.93614 -2.72798,1.34239 0.89886,0.15504 2.02537,-0.01 2.90657,0.39056 -3.2716,2.20397 -8.64318,2.85357 -11.92853,4.80634 1.20503,0.0412 2.49444,0.12953 3.75048,0.15111 -5.191,2.0038 -9.701,2.9262 -14.82725,5.31074 0.73401,-0.11971 1.39343,-0.36701 2.11173,-0.56522 -1.84874,2.04696 -4.40794,3.54637 -6.93573,4.00365 1.21876,-0.33168 2.64162,-0.4612 3.71515,-0.734 -2.01164,1.4896 -5.02615,3.07731 -7.08882,4.65326 1.10886,-0.3513 2.05678,-0.91456 3.03022,-1.28156 -1.42287,2.0764 -3.73478,4.03898 -6.20566,5.33232 -0.47887,2.29817 -1.07157,4.3942 -3.26966,6.58051 4.97317,0.85764 9.47336,-1.16969 14.15999,-2.50818 -4.01936,1.24428 -7.50881,2.48855 -11.56939,3.5032 1.14026,0.11776 2.39827,0.0569 3.53852,-0.0608 -0.15111,0.52401 -1.92136,0.66727 -1.93705,1.64463 0.94399,0.0196 2.05481,-0.54559 2.71817,-0.5868 -1.12849,0.72811 -1.86838,2.04304 -3.03219,2.99292 0.50438,-0.32185 0.82232,-1.55828 1.54259,-1.29922 -0.62606,1.0539 -1.33651,2.45911 -2.32565,3.81132 -0.18644,1.06371 -0.67905,3.10676 -0.80663,4.45897 0.0137,-0.1413 0.89887,-1.13241 0.90279,-1.13045 -0.2728,0.97933 -0.65746,2.73583 -0.76147,3.72694 2.70246,-1.45428 5.25969,-3.40703 7.69525,-4.97906 -2.57686,1.26586 -4.03113,2.94976 -5.22045,4.30982 0.10206,-0.14523 2.36883,-2.42575 1.46016,-1.75258 0.006,5.7523 -0.85765,13.31018 0.62802,18.24802 -0.0393,-0.83606 0.0648,-2.25893 0.1786,-3.14012 -0.25906,0.21196 0.0569,1.67408 0.004,2.0921 0.1472,-0.27672 0.18645,-1.76043 0.17663,-2.09603 1.10297,2.7319 2.00772,2.61415 3.6975,3.96833 -0.32383,-2.45126 -0.27084,-2.35902 -1.30708,-4.13122 -0.73597,3.25591 0.53186,5.80725 3.0734,7.20461 0.2512,1.25015 0.8125,3.74851 0.82232,4.95942 -0.2885,0.61625 0.32382,-0.54167 -0.67906,-0.91063 0.52989,1.24623 1.13241,2.55331 2.1549,3.91141 -0.39054,-0.24728 -0.81054,-0.38859 -1.25801,-0.42588 1.22466,1.29138 2.10977,2.74172 2.89677,4.13907 -0.58092,-0.32186 -1.78791,-0.80466 -2.46696,-1.06175 1.42483,0.93418 5.13409,4.75139 6.50789,7.81497 -2.08817,-1.54652 -3.15974,-2.52976 -4.53158,-4.86522 5.10858,1.32081 9.02195,7.2517 11.74209,11.90105 -1.15007,-0.0373 -2.58275,0.37682 -3.71123,0.28457 1.4052,1.19325 4.3942,4.06645 4.73961,4.24505 -1.24623,-0.44158 -2.69461,-0.53775 -3.91337,-0.97147 1.24427,1.04015 2.56312,2.49051 3.63665,3.40114 -0.50045,-0.10206 -0.95577,-0.25711 -1.2109,-0.82821 1.41305,1.12651 2.89479,2.52191 4.09981,3.57974 2.36098,1.04801 3.63273,2.04303 5.18316,4.17047 -1.24427,-0.55738 -2.75349,-1.04802 -4.05272,-1.63679 0.65943,0.22765 3.88983,2.9262 5.5011,4.26074 -0.60447,-0.19233 -1.94687,-0.47887 -2.71031,-0.62802 2.33545,1.95473 2.81629,3.54048 4.48644,5.76212 -0.67905,0.16289 -1.49352,-0.0687 -2.09799,0.10794 2.04107,1.9194 2.30799,3.79954 3.723,5.97408 -0.60054,-0.10794 -1.92921,-0.26298 -2.2707,-0.34346 2.74761,1.59166 4.65327,4.06843 5.4226,7.33807 -0.51028,-0.62802 -2.04697,-1.26389 -2.83396,-1.70547 2.30013,1.45819 2.0764,3.04592 2.95563,5.25773 l 0.8027,-1.73295 c -1.88604,0.79877 -1.66623,5.43044 -1.74669,9.46157 -0.56719,-0.44746 -1.51511,-1.11082 -2.06856,-1.5995 -0.7654,1.74473 -1.67996,3.39133 -1.83108,5.24008 -0.39251,0.5927 0.11776,0.0608 0.0393,-0.68101 -2.22948,4.46485 -1.51511,11.27302 -5.28718,14.40921 -0.22961,1.41306 -0.3513,1.35614 -1.7094,2.66322 0.0824,0.10598 1.13045,0.42784 1.45427,0.80073 -2.02538,1.39146 -2.20986,2.26873 -5.04186,2.61808 -0.59858,-0.0157 -0.57502,-0.0294 0.0766,-0.0412 0.60252,-0.0962 0.8655,0.12168 0.79289,0.64961 -0.30028,0.77129 -1.78399,0.81643 -2.12154,1.84286 0.69278,0.42784 1.46211,-0.23159 2.11761,0.29634 -0.4612,1.18148 -1.59557,2.61023 -1.87033,3.33835 l 0.3199,-1.46408 c -0.0962,0.18644 -2.04108,3.85842 -2.15491,4.10374 0.18448,-1.16773 0.52205,-2.32956 0.83998,-3.43843 -0.91848,1.05979 -2.26873,3.48161 -1.15595,4.50999 0.16485,-0.45335 0.42784,-0.88316 0.60643,-1.33258 0.0118,0.31205 0.0687,0.75755 0.0471,1.04605 0.21391,-0.41214 0.80073,-1.27568 0.97932,-1.6937 -0.65158,1.60342 -1.83697,3.32264 -1.79575,5.14194 0.10205,-0.13542 0.53185,-0.49457 0.76932,-0.87531 0.21393,1.00876 -0.71045,2.70836 -1.30903,4.00366 0.37681,-0.59074 0.84586,-1.01858 1.26782,-1.55632 -0.47494,0.93417 -0.92437,1.94883 -1.04802,3.01647 0.18056,-0.60251 0.31598,-0.98913 0.57308,-1.55632 -0.38663,0.9126 -0.88708,1.69174 -1.54651,2.40218 0.18841,-0.23746 0.50241,-0.56325 0.6555,-0.76343 0.26102,1.6466 -0.67513,3.85646 -2.05089,4.28234 0.11972,-0.5613 -0.16289,-1.36007 -0.0745,-1.93707 -1.83304,-0.25513 -3.77207,2.60827 -4.49233,4.22543 1.03035,0.0491 1.82912,-0.72812 2.32957,-1.65642 0.3827,1.67605 -0.39251,3.33835 -1.47193,4.45308 0.72615,-1.15006 1.60931,-2.11957 2.77115,-2.72798 -0.74774,1.78595 -1.65445,3.6033 -2.3178,5.38923 0.15701,-1.4837 1.28745,-2.91246 2.40023,-3.65235 -0.93811,1.57988 -2.47284,3.81722 -2.62788,5.73073 1.47389,0.13345 2.58471,-0.82232 3.66805,-1.67408 -0.0373,0.41017 0.14719,0.367 0.31401,0.54952 l 1.57006,-2.84181 c -0.65943,-0.0314 -0.66139,-0.0608 -0.004,-0.0903 0.61232,-0.0943 0.87531,0.12954 0.79484,0.67317 -0.49849,0.66334 -1.51706,0.6398 -2.10584,1.12847 0.3042,0.48869 0.89886,-0.24728 1.2953,0.83999 -1.11278,0.53578 -1.84482,0.66727 -3.06161,1.05587 -0.051,0.36896 0.0824,0.6025 0.39839,0.70259 0.0766,-0.52204 -1.83304,0.6771 -1.87032,0.69279 0.12756,0.42981 1.66034,-0.69279 1.94883,-0.78503 -0.87923,0.18449 -1.55829,0 -1.72707,0.97933 -0.39447,0.26102 -1.3208,-0.13149 -1.82323,-0.0451 1.02447,0.0648 1.92136,-0.12757 2.91442,0.19626 -1.03623,0.61821 -2.13331,1.73884 -2.48069,2.2079 -1.6152,0.58876 -2.05285,0.64567 -3.63076,1.99201 0.55737,0.0864 1.36399,-0.3513 1.87622,-0.10991 -0.59859,1.42875 -1.55828,0.46317 -1.41109,0.91064 0.47102,0 0.94204,-0.0137 1.41109,-0.0432 -1.32866,0.44551 -1.84482,0.75166 -3.46395,0.84587 0.50046,0.0903 0.85569,0.40233 1.06176,0.93418 -0.90867,0.80466 -1.94688,0.84588 -2.66125,1.96847 0.30028,0.91456 1.52688,0.3199 2.07051,0.7968 -0.78699,0.577 -1.91351,0.96559 -2.91638,1.56221 0.45139,0.10991 1.69959,0.24925 2.11565,0.19626 -0.1727,1.18343 -1.47782,0.12168 -1.67211,1.49155 0.0922,1.49156 1.41502,1.43858 1.66819,2.66322 -0.85764,0.67709 -1.80557,0.84783 -2.29229,1.51707 0.76148,0.27869 1.31493,0.0687 2.07052,0.14915 -0.59466,0.83803 -1.39932,0.55149 -2.03126,1.10886 -0.0373,0.0726 0.60839,1.82519 0.60839,2.25303 -0.35326,0.0118 -1.74865,-0.0412 -1.99986,0.10206 -0.10009,0.78503 -0.64176,1.00483 -0.41606,0.89297 0.56129,-0.13345 1.09708,-0.0766 1.61716,0.16879 0.10009,0.70259 -0.54167,2.16667 -0.39252,2.49835 0.32579,0.26494 1.48959,-0.13934 2.03715,0.14719 -0.34148,0.21392 -1.18343,1.05979 -1.41502,1.38951 0.49065,0.16289 0.67317,-0.0196 0.54952,-0.54756 -0.66923,-0.5299 -1.10296,1.02249 -1.54847,1.23838 -0.34541,0.16289 0.94008,-2.11762 0.92241,-1.96846 -1.09511,2.255 -1.90173,3.32067 -2.53368,4.00365 0.0333,-0.69279 0.0549,-0.73007 0.0628,-0.10794 0.11972,0.90867 -0.0216,1.9351 -0.004,2.85555 0.50241,0.32774 -0.0589,-0.81251 -0.80073,-0.93615 -0.11972,0.17663 -0.90279,2.30014 -0.78111,2.20004 l 0.30813,2.1922 c 47.41493,31.99599 88.98553,40.01336 126.90202,40.88631 73.11769,0.002 118.72007,-31.84866 118.72007,-31.84866 z"
       id="path4379-2"
       style="fill:none;stroke:#000000;stroke-width:1.96257448;stroke-miterlimit:10"
       inkscape:connector-curvature="0"
       sodipodi:nodetypes="cccccccccccccccccccccccccccccccccccccccccccccccccccccccccccccccccccccccccccccccccccccccccccccccccccccccccccccccccccccccccccccccccccccccccccccccccccccccccccsccccccccccccccccccccccccccccccccccccccccccccccccccccccccccccccccccccccccccccccccccccccccccccccccccccccccccccccccccccccccccccccccccccccccccccccccccccccccccccccccccccccccccccccccccccccccccccccccccccccccccccccccccccccccccccccccccccccccccccccccccccccccccccccccccccccccccccccccccccccccccccccccccccccccccccccccccccccccccccccccccccccccccccccccccccccccccccccccccccccccccccccccccccccccccccccccccccccccccccccccccccccccccccccccccccccccccccccccccccccccccccccccccccccccccccccccccccccccccccccccc" />
    <circle
       style="fill:none;stroke:#000000;stroke-width:1.96257448;stroke-miterlimit:10;stroke-dasharray:none;stroke-opacity:1"
       r="226.20828"
       id="circle4361-4"
       cy="313.78223"
       cx="316.71866"
       stroke-miterlimit="10" />
    <path
       style="fill:none;fill-rule:evenodd;stroke:#000000;stroke-width:1.96257448px;stroke-linecap:butt;stroke-linejoin:miter;stroke-opacity:1"
       d="m 218.67214,329.87014 c 0,0 0.32289,8.47811 1.34117,12.56542 0.4182,1.67858 0.91879,3.41531 1.93455,4.81559 0.67035,0.92412 2.6247,2.20028 2.6247,2.20028"
       id="path4702"
       inkscape:connector-curvature="0"
       sodipodi:nodetypes="caac" />
    <path
       style="fill:none;fill-rule:evenodd;stroke:#000000;stroke-width:1.96257448px;stroke-linecap:butt;stroke-linejoin:miter;stroke-opacity:1"
       d="m 219.4662,339.3217 c 0,0 0.79625,3.61198 0.15171,5.23406 -0.17958,0.45195 -0.61353,0.78327 -1.03165,1.03164 -0.43061,0.25581 -0.94173,0.38859 -1.44126,0.4248 -0.57066,0.0414 -1.69917,-0.24273 -1.69917,-0.24273"
       id="path4704"
       inkscape:connector-curvature="0"
       sodipodi:nodetypes="caaac" />
    <path
       style="fill:none;fill-rule:evenodd;stroke:#000000;stroke-width:1.96257448px;stroke-linecap:butt;stroke-linejoin:miter;stroke-opacity:1"
       d="m 218.41634,346.18384 c 0,-0.12128 2.01776,-1.47161 2.01776,-1.47161 l 0.98613,2.89772 z"
       id="path4706"
       inkscape:connector-curvature="0"
       sodipodi:nodetypes="cccc" />
  </g>
</svg>
