<?xml version="1.0" encoding="UTF-8" standalone="no"?>
<!-- Created with Inkscape (http://www.inkscape.org/) -->

<svg
   xmlns:dc="http://purl.org/dc/elements/1.1/"
   xmlns:cc="http://creativecommons.org/ns#"
   xmlns:rdf="http://www.w3.org/1999/02/22-rdf-syntax-ns#"
   xmlns:svg="http://www.w3.org/2000/svg"
   xmlns="http://www.w3.org/2000/svg"
   xmlns:sodipodi="http://sodipodi.sourceforge.net/DTD/sodipodi-0.dtd"
   xmlns:inkscape="http://www.inkscape.org/namespaces/inkscape"
   width="744.09448819"
   height="1052.3622047"
   id="svg2"
   version="1.1"
   inkscape:version="0.48.4 r"
   sodipodi:docname="cat.svg"
   enable-background="new">
  <defs
     id="defs4">
    <filter
       inkscape:collect="always"
       id="filter4031"
       x="-0.16492651"
       width="1.329853"
       y="-0.078926431"
       height="1.1578529">
      <feGaussianBlur
         inkscape:collect="always"
         stdDeviation="5.1715704"
         id="feGaussianBlur4033" />
    </filter>
    <filter
       color-interpolation-filters="sRGB"
       inkscape:collect="always"
       id="filter4031-5"
       x="-0.16492651"
       width="1.3298531"
       y="-0.078926429"
       height="1.1578529">
      <feGaussianBlur
         inkscape:collect="always"
         stdDeviation="5.1715704"
         id="feGaussianBlur4033-6" />
    </filter>
    <filter
       inkscape:collect="always"
       id="filter4067"
       x="-0.14042159"
       width="1.2808432"
       y="-0.1047641"
       height="1.2095282">
      <feGaussianBlur
         inkscape:collect="always"
         stdDeviation="1.7583101"
         id="feGaussianBlur4069" />
    </filter>
    <filter
       inkscape:collect="always"
       id="filter4071"
       x="-0.13788434"
       width="1.2757687"
       y="-0.10622239"
       height="1.2124448">
      <feGaussianBlur
         inkscape:collect="always"
         stdDeviation="1.7512168"
         id="feGaussianBlur4073" />
    </filter>
  </defs>
  <sodipodi:namedview
     id="base"
     pagecolor="#ffffff"
     bordercolor="#666666"
     borderopacity="1.0"
     inkscape:pageopacity="0.0"
     inkscape:pageshadow="2"
     inkscape:zoom="1.4"
     inkscape:cx="392.44981"
     inkscape:cy="544.24952"
     inkscape:document-units="px"
     inkscape:current-layer="layer5"
     showgrid="false"
     inkscape:window-width="1280"
     inkscape:window-height="972"
     inkscape:window-x="-8"
     inkscape:window-y="-8"
     inkscape:window-maximized="1" />
  <metadata
     id="metadata7">
    <rdf:RDF>
      <cc:Work
         rdf:about="">
        <dc:format>image/svg+xml</dc:format>
        <dc:type
           rdf:resource="http://purl.org/dc/dcmitype/StillImage" />
        <dc:title></dc:title>
      </cc:Work>
    </rdf:RDF>
  </metadata>
  <g
     inkscape:groupmode="layer"
     id="layer3"
     inkscape:label="Голова"
     style="display:inline">
    <path
       style="fill:#cccccc;stroke:#000000;stroke-width:5;stroke-linecap:butt;stroke-linejoin:miter;stroke-opacity:1;stroke-miterlimit:4;stroke-dasharray:none"
       d="m 256.33576,311.03513 c 31.41158,-43.35395 97.38587,-60.64178 150.68455,-55.59173 53.82065,5.09951 115.42728,35.01941 138.90935,83.715 20.1254,41.73474 11.45136,102.05374 -17.9884,137.83251 -35.27448,42.86982 -102.71104,58.90461 -157.90792,52.95357 -45.98045,-4.95738 -97.02962,-30.50419 -119.11601,-71.13631 -23.54006,-43.30643 -23.50157,-107.85795 5.41843,-147.77304 z"
       id="path3032"
       inkscape:connector-curvature="0"
       sodipodi:nodetypes="aaaaaaa" />
  </g>
  <g
     inkscape:groupmode="layer"
     id="layer2"
     inkscape:label="Ухо 2">
    <path
       style="fill:#cccccc;fill-opacity:1;stroke:none;stroke-width:1px;stroke-linecap:butt;stroke-linejoin:miter;stroke-opacity:1"
       d="m 468.39811,282.00324 c 0,0 59.76629,-72.18285 98.39196,-97.46591 5.74533,-3.7607 13.18168,-11.02153 19.14214,-7.61205 7.40399,4.23521 4.21712,16.76578 3.90318,25.28972 -2.12815,57.78296 -40.35592,119.23584 -38.99854,169.02574 z"
       id="path2987"
       inkscape:connector-curvature="0"
       sodipodi:nodetypes="caaacc" />
    <path
       style="fill:none;stroke:#000000;stroke-width:5;stroke-linecap:butt;stroke-linejoin:miter;stroke-miterlimit:4;stroke-opacity:1;stroke-dasharray:none;display:inline"
       d="m 474.28148,274.68214 c 0,0 59.39936,-66.65817 96.44599,-90.59684 4.24938,-2.74585 9.68315,-8.42201 14.01959,-5.81581 8.51922,5.12007 3.56176,19.77021 2.83611,29.68311 -1.97568,26.98925 -13.25946,52.47669 -19.40826,78.83034 -5.69954,24.42815 -19.44813,44.43649 -16.20449,73.48733"
       id="path3969-0"
       inkscape:connector-curvature="0"
       sodipodi:nodetypes="caaaac" />
    <path
       style="fill:#ffd5d5;fill-opacity:1;stroke:none;display:inline;filter:url(#filter4031-5)"
       d="m 536.13847,325.39425 c 0,0 16.27114,-27.50478 27.27413,-38.89086 10.10826,-10.46021 34.85025,-26.26397 34.85025,-26.26397 0,0 -55.15554,-64.03855 -88.89342,-88.89343 -2.91032,-2.14404 -6.39489,-6.72913 -9.59645,-5.05076 -4.95669,2.59847 -2.12672,11.07203 -2.02031,16.66752 0.1621,8.52346 2.0462,16.96538 4.04062,25.25381 3.06414,12.73393 7.97511,24.95201 12.12183,37.37564 3.77591,11.31265 8.33535,22.37425 11.61676,33.84011 4.32616,15.11644 10.60659,45.96194 10.60659,45.96194 z"
       id="path4021-7"
       inkscape:connector-curvature="0"
       sodipodi:nodetypes="cacaaaaaac"
       transform="matrix(-1,0,0,1,1080.8632,19.192898)" />
  </g>
  <g
     inkscape:label="Ухо 1"
     inkscape:groupmode="layer"
     id="layer1"
     style="display:inline">
    <path
       style="fill:#cccccc;fill-opacity:1;stroke:none;stroke-width:1px;stroke-linecap:butt;stroke-linejoin:miter;stroke-opacity:1"
       d="m 246.24908,327.65189 c 7.96522,-58.39835 2.12019,-88.2748 6.6737,-132.14286 1.49368,-14.38993 -4.22582,-33.45894 6.76033,-42.872 3.67283,-3.14693 10.28126,-2.38374 14.50978,-0.0359 37.46424,20.80161 67.69871,109.28572 67.69871,109.28572 z"
       id="path2985"
       inkscape:connector-curvature="0"
       sodipodi:nodetypes="caaacc" />
    <path
       style="fill:none;stroke:#000000;stroke-width:5;stroke-linecap:butt;stroke-linejoin:miter;stroke-miterlimit:4;stroke-opacity:1;stroke-dasharray:none;display:inline"
       d="m 341.49284,262.48417 c 0,0 -30.50173,-93.37742 -70.73171,-110.59684 -3.2623,-1.39634 -7.74187,-0.25395 -10.44816,2.04133 -4.662,3.954 -5.24323,11.18205 -6.40753,17.18311 -4.00852,20.66072 -1.08648,42.07797 -1.66317,63.11606 -0.75961,27.71088 1.41136,55.66758 -2.36694,83.13018 -0.47978,3.48729 -2.56127,10.2451 -2.56127,10.2451"
       id="path3969"
       inkscape:connector-curvature="0"
       sodipodi:nodetypes="caaaaac" />
    <path
       style="fill:#ffd5d5;fill-opacity:1;stroke:none;filter:url(#filter4031)"
       d="m 256.07367,313.94067 c 0,0 19.87294,-21.83031 31.81981,-30.30457 13.26546,-9.40957 43.43655,-22.22336 43.43655,-22.22336 0,0 -20.05889,-51.11946 -35.86041,-73.23606 -8.5816,-12.01124 -16.74344,-33.67933 -31.31473,-31.31473 -2.22961,0.36182 -2.34113,3.9099 -3.03046,6.06092 -1.9766,6.16791 -2.46055,12.74112 -3.03045,19.19289 -1.5113,17.10928 -1.01883,34.34189 -1.01015,51.51778 0.008,16.33427 1.36793,32.66205 1.01015,48.9924 -0.22912,10.45743 -2.02031,31.31473 -2.02031,31.31473 z"
       id="path4021"
       inkscape:connector-curvature="0"
       sodipodi:nodetypes="cacaaaaaac" />
  </g>
  <g
     inkscape:groupmode="layer"
     id="layer4"
     inkscape:label="Морда">
    <path
       style="fill:none;stroke:#000000;stroke-width:5;stroke-linecap:butt;stroke-linejoin:miter;stroke-opacity:1;stroke-miterlimit:4;stroke-dasharray:none"
       d="m 356.42857,385.21932 c 0,0 5.0835,15.77982 6.42857,23.92858 1.34111,8.12478 0.0445,16.56436 0.53627,26.20583 0.0769,1.50733 -0.51231,0.74493 1.10151,0.0748 4.31852,-1.79323 30.04124,-0.80563 35.96683,4.41571 3.70134,-9.63961 6.88453,-16.17368 10.63506,-24.11984 4.04958,-8.57975 7.06506,-17.86539 12.80638,-25.41842 0.88299,-1.16163 3.23967,-2.9438 3.23967,-2.9438"
       id="path3035"
       inkscape:connector-curvature="0"
       sodipodi:nodetypes="cssscaac" />
    <path
       style="fill:#f2f2f2;stroke:#000000;stroke-width:5;stroke-linecap:butt;stroke-linejoin:miter;stroke-opacity:1;stroke-miterlimit:4;stroke-dasharray:none"
       d="m 335,516.46932 c 4.78278,8.11289 13.90035,13.69685 22.85714,16.60715 10.41631,3.38454 22.34155,3.06215 32.85715,0 8.94174,-2.60384 18.46848,-7.20932 23.57142,-15 11.35689,-17.3386 9.64286,-61.42858 9.64286,-61.42858 0,0 -79.71396,-0.68193 -96.48646,-1.36241 0.0253,13.05094 -2.8782,43.48143 7.55789,61.18384 z"
       id="path3043"
       inkscape:connector-curvature="0"
       sodipodi:nodetypes="aaaacca" />
    <path
       style="fill:#e6e6e6;stroke:#000000;stroke-width:5;stroke-linecap:butt;stroke-linejoin:miter;stroke-opacity:1;stroke-miterlimit:4;stroke-dasharray:none"
       d="m 378.57143,473.79075 c 1.15884,5.85787 3.54048,11.66617 7.14286,16.42857 4.08291,5.39767 9.34027,10.58186 15.71428,12.85715 9.19372,3.28182 19.66704,1.66609 29.28572,0 10.46282,-1.81231 21.41036,-4.47144 30,-10.71429 7.05054,-5.12425 13.70315,-12.28997 15.96682,-20.70685 1.78303,-6.62975 0.89286,-14.56749 -2.6987,-20.41842 -5.47262,-8.91532 -15.706,-15.32194 -25.88144,-17.74946 -14.55963,-3.47344 -30.21537,1.50256 -44.50955,5.94374 -8.77941,2.72775 -24.59297,12.48411 -24.59297,12.48411 0,0 -1.84238,14.7209 -0.42702,21.87545 z"
       id="path3041"
       inkscape:connector-curvature="0"
       sodipodi:nodetypes="aaaaaaaaaca" />
    <path
       style="fill:#ececec;stroke:#000000;stroke-width:5;stroke-linecap:butt;stroke-linejoin:miter;stroke-opacity:1;stroke-miterlimit:4;stroke-dasharray:none"
       d="m 377.18618,464.50504 c -0.75676,3.85316 -1.41508,7.77618 -2.85714,11.42857 -1.80045,4.56011 -3.64377,9.4231 -7.14286,12.85714 -6.1575,6.04303 -14.38305,10.52333 -22.85714,12.14286 -8.47087,1.61891 -17.6839,0.28759 -25.71429,-2.85714 -11.57318,-4.53211 -23.62661,-11.47242 -30,-22.14286 -5.17993,-8.67232 -6.88213,-20.23786 -4.28571,-30 1.54209,-5.79803 6.38165,-11.31463 11.06092,-14.19906 13.4839,-8.31186 39.71374,-7.40209 57.59493,-1.15772 11.27683,3.93803 26.00007,21.42513 26.00007,21.42513 0,0 -0.98732,8.37141 -1.79878,12.50308 z"
       id="path3039"
       inkscape:connector-curvature="0"
       sodipodi:nodetypes="aaaaaaassca" />
    <path
       style="fill:#e9afaf;stroke:#000000;stroke-width:5;stroke-linecap:butt;stroke-linejoin:miter;stroke-miterlimit:4;stroke-opacity:1;stroke-dasharray:none"
       d="m 363.98985,432.90315 c -3.54308,0.42085 -0.99136,6.70443 0.20921,9.71157 1.33577,3.34579 3.88877,9.23012 7.27284,7.99456 2.79441,-1.02027 -1.29389,-6.43156 0.33919,-8.91806 0.58695,-0.89368 1.88956,-1.75427 2.89305,-1.38524 1.16399,0.42806 1.3103,2.17495 1.51523,3.39811 0.63709,3.80262 -3.21592,8.36033 -1.01016,11.52267 1.07073,1.53506 3.78637,2.38803 5.41842,1.4719 3.33245,-1.87062 0.99843,-7.88387 3.19634,-11.01015 0.61697,-0.87758 1.54487,-1.72364 2.6046,-1.89032 0.88727,-0.13956 2.12559,0.0514 2.56128,0.83683 1.56221,2.81624 -4.94413,7.51822 -2.31617,9.37981 3.56917,2.52832 8.12648,-3.87375 10.97426,-7.19362 1.91511,-2.23261 5.43541,-7.11325 3.65807,-8.03046 -4.55417,-2.3502 -28.04913,-6.98834 -37.31616,-5.8876 z"
       id="path3037"
       inkscape:connector-curvature="0"
       sodipodi:nodetypes="saaaaaaaaaaaass" />
  </g>
  <g
     inkscape:groupmode="layer"
     id="layer6"
     inkscape:label="Глаза">
    <path
       style="fill:#000000;stroke:#000000;stroke-width:0.88073206px;stroke-linecap:butt;stroke-linejoin:miter;stroke-opacity:1"
       d="m 438.45748,361.54879 c 3.79466,-5.69895 7.79708,-11.68267 13.46672,-15.48012 4.95032,-3.31566 10.96966,-5.72726 16.91168,-5.68658 7.29616,0.05 14.87841,2.78936 20.66985,7.26617 4.41273,3.41108 8.21955,8.41938 9.39538,13.90054 1.0309,4.80559 -0.84099,9.91108 -2.50543,14.53235 -1.56528,4.34597 -3.71739,8.66756 -6.88996,12.00499 -3.76827,3.9641 -8.48042,7.58668 -13.77989,8.8458 -6.84511,1.62634 -14.14517,-0.55433 -20.98303,-2.21146 -3.69575,-0.89565 -7.02918,-2.9396 -10.64157,-4.13214 -3.25453,-1.0744 -6.49178,-2.60055 -9.91428,-2.71515 -3.30378,-0.11064 -3.47746,0.46936 -9.7216,1.9749 0,0 8.16554,-19.5487 13.99213,-28.2993 z"
       id="path3081"
       inkscape:connector-curvature="0"
       sodipodi:nodetypes="aaaaaaaaaaaca" />
    <path
       style="fill:#000000;stroke:#000000;stroke-width:0.84759265px;stroke-linecap:butt;stroke-linejoin:miter;stroke-opacity:1"
       d="m 350.04204,363.12857 c -2.29646,-6.13097 -4.14732,-12.84276 -8.38524,-17.68894 -4.61596,-5.27851 -10.87266,-9.39494 -17.47352,-11.15877 -4.63544,-1.23866 -9.84131,-1.01227 -14.32931,0.72833 -6.15197,2.38595 -12.56946,6.51693 -15.57392,12.65961 -2.8783,5.88477 -1.987,13.36401 -0.7204,19.84917 0.78043,3.99587 2.6025,7.84031 4.99069,11.05022 2.5691,3.45303 5.92728,6.41141 9.67175,8.32813 4.01783,2.05663 8.61242,3.03317 13.07857,3.07062 8.47269,0.0711 16.4487,-4.71313 24.89595,-5.40835 3.33513,-0.27449 10.02455,0.50128 10.02455,0.50128 0,0 -3.52229,-14.83824 -6.17912,-21.9313 z"
       id="path3101"
       inkscape:connector-curvature="0"
       sodipodi:nodetypes="aaaaaaaaaaca" />
  </g>
  <g
     inkscape:groupmode="layer"
     id="layer7"
     inkscape:label="Зрачки">
    <path
       sodipodi:type="arc"
       style="fill:#00ff00;fill-opacity:1;stroke:#000000;stroke-width:4;stroke-linecap:square;stroke-linejoin:round;stroke-miterlimit:4;stroke-opacity:1;stroke-dasharray:none"
       id="path3150"
       sodipodi:cx="315.35715"
       sodipodi:cy="358.07648"
       sodipodi:rx="32.857143"
       sodipodi:ry="32.857143"
       d="m 348.21429,358.07648 a 32.857143,32.857143 0 1 1 -65.71429,0 32.857143,32.857143 0 1 1 65.71429,0 z"
       transform="matrix(0.77047201,0,0,0.81237135,78.072114,70.98314)" />
    <path
       style="fill:#000000;stroke:#000000;stroke-width:0.72923779000000000px;stroke-linecap:butt;stroke-linejoin:miter;stroke-opacity:1;filter:url(#filter4071)"
       d="m 322.31122,342.36735 c 21.82199,1.62333 14.37739,41.31591 -2.86026,39.50721 -22.58689,-5.15926 -15.52092,-37.02727 2.86026,-39.50721 z"
       id="path3106-1"
       inkscape:connector-curvature="0"
       sodipodi:nodetypes="ccc" />
    <path
       sodipodi:type="arc"
       style="fill:#00ff00;fill-opacity:1;stroke:#000000;stroke-width:4;stroke-linecap:square;stroke-linejoin:round;stroke-miterlimit:4;stroke-opacity:1;stroke-dasharray:none"
       id="path3150-5"
       sodipodi:cx="315.35715"
       sodipodi:cy="358.07648"
       sodipodi:rx="32.857143"
       sodipodi:ry="32.857143"
       d="m 348.21429,358.07648 a 32.857143,32.857143 0 1 1 -65.71429,0 32.857143,32.857143 0 1 1 65.71429,0 z"
       transform="matrix(0.81850214,0,0,0.82566701,209.46267,73.163031)" />
    <path
       style="fill:#000000;stroke:#000000;stroke-width:0.72923779000000000px;stroke-linecap:butt;stroke-linejoin:miter;stroke-opacity:1;filter:url(#filter4067)"
       d="m 468.58318,348.29287 c -21.82199,1.62333 -17.94882,42.0302 -0.71117,40.2215 22.58689,-5.15926 19.09235,-37.74156 0.71117,-40.2215 z"
       id="path3106-1-8"
       inkscape:connector-curvature="0"
       sodipodi:nodetypes="ccc" />
  </g>
  <g
     inkscape:groupmode="layer"
     id="layer5"
     inkscape:label="Усы">
    <path
       style="fill:none;stroke:#000000;stroke-width:1px;stroke-linecap:butt;stroke-linejoin:miter;stroke-opacity:1"
       d="m 451.42857,447.36218 c 0,0 47.85795,0.10758 70.90362,5.68217 26.50739,6.41196 75.52495,31.46069 75.52495,31.46069"
       id="path3046"
       inkscape:connector-curvature="0"
       sodipodi:nodetypes="cac" />
    <path
       style="fill:none;stroke:#000000;stroke-width:1px;stroke-linecap:butt;stroke-linejoin:miter;stroke-opacity:1"
       d="m 438.57143,458.07647 c 0,0 52.55034,7.73427 77.72948,15.80094 34.22608,10.96505 98.46885,43.91805 98.46885,43.91805"
       id="path3048"
       inkscape:connector-curvature="0"
       sodipodi:nodetypes="cac" />
    <path
       style="fill:none;stroke:#000000;stroke-width:1px;stroke-linecap:butt;stroke-linejoin:miter;stroke-opacity:1"
       d="m 440,470.21932 c 0,0 53.62514,9.60441 78.57143,20.00001 29.47459,12.28262 82.14286,49.2857 82.14286,49.2857"
       id="path3050"
       inkscape:connector-curvature="0"
       sodipodi:nodetypes="cac" />
    <path
       style="fill:none;stroke:#000000;stroke-width:1px;stroke-linecap:butt;stroke-linejoin:miter;stroke-opacity:1"
       d="m 431.42857,465.93361 c 0,0 56.32024,6.43057 82.87501,15.66341 27.66478,9.61879 77.83927,40.76516 77.83927,40.76516"
       id="path3052"
       inkscape:connector-curvature="0"
       sodipodi:nodetypes="cac" />
    <path
       style="fill:none;stroke:#000000;stroke-width:1px;stroke-linecap:butt;stroke-linejoin:miter;stroke-opacity:1"
       d="m 436.42858,476.6479 c 0,0 58.65745,10.36436 85.71428,22.14285 30.82458,13.41868 84.99999,54.28572 84.99999,54.28572"
       id="path3054"
       inkscape:connector-curvature="0"
       sodipodi:nodetypes="cac" />
    <path
       style="fill:none;stroke:#000000;stroke-width:1px;stroke-linecap:butt;stroke-linejoin:miter;stroke-opacity:1"
       d="m 446.42857,453.07647 c 0,0 39.54796,5.05375 58.57143,10.71428 32.42305,9.64765 93.57142,39.28572 93.57142,39.28572"
       id="path3056"
       inkscape:connector-curvature="0"
       sodipodi:nodetypes="cac" />
    <path
       style="fill:none;stroke:#000000;stroke-width:1px;stroke-linecap:butt;stroke-linejoin:miter;stroke-opacity:1"
       d="m 316.42857,443.79075 c 0,0 -52.99225,-1.96522 -79.28571,0.71429 -28.24402,2.87829 -83.57143,16.42856 -83.57143,16.42856"
       id="path3058"
       inkscape:connector-curvature="0"
       sodipodi:nodetypes="cac" />
    <path
       style="fill:none;stroke:#000000;stroke-width:1px;stroke-linecap:butt;stroke-linejoin:miter;stroke-opacity:1"
       d="m 317.85715,452.36219 c 0,0 -53.88884,3.64162 -80.00001,9.99999 -30.08158,7.32521 -87.14285,32.14285 -87.14285,32.14285"
       id="path3060"
       inkscape:connector-curvature="0"
       sodipodi:nodetypes="cac" />
    <path
       style="fill:none;stroke:#000000;stroke-width:1px;stroke-linecap:butt;stroke-linejoin:miter;stroke-opacity:1"
       d="m 335,467.36218 c -5.71428,0 -77.67596,2.59498 -113.57143,15.71429 -25.12698,9.18357 -67.85714,42.85714 -67.85714,42.85714"
       id="path3062"
       inkscape:connector-curvature="0"
       sodipodi:nodetypes="cac" />
    <path
       style="fill:none;stroke:#000000;stroke-width:1px;stroke-linecap:butt;stroke-linejoin:miter;stroke-opacity:1"
       d="m 322.14285,463.79075 c 0,0 -58.45811,0.47464 -86.42857,7.85715 -32.35106,8.53873 -91.42857,41.42856 -91.42857,41.42856"
       id="path3064"
       inkscape:connector-curvature="0"
       sodipodi:nodetypes="cac" />
    <path
       style="fill:none;stroke:#000000;stroke-width:1px;stroke-linecap:butt;stroke-linejoin:miter;stroke-opacity:1"
       d="m 302.85715,448.07646 c -16.42858,-0.71428 -56.54521,3.2828 -84.28572,8.57144 -22.35998,4.26286 -65.71429,18.57142 -65.71429,18.57142"
       id="path3066"
       inkscape:connector-curvature="0"
       sodipodi:nodetypes="cac" />
    <path
       style="fill:none;stroke:#000000;stroke-width:1px;stroke-linecap:butt;stroke-linejoin:miter;stroke-opacity:1"
       d="m 330,458.79075 c 0,0 -75.09051,-0.19901 -110.71428,10 -25.89898,7.41482 -72.14286,36.42857 -72.14286,36.42857"
       id="path3068"
       inkscape:connector-curvature="0"
       sodipodi:nodetypes="cac" />
    <path
       style="fill:none;stroke:#000000;stroke-width:1px;stroke-linecap:butt;stroke-linejoin:miter;stroke-opacity:1"
       d="m 328.70885,321.77788 c 0,0 -3.80423,-76.48257 -8.70885,-114.4157 -4.06609,-31.44782 -17.14285,-93.57142 -17.14285,-93.57142"
       id="path3070"
       inkscape:connector-curvature="0"
       sodipodi:nodetypes="cac" />
    <path
       style="fill:none;stroke:#000000;stroke-width:1px;stroke-linecap:butt;stroke-linejoin:miter;stroke-opacity:1"
       d="m 336.24166,330.15497 c 0,0 -4.18394,-82.52011 -9.09881,-123.50707 -3.7935,-31.63546 -15.71428,-94.28572 -15.71428,-94.28572"
       id="path3072"
       inkscape:connector-curvature="0"
       sodipodi:nodetypes="cac" />
    <path
       style="fill:none;stroke:#000000;stroke-width:1px;stroke-linecap:butt;stroke-linejoin:miter;stroke-opacity:1"
       d="m 470.07177,336.87197 c 6.0132,-48.84366 5.90638,-80.94932 8.79551,-121.42858 2.17501,-30.47391 6.42857,-91.42856 6.42857,-91.42856"
       id="path3074"
       inkscape:connector-curvature="0"
       sodipodi:nodetypes="cac" />
    <path
       style="fill:none;stroke:#000000;stroke-width:1px;stroke-linecap:butt;stroke-linejoin:miter;stroke-opacity:1"
       d="m 322.77792,325.01754 c -0.83684,-15.96682 -4.3428,-67.69617 -9.20649,-101.22679 -4.87976,-33.6414 -12.25412,-69.81378 -20,-100"
       id="path3076"
       inkscape:connector-curvature="0"
       sodipodi:nodetypes="cac" />
    <path
       style="fill:none;stroke:#000000;stroke-width:1px;stroke-linecap:butt;stroke-linejoin:miter;stroke-opacity:1"
       d="m 484.11239,335.68851 c 0,-6.42857 9.12455,-66.03352 14.28572,-98.96011 5.80039,-37.00458 18.74474,-110.79479 18.74474,-110.79479"
       id="path3078"
       inkscape:connector-curvature="0"
       sodipodi:nodetypes="cac" />
    <path
       style="fill:none;stroke:#000000;stroke-width:1px;stroke-linecap:butt;stroke-linejoin:miter;stroke-opacity:1"
       d="m 476.25102,336.52658 c 6.0132,-48.84366 8.53716,-69.50649 12.83612,-104.25599 4.47878,-36.203 13.49964,-108.60115 13.49964,-108.60115"
       id="path3074-8"
       inkscape:connector-curvature="0"
       sodipodi:nodetypes="cac" />
  </g>
</svg>
