<?xml version="1.0" encoding="UTF-8" standalone="no"?>
<!-- Created with Inkscape (http://www.inkscape.org/) -->

<svg
   xmlns:dc="http://purl.org/dc/elements/1.1/"
   xmlns:cc="http://creativecommons.org/ns#"
   xmlns:rdf="http://www.w3.org/1999/02/22-rdf-syntax-ns#"
   xmlns:svg="http://www.w3.org/2000/svg"
   xmlns="http://www.w3.org/2000/svg"
   xmlns:sodipodi="http://sodipodi.sourceforge.net/DTD/sodipodi-0.dtd"
   xmlns:inkscape="http://www.inkscape.org/namespaces/inkscape"
   width="1366"
   height="768"
   id="svg2"
   version="1.1"
   inkscape:version="0.48.4 r"
   sodipodi:docname="cat_pge_bg_1366_768.svg"
   style="enable-background:new"
   inkscape:export-filename="D:\Developer\PlatfornerGameEngine\Editor\_resources\images\src\cat_pge_bg_1366_768.png"
   inkscape:export-xdpi="90"
   inkscape:export-ydpi="90">
  <defs
     id="defs4">
    <filter
       color-interpolation-filters="sRGB"
       inkscape:collect="always"
       id="filter4817-3">
      <feGaussianBlur
         inkscape:collect="always"
         stdDeviation="1.5507812"
         id="feGaussianBlur4819-2" />
    </filter>
    <filter
       inkscape:collect="always"
       id="filter4936"
       color-interpolation-filters="sRGB">
      <feGaussianBlur
         inkscape:collect="always"
         stdDeviation="0.31228027"
         id="feGaussianBlur4938" />
    </filter>
    <filter
       inkscape:collect="always"
       id="filter4067"
       x="-0.14042158"
       width="1.2808433"
       y="-0.1047641"
       height="1.2095282"
       color-interpolation-filters="sRGB">
      <feGaussianBlur
         inkscape:collect="always"
         stdDeviation="1.7583101"
         id="feGaussianBlur4069" />
    </filter>
    <filter
       inkscape:collect="always"
       id="filter4071"
       x="-0.13788433"
       width="1.2757688"
       y="-0.10622239"
       height="1.2124448"
       color-interpolation-filters="sRGB">
      <feGaussianBlur
         inkscape:collect="always"
         stdDeviation="1.7512168"
         id="feGaussianBlur4073" />
    </filter>
    <filter
       inkscape:collect="always"
       id="filter3815"
       color-interpolation-filters="sRGB">
      <feGaussianBlur
         inkscape:collect="always"
         stdDeviation="2.3392221"
         id="feGaussianBlur3817" />
    </filter>
    <filter
       inkscape:collect="always"
       id="filter4031"
       x="-0.16492651"
       width="1.3298531"
       y="-0.078926429"
       height="1.1578529"
       color-interpolation-filters="sRGB">
      <feGaussianBlur
         inkscape:collect="always"
         stdDeviation="5.1715704"
         id="feGaussianBlur4033" />
    </filter>
    <filter
       color-interpolation-filters="sRGB"
       inkscape:collect="always"
       id="filter3815-1">
      <feGaussianBlur
         inkscape:collect="always"
         stdDeviation="2.3392221"
         id="feGaussianBlur3817-5" />
    </filter>
    <filter
       color-interpolation-filters="sRGB"
       inkscape:collect="always"
       id="filter4031-5"
       x="-0.16492651"
       width="1.3298531"
       y="-0.078926429"
       height="1.1578529">
      <feGaussianBlur
         inkscape:collect="always"
         stdDeviation="5.1715704"
         id="feGaussianBlur4033-6" />
    </filter>
  </defs>
  <sodipodi:namedview
     id="base"
     pagecolor="#000000"
     bordercolor="#666666"
     borderopacity="1.0"
     inkscape:pageopacity="1"
     inkscape:pageshadow="2"
     inkscape:zoom="0.7"
     inkscape:cx="679.3414"
     inkscape:cy="339.93526"
     inkscape:document-units="px"
     inkscape:current-layer="layer7"
     showgrid="false"
     inkscape:window-width="1280"
     inkscape:window-height="977"
     inkscape:window-x="-4"
     inkscape:window-y="-4"
     inkscape:window-maximized="1"
     showguides="true"
     inkscape:guide-bbox="true"
     fit-margin-top="5"
     fit-margin-right="5"
     fit-margin-bottom="5"
     fit-margin-left="5" />
  <metadata
     id="metadata7">
    <rdf:RDF>
      <cc:Work
         rdf:about="">
        <dc:format>image/svg+xml</dc:format>
        <dc:type
           rdf:resource="http://purl.org/dc/dcmitype/StillImage" />
        <dc:title />
      </cc:Work>
    </rdf:RDF>
  </metadata>
  <g
     inkscape:groupmode="layer"
     id="layer7"
     inkscape:label="Cat"
     transform="translate(-97.702783,110.67365)"
     style="display:inline">
    <path
       style="fill:#cccccc;stroke:#4d4d4d;stroke-width:6.8344717;stroke-linecap:butt;stroke-linejoin:miter;stroke-miterlimit:4;stroke-opacity:1;stroke-dasharray:none;display:inline;enable-background:new"
       d="M 616.18959,174.2135 C 659.1259,114.95323 749.30577,91.322596 822.15944,98.225483 895.72657,105.19597 979.93632,146.09331 1012.0338,212.65503 1039.5431,269.702 1027.6866,352.15171 987.4456,401.0575 939.22911,459.65601 847.05046,481.57388 771.60216,473.43943 708.75174,466.66322 638.97293,431.74342 608.78317,376.20362 576.60639,317.0083 576.65901,228.7732 616.18959,174.2135 z"
       id="path3032"
       inkscape:connector-curvature="0"
       sodipodi:nodetypes="aaaaaaa" />
    <path
       style="fill:#cccccc;fill-opacity:1;stroke:none;enable-background:new"
       d="m 906.0564,134.52996 c 0,0 81.69415,-98.666309 134.4914,-133.2255784 7.8533,-5.1404799 18.0179,-15.0652666 26.1653,-10.4048676 10.1204,5.7890837 5.7643,22.917047 5.3352,34.568373 -2.9089,78.983193 -55.1622,162.982783 -53.3068,231.040303 z"
       id="path2987"
       inkscape:connector-curvature="0"
       sodipodi:nodetypes="caaacc" />
    <path
       style="fill:none;stroke:#4d4d4d;stroke-width:6.8344717;stroke-linecap:butt;stroke-linejoin:miter;stroke-miterlimit:4;stroke-opacity:1;stroke-dasharray:none;display:inline;enable-background:new"
       d="m 914.09835,124.5228 c 0,0 81.19265,-91.114665 131.83145,-123.83629636 5.8084,-3.75328584 13.2358,-11.51199764 19.1633,-7.94959654 11.6449,6.99859405 4.7569,27.0160609 3.8767,40.5736729 -2.2921,35.305812 -15.8853,68.95438 -23.672,103.46702 -7.8713,34.88813 -27.732,65.02569 -23.2983,104.73513"
       id="path3969-0"
       inkscape:connector-curvature="0"
       sodipodi:nodetypes="caaaac" />
    <path
       style="fill:#ffd5d5;fill-opacity:1;stroke:none;display:inline;filter:url(#filter4031-5);enable-background:new"
       d="m 536.13847,325.39425 c 0,0 16.27114,-27.50478 27.27413,-38.89086 10.10826,-10.46021 34.85025,-26.26397 34.85025,-26.26397 0,0 -55.15554,-64.03855 -88.89342,-88.89343 -2.91032,-2.14404 -6.39489,-6.72913 -9.59645,-5.05076 -4.95669,2.59847 -2.12672,11.07203 -2.02031,16.66752 0.1621,8.52346 2.0462,16.96538 4.04062,25.25381 3.06414,12.73393 7.97511,24.95201 12.12183,37.37564 3.77591,11.31265 8.33535,22.37425 11.61676,33.84011 4.32616,15.11644 10.60659,45.96194 10.60659,45.96194 z"
       id="path4021-7"
       inkscape:connector-curvature="0"
       sodipodi:nodetypes="cacaaaaaac"
       transform="matrix(-1.3668943,0,0,1.3668943,1743.2315,-224.70398)" />
    <path
       style="fill:#cccccc;stroke:none;display:inline;filter:url(#filter3815-1);enable-background:new"
       d="m 523.76056,188.12583 c -3.05994,-2.66292 -10.14693,-6.71783 -10.14693,-6.71783 0,0 14.1204,2.44113 19.40179,6.80975 20.34576,16.82948 27.305,45.22806 39.78222,68.49821 4.81845,8.98646 13.53092,27.435 13.53092,27.435 0,0 -8.21076,1.16386 -12.27229,1.98651 -5.19846,1.05293 -5.41045,-1.11518 -15.45896,3.77013 -2.06402,-1.7562 -7.8504,-6.44327 -12.15817,-9.1032 -4.75648,-2.93699 -9.79237,-5.46761 -15,-7.5 -6.80936,-2.6575 -21.07143,-6.07142 -21.07143,-6.07142 0,0 10.03073,-2.71782 15.17857,-3.21429 3.61467,-0.3486 7.27842,-0.17243 10.89286,0.17857 4.03258,0.39162 8.01882,1.22175 11.96428,2.14286 5.0082,1.16921 14.82143,4.28571 14.82143,4.28571 0,0 -5.11096,-4.90973 -7.85715,-7.14285 -2.90983,-2.3662 -5.83355,-4.77694 -9.10714,-6.60715 -4.21638,-2.3573 -8.85485,-3.88004 -13.39285,-5.53572 -7.56904,-2.76154 -23.03572,-7.32142 -23.03572,-7.32142 0,0 15.28718,-0.34597 22.85715,0.53572 3.14249,0.36601 6.32904,0.83852 9.28571,1.96428 4.93335,1.87839 13.75,7.85714 13.75,7.85714 0,0 -5.84223,-9.97727 -9.64285,-14.28571 -1.67433,-1.89803 -3.70756,-3.45762 -5.71429,-5 -3.4687,-2.66607 -7.04016,-5.24864 -10.89286,-7.32143 -6.53219,-3.5144 -20.53571,-8.57143 -20.53571,-8.57143 0,0 16.36721,1.98555 24.10714,4.64285 3.34868,1.14969 6.54877,2.81265 9.46429,4.82144 2.77622,1.9128 7.5,6.78571 7.5,6.78571 0,0 -3.5826,-6.43934 -6.07143,-9.10714 -2.9238,-3.13405 -6.47308,-5.70303 -10.17858,-7.85714 -8.1426,-4.73351 -26.07143,-10.89286 -26.07143,-10.89286 0,0 16.83545,1.10217 24.82144,3.57143 3.73857,1.15596 10.53572,5.17858 10.53572,5.17858 0,0 -4.69576,-5.78873 -7.50001,-8.21429 -3.37136,-2.91609 -7.18539,-5.31636 -11.07143,-7.5 -4.62104,-2.59666 -14.46429,-6.60715 -14.46429,-6.60715 0,0 11.56435,-0.31149 16.78572,1.78573 4.60706,1.85047 11.78571,9.10713 11.78571,9.10713 0,0 -9.19078,-11.88564 -14.82143,-16.78572 z"
       id="path3033-6"
       inkscape:connector-curvature="0"
       sodipodi:nodetypes="acaacacaacaaacaaacaacaaacaacaacacaacaca"
       transform="matrix(-1.3044089,-0.40855522,-0.40855522,1.3044089,1795.5043,3.5011033)" />
    <path
       style="fill:#cccccc;fill-opacity:1;stroke:none;display:inline;enable-background:new"
       d="m 602.40216,196.92685 c 10.88762,-79.82437 2.89808,-120.662319 9.12225,-180.625315 2.0417,-19.6695132 -5.77625,-45.734833 9.24065,-58.601491 5.02037,-4.30152 14.05339,-3.258321 19.83334,-0.04907 51.20965,28.433602 92.53698,149.382026 92.53698,149.382026 z"
       id="path2985"
       inkscape:connector-curvature="0"
       sodipodi:nodetypes="caaacc" />
    <path
       style="fill:none;stroke:#4d4d4d;stroke-width:6.8344717;stroke-linecap:butt;stroke-linejoin:miter;stroke-miterlimit:4;stroke-opacity:1;stroke-dasharray:none;display:inline;enable-background:new"
       d="m 732.59031,107.84946 c 0,0 -41.69264,-127.63705 -96.68277,-151.174177 -4.45922,-1.908649 -10.58232,-0.347123 -14.28153,2.790282 -6.37246,5.404701 -7.16694,15.284681 -8.75842,23.487495 -5.47921,28.24102 -1.48509,57.516131 -2.27337,86.272979 -1.03831,37.877841 2.54676,76.181851 -3.23536,113.630161 -0.47278,3.06201 -0.57555,5.00513 -1.72,8.63587 -1.0464,3.3197 -5.40551,11.06379 -5.40551,11.06379"
       id="path3969"
       inkscape:connector-curvature="0"
       sodipodi:nodetypes="caaaassc" />
    <path
       style="fill:#ffd5d5;fill-opacity:1;stroke:#666666;display:inline;filter:url(#filter4031);enable-background:new"
       d="m 644.21398,181.18648 c 0,0 19.87294,-21.83031 31.81981,-30.30457 13.26546,-9.40957 43.43655,-22.22336 43.43655,-22.22336 0,0 -20.05889,-51.119458 -35.86041,-73.236058 -8.5816,-12.01124 -16.74344,-33.67933 -31.31473,-31.31473 -2.22961,0.36182 -2.34113,3.9099 -3.03046,6.06092 -1.9766,6.16791 -2.46055,12.74112 -3.03045,19.19289 -1.5113,17.10928 -1.01883,34.34189 -1.01015,51.517778 0.008,16.33427 1.36793,32.66205 1.01015,48.9924 -0.22912,10.45743 -2.02031,31.31473 -2.02031,31.31473 z"
       id="path4021"
       inkscape:connector-curvature="0"
       sodipodi:nodetypes="cacaaaaaac"
       transform="matrix(1.3668943,0,0,1.3668943,-264.74107,-69.4777)" />
    <path
       style="fill:#cccccc;stroke:none;display:inline;filter:url(#filter3815);enable-background:new"
       d="m 671.35459,42.643702 c -3.93899,-3.2307 -13.21428,-7.67856 -13.21428,-7.67856 0,0 16.47466,3.99639 22.5,9.46428 20.68903,18.77494 28.68233,48.12863 39.82143,73.749998 2.22896,5.12691 5.35714,15.89286 5.35714,15.89286 0,0 -8.11884,1.84479 -11.96428,3.39286 -3.87821,1.56127 -1.02292,1.00754 -11.07143,5.89285 -2.06402,-1.7562 -5.48897,-5.78909 -8.75,-8.03572 -4.60346,-3.17147 -9.79237,-5.46761 -15,-7.5 -6.80936,-2.6575 -21.07143,-6.07142 -21.07143,-6.07142 0,0 10.03073,-2.71782 15.17857,-3.21429 3.61467,-0.3486 7.27842,-0.17243 10.89286,0.17857 4.03258,0.39162 8.01882,1.22175 11.96428,2.14286 5.0082,1.16921 14.82143,4.28571 14.82143,4.28571 0,0 -5.11096,-4.90973 -7.85715,-7.14285 -2.90983,-2.3662 -5.83355,-4.77694 -9.10714,-6.60715 -4.21638,-2.3573 -8.85485,-3.88004 -13.39285,-5.53572 -7.56904,-2.76154 -23.03572,-7.321418 -23.03572,-7.321418 0,0 15.28718,-0.34597 22.85715,0.53572 3.14249,0.36601 6.32904,0.83852 9.28571,1.964278 4.93335,1.87839 13.75,7.85714 13.75,7.85714 0,0 -5.84223,-9.977268 -9.64285,-14.285708 -1.67433,-1.89803 -3.70756,-3.45762 -5.71429,-5 -3.4687,-2.66607 -7.04016,-5.24864 -10.89286,-7.32143 -6.53219,-3.5144 -20.53571,-8.57143 -20.53571,-8.57143 0,0 16.36721,1.98555 24.10714,4.64285 3.34868,1.14969 6.54877,2.81265 9.46429,4.82144 2.77622,1.9128 7.5,6.78571 7.5,6.78571 0,0 -3.5826,-6.43934 -6.07143,-9.10714 -2.9238,-3.13405 -6.47308,-5.70303 -10.17858,-7.85714 -8.1426,-4.73351 -26.07143,-10.89286 -26.07143,-10.89286 0,0 16.83545,1.10217 24.82144,3.57143 3.73857,1.15596 10.53572,5.17858 10.53572,5.17858 0,0 -4.69576,-5.78873 -7.50001,-8.21429 -3.37136,-2.91609 -7.18539,-5.31636 -11.07143,-7.5 -4.62104,-2.59666 -14.46429,-6.60715 -14.46429,-6.60715 0,0 11.56435,-0.31149 16.78572,1.78573 4.60706,1.85047 11.78571,9.10713 11.78571,9.10713 0,0 -9.05009,-12.05215 -14.82143,-16.78572 z"
       id="path3033"
       inkscape:connector-curvature="0"
       sodipodi:nodetypes="acaacacaacaaacaaacaacaaacaacaacacaacaca"
       transform="matrix(1.3668943,0,0,1.3668943,-264.74107,-69.4777)" />
    <path
       style="fill:none;stroke:#000000;stroke-width:6.8344717;stroke-linecap:butt;stroke-linejoin:miter;stroke-miterlimit:4;stroke-opacity:1;stroke-dasharray:none;enable-background:new"
       d="m 745.68323,267.80461 c 0,0 4.26799,5.87191 5.81105,9.13393 4.70814,9.95304 9.25229,25.04488 10.29877,31.38473 1.83316,11.10572 0.0609,22.64173 0.73303,35.82061 0.10511,2.06036 -0.70027,1.01824 1.50565,0.10226 5.90296,-2.45115 41.06319,-1.10121 49.16285,6.03581 5.05934,-13.17633 9.41042,-22.10771 14.537,-32.96928 5.53535,-11.7276 9.65719,-24.42009 17.50497,-34.74428 1.20695,-1.58782 4.42829,-4.02387 4.42829,-4.02387"
       id="path3035"
       inkscape:connector-curvature="0"
       sodipodi:nodetypes="cassscaac" />
    <path
       style="fill:#f2f2f2;stroke:#4d4d4d;stroke-width:6.8344717;stroke-linecap:butt;stroke-linejoin:miter;stroke-miterlimit:4;stroke-opacity:1;stroke-dasharray:none;enable-background:new"
       d="m 723.71529,455.02031 c 6.53755,11.08946 19.0003,18.72214 31.24329,22.70021 14.23799,4.62631 30.53854,4.18565 44.91225,0 12.22241,-3.55917 25.24447,-9.85437 32.21964,-20.50341 15.52366,-23.70003 13.18077,-83.96636 13.18077,-83.96636 0,0 -108.96055,-0.93213 -131.88679,-1.86228 0.0345,17.83925 -3.93419,59.43452 10.33084,83.63184 z"
       id="path3043"
       inkscape:connector-curvature="0"
       sodipodi:nodetypes="aaaacca" />
    <path
       style="fill:#e6e6e6;stroke:#000000;stroke-width:6.8344717;stroke-linecap:butt;stroke-linejoin:miter;stroke-miterlimit:4;stroke-opacity:1;stroke-dasharray:none;enable-background:new"
       d="m 783.27283,396.68321 c 1.58401,8.00709 4.83946,15.94643 9.76353,22.45612 5.5809,7.37805 12.76717,14.46429 21.47976,17.57437 12.56684,4.4859 26.88276,2.27736 40.03048,0 14.30157,-2.47723 29.2657,-6.11199 41.00683,-14.6453 9.63734,-7.00431 18.73075,-16.79909 21.82495,-28.30407 2.43722,-9.06217 1.22045,-19.91222 -3.68883,-27.90983 -7.48049,-12.1863 -21.46844,-20.94347 -35.37719,-24.26164 -19.90148,-4.74782 -41.30123,2.05385 -60.83986,8.12447 -12.00052,3.72855 -33.61598,17.06445 -33.61598,17.06445 0,0 -2.51834,20.12192 -0.58369,29.90143 z"
       id="path3041"
       inkscape:connector-curvature="0"
       sodipodi:nodetypes="aaaaaaaaaca" />
    <path
       style="fill:#ececec;stroke:#000000;stroke-width:6.8344717;stroke-linecap:butt;stroke-linejoin:miter;stroke-miterlimit:4;stroke-opacity:1;stroke-dasharray:none;enable-background:new"
       d="m 781.37933,383.99064 c -1.03441,5.26686 -1.93426,10.62922 -3.90541,15.62164 -2.46102,6.23318 -4.98065,12.88039 -9.76353,17.57436 -8.41665,8.26017 -19.6601,14.38428 -31.24329,16.598 -11.57879,2.21288 -24.17202,0.39311 -35.14872,-3.90541 -15.81931,-6.19492 -32.29507,-15.68158 -41.00682,-30.26695 -7.08042,-11.85415 -9.40715,-27.66302 -5.85812,-41.00683 2.10788,-7.92529 8.72304,-15.4659 15.11911,-19.40862 18.43106,-11.36143 54.28449,-10.11787 78.72618,-1.58247 15.41423,5.38287 35.53935,29.28588 35.53935,29.28588 0,0 -1.34957,11.44283 -2.45875,17.0904 z"
       id="path3039"
       inkscape:connector-curvature="0"
       sodipodi:nodetypes="aaaaaaassca" />
    <path
       style="fill:#e9afaf;stroke:#000000;stroke-width:6.8344717;stroke-linecap:butt;stroke-linejoin:miter;stroke-miterlimit:4;stroke-opacity:1;stroke-dasharray:none;enable-background:new"
       d="m 763.34135,340.79419 c -4.84301,0.57526 -1.35508,9.16425 0.28596,13.27469 1.82586,4.57335 5.31554,12.6166 9.94121,10.92772 3.81966,-1.3946 -1.76861,-8.79126 0.46363,-12.19004 0.80231,-1.22157 2.58284,-2.39791 3.9545,-1.89349 1.59105,0.58512 1.79104,2.97293 2.07116,4.64486 0.87084,5.19778 -4.39582,11.42769 -1.38079,15.75028 1.46359,2.09826 5.17558,3.26419 7.40641,2.01193 4.55511,-2.55694 1.36475,-10.77642 4.36906,-15.04971 0.84334,-1.19956 2.11168,-2.35604 3.56022,-2.58387 1.2128,-0.19076 2.90545,0.0702 3.50099,1.14385 2.13537,3.84951 -6.7581,10.27662 -3.16595,12.82122 4.87867,3.45594 11.10804,-5.29501 15.00065,-9.83293 2.61775,-3.05173 7.42963,-9.72306 5.00019,-10.97678 -6.22506,-3.21248 -38.3402,-9.55232 -51.00724,-8.04773 z"
       id="path3037"
       inkscape:connector-curvature="0"
       sodipodi:nodetypes="saaaaaaaaaaaass" />
    <path
       style="fill:#000000;stroke:#000000;stroke-width:1.20386755px;stroke-linecap:butt;stroke-linejoin:miter;stroke-opacity:1;enable-background:new"
       d="m 865.13072,243.26032 c 5.18691,-7.78986 10.65779,-15.96897 18.40759,-21.15969 6.76656,-4.53215 14.98711,-7.73855 23.11647,-7.77295 9.54491,-0.0403 19.49371,3.28907 27.21794,8.89651 6.34692,4.60761 12.02502,11.37956 13.87806,19.00058 1.58308,6.51079 -0.8955,13.52959 -3.07947,19.86418 -2.172,6.29983 -5.19566,12.59286 -9.76304,17.44512 -5.11374,5.43271 -11.56716,10.40792 -18.83565,12.09128 -9.48934,2.19771 -19.55731,-1.08623 -29.02679,-3.36803 -4.91223,-1.18367 -9.39234,-3.75026 -14.2007,-5.303 -4.45698,-1.43926 -8.87357,-3.55468 -13.55177,-3.71132 -4.51591,-0.15123 -4.75332,0.64156 -13.2884,2.69948 0,0 11.16144,-26.72101 19.12576,-38.68216 z"
       id="path3081"
       inkscape:connector-curvature="0"
       sodipodi:nodetypes="aaaaaaaaaaaca" />
    <path
       style="fill:#000000;stroke:#000000;stroke-width:1.15856957px;stroke-linecap:butt;stroke-linejoin:miter;stroke-opacity:1;enable-background:new"
       d="m 744.27617,245.41972 c -3.13903,-8.38039 -5.66895,-17.55469 -11.46174,-24.17891 -6.30953,-7.21516 -14.86178,-12.84189 -23.88446,-15.25286 -6.33616,-1.69312 -13.45202,-1.38367 -19.58665,0.99554 -8.40909,3.26135 -17.18112,8.90796 -21.2879,17.30436 -3.93433,8.04385 -2.71601,18.26719 -0.98471,27.13171 1.06676,5.46193 3.55735,10.71688 6.82174,15.10448 3.51169,4.71993 8.10197,8.76373 13.22026,11.38368 5.49195,2.8112 11.77227,4.14602 17.87703,4.19721 11.58127,0.0971 22.48363,-6.44235 34.03013,-7.39264 4.55876,-0.3752 13.7025,0.68519 13.7025,0.68519 0,0 -4.81459,-20.2823 -8.4462,-29.97776 z"
       id="path3101"
       inkscape:connector-curvature="0"
       sodipodi:nodetypes="aaaaaaaaaaca" />
    <path
       sodipodi:type="arc"
       style="fill:#00ff00;fill-opacity:1;stroke:#000000;stroke-width:4;stroke-linecap:square;stroke-linejoin:round;stroke-miterlimit:4;stroke-opacity:1;stroke-dasharray:none;enable-background:new"
       id="path3150"
       sodipodi:cx="315.35715"
       sodipodi:cy="358.07648"
       sodipodi:rx="32.857143"
       sodipodi:ry="32.857143"
       d="m 348.21429,358.07648 a 32.857143,32.857143 0 1 1 -65.71429,0 32.857143,32.857143 0 1 1 65.71429,0 z"
       transform="matrix(1.0531538,0,0,1.1104257,372.52204,-153.91219)" />
    <path
       style="fill:#000000;stroke:#000000;stroke-width:0.72923779px;stroke-linecap:butt;stroke-linejoin:miter;stroke-opacity:1;filter:url(#filter4071);enable-background:new"
       d="m 710.45153,209.61316 c 21.82199,1.62333 14.37739,40.24448 -2.86026,38.43578 -22.58689,-5.15926 -15.52092,-35.95584 2.86026,-38.43578 z"
       id="path3106-1"
       inkscape:connector-curvature="0"
       sodipodi:nodetypes="ccc"
       transform="matrix(1.3668943,0,0,1.3668943,-264.74107,-69.4777)" />
    <path
       sodipodi:type="arc"
       style="fill:#00ff00;fill-opacity:1;stroke:#000000;stroke-width:4;stroke-linecap:square;stroke-linejoin:round;stroke-miterlimit:4;stroke-opacity:1;stroke-dasharray:none;enable-background:new"
       id="path3150-5"
       sodipodi:cx="315.35715"
       sodipodi:cy="358.07648"
       sodipodi:rx="31.675932"
       sodipodi:ry="33.595554"
       d="m 347.03308,358.07648 a 31.675932,33.595554 0 1 1 -63.35186,0 31.675932,33.595554 0 1 1 63.35186,0 z"
       transform="matrix(1.1188059,0,0,1.1285995,552.8372,-150.93251)" />
    <path
       style="fill:#000000;stroke:#000000;stroke-width:0.72923779px;stroke-linecap:butt;stroke-linejoin:miter;stroke-opacity:1;filter:url(#filter4067);enable-background:new"
       d="m 854.57555,216.00043 c -21.82199,1.62333 -19.27277,39.06845 -2.03512,38.68833 22.58689,-5.15926 20.4163,-36.20839 2.03512,-38.68833 z"
       id="path3106-1-8"
       inkscape:connector-curvature="0"
       sodipodi:nodetypes="ccc"
       transform="matrix(1.3668943,0,0,1.3668943,-264.74107,-69.4777)" />
    <path
       style="fill:none;stroke:#4d4d4d;stroke-width:1.36689425px;stroke-linecap:butt;stroke-linejoin:miter;stroke-opacity:1;enable-background:new"
       d="m 882.86084,360.55816 c 0,0 72.30796,9.7177 107.16941,19.97134 33.47015,9.84438 96.88835,39.58619 96.88835,39.58619"
       id="path3046"
       inkscape:connector-curvature="0"
       sodipodi:nodetypes="cac" />
    <path
       style="fill:none;stroke:#4d4d4d;stroke-width:1.36689425px;stroke-linecap:butt;stroke-linejoin:miter;stroke-opacity:1;enable-background:new"
       d="m 865.28648,375.20345 c 0,0 71.83076,10.57194 106.24799,21.59822 46.78343,14.98807 134.59663,60.03133 134.59663,60.03133"
       id="path3048"
       inkscape:connector-curvature="0"
       sodipodi:nodetypes="cac" />
    <path
       style="fill:none;stroke:#4d4d4d;stroke-width:1.36689425000000010px;stroke-linecap:butt;stroke-linejoin:miter;stroke-opacity:1;enable-background:new"
       d="m 867.23918,391.80145 c 0,0 73.2999,13.12821 107.39885,27.3379 40.28867,16.78905 112.28057,67.36834 112.28057,67.36834"
       id="path3050"
       inkscape:connector-curvature="0"
       sodipodi:nodetypes="cac" />
    <path
       style="fill:none;stroke:#4d4d4d;stroke-width:1.36689425000000010px;stroke-linecap:butt;stroke-linejoin:miter;stroke-opacity:1;enable-background:new"
       d="m 855.52295,385.94333 c 0,0 76.98382,8.78992 113.28137,21.41023 37.81488,13.14787 106.39808,55.72167 106.39808,55.72167"
       id="path3052"
       inkscape:connector-curvature="0"
       sodipodi:nodetypes="cac" />
    <path
       style="fill:none;stroke:#4d4d4d;stroke-width:1.36689425000000010px;stroke-linecap:butt;stroke-linejoin:miter;stroke-opacity:1;enable-background:new"
       d="m 862.35744,400.58864 c 0,0 80.17853,14.16698 117.16235,30.26693 42.13401,18.34192 116.18601,74.20284 116.18601,74.20284"
       id="path3054"
       inkscape:connector-curvature="0"
       sodipodi:nodetypes="cac" />
    <path
       style="fill:none;stroke:#4d4d4d;stroke-width:1.36689425px;stroke-linecap:butt;stroke-linejoin:miter;stroke-opacity:1;enable-background:new"
       d="m 876.02636,368.36899 c 0,0 54.05788,6.90794 80.06095,14.64529 44.31889,13.18731 127.90229,53.69942 127.90229,53.69942"
       id="path3056"
       inkscape:connector-curvature="0"
       sodipodi:nodetypes="cac" />
    <path
       style="fill:none;stroke:#4d4d4d;stroke-width:1.36689425px;stroke-linecap:butt;stroke-linejoin:miter;stroke-opacity:1;enable-background:new"
       d="m 698.33011,355.67639 c 0,0 -88.19027,-0.83554 -131.8483,4.42829 -30.68726,3.69995 -90.76019,19.00417 -90.76019,19.00417"
       id="path3058"
       inkscape:connector-curvature="0"
       sodipodi:nodetypes="cac" />
    <path
       style="fill:none;stroke:#4d4d4d;stroke-width:1.36689425px;stroke-linecap:butt;stroke-linejoin:miter;stroke-opacity:1;enable-background:new"
       d="m 700.28282,367.39264 c 0,0 -78.11541,5.58842 -115.91021,15.0497 -38.91013,9.74047 -112.55641,42.55511 -112.55641,42.55511"
       id="path3060"
       inkscape:connector-curvature="0"
       sodipodi:nodetypes="cac" />
    <path
       style="fill:none;stroke:#4d4d4d;stroke-width:1.36689425000000010px;stroke-linecap:butt;stroke-linejoin:miter;stroke-opacity:1;enable-background:new"
       d="m 723.71529,387.89604 c -5.00662,0 -66.41915,2.45104 -98.86119,8.96136 -27.83897,5.5866 -60.93377,17.294 -81.23285,25.63575 -25.19394,10.35323 -67.89963,45.46384 -67.89963,45.46384"
       id="path3062"
       inkscape:connector-curvature="0"
       sodipodi:nodetypes="casc" />
    <path
       style="fill:none;stroke:#4d4d4d;stroke-width:1.36689425000000010px;stroke-linecap:butt;stroke-linejoin:miter;stroke-opacity:1;enable-background:new"
       d="m 706.14092,383.01428 c 0,0 -86.2225,4.10137 -127.45892,15.57259 -40.69533,11.3207 -115.65297,51.79576 -115.65297,51.79576"
       id="path3064"
       inkscape:connector-curvature="0"
       sodipodi:nodetypes="cac" />
    <path
       style="fill:none;stroke:#4d4d4d;stroke-width:1.36689425px;stroke-linecap:butt;stroke-linejoin:miter;stroke-opacity:1;enable-background:new"
       d="m 679.77941,361.53451 c -22.45613,-0.97635 -77.29133,4.48723 -115.20967,11.71625 -30.56373,5.82687 -89.82448,25.38516 -89.82448,25.38516"
       id="path3066"
       inkscape:connector-curvature="0"
       sodipodi:nodetypes="cac" />
    <path
       style="fill:none;stroke:#4d4d4d;stroke-width:1.36689425000000010px;stroke-linecap:butt;stroke-linejoin:miter;stroke-opacity:1;enable-background:new"
       d="m 716.88081,376.1798 c 0,0 -97.63841,4.73139 -144.43085,17.46607 -37.02188,10.0756 -105.51552,45.99688 -105.51552,45.99688"
       id="path3068"
       inkscape:connector-curvature="0"
       sodipodi:nodetypes="cac" />
    <path
       style="fill:none;stroke:#4d4d4d;stroke-width:1.36689425px;stroke-linecap:butt;stroke-linejoin:miter;stroke-opacity:1;enable-background:new"
       d="m 715.11595,188.89769 c 0,0 -5.19998,-104.543578 -11.90407,-156.394152 C 697.65395,-10.482307 679.77941,-95.3987 679.77941,-95.3987"
       id="path3070"
       inkscape:connector-curvature="0"
       sodipodi:nodetypes="cac" />
    <path
       style="fill:none;stroke:#4d4d4d;stroke-width:1.36689425px;stroke-linecap:butt;stroke-linejoin:miter;stroke-opacity:1;enable-background:new"
       d="m 725.41251,200.3483 c 0,0 -5.71901,-112.796268 -12.43711,-168.821107 -5.18532,-43.24233 -21.47976,-128.878611 -21.47976,-128.878611"
       id="path3072"
       inkscape:connector-curvature="0"
       sodipodi:nodetypes="cac" />
    <path
       style="fill:none;stroke:#4d4d4d;stroke-width:1.36689425px;stroke-linecap:butt;stroke-linejoin:miter;stroke-opacity:1;enable-background:new"
       d="m 908.34411,209.52972 c 8.21941,-66.76411 8.07341,-110.649158 12.02253,-165.98002 2.97302,-41.6546151 8.78719,-124.973178 8.78719,-124.973178"
       id="path3074"
       inkscape:connector-curvature="0"
       sodipodi:nodetypes="cac" />
    <path
       style="fill:none;stroke:#4d4d4d;stroke-width:1.36689425px;stroke-linecap:butt;stroke-linejoin:miter;stroke-opacity:1;enable-background:new"
       d="M 707.00899,193.32597 C 705.86513,171.50101 701.07284,100.79247 694.42469,54.959651 687.75458,8.9754192 677.67461,-40.4684 667.08681,-81.729771"
       id="path3076"
       inkscape:connector-curvature="0"
       sodipodi:nodetypes="cac" />
    <path
       style="fill:none;stroke:#4d4d4d;stroke-width:1.36689425px;stroke-linecap:butt;stroke-linejoin:miter;stroke-opacity:1;enable-background:new"
       d="m 927.53616,207.91205 c 0,-8.78717 12.47229,-90.26083 19.52707,-135.267999 7.92852,-50.581344 25.62208,-151.444759 25.62208,-151.444759"
       id="path3078"
       inkscape:connector-curvature="0"
       sodipodi:nodetypes="cac" />
    <path
       style="fill:none;stroke:#4d4d4d;stroke-width:1.36689425px;stroke-linecap:butt;stroke-linejoin:miter;stroke-opacity:1;enable-background:new"
       d="m 916.7905,209.05761 c 8.21941,-66.76412 11.6694,-95.00802 17.54561,-142.506905 6.12202,-49.485678 18.45258,-148.446294 18.45258,-148.446294"
       id="path3074-8"
       inkscape:connector-curvature="0"
       sodipodi:nodetypes="cac" />
  </g>
  <g
     inkscape:groupmode="layer"
     id="layer11"
     inkscape:label="By Wohlstand_shadow"
     transform="translate(41.082927,217.53583)">
    <text
       xml:space="preserve"
       style="font-size:12px;font-style:oblique;font-variant:normal;font-weight:normal;font-stretch:normal;line-height:125%;letter-spacing:0px;word-spacing:0px;opacity:0.75;fill:#008000;fill-opacity:1;stroke:none;display:inline;filter:url(#filter4936);enable-background:new;font-family:Monotype Corsiva;-inkscape-font-specification:Monotype Corsiva Oblique"
       x="803.30542"
       y="402.45468"
       id="text4856-6"
       sodipodi:linespacing="125%"
       transform="matrix(1.3668943,0,0,1.3668943,-213.82138,-30.270578)"><tspan
         sodipodi:role="line"
         id="tspan4858-9"
         x="803.30542"
         y="402.45468"
         style="font-size:20px;fill:#000000">By Wohlstand</tspan></text>
  </g>
  <g
     inkscape:groupmode="layer"
     id="layer10"
     inkscape:label="by Wohlstand"
     transform="translate(41.082927,217.53583)" />
  <g
     inkscape:groupmode="layer"
     id="layer9"
     inkscape:label="Text_shadow"
     style="display:inline"
     transform="translate(41.082927,217.53583)">
    <flowRoot
       xml:space="preserve"
       id="flowRoot4490-9"
       style="font-size:12px;font-style:oblique;font-variant:normal;font-weight:normal;font-stretch:normal;line-height:125%;letter-spacing:0px;word-spacing:0px;opacity:0.56999966000000002;fill:#4d4d4d;fill-opacity:1;stroke:none;filter:url(#filter4817-3);enable-background:new;font-family:Monotype Corsiva;-inkscape-font-specification:Monotype Corsiva Oblique"
       transform="matrix(1.3668943,0,0,1.3668943,324.095,-197.44245)"><flowRegion
         id="flowRegion4492-0"><rect
           id="rect4494-8"
           width="644.47736"
           height="90.913788"
           x="-41.416252"
           y="441.61276"
           style="fill:#4d4d4d" /></flowRegion><flowPara
         style="font-size:64px;opacity:0.70800003000000000;fill:#666666"
         id="flowPara4498-4">Platformer Game Engine</flowPara></flowRoot>    <text
       xml:space="preserve"
       style="font-size:16.40273094px;font-style:oblique;font-variant:normal;font-weight:normal;font-stretch:normal;line-height:125%;letter-spacing:0px;word-spacing:0px;fill:#008000;fill-opacity:1;stroke:none;font-family:Monotype Corsiva;-inkscape-font-specification:Monotype Corsiva Oblique"
       x="883.80774"
       y="518.94983"
       id="text4856"
       sodipodi:linespacing="125%"><tspan
         sodipodi:role="line"
         id="tspan4858"
         x="883.80774"
         y="518.94983"
         style="font-size:27.33788681px;fill:#008000">By Wohlstand</tspan></text>
  </g>
  <g
     inkscape:groupmode="layer"
     id="layer8"
     inkscape:label="Text"
     transform="translate(41.082927,217.53583)">
    <flowRoot
       xml:space="preserve"
       id="flowRoot4490"
       style="font-size:12px;font-style:oblique;font-variant:normal;font-weight:normal;font-stretch:normal;line-height:125%;letter-spacing:0px;word-spacing:0px;fill:#000000;fill-opacity:1;stroke:#000000;stroke-opacity:1;font-family:Monotype Corsiva;-inkscape-font-specification:Monotype Corsiva Oblique"
       transform="matrix(1.3668943,0,0,1.3668943,322.23809,-202.54188)"><flowRegion
         id="flowRegion4492"><rect
           id="rect4494"
           width="644.47736"
           height="90.913788"
           x="-41.416252"
           y="441.61276"
           style="stroke:#000000;stroke-opacity:1" /></flowRegion><flowPara
         style="font-size:64px;font-style:oblique;font-weight:normal;stroke:#000000;stroke-opacity:1;-inkscape-font-specification:Monotype Corsiva Oblique"
         id="flowPara4498"><flowSpan
           style="font-style:oblique;font-weight:normal;fill:#000080;stroke:#000000;stroke-opacity:1;-inkscape-font-specification:Monotype Corsiva Oblique"
           id="flowSpan4502">P</flowSpan><flowSpan
           style="font-style:oblique;font-weight:normal;fill:#00ff00;stroke:#000000;stroke-opacity:1;-inkscape-font-specification:Monotype Corsiva Oblique"
           id="flowSpan4504">l</flowSpan><flowSpan
           style="font-style:oblique;font-weight:normal;fill:#800000;stroke:#000000;stroke-opacity:1;-inkscape-font-specification:Monotype Corsiva Oblique"
           id="flowSpan4506">a</flowSpan><flowSpan
           style="font-style:oblique;font-weight:normal;fill:#000080;stroke:#000000;stroke-opacity:1;-inkscape-font-specification:Monotype Corsiva Oblique"
           id="flowSpan4508">t</flowSpan><flowSpan
           style="font-style:oblique;font-weight:normal;fill:#800080;stroke:#000000;stroke-opacity:1;-inkscape-font-specification:Monotype Corsiva Oblique"
           id="flowSpan4510">f</flowSpan><flowSpan
           style="font-style:oblique;font-weight:normal;fill:#d40000;stroke:#000000;stroke-opacity:1;-inkscape-font-specification:Monotype Corsiva Oblique"
           id="flowSpan4512">o</flowSpan><flowSpan
           style="font-style:oblique;font-weight:normal;fill:#ff2a2a;stroke:#000000;stroke-opacity:1;-inkscape-font-specification:Monotype Corsiva Oblique"
           id="flowSpan4514">r</flowSpan><flowSpan
           style="font-style:oblique;font-weight:normal;fill:#ffb380;stroke:#000000;stroke-opacity:1;-inkscape-font-specification:Monotype Corsiva Oblique"
           id="flowSpan4516">m</flowSpan><flowSpan
           style="font-style:oblique;font-weight:normal;fill:#00aa44;stroke:#000000;stroke-opacity:1;-inkscape-font-specification:Monotype Corsiva Oblique"
           id="flowSpan4518">e</flowSpan><flowSpan
           style="font-style:oblique;font-weight:normal;fill:#00aad4;stroke:#000000;stroke-opacity:1;-inkscape-font-specification:Monotype Corsiva Oblique"
           id="flowSpan4520">r</flowSpan><flowSpan
           style="font-style:oblique;font-weight:normal;fill:#00ff00;stroke:#000000;stroke-opacity:1;-inkscape-font-specification:Monotype Corsiva Oblique"
           id="flowSpan4522"> G</flowSpan><flowSpan
           id="flowSpan4548"
           style="font-style:oblique;font-weight:normal;fill:#ff00ff;stroke:#000000;stroke-opacity:1;-inkscape-font-specification:Monotype Corsiva Oblique">a</flowSpan><flowSpan
           style="font-style:oblique;font-weight:normal;fill:#c87137;stroke:#000000;stroke-opacity:1;-inkscape-font-specification:Monotype Corsiva Oblique"
           id="flowSpan4530">m</flowSpan><flowSpan
           style="font-style:oblique;font-weight:normal;fill:#ffd42a;stroke:#000000;stroke-opacity:1;-inkscape-font-specification:Monotype Corsiva Oblique"
           id="flowSpan4532">e</flowSpan><flowSpan
           style="font-style:oblique;font-weight:normal;fill:#ff0000;stroke:#000000;stroke-opacity:1;-inkscape-font-specification:Monotype Corsiva Oblique"
           id="flowSpan4534"> E</flowSpan><flowSpan
           style="font-style:oblique;font-weight:normal;fill:#808000;stroke:#000000;stroke-opacity:1;-inkscape-font-specification:Monotype Corsiva Oblique"
           id="flowSpan4550">n</flowSpan><flowSpan
           style="font-style:oblique;font-weight:normal;fill:#d45500;stroke:#000000;stroke-opacity:1;-inkscape-font-specification:Monotype Corsiva Oblique"
           id="flowSpan4556">g</flowSpan><flowSpan
           style="font-style:oblique;font-weight:normal;fill:#66ff00;stroke:#000000;stroke-opacity:1;-inkscape-font-specification:Monotype Corsiva Oblique"
           id="flowSpan4558">i</flowSpan><flowSpan
           style="font-style:oblique;font-weight:normal;fill:#216778;stroke:#000000;stroke-opacity:1;-inkscape-font-specification:Monotype Corsiva Oblique"
           id="flowSpan4562">n</flowSpan><flowSpan
           style="font-style:oblique;font-weight:normal;fill:#ab37c8;stroke:#000000;stroke-opacity:1;-inkscape-font-specification:Monotype Corsiva Oblique"
           id="flowSpan4564">e</flowSpan></flowPara></flowRoot>    <flowRoot
       xml:space="preserve"
       id="flowRoot4653"
       style="font-size:12px;font-style:oblique;font-variant:normal;font-weight:normal;font-stretch:normal;line-height:125%;letter-spacing:0px;word-spacing:0px;fill:#000000;fill-opacity:1;stroke:none;font-family:Monotype Corsiva;-inkscape-font-specification:Monotype Corsiva Oblique"><flowRegion
         id="flowRegion4655"><rect
           id="rect4657"
           width="191.92899"
           height="12.121831"
           x="354.56354"
           y="488.07977" /></flowRegion><flowPara
         id="flowPara4659" /></flowRoot>  </g>
</svg>
