<?xml version="1.0" encoding="UTF-8" standalone="no"?>
<!-- Created with Inkscape (http://www.inkscape.org/) -->

<svg
   xmlns:dc="http://purl.org/dc/elements/1.1/"
   xmlns:cc="http://creativecommons.org/ns#"
   xmlns:rdf="http://www.w3.org/1999/02/22-rdf-syntax-ns#"
   xmlns:svg="http://www.w3.org/2000/svg"
   xmlns="http://www.w3.org/2000/svg"
   xmlns:sodipodi="http://sodipodi.sourceforge.net/DTD/sodipodi-0.dtd"
   xmlns:inkscape="http://www.inkscape.org/namespaces/inkscape"
   width="481.48001"
   height="481.48001"
   id="svg2"
   version="1.1"
   inkscape:version="0.48.4 r"
   sodipodi:docname="cat_butterfly.svg"
   style="enable-background:new"
   inkscape:export-filename="D:\Developer\PlatfornerGameEngine\Editor\_resources\images\src\cat_bow.png"
   inkscape:export-xdpi="149.53893"
   inkscape:export-ydpi="149.53893">
  <defs
     id="defs4">
    <filter
       inkscape:collect="always"
       id="filter4031"
       x="-0.16492651"
       width="1.3298531"
       y="-0.078926429"
       height="1.1578529"
       color-interpolation-filters="sRGB">
      <feGaussianBlur
         inkscape:collect="always"
         stdDeviation="5.1715704"
         id="feGaussianBlur4033" />
    </filter>
    <filter
       color-interpolation-filters="sRGB"
       inkscape:collect="always"
       id="filter4031-5"
       x="-0.16492651"
       width="1.3298531"
       y="-0.078926429"
       height="1.1578529">
      <feGaussianBlur
         inkscape:collect="always"
         stdDeviation="5.1715704"
         id="feGaussianBlur4033-6" />
    </filter>
    <filter
       inkscape:collect="always"
       id="filter4067"
       x="-0.14042158"
       width="1.2808433"
       y="-0.1047641"
       height="1.2095282"
       color-interpolation-filters="sRGB">
      <feGaussianBlur
         inkscape:collect="always"
         stdDeviation="1.7583101"
         id="feGaussianBlur4069" />
    </filter>
    <filter
       inkscape:collect="always"
       id="filter4071"
       x="-0.13788433"
       width="1.2757688"
       y="-0.10622239"
       height="1.2124448"
       color-interpolation-filters="sRGB">
      <feGaussianBlur
         inkscape:collect="always"
         stdDeviation="1.7512168"
         id="feGaussianBlur4073" />
    </filter>
    <filter
       inkscape:collect="always"
       id="filter3815"
       color-interpolation-filters="sRGB">
      <feGaussianBlur
         inkscape:collect="always"
         stdDeviation="2.3392221"
         id="feGaussianBlur3817" />
    </filter>
    <filter
       color-interpolation-filters="sRGB"
       inkscape:collect="always"
       id="filter3815-1">
      <feGaussianBlur
         inkscape:collect="always"
         stdDeviation="2.3392221"
         id="feGaussianBlur3817-5" />
    </filter>
  </defs>
  <sodipodi:namedview
     id="base"
     pagecolor="#ffffff"
     bordercolor="#666666"
     borderopacity="1.0"
     inkscape:pageopacity="0.0"
     inkscape:pageshadow="2"
     inkscape:zoom="0.98994949"
     inkscape:cx="239.04304"
     inkscape:cy="159.01465"
     inkscape:document-units="px"
     inkscape:current-layer="layer8"
     showgrid="false"
     inkscape:window-width="1280"
     inkscape:window-height="977"
     inkscape:window-x="-4"
     inkscape:window-y="-4"
     inkscape:window-maximized="1"
     showguides="true"
     inkscape:guide-bbox="true"
     fit-margin-top="5"
     fit-margin-right="5"
     fit-margin-bottom="5"
     fit-margin-left="5" />
  <metadata
     id="metadata7">
    <rdf:RDF>
      <cc:Work
         rdf:about="">
        <dc:format>image/svg+xml</dc:format>
        <dc:type
           rdf:resource="http://purl.org/dc/dcmitype/StillImage" />
        <dc:title></dc:title>
      </cc:Work>
    </rdf:RDF>
  </metadata>
  <g
     inkscape:groupmode="layer"
     id="layer3"
     inkscape:label="Голова"
     style="display:inline"
     transform="translate(-138.78571,-77.096474)">
    <path
       style="fill:#cccccc;stroke:#000000;stroke-width:5;stroke-linecap:butt;stroke-linejoin:miter;stroke-miterlimit:4;stroke-opacity:1;stroke-dasharray:none"
       d="m 256.33576,283.76101 c 31.41158,-43.35395 97.38587,-60.64178 150.68455,-55.59173 53.82065,5.09951 115.42728,35.01941 138.90935,83.715 20.1254,41.73474 11.45136,102.05374 -17.9884,137.83251 -35.27448,42.86982 -102.71104,58.90461 -157.90792,52.95357 -45.98045,-4.95738 -97.02962,-30.50419 -119.11601,-71.13631 -23.54006,-43.30643 -23.50157,-107.85795 5.41843,-147.77304 z"
       id="path3032"
       inkscape:connector-curvature="0"
       sodipodi:nodetypes="aaaaaaa" />
  </g>
  <g
     inkscape:groupmode="layer"
     id="layer2"
     inkscape:label="Ухо 2"
     transform="translate(-138.78571,-77.096474)"
     style="display:inline">
    <path
       style="fill:#cccccc;fill-opacity:1;stroke:none"
       d="m 468.39811,254.72912 c 0,0 59.76629,-72.18285 98.39196,-97.46591 5.74533,-3.7607 13.18168,-11.02153 19.14214,-7.61205 7.40399,4.23521 4.21712,16.76578 3.90318,25.28972 -2.12815,57.78296 -40.35592,119.23584 -38.99854,169.02574 z"
       id="path2987"
       inkscape:connector-curvature="0"
       sodipodi:nodetypes="caaacc" />
    <path
       style="fill:none;stroke:#000000;stroke-width:5;stroke-linecap:butt;stroke-linejoin:miter;stroke-miterlimit:4;stroke-opacity:1;stroke-dasharray:none;display:inline"
       d="m 474.28148,247.40802 c 0,0 59.39936,-66.65817 96.44599,-90.59684 4.24938,-2.74585 9.68315,-8.42201 14.01959,-5.81581 8.51922,5.12007 3.56176,19.77021 2.83611,29.68311 -1.97568,26.98925 -13.47416,52.42752 -19.40826,78.83034 -5.48159,24.38942 -18.19813,44.43649 -14.95449,73.48733"
       id="path3969-0"
       inkscape:connector-curvature="0"
       sodipodi:nodetypes="caaaac" />
    <path
       style="fill:#ffd5d5;fill-opacity:1;stroke:none;display:inline;filter:url(#filter4031-5)"
       d="m 536.13847,325.39425 c 0,0 16.27114,-27.50478 27.27413,-38.89086 10.10826,-10.46021 34.85025,-26.26397 34.85025,-26.26397 0,0 -55.15554,-64.03855 -88.89342,-88.89343 -2.91032,-2.14404 -6.39489,-6.72913 -9.59645,-5.05076 -4.95669,2.59847 -2.12672,11.07203 -2.02031,16.66752 0.1621,8.52346 2.0462,16.96538 4.04062,25.25381 3.06414,12.73393 7.97511,24.95201 12.12183,37.37564 3.77591,11.31265 8.33535,22.37425 11.61676,33.84011 4.32616,15.11644 10.60659,45.96194 10.60659,45.96194 z"
       id="path4021-7"
       inkscape:connector-curvature="0"
       sodipodi:nodetypes="cacaaaaaac"
       transform="matrix(-1,0,0,1,1080.8632,-8.0812208)" />
    <path
       style="fill:#cccccc;stroke:none;display:inline;filter:url(#filter3815-1)"
       d="m 523.76056,188.12583 c -3.05994,-2.66292 -10.14693,-6.71783 -10.14693,-6.71783 0,0 14.1204,2.44113 19.40179,6.80975 20.34576,16.82948 27.305,45.22806 39.78222,68.49821 4.81845,8.98646 13.53092,27.435 13.53092,27.435 0,0 -8.21076,1.16386 -12.27229,1.98651 -5.19846,1.05293 -5.41045,-1.11518 -15.45896,3.77013 -2.06402,-1.7562 -7.8504,-6.44327 -12.15817,-9.1032 -4.75648,-2.93699 -9.79237,-5.46761 -15,-7.5 -6.80936,-2.6575 -21.07143,-6.07142 -21.07143,-6.07142 0,0 10.03073,-2.71782 15.17857,-3.21429 3.61467,-0.3486 7.27842,-0.17243 10.89286,0.17857 4.03258,0.39162 8.01882,1.22175 11.96428,2.14286 5.0082,1.16921 14.82143,4.28571 14.82143,4.28571 0,0 -5.11096,-4.90973 -7.85715,-7.14285 -2.90983,-2.3662 -5.83355,-4.77694 -9.10714,-6.60715 -4.21638,-2.3573 -8.85485,-3.88004 -13.39285,-5.53572 -7.56904,-2.76154 -23.03572,-7.32142 -23.03572,-7.32142 0,0 15.28718,-0.34597 22.85715,0.53572 3.14249,0.36601 6.32904,0.83852 9.28571,1.96428 4.93335,1.87839 13.75,7.85714 13.75,7.85714 0,0 -5.84223,-9.97727 -9.64285,-14.28571 -1.67433,-1.89803 -3.70756,-3.45762 -5.71429,-5 -3.4687,-2.66607 -7.04016,-5.24864 -10.89286,-7.32143 -6.53219,-3.5144 -20.53571,-8.57143 -20.53571,-8.57143 0,0 16.36721,1.98555 24.10714,4.64285 3.34868,1.14969 6.54877,2.81265 9.46429,4.82144 2.77622,1.9128 7.5,6.78571 7.5,6.78571 0,0 -3.5826,-6.43934 -6.07143,-9.10714 -2.9238,-3.13405 -6.47308,-5.70303 -10.17858,-7.85714 -8.1426,-4.73351 -26.07143,-10.89286 -26.07143,-10.89286 0,0 16.83545,1.10217 24.82144,3.57143 3.73857,1.15596 10.53572,5.17858 10.53572,5.17858 0,0 -4.69576,-5.78873 -7.50001,-8.21429 -3.37136,-2.91609 -7.18539,-5.31636 -11.07143,-7.5 -4.62104,-2.59666 -14.46429,-6.60715 -14.46429,-6.60715 0,0 11.56435,-0.31149 16.78572,1.78573 4.60706,1.85047 11.78571,9.10713 11.78571,9.10713 0,0 -9.19078,-11.88564 -14.82143,-16.78572 z"
       id="path3033-6"
       inkscape:connector-curvature="0"
       sodipodi:nodetypes="acaacacaacaaacaaacaacaaacaacaacacaacaca"
       transform="matrix(-0.95428661,-0.29889306,-0.29889306,0.95428661,1119.1052,158.8703)" />
  </g>
  <g
     inkscape:groupmode="layer"
     id="layer9"
     inkscape:label="Бантик"
     style="display:none">
    <path
       style="fill:#ff80b2;stroke:#aa0044;stroke-width:5;stroke-linecap:butt;stroke-linejoin:miter;stroke-miterlimit:4;stroke-opacity:1;stroke-dasharray:none"
       d="m 304.28572,190.76572 c -2.15946,-2.84461 -1.27567,-7.37845 0,-10.71428 2.74029,-7.16579 11.34493,-10.60376 15.35714,-17.14286 4.47443,-7.29243 3.01414,-18.10899 9.28572,-23.92857 2.09799,-1.94679 5.47566,-3.33161 8.21428,-2.5 11.3329,3.44137 16.23885,17.44635 22.5,27.5 6.36466,10.21986 8.96171,22.44111 15,32.85714 6.24664,10.77543 12.82813,21.70313 21.78571,30.35715 7.40877,7.1577 15.48031,15.96471 25.71429,17.14285 3.03141,0.34898 6.50771,-0.96655 8.57143,-3.21428 6.85688,-7.46828 3.94522,-20.08968 8.21428,-29.28572 3.57312,-7.69691 12.35643,-12.8078 14.28572,-21.07143 0.79234,-3.3938 1.24351,-8.11981 -1.42857,-10.35714 -9.22617,-7.72506 -24.24797,-0.8085 -36.07143,1.42857 -14.61218,2.76471 -27.58033,11.62756 -42.14286,14.64286 -12.62458,2.61403 -25.74232,4.13273 -38.57143,2.85714 -10.57714,-1.05168 -24.28729,-0.10528 -30.71428,-8.57143 z"
       id="path3847"
       inkscape:connector-curvature="0"
       sodipodi:nodetypes="aaaaaaaaaaaaaaaaa" />
    <path
       style="fill:#ff0066;stroke:#d40055;stroke-width:1px;stroke-linecap:butt;stroke-linejoin:miter;stroke-opacity:1"
       d="m 362.85714,201.48001 c 0.80908,2.35043 4.84181,1.20246 7.14286,2.14286 2.36609,0.96697 4.52258,4.75957 6.78571,3.57143 2.65403,-1.39336 0.0216,-6.12089 1.07143,-8.92858 1.41083,-3.77318 8.13507,-6.2044 6.78572,-10 -0.83266,-2.34218 -4.86902,-1.13848 -7.14286,-2.14285 -1.90493,-0.84143 -3.40793,-3.94729 -5.35714,-3.21429 -3.27724,1.2324 -1.64846,6.86835 -3.21429,10 -1.56583,3.13165 -7.21104,5.26079 -6.07143,8.57143 z"
       id="path3849"
       inkscape:connector-curvature="0"
       sodipodi:nodetypes="aaaaaaaaa" />
  </g>
  <g
     inkscape:label="Ухо 1"
     inkscape:groupmode="layer"
     id="layer1"
     style="display:inline"
     transform="translate(-138.78571,-77.096474)">
    <path
       style="fill:#cccccc;fill-opacity:1;stroke:none"
       d="m 246.24908,300.37777 c 7.96522,-58.39835 2.12019,-88.2748 6.6737,-132.14286 1.49368,-14.38993 -4.22582,-33.45894 6.76033,-42.872 3.67283,-3.14693 10.28126,-2.38374 14.50978,-0.0359 37.46424,20.80161 67.69871,109.28572 67.69871,109.28572 z"
       id="path2985"
       inkscape:connector-curvature="0"
       sodipodi:nodetypes="caaacc" />
    <path
       style="fill:none;stroke:#000000;stroke-width:5;stroke-linecap:butt;stroke-linejoin:miter;stroke-miterlimit:4;stroke-opacity:1;stroke-dasharray:none;display:inline"
       d="m 341.49284,235.21005 c 0,0 -30.50173,-93.37742 -70.73171,-110.59684 -3.2623,-1.39634 -7.74187,-0.25395 -10.44816,2.04133 -4.662,3.954 -5.24323,11.18205 -6.40753,17.18311 -4.00852,20.66072 -1.08648,42.07797 -1.66317,63.11606 -0.75961,27.71088 1.86317,55.73354 -2.36694,83.13018 -0.34588,2.24012 -0.42107,3.66168 -1.25833,6.31788 -0.76553,2.42864 -3.95459,8.0941 -3.95459,8.0941"
       id="path3969"
       inkscape:connector-curvature="0"
       sodipodi:nodetypes="caaaassc" />
    <path
       style="fill:#ffd5d5;fill-opacity:1;stroke:none;filter:url(#filter4031)"
       d="m 256.07367,286.66655 c 0,0 19.87294,-21.83031 31.81981,-30.30457 13.26546,-9.40957 43.43655,-22.22336 43.43655,-22.22336 0,0 -20.05889,-51.11946 -35.86041,-73.23606 -8.5816,-12.01124 -16.74344,-33.67933 -31.31473,-31.31473 -2.22961,0.36182 -2.34113,3.9099 -3.03046,6.06092 -1.9766,6.16791 -2.46055,12.74112 -3.03045,19.19289 -1.5113,17.10928 -1.01883,34.34189 -1.01015,51.51778 0.008,16.33427 1.36793,32.66205 1.01015,48.9924 -0.22912,10.45743 -2.02031,31.31473 -2.02031,31.31473 z"
       id="path4021"
       inkscape:connector-curvature="0"
       sodipodi:nodetypes="cacaaaaaac" />
    <path
       style="fill:#cccccc;stroke:none;filter:url(#filter3815)"
       d="M 283.21428,148.12377 C 279.27529,144.89307 270,140.44521 270,140.44521 c 0,0 16.47466,3.99639 22.5,9.46428 20.68903,18.77494 28.68233,48.12863 39.82143,73.75 2.22896,5.12691 5.35714,15.89286 5.35714,15.89286 0,0 -8.11884,1.84479 -11.96428,3.39286 -3.87821,1.56127 -1.02292,1.00754 -11.07143,5.89285 -2.06402,-1.7562 -5.48897,-5.78909 -8.75,-8.03572 -4.60346,-3.17147 -9.79237,-5.46761 -15,-7.5 -6.80936,-2.6575 -21.07143,-6.07142 -21.07143,-6.07142 0,0 10.03073,-2.71782 15.17857,-3.21429 3.61467,-0.3486 7.27842,-0.17243 10.89286,0.17857 4.03258,0.39162 8.01882,1.22175 11.96428,2.14286 5.0082,1.16921 14.82143,4.28571 14.82143,4.28571 0,0 -5.11096,-4.90973 -7.85715,-7.14285 -2.90983,-2.3662 -5.83355,-4.77694 -9.10714,-6.60715 -4.21638,-2.3573 -8.85485,-3.88004 -13.39285,-5.53572 -7.56904,-2.76154 -23.03572,-7.32142 -23.03572,-7.32142 0,0 15.28718,-0.34597 22.85715,0.53572 3.14249,0.36601 6.32904,0.83852 9.28571,1.96428 4.93335,1.87839 13.75,7.85714 13.75,7.85714 0,0 -5.84223,-9.97727 -9.64285,-14.28571 -1.67433,-1.89803 -3.70756,-3.45762 -5.71429,-5 -3.4687,-2.66607 -7.04016,-5.24864 -10.89286,-7.32143 -6.53219,-3.5144 -20.53571,-8.57143 -20.53571,-8.57143 0,0 16.36721,1.98555 24.10714,4.64285 3.34868,1.14969 6.54877,2.81265 9.46429,4.82144 2.77622,1.9128 7.5,6.78571 7.5,6.78571 0,0 -3.5826,-6.43934 -6.07143,-9.10714 -2.9238,-3.13405 -6.47308,-5.70303 -10.17858,-7.85714 -8.1426,-4.73351 -26.07143,-10.89286 -26.07143,-10.89286 0,0 16.83545,1.10217 24.82144,3.57143 3.73857,1.15596 10.53572,5.17858 10.53572,5.17858 0,0 -4.69576,-5.78873 -7.50001,-8.21429 -3.37136,-2.91609 -7.18539,-5.31636 -11.07143,-7.5 -4.62104,-2.59666 -14.46429,-6.60715 -14.46429,-6.60715 0,0 11.56435,-0.31149 16.78572,1.78573 4.60706,1.85047 11.78571,9.10713 11.78571,9.10713 0,0 -9.05009,-12.05215 -14.82143,-16.78572 z"
       id="path3033"
       inkscape:connector-curvature="0"
       sodipodi:nodetypes="acaacacaacaaacaaacaacaaacaacaacacaacaca" />
  </g>
  <g
     inkscape:groupmode="layer"
     id="layer8"
     inkscape:label="Галстук-бабочка"
     style="display:none">
    <path
       style="fill:#333333;stroke:#000000;stroke-width:10;stroke-linecap:butt;stroke-linejoin:miter;stroke-miterlimit:4;stroke-opacity:1;stroke-dasharray:none;enable-background:new"
       d="m 115.33071,371.59746 c 17.92942,-14.26967 45.75359,7.23435 66.76469,16.37884 36.77057,16.00335 63.96378,49.67372 100.60399,65.97334 18.32301,8.15109 40.73627,25.1496 58.1912,15.27548 12.01481,-6.79668 8.64119,-26.26944 11.62189,-39.74779 3.20656,-14.49963 16.72523,-33.09449 6.69393,-44.04411 -12.84486,-14.02073 -38.4482,-0.85759 -56.93067,3.61115 -46.09905,11.14594 -85.04915,43.0675 -130.42662,56.86024 -17.40507,5.29036 -39.45228,21.0279 -53.70152,9.71934 -11.81607,-9.37753 -1.77986,-30.12111 -2.26464,-45.19833 -0.41598,-12.93734 -10.68016,-30.76755 -0.55225,-38.82816 z"
       id="path3038"
       inkscape:connector-curvature="0"
       sodipodi:nodetypes="aaaaaaaaaaa" />
  </g>
  <g
     inkscape:groupmode="layer"
     id="layer4"
     inkscape:label="Морда"
     transform="translate(-138.78571,-77.096474)">
    <path
       style="fill:none;stroke:#000000;stroke-width:5;stroke-linecap:butt;stroke-linejoin:miter;stroke-miterlimit:4;stroke-opacity:1;stroke-dasharray:none"
       d="m 351.07143,352.23091 c 0,0 3.1224,4.2958 4.25128,6.68225 3.44441,7.2815 6.76884,18.32247 7.53443,22.96062 1.34111,8.12478 0.0445,16.56436 0.53627,26.20583 0.0769,1.50733 -0.51231,0.74493 1.10151,0.0748 4.31852,-1.79323 30.04124,-0.80563 35.96683,4.41571 3.70134,-9.63961 6.88453,-16.17368 10.63506,-24.11984 4.04958,-8.57975 7.06506,-17.86539 12.80638,-25.41842 0.88299,-1.16163 3.23967,-2.9438 3.23967,-2.9438"
       id="path3035"
       inkscape:connector-curvature="0"
       sodipodi:nodetypes="cassscaac" />
    <path
       style="fill:#f2f2f2;stroke:#000000;stroke-width:5;stroke-linecap:butt;stroke-linejoin:miter;stroke-miterlimit:4;stroke-opacity:1;stroke-dasharray:none"
       d="m 335,489.1952 c 4.78278,8.11289 13.90035,13.69685 22.85714,16.60715 10.41631,3.38454 22.34155,3.06215 32.85715,0 8.94174,-2.60384 18.46848,-7.20932 23.57142,-15 11.35689,-17.3386 9.64286,-61.42858 9.64286,-61.42858 0,0 -79.71396,-0.68193 -96.48646,-1.36241 0.0253,13.05094 -2.8782,43.48143 7.55789,61.18384 z"
       id="path3043"
       inkscape:connector-curvature="0"
       sodipodi:nodetypes="aaaacca" />
    <path
       style="fill:#e6e6e6;stroke:#000000;stroke-width:5;stroke-linecap:butt;stroke-linejoin:miter;stroke-miterlimit:4;stroke-opacity:1;stroke-dasharray:none"
       d="m 378.57143,446.51663 c 1.15884,5.85787 3.54048,11.66617 7.14286,16.42857 4.08291,5.39767 9.34027,10.58186 15.71428,12.85715 9.19372,3.28182 19.66704,1.66609 29.28572,0 10.46282,-1.81231 21.41036,-4.47144 30,-10.71429 7.05054,-5.12425 13.70315,-12.28997 15.96682,-20.70685 1.78303,-6.62975 0.89286,-14.56749 -2.6987,-20.41842 -5.47262,-8.91532 -15.706,-15.32194 -25.88144,-17.74946 -14.55963,-3.47344 -30.21537,1.50256 -44.50955,5.94374 -8.77941,2.72775 -24.59297,12.48411 -24.59297,12.48411 0,0 -1.84238,14.7209 -0.42702,21.87545 z"
       id="path3041"
       inkscape:connector-curvature="0"
       sodipodi:nodetypes="aaaaaaaaaca" />
    <path
       style="fill:#ececec;stroke:#000000;stroke-width:5;stroke-linecap:butt;stroke-linejoin:miter;stroke-miterlimit:4;stroke-opacity:1;stroke-dasharray:none"
       d="m 377.18618,437.23092 c -0.75676,3.85316 -1.41508,7.77618 -2.85714,11.42857 -1.80045,4.56011 -3.64377,9.4231 -7.14286,12.85714 -6.1575,6.04303 -14.38305,10.52333 -22.85714,12.14286 -8.47087,1.61891 -17.6839,0.28759 -25.71429,-2.85714 -11.57318,-4.53211 -23.62661,-11.47242 -30,-22.14286 -5.17993,-8.67232 -6.88213,-20.23786 -4.28571,-30 1.54209,-5.79803 6.38165,-11.31463 11.06092,-14.19906 13.4839,-8.31186 39.71374,-7.40209 57.59493,-1.15772 11.27683,3.93803 26.00007,21.42513 26.00007,21.42513 0,0 -0.98732,8.37141 -1.79878,12.50308 z"
       id="path3039"
       inkscape:connector-curvature="0"
       sodipodi:nodetypes="aaaaaaassca" />
    <path
       style="fill:#e9afaf;stroke:#000000;stroke-width:5;stroke-linecap:butt;stroke-linejoin:miter;stroke-miterlimit:4;stroke-opacity:1;stroke-dasharray:none"
       d="m 363.98985,405.62903 c -3.54308,0.42085 -0.99136,6.70443 0.20921,9.71157 1.33577,3.34579 3.88877,9.23012 7.27284,7.99456 2.79441,-1.02027 -1.29389,-6.43156 0.33919,-8.91806 0.58695,-0.89368 1.88956,-1.75427 2.89305,-1.38524 1.16399,0.42806 1.3103,2.17495 1.51523,3.39811 0.63709,3.80262 -3.21592,8.36033 -1.01016,11.52267 1.07073,1.53506 3.78637,2.38803 5.41842,1.4719 3.33245,-1.87062 0.99843,-7.88387 3.19634,-11.01015 0.61697,-0.87758 1.54487,-1.72364 2.6046,-1.89032 0.88727,-0.13956 2.12559,0.0514 2.56128,0.83683 1.56221,2.81624 -4.94413,7.51822 -2.31617,9.37981 3.56917,2.52832 8.12648,-3.87375 10.97426,-7.19362 1.91511,-2.23261 5.43541,-7.11325 3.65807,-8.03046 -4.55417,-2.3502 -28.04913,-6.98834 -37.31616,-5.8876 z"
       id="path3037"
       inkscape:connector-curvature="0"
       sodipodi:nodetypes="saaaaaaaaaaaass" />
  </g>
  <g
     inkscape:groupmode="layer"
     id="layer6"
     inkscape:label="Глаза"
     transform="translate(-138.78571,-77.096474)">
    <path
       style="fill:#000000;stroke:#000000;stroke-width:0.88073206px;stroke-linecap:butt;stroke-linejoin:miter;stroke-opacity:1"
       d="m 438.45748,334.27467 c 3.79466,-5.69895 7.79708,-11.68267 13.46672,-15.48012 4.95032,-3.31566 10.96435,-5.66142 16.91168,-5.68658 6.98292,-0.0295 14.26131,2.40623 19.91224,6.50856 4.64332,3.37085 8.79734,8.32512 10.15299,13.90054 1.15816,4.7632 -0.65513,9.89806 -2.25289,14.53235 -1.58901,4.60886 -3.80107,9.21275 -7.1425,12.7626 -3.74114,3.97448 -8.46237,7.61428 -13.77989,8.8458 -6.94226,1.60781 -14.30784,-0.79467 -21.23557,-2.464 -3.59373,-0.86596 -6.8713,-2.74364 -10.38903,-3.8796 -3.26066,-1.05294 -6.49178,-2.60055 -9.91428,-2.71515 -3.30378,-0.11064 -3.47746,0.46936 -9.7216,1.9749 0,0 8.16554,-19.5487 13.99213,-28.2993 z"
       id="path3081"
       inkscape:connector-curvature="0"
       sodipodi:nodetypes="aaaaaaaaaaaca" />
    <path
       style="fill:#000000;stroke:#000000;stroke-width:0.84759265px;stroke-linecap:butt;stroke-linejoin:miter;stroke-opacity:1"
       d="m 350.04204,335.85445 c -2.29646,-6.13097 -4.14732,-12.84276 -8.38524,-17.68894 -4.61596,-5.27851 -10.87266,-9.39494 -17.47352,-11.15877 -4.63544,-1.23866 -9.84131,-1.01227 -14.32931,0.72833 -6.15197,2.38595 -12.56946,6.51693 -15.57392,12.65961 -2.8783,5.88477 -1.987,13.36401 -0.7204,19.84917 0.78043,3.99587 2.6025,7.84031 4.99069,11.05022 2.5691,3.45303 5.92728,6.41141 9.67175,8.32813 4.01783,2.05663 8.61242,3.03317 13.07857,3.07062 8.47269,0.0711 16.4487,-4.71313 24.89595,-5.40835 3.33513,-0.27449 10.02455,0.50128 10.02455,0.50128 0,0 -3.52229,-14.83824 -6.17912,-21.9313 z"
       id="path3101"
       inkscape:connector-curvature="0"
       sodipodi:nodetypes="aaaaaaaaaaca" />
  </g>
  <g
     inkscape:groupmode="layer"
     id="layer7"
     inkscape:label="Зрачки"
     transform="translate(-138.78571,-77.096474)">
    <path
       sodipodi:type="arc"
       style="fill:#00ff00;fill-opacity:1;stroke:#000000;stroke-width:4;stroke-linecap:square;stroke-linejoin:round;stroke-miterlimit:4;stroke-opacity:1;stroke-dasharray:none"
       id="path3150"
       sodipodi:cx="315.35715"
       sodipodi:cy="358.07648"
       sodipodi:rx="32.857143"
       sodipodi:ry="32.857143"
       d="m 348.21429,358.07648 a 32.857143,32.857143 0 1 1 -65.71429,0 32.857143,32.857143 0 1 1 65.71429,0 z"
       transform="matrix(0.77047201,0,0,0.81237135,78.072114,43.709021)" />
    <path
       style="fill:#000000;stroke:#000000;stroke-width:0.72923779px;stroke-linecap:butt;stroke-linejoin:miter;stroke-opacity:1;filter:url(#filter4071)"
       d="m 322.31122,315.09323 c 21.82199,1.62333 14.37739,40.24448 -2.86026,38.43578 -22.58689,-5.15926 -15.52092,-35.95584 2.86026,-38.43578 z"
       id="path3106-1"
       inkscape:connector-curvature="0"
       sodipodi:nodetypes="ccc" />
    <path
       sodipodi:type="arc"
       style="fill:#00ff00;fill-opacity:1;stroke:#000000;stroke-width:4;stroke-linecap:square;stroke-linejoin:round;stroke-miterlimit:4;stroke-opacity:1;stroke-dasharray:none"
       id="path3150-5"
       sodipodi:cx="315.35715"
       sodipodi:cy="358.07648"
       sodipodi:rx="31.675932"
       sodipodi:ry="33.595554"
       d="m 347.03308,358.07648 a 31.675932,33.595554 0 1 1 -63.35186,0 31.675932,33.595554 0 1 1 63.35186,0 z"
       transform="matrix(0.81850214,0,0,0.82566701,209.98807,45.888912)" />
    <path
       style="fill:#000000;stroke:#000000;stroke-width:0.72923779px;stroke-linecap:butt;stroke-linejoin:miter;stroke-opacity:1;filter:url(#filter4067)"
       d="m 466.43524,321.4805 c -21.82199,1.62333 -19.27277,39.06845 -2.03512,38.68833 22.58689,-5.15926 20.4163,-36.20839 2.03512,-38.68833 z"
       id="path3106-1-8"
       inkscape:connector-curvature="0"
       sodipodi:nodetypes="ccc" />
  </g>
  <g
     inkscape:groupmode="layer"
     id="layer5"
     inkscape:label="Усы"
     transform="translate(-138.78571,-77.096474)">
    <path
       style="fill:none;stroke:#000000;stroke-width:1px;stroke-linecap:butt;stroke-linejoin:miter;stroke-opacity:1"
       d="m 451.42857,420.08806 c 0,0 52.89946,7.10933 78.40362,14.61074 24.48621,7.20201 70.88209,28.96069 70.88209,28.96069"
       id="path3046"
       inkscape:connector-curvature="0"
       sodipodi:nodetypes="cac" />
    <path
       style="fill:none;stroke:#000000;stroke-width:1px;stroke-linecap:butt;stroke-linejoin:miter;stroke-opacity:1"
       d="m 438.57143,430.80235 c 0,0 52.55034,7.73427 77.72948,15.80094 34.22608,10.96505 98.46885,43.91805 98.46885,43.91805"
       id="path3048"
       inkscape:connector-curvature="0"
       sodipodi:nodetypes="cac" />
    <path
       style="fill:none;stroke:#000000;stroke-width:1px;stroke-linecap:butt;stroke-linejoin:miter;stroke-opacity:1"
       d="m 440,442.9452 c 0,0 53.62514,9.60441 78.57143,20.00001 29.47459,12.28262 82.14286,49.2857 82.14286,49.2857"
       id="path3050"
       inkscape:connector-curvature="0"
       sodipodi:nodetypes="cac" />
    <path
       style="fill:none;stroke:#000000;stroke-width:1px;stroke-linecap:butt;stroke-linejoin:miter;stroke-opacity:1"
       d="m 431.42857,438.65949 c 0,0 56.32024,6.43057 82.87501,15.66341 27.66478,9.61879 77.83927,40.76516 77.83927,40.76516"
       id="path3052"
       inkscape:connector-curvature="0"
       sodipodi:nodetypes="cac" />
    <path
       style="fill:none;stroke:#000000;stroke-width:1px;stroke-linecap:butt;stroke-linejoin:miter;stroke-opacity:1"
       d="m 436.42858,449.37378 c 0,0 58.65745,10.36436 85.71428,22.14285 30.82458,13.41868 84.99999,54.28572 84.99999,54.28572"
       id="path3054"
       inkscape:connector-curvature="0"
       sodipodi:nodetypes="cac" />
    <path
       style="fill:none;stroke:#000000;stroke-width:1px;stroke-linecap:butt;stroke-linejoin:miter;stroke-opacity:1"
       d="m 446.42857,425.80235 c 0,0 39.54796,5.05375 58.57143,10.71428 32.42305,9.64765 93.57142,39.28572 93.57142,39.28572"
       id="path3056"
       inkscape:connector-curvature="0"
       sodipodi:nodetypes="cac" />
    <path
       style="fill:none;stroke:#000000;stroke-width:1px;stroke-linecap:butt;stroke-linejoin:miter;stroke-opacity:1"
       d="m 316.42857,416.51663 c 0,0 -64.51872,-0.61127 -96.4583,3.23967 -22.45035,2.70683 -66.39884,13.90318 -66.39884,13.90318"
       id="path3058"
       inkscape:connector-curvature="0"
       sodipodi:nodetypes="cac" />
    <path
       style="fill:none;stroke:#000000;stroke-width:1px;stroke-linecap:butt;stroke-linejoin:miter;stroke-opacity:1"
       d="m 317.85715,425.08807 c 0,0 -57.1481,4.08841 -84.79823,11.01014 -28.46609,7.12599 -82.34463,31.1327 -82.34463,31.1327"
       id="path3060"
       inkscape:connector-curvature="0"
       sodipodi:nodetypes="cac" />
    <path
       style="fill:none;stroke:#000000;stroke-width:1px;stroke-linecap:butt;stroke-linejoin:miter;stroke-opacity:1"
       d="m 335,440.08806 c -3.66277,0 -48.59128,1.79314 -72.32541,6.556 -20.36659,4.08708 -44.57826,12.65204 -59.42877,18.75474 -18.43152,7.57428 -49.67439,33.26069 -49.67439,33.26069"
       id="path3062"
       inkscape:connector-curvature="0"
       sodipodi:nodetypes="casc" />
    <path
       style="fill:none;stroke:#000000;stroke-width:1px;stroke-linecap:butt;stroke-linejoin:miter;stroke-opacity:1"
       d="m 322.14285,436.51663 c 0,0 -63.07913,3.00051 -93.2471,11.39268 -29.77211,8.28206 -84.61004,37.89303 -84.61004,37.89303"
       id="path3064"
       inkscape:connector-curvature="0"
       sodipodi:nodetypes="cac" />
    <path
       style="fill:none;stroke:#000000;stroke-width:1px;stroke-linecap:butt;stroke-linejoin:miter;stroke-opacity:1"
       d="m 302.85715,420.80234 c -16.42858,-0.71428 -56.54521,3.2828 -84.28572,8.57144 -22.35998,4.26286 -65.71429,18.57142 -65.71429,18.57142"
       id="path3066"
       inkscape:connector-curvature="0"
       sodipodi:nodetypes="cac" />
    <path
       style="fill:none;stroke:#000000;stroke-width:1px;stroke-linecap:butt;stroke-linejoin:miter;stroke-opacity:1"
       d="m 330,431.51663 c 0,0 -71.43085,3.46141 -105.66352,12.77792 -27.08467,7.37116 -77.19362,33.65065 -77.19362,33.65065"
       id="path3068"
       inkscape:connector-curvature="0"
       sodipodi:nodetypes="cac" />
    <path
       style="fill:none;stroke:#000000;stroke-width:1px;stroke-linecap:butt;stroke-linejoin:miter;stroke-opacity:1"
       d="m 328.70885,294.50376 c 0,0 -3.80423,-76.48257 -8.70885,-114.4157 -4.06609,-31.44782 -17.14285,-93.571419 -17.14285,-93.571419"
       id="path3070"
       inkscape:connector-curvature="0"
       sodipodi:nodetypes="cac" />
    <path
       style="fill:none;stroke:#000000;stroke-width:1px;stroke-linecap:butt;stroke-linejoin:miter;stroke-opacity:1"
       d="m 336.24166,302.88085 c 0,0 -4.18394,-82.52011 -9.09881,-123.50707 -3.7935,-31.63546 -15.71428,-94.285719 -15.71428,-94.285719"
       id="path3072"
       inkscape:connector-curvature="0"
       sodipodi:nodetypes="cac" />
    <path
       style="fill:none;stroke:#000000;stroke-width:1px;stroke-linecap:butt;stroke-linejoin:miter;stroke-opacity:1"
       d="m 470.07177,309.59785 c 6.0132,-48.84366 5.90638,-80.94932 8.79551,-121.42858 2.17501,-30.47391 6.42857,-91.428559 6.42857,-91.428559"
       id="path3074"
       inkscape:connector-curvature="0"
       sodipodi:nodetypes="cac" />
    <path
       style="fill:none;stroke:#000000;stroke-width:1px;stroke-linecap:butt;stroke-linejoin:miter;stroke-opacity:1"
       d="m 322.77792,297.74342 c -0.83684,-15.96682 -4.3428,-67.69617 -9.20649,-101.22679 -4.87976,-33.6414 -12.25412,-69.81378 -20,-99.999999"
       id="path3076"
       inkscape:connector-curvature="0"
       sodipodi:nodetypes="cac" />
    <path
       style="fill:none;stroke:#000000;stroke-width:1px;stroke-linecap:butt;stroke-linejoin:miter;stroke-opacity:1"
       d="m 484.11239,308.41439 c 0,-6.42857 9.12455,-66.03352 14.28572,-98.96011 5.80039,-37.00458 18.74474,-110.794789 18.74474,-110.794789"
       id="path3078"
       inkscape:connector-curvature="0"
       sodipodi:nodetypes="cac" />
    <path
       style="fill:none;stroke:#000000;stroke-width:1px;stroke-linecap:butt;stroke-linejoin:miter;stroke-opacity:1"
       d="m 476.25102,309.25246 c 6.0132,-48.84366 8.53716,-69.50649 12.83612,-104.25599 4.47878,-36.203 13.49964,-108.601149 13.49964,-108.601149"
       id="path3074-8"
       inkscape:connector-curvature="0"
       sodipodi:nodetypes="cac" />
  </g>
</svg>
