<?xml version="1.0" encoding="UTF-8" standalone="no"?>
<!-- Created with Inkscape (http://www.inkscape.org/) -->

<svg
   xmlns:dc="http://purl.org/dc/elements/1.1/"
   xmlns:cc="http://creativecommons.org/ns#"
   xmlns:rdf="http://www.w3.org/1999/02/22-rdf-syntax-ns#"
   xmlns:svg="http://www.w3.org/2000/svg"
   xmlns="http://www.w3.org/2000/svg"
   xmlns:sodipodi="http://sodipodi.sourceforge.net/DTD/sodipodi-0.dtd"
   xmlns:inkscape="http://www.inkscape.org/namespaces/inkscape"
   width="1366"
   height="768"
   id="svg2"
   version="1.1"
   inkscape:version="0.48.4 r"
   sodipodi:docname="cat_pge_bg_1366_768_light.svg"
   style="enable-background:new"
   inkscape:export-filename="D:\Developer\PlatfornerGameEngine\Editor\_resources\images\src\cat_pge_1366_768_light.png"
   inkscape:export-xdpi="90"
   inkscape:export-ydpi="90">
  <defs
     id="defs4">
    <filter
       color-interpolation-filters="sRGB"
       inkscape:collect="always"
       id="filter4817-3">
      <feGaussianBlur
         inkscape:collect="always"
         stdDeviation="1.5507812"
         id="feGaussianBlur4819-2" />
    </filter>
    <filter
       inkscape:collect="always"
       id="filter4936"
       color-interpolation-filters="sRGB">
      <feGaussianBlur
         inkscape:collect="always"
         stdDeviation="0.31228027"
         id="feGaussianBlur4938" />
    </filter>
    <filter
       inkscape:collect="always"
       id="filter4067"
       x="-0.14042158"
       width="1.2808433"
       y="-0.1047641"
       height="1.2095282"
       color-interpolation-filters="sRGB">
      <feGaussianBlur
         inkscape:collect="always"
         stdDeviation="1.7583101"
         id="feGaussianBlur4069" />
    </filter>
    <filter
       inkscape:collect="always"
       id="filter4071"
       x="-0.13788433"
       width="1.2757688"
       y="-0.10622239"
       height="1.2124448"
       color-interpolation-filters="sRGB">
      <feGaussianBlur
         inkscape:collect="always"
         stdDeviation="1.7512168"
         id="feGaussianBlur4073" />
    </filter>
    <filter
       inkscape:collect="always"
       id="filter3815"
       color-interpolation-filters="sRGB">
      <feGaussianBlur
         inkscape:collect="always"
         stdDeviation="2.3392221"
         id="feGaussianBlur3817" />
    </filter>
    <filter
       inkscape:collect="always"
       id="filter4031"
       x="-0.16492651"
       width="1.3298531"
       y="-0.078926429"
       height="1.1578529"
       color-interpolation-filters="sRGB">
      <feGaussianBlur
         inkscape:collect="always"
         stdDeviation="5.1715704"
         id="feGaussianBlur4033" />
    </filter>
    <filter
       color-interpolation-filters="sRGB"
       inkscape:collect="always"
       id="filter3815-1">
      <feGaussianBlur
         inkscape:collect="always"
         stdDeviation="2.3392221"
         id="feGaussianBlur3817-5" />
    </filter>
    <filter
       color-interpolation-filters="sRGB"
       inkscape:collect="always"
       id="filter4031-5"
       x="-0.16492651"
       width="1.3298531"
       y="-0.078926429"
       height="1.1578529">
      <feGaussianBlur
         inkscape:collect="always"
         stdDeviation="5.1715704"
         id="feGaussianBlur4033-6" />
    </filter>
  </defs>
  <sodipodi:namedview
     id="base"
     pagecolor="#ffffff"
     bordercolor="#666666"
     borderopacity="1.0"
     inkscape:pageopacity="1"
     inkscape:pageshadow="2"
     inkscape:zoom="0.7"
     inkscape:cx="684.35444"
     inkscape:cy="405.4765"
     inkscape:document-units="px"
     inkscape:current-layer="layer7"
     showgrid="false"
     inkscape:window-width="1280"
     inkscape:window-height="977"
     inkscape:window-x="-4"
     inkscape:window-y="-4"
     inkscape:window-maximized="1"
     showguides="true"
     inkscape:guide-bbox="true"
     fit-margin-top="5"
     fit-margin-right="5"
     fit-margin-bottom="5"
     fit-margin-left="5" />
  <metadata
     id="metadata7">
    <rdf:RDF>
      <cc:Work
         rdf:about="">
        <dc:format>image/svg+xml</dc:format>
        <dc:type
           rdf:resource="http://purl.org/dc/dcmitype/StillImage" />
        <dc:title></dc:title>
      </cc:Work>
    </rdf:RDF>
  </metadata>
  <g
     inkscape:groupmode="layer"
     id="layer7"
     inkscape:label="Cat"
     transform="translate(-97.702783,110.67365)"
     style="display:inline">
    <path
       style="fill:#cccccc;stroke:#000000;stroke-width:6.54562426;stroke-linecap:butt;stroke-linejoin:miter;stroke-miterlimit:4;stroke-opacity:1;stroke-dasharray:none;display:inline;enable-background:new"
       d="m 598.22936,162.70741 c 41.12168,-56.75574 127.49027,-79.387672 197.2649,-72.776526 70.45795,6.675895 151.10872,45.844786 181.84969,109.593396 26.34665,54.63599 14.99126,133.60109 -23.54907,180.43997 -46.1787,56.12195 -134.46158,77.11349 -206.72118,69.32284 -60.19416,-6.48983 -127.0239,-39.9338 -155.93774,-93.12632 -30.81688,-56.69352 -30.76649,-141.19952 7.0934,-193.45336 z"
       id="path3032"
       inkscape:connector-curvature="0"
       sodipodi:nodetypes="aaaaaaa" />
    <path
       style="fill:#cccccc;fill-opacity:1;stroke:none;enable-background:new"
       d="m 875.84546,124.70103 c 0,0 78.24154,-94.496364 128.80734,-127.5950477 7.5214,-4.923226 17.2565,-14.4285593 25.0595,-9.9651233 9.6928,5.544418 5.5208,21.9484986 5.1098,33.107402 -2.786,75.645111 -52.83101,156.094609 -51.05403,221.275809 z"
       id="path2987"
       inkscape:connector-curvature="0"
       sodipodi:nodetypes="caaacc" />
    <path
       style="fill:none;stroke:#000000;stroke-width:6.54562426;stroke-linecap:butt;stroke-linejoin:miter;stroke-miterlimit:4;stroke-opacity:1;stroke-dasharray:none;display:inline;enable-background:new"
       d="m 883.54753,115.1168 c 0,0 77.76118,-87.263872 126.25987,-118.6025814 5.563,-3.5946606 12.6765,-11.0254626 18.3534,-7.6136216 11.1527,6.702811 4.6628,25.881674 3.7128,38.858899 -2.5864,35.332298 -17.6393,68.634171 -25.4078,103.198764 -7.17613,31.9288 -23.82367,58.17292 -19.57734,96.20409"
       id="path3969-0"
       inkscape:connector-curvature="0"
       sodipodi:nodetypes="caaaac" />
    <path
       style="fill:#ffd5d5;fill-opacity:1;stroke:none;display:inline;filter:url(#filter4031-5);enable-background:new"
       d="m 536.13847,325.39425 c 0,0 16.27114,-27.50478 27.27413,-38.89086 10.10826,-10.46021 34.85025,-26.26397 34.85025,-26.26397 0,0 -55.15554,-64.03855 -88.89342,-88.89343 -2.91032,-2.14404 -6.39489,-6.72913 -9.59645,-5.05076 -4.95669,2.59847 -2.12672,11.07203 -2.02031,16.66752 0.1621,8.52346 2.0462,16.96538 4.04062,25.25381 3.06414,12.73393 7.97511,24.95201 12.12183,37.37564 3.77591,11.31265 8.33535,22.37425 11.61676,33.84011 4.32616,15.11644 10.60659,45.96194 10.60659,45.96194 z"
       id="path4021-7"
       inkscape:connector-curvature="0"
       sodipodi:nodetypes="cacaaaaaac"
       transform="matrix(-1.3091249,0,0,1.3091249,1677.6388,-219.35053)" />
    <path
       style="fill:#cccccc;stroke:none;display:inline;filter:url(#filter3815-1);enable-background:new"
       d="m 523.76056,188.12583 c -3.05994,-2.66292 -10.14693,-6.71783 -10.14693,-6.71783 0,0 14.1204,2.44113 19.40179,6.80975 20.34576,16.82948 27.305,45.22806 39.78222,68.49821 4.81845,8.98646 13.53092,27.435 13.53092,27.435 0,0 -8.21076,1.16386 -12.27229,1.98651 -5.19846,1.05293 -5.41045,-1.11518 -15.45896,3.77013 -2.06402,-1.7562 -7.8504,-6.44327 -12.15817,-9.1032 -4.75648,-2.93699 -9.79237,-5.46761 -15,-7.5 -6.80936,-2.6575 -21.07143,-6.07142 -21.07143,-6.07142 0,0 10.03073,-2.71782 15.17857,-3.21429 3.61467,-0.3486 7.27842,-0.17243 10.89286,0.17857 4.03258,0.39162 8.01882,1.22175 11.96428,2.14286 5.0082,1.16921 14.82143,4.28571 14.82143,4.28571 0,0 -5.11096,-4.90973 -7.85715,-7.14285 -2.90983,-2.3662 -5.83355,-4.77694 -9.10714,-6.60715 -4.21638,-2.3573 -8.85485,-3.88004 -13.39285,-5.53572 -7.56904,-2.76154 -23.03572,-7.32142 -23.03572,-7.32142 0,0 15.28718,-0.34597 22.85715,0.53572 3.14249,0.36601 6.32904,0.83852 9.28571,1.96428 4.93335,1.87839 13.75,7.85714 13.75,7.85714 0,0 -5.84223,-9.97727 -9.64285,-14.28571 -1.67433,-1.89803 -3.70756,-3.45762 -5.71429,-5 -3.4687,-2.66607 -7.04016,-5.24864 -10.89286,-7.32143 -6.53219,-3.5144 -20.53571,-8.57143 -20.53571,-8.57143 0,0 16.36721,1.98555 24.10714,4.64285 3.34868,1.14969 6.54877,2.81265 9.46429,4.82144 2.77622,1.9128 7.5,6.78571 7.5,6.78571 0,0 -3.5826,-6.43934 -6.07143,-9.10714 -2.9238,-3.13405 -6.47308,-5.70303 -10.17858,-7.85714 -8.1426,-4.73351 -26.07143,-10.89286 -26.07143,-10.89286 0,0 16.83545,1.10217 24.82144,3.57143 3.73857,1.15596 10.53572,5.17858 10.53572,5.17858 0,0 -4.69576,-5.78873 -7.50001,-8.21429 -3.37136,-2.91609 -7.18539,-5.31636 -11.07143,-7.5 -4.62104,-2.59666 -14.46429,-6.60715 -14.46429,-6.60715 0,0 11.56435,-0.31149 16.78572,1.78573 4.60706,1.85047 11.78571,9.10713 11.78571,9.10713 0,0 -9.19078,-11.88564 -14.82143,-16.78572 z"
       id="path3033-6"
       inkscape:connector-curvature="0"
       sodipodi:nodetypes="acaacacaacaaacaaacaacaaacaacaacacaacaca"
       transform="matrix(-1.2492804,-0.39128834,-0.39128834,1.2492804,1727.7024,-0.79013619)" />
    <path
       style="fill:#cccccc;fill-opacity:1;stroke:none;display:inline;enable-background:new"
       d="m 585.02464,184.46082 c 10.42747,-76.45074 2.77559,-115.562743 8.73671,-172.991512 1.95541,-18.8382157 -5.53213,-43.801931 8.85011,-56.124802 4.8082,-4.119724 13.45946,-3.120613 18.99512,-0.047 49.04537,27.231906 88.62606,143.068657 88.62606,143.068657 z"
       id="path2985"
       inkscape:connector-curvature="0"
       sodipodi:nodetypes="caaacc" />
    <path
       style="fill:none;stroke:#000000;stroke-width:6.54562426;stroke-linecap:butt;stroke-linejoin:miter;stroke-miterlimit:4;stroke-opacity:1;stroke-dasharray:none;display:inline;enable-background:new"
       d="m 709.71062,99.148129 c 0,0 -39.93058,-122.242703 -92.59665,-144.785074 -4.27075,-1.827983 -10.13507,-0.332452 -13.67794,2.672356 -6.10314,5.17628 -6.86405,14.6387 -8.38826,22.494837 -5.24765,27.0474624 -1.42234,55.085318 -2.1773,82.626805 -0.99442,36.277003 2.43913,72.962167 -3.09862,108.827797 -0.4528,2.93259 -0.55123,4.79359 -1.64731,8.27089 -1.00217,3.17939 -5.17705,10.59619 -5.17705,10.59619"
       id="path3969"
       inkscape:connector-curvature="0"
       sodipodi:nodetypes="caaaassc" />
    <path
       style="fill:#ffd5d5;fill-opacity:1;stroke:none;display:inline;filter:url(#filter4031);enable-background:new"
       d="m 543.64255,105.4722 c 0,0 19.87294,-21.830314 31.81981,-30.304574 13.26546,-9.40957 43.43655,-22.22336 43.43655,-22.22336 0,0 -20.05889,-51.1194596 -35.86041,-73.23606 -8.5816,-12.01124 -16.74344,-33.67933 -31.31473,-31.31473 -2.22961,0.36182 -2.34113,3.9099 -3.03046,6.06092 -1.9766,6.16791 -2.46055,12.74112 -3.03045,19.19289 -1.5113,17.1092804 -1.01883,34.3418904 -1.01015,51.51778 0.008,16.33427 1.36793,32.66205 1.01015,48.9924 -0.22912,10.45743 -2.02031,31.314734 -2.02031,31.314734 z"
       id="path4021"
       inkscape:connector-curvature="0"
       sodipodi:nodetypes="cacaaaaaac"
       transform="matrix(1.3091249,0,0,1.3091249,-113.80974,28.434839)" />
    <path
       style="fill:#cccccc;stroke:none;display:inline;filter:url(#filter3815);enable-background:new"
       d="m 570.78316,-33.070584 c -3.93899,-3.2307 -13.21428,-7.67856 -13.21428,-7.67856 0,0 16.47466,3.99639 22.5,9.46428 20.68903,18.77494 28.68233,48.12863 39.82143,73.75 2.22896,5.12691 5.35714,15.89286 5.35714,15.89286 0,0 -8.11884,1.84479 -11.96428,3.39286 -3.87821,1.56127 -1.02292,1.00754 -11.07143,5.89285 -2.06402,-1.7562 -5.48897,-5.78909 -8.75,-8.03572 -4.60346,-3.17147 -9.79237,-5.46761 -15,-7.5 -6.80936,-2.6575 -21.07143,-6.07142 -21.07143,-6.07142 0,0 10.03073,-2.71782 15.17857,-3.21429 3.61467,-0.3486 7.27842,-0.17243 10.89286,0.17857 4.03258,0.39162 8.01882,1.22175 11.96428,2.14286 5.0082,1.16921 14.82143,4.28571 14.82143,4.28571 0,0 -5.11096,-4.90973 -7.85715,-7.14285 -2.90983,-2.3662 -5.83355,-4.77694 -9.10714,-6.60715 -4.21638,-2.3573 -8.85485,-3.88004 -13.39285,-5.53572 -7.56904,-2.76154 -23.03572,-7.32142 -23.03572,-7.32142 0,0 15.28718,-0.34597 22.85715,0.53572 3.14249,0.36601 6.32904,0.83852 9.28571,1.96428 4.93335,1.87839 13.75,7.85714 13.75,7.85714 0,0 -5.84223,-9.97727 -9.64285,-14.28571 -1.67433,-1.89803 -3.70756,-3.45762 -5.71429,-5 -3.4687,-2.66607 -7.04016,-5.2486396 -10.89286,-7.3214296 -6.53219,-3.5144 -20.53571,-8.57143 -20.53571,-8.57143 0,0 16.36721,1.98555001 24.10714,4.64285 3.34868,1.14969 6.54877,2.81265 9.46429,4.82144 2.77622,1.9128 7.5,6.7857096 7.5,6.7857096 0,0 -3.5826,-6.4393396 -6.07143,-9.1071396 -2.9238,-3.13405 -6.47308,-5.70302999 -10.17858,-7.85714 -8.1426,-4.73351 -26.07143,-10.8928604 -26.07143,-10.8928604 0,0 16.83545,1.10217 24.82144,3.57143 3.73857,1.1559604 10.53572,5.1785804 10.53572,5.1785804 0,0 -4.69576,-5.7887304 -7.50001,-8.2142904 -3.37136,-2.91609 -7.18539,-5.31636 -11.07143,-7.5 -4.62104,-2.59666 -14.46429,-6.60715 -14.46429,-6.60715 0,0 11.56435,-0.31149 16.78572,1.78573 4.60706,1.85047 11.78571,9.10713 11.78571,9.10713 0,0 -9.05009,-12.05215 -14.82143,-16.78572 z"
       id="path3033"
       inkscape:connector-curvature="0"
       sodipodi:nodetypes="acaacacaacaaacaaacaacaaacaacaacacaacaca"
       transform="matrix(1.3091249,0,0,1.3091249,-113.80974,28.434839)" />
    <path
       style="fill:none;stroke:#000000;stroke-width:6.54562426;stroke-linecap:butt;stroke-linejoin:miter;stroke-miterlimit:4;stroke-opacity:1;stroke-dasharray:none;enable-background:new"
       d="m 722.25019,252.34306 c 0,0 4.08761,5.62374 5.56545,8.7479 4.50917,9.53239 8.86126,23.9864 9.86351,30.05832 1.75568,10.63635 0.0583,21.68481 0.70205,34.3067 0.10067,1.97328 -0.67068,0.97521 1.44201,0.0979 5.65348,-2.34756 39.32774,-1.05467 47.08507,5.78072 4.84552,-12.61945 9.01271,-21.17337 13.92263,-31.57588 5.3014,-11.23197 9.24904,-23.38803 16.76515,-33.27589 1.15594,-1.52072 4.24113,-3.8538 4.24113,-3.8538"
       id="path3035"
       inkscape:connector-curvature="0"
       sodipodi:nodetypes="cassscaac" />
    <path
       style="fill:#f2f2f2;stroke:#000000;stroke-width:6.54562426;stroke-linecap:butt;stroke-linejoin:miter;stroke-miterlimit:4;stroke-opacity:1;stroke-dasharray:none;enable-background:new"
       d="m 701.21068,431.64642 c 6.26125,10.62078 18.19729,17.93089 29.92285,21.74083 13.63625,4.43079 29.24788,4.00874 43.01411,0 11.70586,-3.40875 24.17755,-9.4379 30.85793,-19.63687 14.86759,-22.69839 12.62371,-80.41768 12.62371,-80.41768 0,0 -104.35553,-0.89274 -126.31282,-1.78357 0.0331,17.08531 -3.76793,56.92262 9.89422,80.09729 z"
       id="path3043"
       inkscape:connector-curvature="0"
       sodipodi:nodetypes="aaaacca" />
    <path
       style="fill:#e6e6e6;stroke:#000000;stroke-width:6.54562426;stroke-linecap:butt;stroke-linejoin:miter;stroke-miterlimit:4;stroke-opacity:1;stroke-dasharray:none;enable-background:new"
       d="m 758.25112,375.77484 c 1.51707,7.66868 4.63493,15.27247 9.3509,21.50705 5.34504,7.06622 12.22758,13.85298 20.57195,16.83162 12.03573,4.29631 25.74661,2.18112 38.33867,0 13.69714,-2.37254 28.02883,-5.85368 39.27374,-14.02635 9.23004,-6.70828 17.93914,-16.0891 20.90257,-27.10785 2.3342,-8.67917 1.16886,-19.07066 -3.53294,-26.73026 -7.16434,-11.67127 -20.56112,-20.05834 -33.88204,-23.23626 -19.06037,-4.54717 -39.55569,1.96704 -58.26856,7.7811 -11.49334,3.57096 -32.19527,16.34325 -32.19527,16.34325 0,0 -2.4119,19.2715 -0.55902,28.6377 z"
       id="path3041"
       inkscape:connector-curvature="0"
       sodipodi:nodetypes="aaaaaaaaaca" />
    <path
       style="fill:#ececec;stroke:#000000;stroke-width:6.54562426;stroke-linecap:butt;stroke-linejoin:miter;stroke-miterlimit:4;stroke-opacity:1;stroke-dasharray:none;enable-background:new"
       d="m 756.43766,363.61869 c -0.9907,5.04426 -1.85252,10.17999 -3.74036,14.96142 -2.35701,5.96976 -4.77015,12.33602 -9.35089,16.8316 -8.06094,7.91108 -18.82921,13.77636 -29.92285,15.89652 -11.08943,2.11936 -23.15044,0.3765 -33.66322,-3.74035 -15.15074,-5.9331 -30.93018,-15.01883 -39.27375,-28.98777 -6.78117,-11.35315 -9.00957,-26.49388 -5.61053,-39.27374 2.01879,-7.59035 8.35438,-14.81227 14.48013,-18.58835 17.65211,-10.88126 51.99024,-9.69026 75.39895,-1.5156 14.76278,5.15538 34.03734,28.04817 34.03734,28.04817 0,0 -1.29252,10.95922 -2.35482,16.3681 z"
       id="path3039"
       inkscape:connector-curvature="0"
       sodipodi:nodetypes="aaaaaaassca" />
    <path
       style="fill:#e9afaf;stroke:#000000;stroke-width:6.54562426;stroke-linecap:butt;stroke-linejoin:miter;stroke-miterlimit:4;stroke-opacity:1;stroke-dasharray:none;enable-background:new"
       d="m 739.16201,322.24787 c -4.63833,0.55094 -1.29781,8.77693 0.27388,12.71365 1.74869,4.38006 5.09089,12.08338 9.52106,10.46588 3.65823,-1.33566 -1.69386,-8.41971 0.44404,-11.67485 0.76839,-1.16994 2.47367,-2.29656 3.78737,-1.81346 1.5238,0.56039 1.71534,2.84729 1.98362,4.44856 0.83403,4.9781 -4.21004,10.94471 -1.32242,15.08461 1.40171,2.00958 4.95683,3.12623 7.09338,1.9269 4.3626,-2.44888 1.30707,-10.32097 4.18441,-14.41366 0.80769,-1.14886 2.02243,-2.25646 3.40975,-2.47467 1.16155,-0.1827 2.78266,0.0673 3.35303,1.09552 2.04513,3.68681 -6.47248,9.84229 -3.03215,12.27934 4.67249,3.30989 10.63858,-5.07122 14.36668,-9.41735 2.50711,-2.92276 7.11563,-9.31213 4.78887,-10.51287 -5.96198,-3.07671 -36.71982,-9.14861 -48.85152,-7.7076 z"
       id="path3037"
       inkscape:connector-curvature="0"
       sodipodi:nodetypes="saaaaaaaaaaaass" />
    <path
       style="fill:#000000;stroke:#000000;stroke-width:1.15298831px;stroke-linecap:butt;stroke-linejoin:miter;stroke-opacity:1;enable-background:new"
       d="m 836.64944,228.8361 c 4.96768,-7.46064 10.20735,-15.29408 17.62962,-20.26541 6.48059,-4.34062 14.3537,-7.41151 22.1395,-7.44445 9.14151,-0.0386 18.66984,3.15006 26.06761,8.52052 6.07868,4.41286 11.51682,10.89862 13.29153,18.19754 1.51618,6.23563 -0.85765,12.9578 -2.94931,19.02467 -2.08022,6.03357 -4.97608,12.06064 -9.35043,16.70783 -4.89762,5.20309 -11.0783,9.96805 -18.0396,11.58026 -9.08828,2.10482 -18.73075,-1.04032 -27.80001,-3.22568 -4.70464,-1.13365 -8.99539,-3.59177 -13.60054,-5.07889 -4.26861,-1.37843 -8.49855,-3.40444 -12.97903,-3.55447 -4.32506,-0.14484 -4.55243,0.61446 -12.72679,2.58539 0,0 10.68972,-25.59168 18.31745,-37.04731 z"
       id="path3081"
       inkscape:connector-curvature="0"
       sodipodi:nodetypes="aaaaaaaaaaaca" />
    <path
       style="fill:#000000;stroke:#000000;stroke-width:1.1096046px;stroke-linecap:butt;stroke-linejoin:miter;stroke-opacity:1;enable-background:new"
       d="m 720.90259,230.90423 c -3.00636,-8.02621 -5.42936,-16.81278 -10.97733,-23.15704 -6.04287,-6.91022 -14.23367,-12.29915 -22.87502,-14.60822 -6.06837,-1.62156 -12.8835,-1.32519 -18.75886,0.95348 -8.05369,3.1235 -16.45499,8.53147 -20.3882,16.57301 -3.76806,7.7039 -2.60123,17.49515 -0.9431,25.98504 1.02168,5.23109 3.407,10.26394 6.53344,14.46612 3.36327,4.52044 7.75955,8.39333 12.66153,10.90256 5.25984,2.69238 11.27473,3.9708 17.12148,4.01982 11.09181,0.0931 21.5334,-6.17007 32.59191,-7.0802 4.3661,-0.35934 13.12339,0.65624 13.12339,0.65624 0,0 -4.61112,-19.42511 -8.08924,-28.71081 z"
       id="path3101"
       inkscape:connector-curvature="0"
       sodipodi:nodetypes="aaaaaaaaaaca" />
    <path
       sodipodi:type="arc"
       style="fill:#00ff00;fill-opacity:1;stroke:#000000;stroke-width:4;stroke-linecap:square;stroke-linejoin:round;stroke-miterlimit:4;stroke-opacity:1;stroke-dasharray:none;enable-background:new"
       id="path3150"
       sodipodi:cx="315.35715"
       sodipodi:cy="358.07648"
       sodipodi:rx="32.857143"
       sodipodi:ry="32.857143"
       d="m 348.21429,358.07648 a 32.857143,32.857143 0 1 1 -65.71429,0 32.857143,32.857143 0 1 1 65.71429,0 z"
       transform="matrix(1.0086441,0,0,1.0634956,364.86,-151.55063)" />
    <path
       style="fill:#000000;stroke:#000000;stroke-width:0.72923779px;stroke-linecap:butt;stroke-linejoin:miter;stroke-opacity:1;filter:url(#filter4071);enable-background:new"
       d="m 609.8801,133.89888 c 21.82199,1.62333 14.37739,40.24448 -2.86026,38.43578 -22.58689,-5.15926 -15.52092,-35.95584 2.86026,-38.43578 z"
       id="path3106-1"
       inkscape:connector-curvature="0"
       sodipodi:nodetypes="ccc"
       transform="matrix(1.3091249,0,0,1.3091249,-113.80974,28.434839)" />
    <path
       sodipodi:type="arc"
       style="fill:#00ff00;fill-opacity:1;stroke:#000000;stroke-width:4;stroke-linecap:square;stroke-linejoin:round;stroke-miterlimit:4;stroke-opacity:1;stroke-dasharray:none;enable-background:new"
       id="path3150-5"
       sodipodi:cx="315.35715"
       sodipodi:cy="358.07648"
       sodipodi:rx="31.675932"
       sodipodi:ry="33.595554"
       d="m 347.03308,358.07648 a 31.675932,33.595554 0 1 1 -63.35186,0 31.675932,33.595554 0 1 1 63.35186,0 z"
       transform="matrix(1.0715215,0,0,1.0809012,537.55445,-148.69688)" />
    <path
       style="fill:#000000;stroke:#000000;stroke-width:0.72923779px;stroke-linecap:butt;stroke-linejoin:miter;stroke-opacity:1;filter:url(#filter4067);enable-background:new"
       d="m 754.00412,140.28615 c -21.82199,1.62333 -19.27277,39.06845 -2.03512,38.68833 22.58689,-5.15926 20.4163,-36.20839 2.03512,-38.68833 z"
       id="path3106-1-8"
       inkscape:connector-curvature="0"
       sodipodi:nodetypes="ccc"
       transform="matrix(1.3091249,0,0,1.3091249,-113.80974,28.434839)" />
    <path
       style="fill:none;stroke:#000000;stroke-width:1.30912495px;stroke-linecap:butt;stroke-linejoin:miter;stroke-opacity:1;enable-background:new"
       d="m 853.63022,341.17654 c 0,0 69.252,9.307 102.64013,19.12729 32.0555,9.42833 92.79355,37.91316 92.79355,37.91316"
       id="path3046"
       inkscape:connector-curvature="0"
       sodipodi:nodetypes="cac" />
    <path
       style="fill:none;stroke:#000000;stroke-width:1.30912495px;stroke-linecap:butt;stroke-linejoin:miter;stroke-opacity:1;enable-background:new"
       d="m 836.79861,355.20289 c 0,0 68.79496,10.12512 101.7576,20.6854 44.80621,14.35462 128.90809,57.49421 128.90809,57.49421"
       id="path3048"
       inkscape:connector-curvature="0"
       sodipodi:nodetypes="cac" />
    <path
       style="fill:none;stroke:#000000;stroke-width:1.30912495px;stroke-linecap:butt;stroke-linejoin:miter;stroke-opacity:1;enable-background:new"
       d="m 838.66879,371.09939 c 0,0 70.20201,12.57337 102.85982,26.18251 38.58592,16.07949 107.53529,64.52114 107.53529,64.52114"
       id="path3050"
       inkscape:connector-curvature="0"
       sodipodi:nodetypes="cac" />
    <path
       style="fill:none;stroke:#000000;stroke-width:1.30912495px;stroke-linecap:butt;stroke-linejoin:miter;stroke-opacity:1;enable-background:new"
       d="m 827.44772,365.48886 c 0,0 73.73023,8.41842 108.49374,20.50536 36.21665,12.5922 101.90134,53.36669 101.90134,53.36669"
       id="path3052"
       inkscape:connector-curvature="0"
       sodipodi:nodetypes="cac" />
    <path
       style="fill:none;stroke:#000000;stroke-width:1.30912495px;stroke-linecap:butt;stroke-linejoin:miter;stroke-opacity:1;enable-background:new"
       d="m 833.99336,379.51521 c 0,0 76.78992,13.56824 112.21069,28.98775 40.35323,17.56673 111.27565,71.06679 111.27565,71.06679"
       id="path3054"
       inkscape:connector-curvature="0"
       sodipodi:nodetypes="cac" />
    <path
       style="fill:none;stroke:#000000;stroke-width:1.30912495px;stroke-linecap:butt;stroke-linejoin:miter;stroke-opacity:1;enable-background:new"
       d="m 847.08459,348.65726 c 0,0 51.77322,6.61599 76.67732,14.02633 42.44582,12.62998 122.49669,51.42992 122.49669,51.42992"
       id="path3056"
       inkscape:connector-curvature="0"
       sodipodi:nodetypes="cac" />
    <path
       style="fill:none;stroke:#000000;stroke-width:1.30912495px;stroke-linecap:butt;stroke-linejoin:miter;stroke-opacity:1;enable-background:new"
       d="m 676.89836,336.50109 c 0,0 -84.46307,-0.80022 -126.27596,4.24114 -29.39032,3.54357 -86.92438,18.201 -86.92438,18.201"
       id="path3058"
       inkscape:connector-curvature="0"
       sodipodi:nodetypes="cac" />
    <path
       style="fill:none;stroke:#000000;stroke-width:1.30912495px;stroke-linecap:butt;stroke-linejoin:miter;stroke-opacity:1;enable-background:new"
       d="m 678.76855,347.72218 c 0,0 -74.814,5.35224 -111.01148,14.41365 -37.26566,9.32881 -107.7994,40.75659 -107.7994,40.75659"
       id="path3060"
       inkscape:connector-curvature="0"
       sodipodi:nodetypes="cac" />
    <path
       style="fill:none;stroke:#000000;stroke-width:1.30912495px;stroke-linecap:butt;stroke-linejoin:miter;stroke-opacity:1;enable-background:new"
       d="m 701.21068,367.35904 c -4.79503,0 -63.61206,2.34744 -94.683,8.58262 -26.66241,5.3505 -58.35851,16.5631 -77.79968,24.5523 -24.12916,9.91568 -65.02998,43.5424 -65.02998,43.5424"
       id="path3062"
       inkscape:connector-curvature="0"
       sodipodi:nodetypes="casc" />
    <path
       style="fill:none;stroke:#000000;stroke-width:1.30912495px;stroke-linecap:butt;stroke-linejoin:miter;stroke-opacity:1;enable-background:new"
       d="m 684.37906,362.68359 c 0,0 -82.57846,3.92804 -122.0721,14.91444 -38.97541,10.84225 -110.76509,49.60671 -110.76509,49.60671"
       id="path3064"
       inkscape:connector-curvature="0"
       sodipodi:nodetypes="cac" />
    <path
       style="fill:none;stroke:#000000;stroke-width:1.30912495px;stroke-linecap:butt;stroke-linejoin:miter;stroke-opacity:1;enable-background:new"
       d="m 659.13167,342.11162 c -21.50706,-0.93508 -74.02474,4.2976 -110.34053,11.22109 -29.27201,5.58061 -86.02821,24.31231 -86.02821,24.31231"
       id="path3066"
       inkscape:connector-curvature="0"
       sodipodi:nodetypes="cac" />
    <path
       style="fill:none;stroke:#000000;stroke-width:1.30912495px;stroke-linecap:butt;stroke-linejoin:miter;stroke-opacity:1;enable-background:new"
       d="m 694.66505,356.13797 c 0,0 -93.5119,4.53142 -138.32674,16.72789 -35.45722,9.64977 -101.05609,44.0529 -101.05609,44.0529"
       id="path3068"
       inkscape:connector-curvature="0"
       sodipodi:nodetypes="cac" />
    <path
       style="fill:none;stroke:#000000;stroke-width:1.30912495px;stroke-linecap:butt;stroke-linejoin:miter;stroke-opacity:1;enable-background:new"
       d="m 692.97478,176.77101 c 0,0 -4.98022,-100.125243 -11.40098,-149.784448 -5.32302,-41.169124 -22.44213,-122.496675 -22.44213,-122.496675"
       id="path3070"
       inkscape:connector-curvature="0"
       sodipodi:nodetypes="cac" />
    <path
       style="fill:none;stroke:#000000;stroke-width:1.30912495px;stroke-linecap:butt;stroke-linejoin:miter;stroke-opacity:1;enable-background:new"
       d="m 702.83617,187.73767 c 0,0 -5.4773,-108.02914 -11.91148,-161.686189 -4.96617,-41.414769 -20.57196,-123.431784 -20.57196,-123.431784"
       id="path3072"
       inkscape:connector-curvature="0"
       sodipodi:nodetypes="cac" />
    <path
       style="fill:none;stroke:#000000;stroke-width:1.30912495px;stroke-linecap:butt;stroke-linejoin:miter;stroke-opacity:1;enable-background:new"
       d="m 878.03649,196.53106 c 7.87203,-63.94246 7.73219,-105.972778 11.51442,-158.965184 2.84736,-39.8941554 8.41581,-119.691404 8.41581,-119.691404"
       id="path3074"
       inkscape:connector-curvature="0"
       sodipodi:nodetypes="cac" />
    <path
       style="fill:none;stroke:#000000;stroke-width:1.30912495px;stroke-linecap:butt;stroke-linejoin:miter;stroke-opacity:1;enable-background:new"
       d="M 685.21045,181.01213 C 684.11492,160.10957 679.52518,92.389381 673.158,48.493612 666.76979,4.4528174 657.11583,-42.901345 646.97551,-82.418877"
       id="path3076"
       inkscape:connector-curvature="0"
       sodipodi:nodetypes="cac" />
    <path
       style="fill:none;stroke:#000000;stroke-width:1.30912495px;stroke-linecap:butt;stroke-linejoin:miter;stroke-opacity:1;enable-background:new"
       d="m 896.41742,194.98176 c 0,-8.4158 11.94517,-86.44613 18.70179,-129.551149 7.59344,-48.443616 24.53921,-145.044217 24.53921,-145.044217"
       id="path3078"
       inkscape:connector-curvature="0"
       sodipodi:nodetypes="cac" />
    <path
       style="fill:none;stroke:#000000;stroke-width:1.30912495px;stroke-linecap:butt;stroke-linejoin:miter;stroke-opacity:1;enable-background:new"
       d="m 886.1259,196.0789 c 7.87203,-63.94246 11.17621,-90.99268 16.80409,-136.484119 5.86328,-47.394248 17.67271,-142.172468 17.67271,-142.172468"
       id="path3074-8"
       inkscape:connector-curvature="0"
       sodipodi:nodetypes="cac" />
  </g>
  <g
     inkscape:groupmode="layer"
     id="layer11"
     inkscape:label="By Wohlstand_shadow"
     transform="translate(41.082927,217.53583)">
    <text
       xml:space="preserve"
       style="font-size:12px;font-style:oblique;font-variant:normal;font-weight:normal;font-stretch:normal;line-height:125%;letter-spacing:0px;word-spacing:0px;opacity:0.75;fill:#008000;fill-opacity:1;stroke:none;display:inline;filter:url(#filter4936);enable-background:new;font-family:Monotype Corsiva;-inkscape-font-specification:Monotype Corsiva Oblique"
       x="702.73395"
       y="326.74039"
       id="text4856-6"
       sodipodi:linespacing="125%"
       transform="matrix(1.3091249,0,0,1.3091249,-70.907624,61.468599)"><tspan
         sodipodi:role="line"
         id="tspan4858-9"
         x="702.73395"
         y="326.74039"
         style="font-size:20px;fill:#000000">By Wohlstand</tspan></text>
  </g>
  <g
     inkscape:groupmode="layer"
     id="layer10"
     inkscape:label="by Wohlstand"
     transform="translate(41.082927,217.53583)" />
  <g
     inkscape:groupmode="layer"
     id="layer9"
     inkscape:label="Text_shadow"
     style="display:inline"
     transform="translate(41.082927,217.53583)">
    <flowRoot
       xml:space="preserve"
       id="flowRoot4490-9"
       style="font-size:12px;font-style:oblique;font-variant:normal;font-weight:normal;font-stretch:normal;line-height:125%;letter-spacing:0px;word-spacing:0px;opacity:0.56999966;fill:#000000;fill-opacity:1;stroke:none;filter:url(#filter4817-3);enable-background:new;font-family:Monotype Corsiva;-inkscape-font-specification:Monotype Corsiva Oblique"
       transform="matrix(1.3091249,0,0,1.3091249,312.6141,-197.7575)"><flowRegion
         id="flowRegion4492-0"><rect
           id="rect4494-8"
           width="644.47736"
           height="90.913788"
           x="-41.416252"
           y="441.61276" /></flowRegion><flowPara
         style="font-size:64px;opacity:0.70800003;fill:#666666"
         id="flowPara4498-4">Platformer Game Engine</flowPara></flowRoot>    <text
       xml:space="preserve"
       style="font-size:15.70949841px;font-style:oblique;font-variant:normal;font-weight:normal;font-stretch:normal;line-height:125%;letter-spacing:0px;word-spacing:0px;fill:#008000;fill-opacity:1;stroke:none;font-family:Monotype Corsiva;-inkscape-font-specification:Monotype Corsiva Oblique"
       x="848.67163"
       y="488.3577"
       id="text4856"
       sodipodi:linespacing="125%"><tspan
         sodipodi:role="line"
         id="tspan4858"
         x="848.67163"
         y="488.3577"
         style="font-size:26.18249702px;fill:#008000">By Wohlstand</tspan></text>
  </g>
  <g
     inkscape:groupmode="layer"
     id="layer8"
     inkscape:label="Text"
     transform="translate(41.082927,217.53583)">
    <flowRoot
       xml:space="preserve"
       id="flowRoot4490"
       style="font-size:12px;font-style:oblique;font-variant:normal;font-weight:normal;font-stretch:normal;line-height:125%;letter-spacing:0px;word-spacing:0px;fill:#000000;fill-opacity:1;stroke:#000000;stroke-opacity:1;font-family:Monotype Corsiva;-inkscape-font-specification:Monotype Corsiva Oblique"
       transform="matrix(1.3091249,0,0,1.3091249,310.83567,-202.64142)"><flowRegion
         id="flowRegion4492"><rect
           id="rect4494"
           width="644.47736"
           height="90.913788"
           x="-41.416252"
           y="441.61276"
           style="stroke:#000000;stroke-opacity:1" /></flowRegion><flowPara
         style="font-size:64px;font-style:oblique;font-weight:normal;stroke:#000000;stroke-opacity:1;-inkscape-font-specification:Monotype Corsiva Oblique"
         id="flowPara4498"><flowSpan
           style="font-style:oblique;font-weight:normal;fill:#000080;stroke:#000000;stroke-opacity:1;-inkscape-font-specification:Monotype Corsiva Oblique"
           id="flowSpan4502">P</flowSpan><flowSpan
           style="font-style:oblique;font-weight:normal;fill:#00ff00;stroke:#000000;stroke-opacity:1;-inkscape-font-specification:Monotype Corsiva Oblique"
           id="flowSpan4504">l</flowSpan><flowSpan
           style="font-style:oblique;font-weight:normal;fill:#800000;stroke:#000000;stroke-opacity:1;-inkscape-font-specification:Monotype Corsiva Oblique"
           id="flowSpan4506">a</flowSpan><flowSpan
           style="font-style:oblique;font-weight:normal;fill:#000080;stroke:#000000;stroke-opacity:1;-inkscape-font-specification:Monotype Corsiva Oblique"
           id="flowSpan4508">t</flowSpan><flowSpan
           style="font-style:oblique;font-weight:normal;fill:#800080;stroke:#000000;stroke-opacity:1;-inkscape-font-specification:Monotype Corsiva Oblique"
           id="flowSpan4510">f</flowSpan><flowSpan
           style="font-style:oblique;font-weight:normal;fill:#d40000;stroke:#000000;stroke-opacity:1;-inkscape-font-specification:Monotype Corsiva Oblique"
           id="flowSpan4512">o</flowSpan><flowSpan
           style="font-style:oblique;font-weight:normal;fill:#ff2a2a;stroke:#000000;stroke-opacity:1;-inkscape-font-specification:Monotype Corsiva Oblique"
           id="flowSpan4514">r</flowSpan><flowSpan
           style="font-style:oblique;font-weight:normal;fill:#ffb380;stroke:#000000;stroke-opacity:1;-inkscape-font-specification:Monotype Corsiva Oblique"
           id="flowSpan4516">m</flowSpan><flowSpan
           style="font-style:oblique;font-weight:normal;fill:#00aa44;stroke:#000000;stroke-opacity:1;-inkscape-font-specification:Monotype Corsiva Oblique"
           id="flowSpan4518">e</flowSpan><flowSpan
           style="font-style:oblique;font-weight:normal;fill:#00aad4;stroke:#000000;stroke-opacity:1;-inkscape-font-specification:Monotype Corsiva Oblique"
           id="flowSpan4520">r</flowSpan><flowSpan
           style="font-style:oblique;font-weight:normal;fill:#00ff00;stroke:#000000;stroke-opacity:1;-inkscape-font-specification:Monotype Corsiva Oblique"
           id="flowSpan4522"> G</flowSpan><flowSpan
           id="flowSpan4548"
           style="font-style:oblique;font-weight:normal;fill:#ff00ff;stroke:#000000;stroke-opacity:1;-inkscape-font-specification:Monotype Corsiva Oblique">a</flowSpan><flowSpan
           style="font-style:oblique;font-weight:normal;fill:#c87137;stroke:#000000;stroke-opacity:1;-inkscape-font-specification:Monotype Corsiva Oblique"
           id="flowSpan4530">m</flowSpan><flowSpan
           style="font-style:oblique;font-weight:normal;fill:#ffd42a;stroke:#000000;stroke-opacity:1;-inkscape-font-specification:Monotype Corsiva Oblique"
           id="flowSpan4532">e</flowSpan><flowSpan
           style="font-style:oblique;font-weight:normal;fill:#ff0000;stroke:#000000;stroke-opacity:1;-inkscape-font-specification:Monotype Corsiva Oblique"
           id="flowSpan4534"> E</flowSpan><flowSpan
           style="font-style:oblique;font-weight:normal;fill:#808000;stroke:#000000;stroke-opacity:1;-inkscape-font-specification:Monotype Corsiva Oblique"
           id="flowSpan4550">n</flowSpan><flowSpan
           style="font-style:oblique;font-weight:normal;fill:#d45500;stroke:#000000;stroke-opacity:1;-inkscape-font-specification:Monotype Corsiva Oblique"
           id="flowSpan4556">g</flowSpan><flowSpan
           style="font-style:oblique;font-weight:normal;fill:#66ff00;stroke:#000000;stroke-opacity:1;-inkscape-font-specification:Monotype Corsiva Oblique"
           id="flowSpan4558">i</flowSpan><flowSpan
           style="font-style:oblique;font-weight:normal;fill:#216778;stroke:#000000;stroke-opacity:1;-inkscape-font-specification:Monotype Corsiva Oblique"
           id="flowSpan4562">n</flowSpan><flowSpan
           style="font-style:oblique;font-weight:normal;fill:#ab37c8;stroke:#000000;stroke-opacity:1;-inkscape-font-specification:Monotype Corsiva Oblique"
           id="flowSpan4564">e</flowSpan></flowPara></flowRoot>    <flowRoot
       xml:space="preserve"
       id="flowRoot4653"
       style="font-size:12px;font-style:oblique;font-variant:normal;font-weight:normal;font-stretch:normal;line-height:125%;letter-spacing:0px;word-spacing:0px;fill:#000000;fill-opacity:1;stroke:none;font-family:Monotype Corsiva;-inkscape-font-specification:Monotype Corsiva Oblique"><flowRegion
         id="flowRegion4655"><rect
           id="rect4657"
           width="191.92899"
           height="12.121831"
           x="354.56354"
           y="488.07977" /></flowRegion><flowPara
         id="flowPara4659" /></flowRoot>  </g>
</svg>
